<svg width="31" height="30" viewBox="0 0 31 30" fill="none" xmlns="http://www.w3.org/2000/svg">
<path d="M22.9544 13.9543C22.9544 12.7566 22.6684 11.6304 22.1679 10.6293L22.0249 10.7723C21.8461 10.9511 21.6137 11.0762 21.3635 11.1299C21.7746 11.9879 22.007 12.9532 22.007 13.9543C22.007 17.5473 19.0753 20.479 15.4823 20.479C11.8892 20.479 8.97545 17.5473 8.97545 13.9543C8.97545 10.3612 11.9071 7.42955 15.5002 7.42955C16.8945 7.42955 18.1815 7.87645 19.2362 8.60936V9.55678L18.7178 10.0752C17.8419 9.34227 16.7157 8.91325 15.5002 8.91325C12.7115 8.91325 10.4413 11.1835 10.4413 13.9721C10.4413 16.7608 12.7115 19.0131 15.5002 19.0131C18.2888 19.0131 20.559 16.7429 20.559 13.9543C20.559 13.0605 20.3267 12.2382 19.9334 11.5053L19.2362 12.2024C19.4865 12.7387 19.6295 13.3286 19.6295 13.9543C19.6295 16.2245 17.7883 18.0657 15.518 18.0657C13.2478 18.0657 11.4066 16.2245 11.4066 13.9543C11.4066 11.684 13.2478 9.8428 15.518 9.8428C16.4833 9.8428 17.3771 10.1824 18.0743 10.7366L17.0196 11.7913C16.5906 11.4874 16.0722 11.3086 15.518 11.3086C14.0522 11.3086 12.8724 12.4884 12.8724 13.9543C12.8545 15.4201 14.0343 16.5999 15.5002 16.5999C16.966 16.5999 18.1458 15.4201 18.1458 13.9543C18.1458 13.7576 18.1279 13.5431 18.0743 13.3644L17.1805 14.2403C17.0375 15.0447 16.3403 15.6703 15.4823 15.6703C14.5349 15.6703 13.7662 14.9017 13.7662 13.9543C13.7662 13.0068 14.5349 12.2382 15.4823 12.2382C15.7862 12.2382 16.0722 12.3275 16.3224 12.4527L15.1605 13.6146C14.9818 13.7934 14.9818 14.0973 15.1605 14.276C15.2499 14.3654 15.375 14.419 15.4823 14.419C15.5895 14.419 15.7147 14.3654 15.804 14.276L19.8798 10.2003H21.1132C21.2026 10.2003 21.292 10.1646 21.3635 10.0931L22.7757 8.68086C22.8829 8.57361 22.9008 8.4306 22.8472 8.30547C22.7935 8.18034 22.6684 8.09096 22.5254 8.09096H21.3456V6.91115C21.3456 6.76814 21.2562 6.64301 21.1311 6.58938C21.0059 6.53575 20.8451 6.5715 20.7557 6.66088L19.6474 7.76919C18.4676 6.96477 17.0375 6.5 15.5002 6.5C11.3887 6.5 8.0459 9.8428 8.0459 13.9543C8.0459 16.725 9.58323 19.1562 11.8356 20.4432L10.6737 22.8207C10.5664 23.0531 10.6558 23.3391 10.8882 23.4464C10.9597 23.4821 11.0312 23.5 11.0848 23.5C11.2636 23.5 11.4244 23.4106 11.496 23.2319L12.64 20.8544C13.5159 21.2119 14.4634 21.4264 15.4823 21.4264C16.4833 21.4264 17.4486 21.2298 18.3067 20.8722L19.4865 23.214C19.5759 23.3749 19.7367 23.4821 19.8976 23.4821C19.9691 23.4821 20.0406 23.4642 20.0943 23.4285C20.3267 23.3212 20.416 23.0352 20.3088 22.8028L19.1647 20.4253C21.435 19.1562 22.9544 16.725 22.9544 13.9543Z" fill="#006F7B"/>
</svg>
