<svg width="23" height="22" viewBox="0 0 23 22" fill="none" xmlns="http://www.w3.org/2000/svg">
<path d="M15.6477 17.0374L14.8545 18.6006L15.3389 18.8467L16.069 17.407L19.1607 16.9217C19.2319 16.9104 19.2958 16.8713 19.3383 16.813C19.3806 16.7547 19.3981 16.6818 19.3868 16.6106L18.8951 13.5204L19.4765 12.9399L19.0927 12.5552L18.4136 13.2343H18.4135C18.3517 13.2959 18.3234 13.3832 18.3371 13.4693L18.8076 16.4272L15.8467 16.8921C15.7609 16.9059 15.6871 16.96 15.6478 17.0373L15.6477 17.0374Z" fill="#006F7B"/>
<path d="M4.42681 7.27166L4.19288 5.80782L7.15383 5.34297C7.23993 5.32939 7.31427 5.27543 7.3538 5.19769L8.28382 3.36276L7.79924 3.1167L6.92997 4.82807L3.83975 5.3134C3.76856 5.32468 3.70465 5.36373 3.66221 5.42206C3.61989 5.48039 3.60242 5.55328 3.6137 5.62446L3.88911 7.35707L4.42681 7.27166Z" fill="#006F7B"/>
<path d="M3.97656 7.9008L4.51306 7.81543L4.59952 8.35872L4.06303 8.4441L3.97656 7.9008Z" fill="#006F7B"/>
<path d="M17.7345 9.09224L18.142 6.52954C18.1532 6.45836 18.1358 6.38548 18.0933 6.32714C18.0509 6.26869 17.987 6.22964 17.9157 6.21849L15.3519 5.81561L14.1775 3.5009C14.145 3.43651 14.0881 3.38764 14.0195 3.36508C13.9507 3.34313 13.876 3.34907 13.8116 3.3817L11.5005 4.56468L9.1893 3.38191C9.12503 3.34905 9.05032 3.34311 8.98169 3.36554C8.91305 3.38785 8.85605 3.43661 8.82343 3.50088L7.64904 5.81534L5.08501 6.21821C5.0137 6.22949 4.94992 6.26854 4.90747 6.32687C4.86515 6.3852 4.84768 6.45809 4.85896 6.52927L5.26643 9.09197L3.43038 10.9256C3.37933 10.9765 3.35059 11.0457 3.35059 11.1179C3.35059 11.1901 3.37933 11.2593 3.43038 11.3102L5.26618 13.1436L4.85871 15.7063C4.84744 15.7775 4.8649 15.8504 4.90734 15.9087C4.94979 15.9672 5.0137 16.0062 5.08501 16.0174L7.64879 16.4202L8.82342 18.735C8.85592 18.7993 8.9128 18.8482 8.98143 18.8708C9.0086 18.8794 9.03698 18.8838 9.06547 18.8838C9.10852 18.8838 9.15085 18.8736 9.18929 18.8542L11.5005 17.6712L13.8116 18.8539C13.8759 18.8868 13.9506 18.8928 14.0192 18.8703C14.0879 18.848 14.1449 18.7993 14.1775 18.735L15.3519 16.4205L17.9159 16.0176C17.9872 16.0064 18.051 15.9673 18.0935 15.909C18.1358 15.8507 18.1532 15.7778 18.142 15.7066L17.7345 13.1439L19.5705 11.3103C19.6216 11.2594 19.6503 11.1901 19.6503 11.118C19.6503 11.0458 19.6216 10.9766 19.5705 10.9256L17.7345 9.09224ZM17.2523 12.8565C17.1906 12.9181 17.1622 13.0054 17.1759 13.0915L17.5625 15.5223L15.1302 15.9045V15.9044C15.0441 15.918 14.9698 15.9719 14.9302 16.0497L13.8165 18.2451L11.6243 17.1233C11.5465 17.0834 11.4544 17.0834 11.3766 17.1233L9.18444 18.2451L8.07069 16.0497C8.03115 15.9719 7.95669 15.9178 7.87047 15.9044L5.43813 15.523L5.82499 13.0922C5.83869 13.0062 5.81031 12.9188 5.74859 12.8573L4.00713 11.1179L5.74871 9.37941H5.74859C5.81032 9.3178 5.83869 9.23049 5.82499 9.14439L5.43838 6.71292L7.87072 6.33069C7.95682 6.31723 8.03116 6.26314 8.0707 6.18541L9.18444 3.98991L11.3766 5.1118V5.11192C11.4544 5.15169 11.5465 5.15169 11.6243 5.11192L13.8165 3.99004L14.9302 6.18553V6.18541C14.9698 6.26314 15.0442 6.31723 15.1305 6.33069L17.5628 6.71292L17.1759 9.14367C17.1622 9.22965 17.1906 9.31709 17.2523 9.37858L18.9938 11.118L17.2523 12.8565Z" fill="#006F7B"/>
<path d="M7.96973 12.2041H8.51302V12.7474H7.96973V12.2041Z" fill="#006F7B"/>
<path d="M15.0322 8.94449H12.5874V7.58626C12.5869 7.2262 12.4437 6.88094 12.1891 6.62628C11.9345 6.37173 11.5892 6.22852 11.2292 6.22803C11.1046 6.22803 10.9959 6.3128 10.9656 6.4337L10.3055 9.07619C10.2762 9.19382 10.2083 9.29823 10.1126 9.37281C10.017 9.44739 9.89929 9.4879 9.77803 9.48778H9.59928V9.21613C9.59928 9.1441 9.57066 9.07497 9.51972 9.02404C9.46879 8.97311 9.39966 8.94449 9.32763 8.94449H7.15446C7.00445 8.94449 6.88281 9.06612 6.88281 9.21613V13.5625C6.88281 13.6345 6.91143 13.7036 6.96237 13.7546C7.0133 13.8055 7.08242 13.8341 7.15446 13.8341H9.32763C9.39966 13.8341 9.46879 13.8055 9.51972 13.7546C9.57066 13.7036 9.59928 13.6345 9.59928 13.5625V13.2908H10.3509C11.0882 13.6474 11.8965 13.8332 12.7156 13.8341H13.9456C14.1617 13.8341 14.3691 13.7483 14.5219 13.5955C14.6747 13.4427 14.7605 13.2353 14.7605 13.0192C14.7597 12.8788 14.7223 12.7411 14.6519 12.6196C14.8135 12.519 14.9344 12.3643 14.9931 12.1831C15.0518 12.002 15.0446 11.8058 14.9726 11.6294C15.2164 11.5665 15.4166 11.3929 15.5136 11.1607C15.6107 10.9283 15.5933 10.6641 15.4668 10.4464C15.6675 10.3203 15.8032 10.1128 15.8384 9.87837C15.8736 9.64384 15.8047 9.40577 15.6497 9.2263C15.4948 9.04682 15.2693 8.94386 15.0322 8.94447L15.0322 8.94449ZM9.05598 13.2908H7.4261V9.48778H9.05598V13.2908ZM14.7606 11.1177H13.4023V11.661H14.2173C14.3673 11.661 14.4889 11.7826 14.4889 11.9326C14.4889 12.0826 14.3673 12.2042 14.2173 12.2042H13.1307V12.7475H13.9456C14.0956 12.7475 14.2173 12.8692 14.2173 13.0192C14.2173 13.1692 14.0956 13.2908 13.9456 13.2908H12.7156C11.9588 13.2896 11.2127 13.1129 10.5356 12.7747C10.4978 12.7564 10.4563 12.7471 10.4142 12.7475H9.59927V10.0311H9.77802C10.0203 10.0311 10.2557 9.95007 10.4468 9.8009C10.6378 9.65186 10.7735 9.44317 10.8322 9.208L11.4348 6.79848C11.6091 6.84396 11.7636 6.94595 11.8738 7.08844C11.9841 7.23105 12.044 7.40603 12.0441 7.58625V9.21613C12.0441 9.28816 12.0727 9.35729 12.1236 9.40822C12.1746 9.45915 12.2437 9.48777 12.3157 9.48777H15.0322C15.1822 9.48777 15.3038 9.60941 15.3038 9.75942C15.3038 9.90943 15.1822 10.0311 15.0322 10.0311H13.674V10.5744H14.7606C14.9106 10.5744 15.0322 10.696 15.0322 10.846C15.0322 10.996 14.9106 11.1177 14.7606 11.1177V11.1177Z" fill="#006F7B"/>
<path d="M10.4141 14.6489H12.5872V15.1922H10.4141V14.6489Z" fill="#006F7B"/>
<path d="M9.59863 15.7358H13.4017V16.2791H9.59863V15.7358Z" fill="#006F7B"/>
</svg>
