<svg width="14" height="16" viewBox="0 0 14 16" fill="none" xmlns="http://www.w3.org/2000/svg">
<path d="M0.416853 9.54793H1.21712L1.06879 10.5027C1.0534 10.5955 1.0812 10.6882 1.14599 10.7561L1.43335 11.0744L1.2016 11.3215C1.13668 11.3926 1.10577 11.4883 1.12129 11.5811C1.13668 11.6738 1.19539 11.7572 1.27894 11.8035C1.40567 11.8746 1.77336 12.1311 1.77336 12.3906C1.77336 12.4709 1.76095 12.573 1.74866 12.6842C1.69926 13.1415 1.63123 13.7657 2.01132 14.1458C2.22768 14.3622 2.54286 14.4517 2.94763 14.4116C3.40802 14.3653 4.19911 14.1365 5.28983 13.7348L6.19214 15.5517C6.24464 15.6629 6.35289 15.7248 6.46721 15.7248C6.51351 15.7248 6.55994 15.7154 6.60313 15.6938C6.75457 15.6166 6.8195 15.4312 6.74216 15.2797L5.86766 13.5185C5.97578 13.4751 6.08403 13.4351 6.19835 13.3917C6.356 13.3299 6.43631 13.1507 6.37449 12.99C6.31267 12.8324 6.13343 12.7521 5.9728 12.8139C4.46797 13.4041 3.39884 13.744 2.88283 13.7965C2.67268 13.8181 2.52746 13.7903 2.44714 13.71C2.27721 13.537 2.32661 13.0641 2.36062 12.749C2.37601 12.61 2.38843 12.4863 2.38843 12.3874C2.38843 11.9857 2.12266 11.6768 1.894 11.482L2.07635 11.2874C2.18757 11.1699 2.18757 10.9876 2.07945 10.8672L1.69938 10.447L1.87863 9.28204C1.89104 9.19242 1.86621 9.1028 1.8075 9.03491C1.74879 8.96688 1.66227 8.92679 1.57264 8.92679H1.03803L2.08865 7.55479C2.30799 7.27054 2.38222 6.89046 2.2895 6.54436L2.10404 5.85222C2.08865 5.79661 2.08245 5.741 2.08245 5.69159C2.15655 3.04649 4.59148 0.892697 7.51171 0.892697C10.5029 0.892697 12.9377 3.10208 12.9377 5.81508C12.9377 7.44356 12.2918 9.07499 11.7511 10.1564C11.2783 11.0988 11.2104 12.2082 11.5687 13.2001L12.403 15.5207C12.4493 15.6475 12.5667 15.7247 12.6935 15.7247C12.7275 15.7247 12.7646 15.7185 12.7985 15.7062C12.9591 15.6475 13.0427 15.4713 12.9839 15.3107L12.1497 12.9901C11.8499 12.159 11.9055 11.2257 12.3042 10.4315C12.8758 9.2913 13.5588 7.56403 13.5588 5.81507C13.5556 2.75911 10.8456 0.274902 7.51144 0.274902C4.25763 0.274902 1.54783 2.70054 1.47069 5.67933C1.46759 5.79055 1.48311 5.90177 1.51091 6.0161L1.69637 6.70824C1.73969 6.87196 1.70568 7.04812 1.60054 7.18416L0.169673 9.05058C0.0985452 9.14331 0.086259 9.26991 0.138764 9.37506C0.191269 9.48007 0.299388 9.54809 0.416812 9.54809L0.416853 9.54793Z" fill="#006F7B"/>
<path d="M7.48086 7.9163C8.46967 7.9163 9.27616 7.10984 9.27616 6.12099C9.27616 5.13218 8.4697 4.32568 7.48086 4.32568C6.49204 4.32568 5.68555 5.13214 5.68555 6.12099C5.68555 7.10981 6.49201 7.9163 7.48086 7.9163ZM7.48086 4.94363C8.12982 4.94363 8.65812 5.47206 8.65812 6.12089C8.65812 6.76986 8.12969 7.29815 7.48086 7.29815C6.83189 7.29815 6.30359 6.76973 6.30359 6.12089C6.30346 5.47206 6.83189 4.94363 7.48086 4.94363Z" fill="#006F7B"/>
<path d="M5.15713 9.32811C5.17252 9.40842 5.22205 9.48265 5.29306 9.52585C5.70094 9.78851 6.14895 9.97396 6.61864 10.0759C6.69895 10.0944 6.78547 10.079 6.8566 10.0325C6.92772 9.98624 6.97402 9.91511 6.98941 9.8317C7.01411 9.69888 7.20875 9.55365 7.48072 9.55365C7.7527 9.55365 7.94734 9.69888 7.97515 9.8317C7.99054 9.91511 8.03697 9.98624 8.10796 10.0325C8.16047 10.0665 8.21919 10.085 8.2779 10.085C8.2995 10.085 8.32122 10.0819 8.34282 10.0788C8.81254 9.97693 9.25741 9.79147 9.6684 9.52882C9.73953 9.48253 9.78893 9.41139 9.80432 9.33108C9.81971 9.25077 9.80432 9.16425 9.75803 9.09623C9.68082 8.98501 9.71781 8.74393 9.90946 8.54929C10.101 8.35776 10.342 8.32065 10.4564 8.39786C10.5244 8.44415 10.6109 8.46278 10.6913 8.44415C10.7716 8.42876 10.8458 8.37923 10.889 8.30823C11.1517 7.90035 11.3371 7.45234 11.439 6.98265C11.4575 6.90234 11.4421 6.81582 11.3957 6.74469C11.3494 6.67356 11.2783 6.62726 11.1948 6.61187C11.062 6.58717 10.9168 6.39254 10.9168 6.11745C10.9168 5.84236 11.062 5.65084 11.1948 5.62303C11.2783 5.60764 11.3494 5.56121 11.3957 5.49021C11.442 5.41908 11.4575 5.33567 11.439 5.25225C11.3371 4.78253 11.1516 4.33766 10.889 3.92667C10.8427 3.85554 10.7716 3.80614 10.6913 3.79075C10.6109 3.77225 10.5244 3.79075 10.4564 3.83704C10.3452 3.91425 10.1041 3.87726 9.90946 3.68561C9.71793 3.49407 9.68082 3.25303 9.75803 3.13867C9.80432 3.07065 9.82294 2.98413 9.80432 2.90382C9.78893 2.82351 9.7394 2.74927 9.6684 2.70608C9.26052 2.44342 8.81251 2.25797 8.34282 2.15607C8.26251 2.13757 8.17599 2.15296 8.10486 2.19939C8.03373 2.24569 7.98743 2.31682 7.97204 2.40023C7.94734 2.53305 7.75271 2.67828 7.47762 2.67828C7.20253 2.67828 7.01101 2.53305 6.98631 2.40023C6.97092 2.31682 6.92449 2.24569 6.85349 2.19939C6.78236 2.15309 6.69895 2.13757 6.61553 2.15607C6.14581 2.25797 5.69783 2.44343 5.28995 2.70608C5.21882 2.75238 5.16942 2.82351 5.15403 2.90382C5.13864 2.98413 5.15403 3.07065 5.20033 3.13867C5.27753 3.24989 5.24055 3.49097 5.04889 3.68561C4.85736 3.87714 4.61631 3.91425 4.50195 3.83704C4.43393 3.79075 4.34741 3.77213 4.2671 3.79075C4.18679 3.80614 4.11255 3.85567 4.06936 3.92667C3.8067 4.33766 3.62125 4.78256 3.51935 5.25225C3.50085 5.33256 3.51624 5.41908 3.56267 5.49021C3.60897 5.56134 3.6801 5.60764 3.76351 5.62303C3.89633 5.64773 4.04156 5.84236 4.04156 6.11745C4.04156 6.39254 3.89633 6.58406 3.76351 6.61187C3.6801 6.62726 3.60897 6.67369 3.56267 6.74469C3.51637 6.81582 3.50085 6.89924 3.51935 6.98265C3.62126 7.45238 3.80671 7.89724 4.06936 8.30823C4.11566 8.37936 4.18679 8.42876 4.2671 8.44415C4.34741 8.45954 4.43393 8.44415 4.50195 8.39786C4.61318 8.32065 4.85425 8.35764 5.04889 8.54929C5.24042 8.74083 5.27753 8.98187 5.20033 9.09623C5.15713 9.16128 5.14161 9.2478 5.15713 9.32811L5.15713 9.32811ZM4.46499 7.75836C4.35067 7.54821 4.25794 7.32578 4.18992 7.09711C4.47728 6.90558 4.66584 6.54088 4.66584 6.12071C4.66584 5.70055 4.47741 5.33584 4.18992 5.14431C4.25794 4.91567 4.35054 4.69323 4.46499 4.48306C4.80176 4.55109 5.19425 4.42435 5.49092 4.13077C5.78449 3.8372 5.91109 3.44482 5.84322 3.10484C6.05337 2.99052 6.2758 2.89779 6.50447 2.82976C6.696 3.11712 7.0607 3.30568 7.47776 3.30568C7.89497 3.30568 8.26263 3.11725 8.45415 2.82976C8.6828 2.89779 8.90524 2.99039 9.11541 3.10484C9.04738 3.44161 9.17412 3.83409 9.4677 4.13077C9.76127 4.42434 10.1536 4.55093 10.4936 4.48306C10.608 4.69322 10.7007 4.91564 10.7687 5.14431C10.4813 5.33584 10.2928 5.70055 10.2928 6.12071C10.2928 6.54088 10.4812 6.90559 10.7687 7.09711C10.7007 7.32576 10.6081 7.5482 10.4936 7.75836C10.1569 7.69034 9.76437 7.81707 9.4677 8.11066C9.17413 8.40423 9.04754 8.79661 9.11541 9.13658C8.90215 9.25091 8.68283 9.34363 8.45415 9.41166C8.26262 9.1243 7.89792 8.93574 7.47776 8.93574C7.05759 8.93574 6.69288 9.12417 6.50447 9.41166C6.27582 9.34363 6.05338 9.25104 5.84322 9.13658C5.91124 8.79982 5.7845 8.40733 5.49092 8.11066C5.19722 7.81399 4.80484 7.69049 4.46499 7.75836Z" fill="#006F7B"/>
</svg>
