<svg width="23" height="22" viewBox="0 0 23 22" fill="none" xmlns="http://www.w3.org/2000/svg">
<mask id="path-1-inside-1_4896_25012" fill="white">
<path d="M3.77417 16.5949H4.06717L4.3069 18.755C4.32188 18.8906 4.43687 18.9929 4.57326 18.9921H6.17143C6.30782 18.9929 6.4228 18.8906 6.43779 18.755L6.55765 17.6603H9.10138V18.7257C9.10138 18.7964 9.12945 18.8642 9.17939 18.9141C9.22933 18.964 9.29711 18.9921 9.36775 18.9921H12.0314C12.102 18.9921 12.1698 18.964 12.2197 18.9141C12.2697 18.8642 12.2977 18.7964 12.2977 18.7257V17.6603H13.3632V18.7257C13.3632 18.7964 13.3912 18.8642 13.4412 18.9141C13.4911 18.964 13.5589 18.9921 13.6295 18.9921H16.2931C16.3638 18.9921 16.4316 18.964 16.4815 18.9141C16.5314 18.8642 16.5595 18.7964 16.5595 18.7257V17.6603H17.8913C17.9619 17.6603 18.0297 17.6322 18.0797 17.5823C18.1296 17.5324 18.1577 17.4646 18.1577 17.3939V14.1976H19.2231C19.2937 14.1976 19.3615 14.1695 19.4115 14.1196C19.4614 14.0697 19.4895 14.0019 19.4895 13.9312V11.2676C19.4895 11.197 19.4614 11.1292 19.4115 11.0793C19.3615 11.0293 19.2937 11.0013 19.2231 11.0013H18.1577V9.66946C18.1577 9.59883 18.1296 9.53105 18.0797 9.48111C18.0297 9.43117 17.9619 9.4031 17.8913 9.4031H14.695V8.33766C14.695 8.26702 14.6669 8.19924 14.617 8.1493C14.567 8.09936 14.4992 8.0713 14.4286 8.0713H11.765C11.6179 8.0713 11.4986 8.19056 11.4986 8.33766V9.4031H10.4332V8.33766C10.4332 8.26702 10.4051 8.19924 10.3552 8.1493C10.3052 8.09936 10.2375 8.0713 10.1668 8.0713H7.50322C7.35612 8.0713 7.23686 8.19056 7.23686 8.33766V9.4031H5.37233V7.27221H6.43777C6.5084 7.27221 6.57618 7.24415 6.62613 7.19421C6.67607 7.14426 6.70413 7.07648 6.70413 7.00585V5.9404H9.90047V7.00585C9.90047 7.07648 9.92853 7.14426 9.97847 7.19421C10.0284 7.24415 10.0962 7.27221 10.1668 7.27221H12.8304C12.9011 7.27221 12.9689 7.24415 13.0188 7.19421C13.0687 7.14426 13.0968 7.07648 13.0968 7.00585V5.67404H16.6049L16.3838 6.39584C16.3517 6.50595 16.3936 6.62415 16.4879 6.68943C16.5821 6.75471 16.7076 6.75233 16.7993 6.6836L17.625 6.05493L18.4507 6.68348V6.6836C18.5424 6.75233 18.6678 6.75471 18.7621 6.68943C18.8564 6.62414 18.8983 6.50595 18.8662 6.39583L18.5439 5.35167L19.3856 4.70978C19.4777 4.6407 19.5151 4.52024 19.4781 4.4112C19.4411 4.30215 19.3382 4.22914 19.2231 4.23033H18.1976L17.8913 3.1995C17.8581 3.08594 17.754 3.00781 17.6357 3.00781C17.5172 3.00781 17.4131 3.08594 17.3799 3.1995L17.0523 4.23033H16.0268C15.9117 4.22914 15.8088 4.30215 15.7718 4.4112C15.7348 4.52024 15.7722 4.6407 15.8643 4.70978L16.4317 5.14132H13.0968V4.34223C13.0968 4.2716 13.0688 4.20382 13.0188 4.15388C12.9689 4.10394 12.9011 4.07587 12.8305 4.07587H10.1669C10.0198 4.07587 9.90049 4.19514 9.90049 4.34223V5.40768H6.70416V4.34223C6.70416 4.2716 6.67609 4.20382 6.62615 4.15388C6.57621 4.10394 6.50843 4.07587 6.4378 4.07587H3.77418C3.62709 4.07587 3.50782 4.19514 3.50782 4.34223V7.00585C3.50782 7.07648 3.53588 7.14426 3.58583 7.1942C3.63577 7.24414 3.70355 7.27221 3.77418 7.27221H4.83963V9.66946C4.83963 9.74009 4.86769 9.80787 4.91763 9.85782C4.96758 9.90776 5.03536 9.93582 5.10599 9.93582H7.23688V11.0013C7.23688 11.0719 7.26494 11.1397 7.31489 11.1896C7.36483 11.2396 7.43261 11.2676 7.50324 11.2676H10.1669C10.2375 11.2676 10.3053 11.2396 10.3552 11.1896C10.4052 11.1397 10.4332 11.0719 10.4332 11.0013V9.93582H11.4987V11.0013C11.4987 11.0719 11.5267 11.1397 11.5767 11.1896C11.6266 11.2396 11.6944 11.2676 11.765 11.2676H14.4286C14.4993 11.2676 14.567 11.2396 14.617 11.1896C14.6669 11.1397 14.695 11.0719 14.695 11.0013V9.93582H17.625V11.0013H16.5595C16.4124 11.0013 16.2932 11.1205 16.2932 11.2676V13.9312C16.2932 14.0019 16.3212 14.0697 16.3712 14.1196C16.4211 14.1695 16.4889 14.1976 16.5595 14.1976H17.625V17.1276H16.5595V16.0621C16.5595 15.9915 16.5315 15.9237 16.4815 15.8738C16.4316 15.8238 16.3638 15.7958 16.2932 15.7958H13.6296C13.4825 15.7958 13.3632 15.915 13.3632 16.0621V17.1276H12.2977V16.0621C12.2977 15.9915 12.2697 15.9237 12.2197 15.8738C12.1698 15.8238 12.102 15.7958 12.0314 15.7958H9.36777C9.22068 15.7958 9.10141 15.915 9.10141 16.0621V17.1276H6.61627L6.67751 16.5949H6.97051C7.04114 16.5949 7.10892 16.5668 7.15886 16.5168C7.20881 16.4669 7.23687 16.3991 7.23687 16.3285V14.1976C7.23687 13.8444 7.09655 13.5057 6.84686 13.2558C6.59703 13.0061 6.25824 12.8658 5.90506 12.8658H4.83962C4.48644 12.8658 4.14769 13.0061 3.89783 13.2558C3.64811 13.5056 3.50781 13.8444 3.50781 14.1976V16.3285C3.50781 16.3991 3.53588 16.4669 3.58582 16.5168C3.63576 16.5668 3.70354 16.5949 3.77417 16.5949V16.5949Z"/>
</mask>
<path d="M3.77417 16.5949H4.06717L4.3069 18.755C4.32188 18.8906 4.43687 18.9929 4.57326 18.9921H6.17143C6.30782 18.9929 6.4228 18.8906 6.43779 18.755L6.55765 17.6603H9.10138V18.7257C9.10138 18.7964 9.12945 18.8642 9.17939 18.9141C9.22933 18.964 9.29711 18.9921 9.36775 18.9921H12.0314C12.102 18.9921 12.1698 18.964 12.2197 18.9141C12.2697 18.8642 12.2977 18.7964 12.2977 18.7257V17.6603H13.3632V18.7257C13.3632 18.7964 13.3912 18.8642 13.4412 18.9141C13.4911 18.964 13.5589 18.9921 13.6295 18.9921H16.2931C16.3638 18.9921 16.4316 18.964 16.4815 18.9141C16.5314 18.8642 16.5595 18.7964 16.5595 18.7257V17.6603H17.8913C17.9619 17.6603 18.0297 17.6322 18.0797 17.5823C18.1296 17.5324 18.1577 17.4646 18.1577 17.3939V14.1976H19.2231C19.2937 14.1976 19.3615 14.1695 19.4115 14.1196C19.4614 14.0697 19.4895 14.0019 19.4895 13.9312V11.2676C19.4895 11.197 19.4614 11.1292 19.4115 11.0793C19.3615 11.0293 19.2937 11.0013 19.2231 11.0013H18.1577V9.66946C18.1577 9.59883 18.1296 9.53105 18.0797 9.48111C18.0297 9.43117 17.9619 9.4031 17.8913 9.4031H14.695V8.33766C14.695 8.26702 14.6669 8.19924 14.617 8.1493C14.567 8.09936 14.4992 8.0713 14.4286 8.0713H11.765C11.6179 8.0713 11.4986 8.19056 11.4986 8.33766V9.4031H10.4332V8.33766C10.4332 8.26702 10.4051 8.19924 10.3552 8.1493C10.3052 8.09936 10.2375 8.0713 10.1668 8.0713H7.50322C7.35612 8.0713 7.23686 8.19056 7.23686 8.33766V9.4031H5.37233V7.27221H6.43777C6.5084 7.27221 6.57618 7.24415 6.62613 7.19421C6.67607 7.14426 6.70413 7.07648 6.70413 7.00585V5.9404H9.90047V7.00585C9.90047 7.07648 9.92853 7.14426 9.97847 7.19421C10.0284 7.24415 10.0962 7.27221 10.1668 7.27221H12.8304C12.9011 7.27221 12.9689 7.24415 13.0188 7.19421C13.0687 7.14426 13.0968 7.07648 13.0968 7.00585V5.67404H16.6049L16.3838 6.39584C16.3517 6.50595 16.3936 6.62415 16.4879 6.68943C16.5821 6.75471 16.7076 6.75233 16.7993 6.6836L17.625 6.05493L18.4507 6.68348V6.6836C18.5424 6.75233 18.6678 6.75471 18.7621 6.68943C18.8564 6.62414 18.8983 6.50595 18.8662 6.39583L18.5439 5.35167L19.3856 4.70978C19.4777 4.6407 19.5151 4.52024 19.4781 4.4112C19.4411 4.30215 19.3382 4.22914 19.2231 4.23033H18.1976L17.8913 3.1995C17.8581 3.08594 17.754 3.00781 17.6357 3.00781C17.5172 3.00781 17.4131 3.08594 17.3799 3.1995L17.0523 4.23033H16.0268C15.9117 4.22914 15.8088 4.30215 15.7718 4.4112C15.7348 4.52024 15.7722 4.6407 15.8643 4.70978L16.4317 5.14132H13.0968V4.34223C13.0968 4.2716 13.0688 4.20382 13.0188 4.15388C12.9689 4.10394 12.9011 4.07587 12.8305 4.07587H10.1669C10.0198 4.07587 9.90049 4.19514 9.90049 4.34223V5.40768H6.70416V4.34223C6.70416 4.2716 6.67609 4.20382 6.62615 4.15388C6.57621 4.10394 6.50843 4.07587 6.4378 4.07587H3.77418C3.62709 4.07587 3.50782 4.19514 3.50782 4.34223V7.00585C3.50782 7.07648 3.53588 7.14426 3.58583 7.1942C3.63577 7.24414 3.70355 7.27221 3.77418 7.27221H4.83963V9.66946C4.83963 9.74009 4.86769 9.80787 4.91763 9.85782C4.96758 9.90776 5.03536 9.93582 5.10599 9.93582H7.23688V11.0013C7.23688 11.0719 7.26494 11.1397 7.31489 11.1896C7.36483 11.2396 7.43261 11.2676 7.50324 11.2676H10.1669C10.2375 11.2676 10.3053 11.2396 10.3552 11.1896C10.4052 11.1397 10.4332 11.0719 10.4332 11.0013V9.93582H11.4987V11.0013C11.4987 11.0719 11.5267 11.1397 11.5767 11.1896C11.6266 11.2396 11.6944 11.2676 11.765 11.2676H14.4286C14.4993 11.2676 14.567 11.2396 14.617 11.1896C14.6669 11.1397 14.695 11.0719 14.695 11.0013V9.93582H17.625V11.0013H16.5595C16.4124 11.0013 16.2932 11.1205 16.2932 11.2676V13.9312C16.2932 14.0019 16.3212 14.0697 16.3712 14.1196C16.4211 14.1695 16.4889 14.1976 16.5595 14.1976H17.625V17.1276H16.5595V16.0621C16.5595 15.9915 16.5315 15.9237 16.4815 15.8738C16.4316 15.8238 16.3638 15.7958 16.2932 15.7958H13.6296C13.4825 15.7958 13.3632 15.915 13.3632 16.0621V17.1276H12.2977V16.0621C12.2977 15.9915 12.2697 15.9237 12.2197 15.8738C12.1698 15.8238 12.102 15.7958 12.0314 15.7958H9.36777C9.22068 15.7958 9.10141 15.915 9.10141 16.0621V17.1276H6.61627L6.67751 16.5949H6.97051C7.04114 16.5949 7.10892 16.5668 7.15886 16.5168C7.20881 16.4669 7.23687 16.3991 7.23687 16.3285V14.1976C7.23687 13.8444 7.09655 13.5057 6.84686 13.2558C6.59703 13.0061 6.25824 12.8658 5.90506 12.8658H4.83962C4.48644 12.8658 4.14769 13.0061 3.89783 13.2558C3.64811 13.5056 3.50781 13.8444 3.50781 14.1976V16.3285C3.50781 16.3991 3.53588 16.4669 3.58582 16.5168C3.63576 16.5668 3.70354 16.5949 3.77417 16.5949V16.5949Z" stroke="#006F7B" stroke-width="1.2" mask="url(#path-1-inside-1_4896_25012)"/>
<path d="M6.13753 11.5337C6.13753 11.9564 5.79477 12.2992 5.37209 12.2992C4.9494 12.2992 4.60664 11.9564 4.60664 11.5337C4.60664 11.111 4.9494 10.7683 5.37209 10.7683C5.79477 10.7683 6.13753 11.111 6.13753 11.5337Z" stroke="#006F7B" stroke-width="0.6"/>
</svg>
