<svg width="18" height="16" viewBox="0 0 18 16" fill="none" xmlns="http://www.w3.org/2000/svg">
<mask id="path-1-outside-1_4896_24996" maskUnits="userSpaceOnUse" x="3.03809" y="1.80371" width="11" height="14" fill="black">
<rect fill="white" x="3.03809" y="1.80371" width="11" height="14"/>
<path d="M12.021 4.02486C11.0056 3.10949 9.64503 2.6764 8.28738 2.83634C7.03119 2.98641 5.88452 3.62413 5.09439 4.61192C4.30422 5.59971 3.93393 6.85853 4.06343 8.11694C4.19292 9.37527 4.81174 10.5323 5.78656 11.3386C6.12272 11.6279 6.31204 12.0522 6.30288 12.4958V13.4215C6.30395 13.9972 6.53333 14.5489 6.94071 14.9556C7.34811 15.3624 7.9001 15.591 8.47575 15.5912H9.19088C9.76653 15.591 10.3185 15.3624 10.7259 14.9556C11.1333 14.549 11.3627 13.9972 11.3638 13.4215V12.4958C11.361 12.0418 11.5597 11.6099 11.9063 11.3167C12.9774 10.4164 13.6052 9.09578 13.6272 7.69691C13.6492 6.29792 13.0632 4.95825 12.0211 4.02477L12.021 4.02486ZM4.59241 7.19229C4.68766 6.22185 5.11192 5.31323 5.79472 4.61725C6.47752 3.92127 7.37779 3.47975 8.34619 3.36596C8.42027 3.35763 8.49329 3.35811 8.56689 3.35359V4.40406C8.18625 4.40406 7.8345 4.60716 7.64415 4.93679C7.4539 5.2664 7.4539 5.67261 7.64415 6.00223C7.83453 6.33185 8.18628 6.53496 8.56689 6.53496V8.13313H7.50144C7.50144 7.75249 7.29834 7.40074 6.96872 7.21039C6.6391 7.02013 6.23289 7.02013 5.90327 7.21039C5.57365 7.40077 5.37055 7.75252 5.37055 8.13313H4.60501C4.56672 7.82086 4.56256 7.5054 4.59241 7.19231L4.59241 7.19229ZM6.12626 10.928C5.42279 10.345 4.92419 9.55237 4.70337 8.66577H5.63694C5.70757 8.66577 5.77536 8.63771 5.8253 8.58776C5.87524 8.53782 5.9033 8.47004 5.9033 8.39941V8.13305C5.9033 7.94267 6.00485 7.76681 6.16967 7.67168C6.33448 7.57655 6.53758 7.57655 6.70239 7.67168C6.8672 7.76681 6.96875 7.94267 6.96875 8.13305V8.39941C6.96875 8.47004 6.99681 8.53782 7.04676 8.58776C7.0967 8.6377 7.16448 8.66577 7.23511 8.66577H8.56692V9.46485C8.18628 9.46485 7.83453 9.66796 7.64418 9.99758C7.45393 10.3272 7.45393 10.7334 7.64418 11.063C7.83456 11.3926 8.18631 11.5957 8.56692 11.5957V12.3948H6.83033C6.81357 11.8284 6.55779 11.2954 6.12626 10.928ZM9.19079 15.0583H8.47566C7.89895 15.0579 7.36492 14.7544 7.06918 14.2592H10.5973C10.3016 14.7544 9.76756 15.0578 9.19085 15.0583H9.19079ZM10.8309 13.4214C10.8307 13.5238 10.8207 13.6259 10.8013 13.7265H6.86526C6.84588 13.6259 6.83589 13.5238 6.83565 13.4214V12.9274H10.8311L10.8309 13.4214ZM11.5637 10.9087C11.1241 11.2805 10.8603 11.8194 10.8364 12.3947H9.09956V11.3293C9.09956 11.2586 9.07149 11.1909 9.02155 11.1409C8.97161 11.091 8.90383 11.0629 8.83319 11.0629H8.56683C8.37645 11.0629 8.20059 10.9614 8.10546 10.7965C8.01033 10.6317 8.01033 10.4286 8.10546 10.2638C8.20059 10.099 8.37646 9.99746 8.56683 9.99746H8.83319C8.90383 9.99746 8.97161 9.96939 9.02155 9.91945C9.07149 9.86951 9.09956 9.80173 9.09956 9.73109V8.66565H10.4314C10.502 8.66565 10.5698 8.63758 10.6197 8.58764C10.6697 8.5377 10.6977 8.46992 10.6977 8.39929V8.13292C10.6977 7.94255 10.7993 7.76668 10.9641 7.67155C11.1289 7.57643 11.332 7.57643 11.4968 7.67155C11.6616 7.76668 11.7632 7.94255 11.7632 8.13292V8.39929C11.7632 8.46992 11.7912 8.5377 11.8412 8.58764C11.8911 8.63758 11.9589 8.66565 12.0295 8.66565H12.9623C12.7446 9.54227 12.255 10.3274 11.5637 10.9087ZM12.2959 8.13292C12.2959 7.75228 12.0928 7.40053 11.7632 7.21019C11.4336 7.01993 11.0274 7.01993 10.6978 7.21019C10.3681 7.40056 10.165 7.75232 10.165 8.13292H9.09959V6.26839C9.09959 6.19776 9.07152 6.12998 9.02158 6.08003C8.97164 6.03009 8.90386 6.00203 8.83322 6.00203H8.56686C8.37648 6.00203 8.20062 5.90048 8.10549 5.73567C8.01036 5.57085 8.01036 5.36775 8.10549 5.20294C8.20062 5.03813 8.37649 4.93658 8.56686 4.93658H8.83322C8.90386 4.93658 8.97164 4.90852 9.02158 4.85857C9.07152 4.80863 9.09959 4.74085 9.09959 4.67022V3.34995C10.0519 3.40512 10.957 3.78325 11.6657 4.42182C12.7122 5.35457 13.2344 6.74154 13.063 8.13292H12.2959Z"/>
</mask>
<path d="M12.021 4.02486C11.0056 3.10949 9.64503 2.6764 8.28738 2.83634C7.03119 2.98641 5.88452 3.62413 5.09439 4.61192C4.30422 5.59971 3.93393 6.85853 4.06343 8.11694C4.19292 9.37527 4.81174 10.5323 5.78656 11.3386C6.12272 11.6279 6.31204 12.0522 6.30288 12.4958V13.4215C6.30395 13.9972 6.53333 14.5489 6.94071 14.9556C7.34811 15.3624 7.9001 15.591 8.47575 15.5912H9.19088C9.76653 15.591 10.3185 15.3624 10.7259 14.9556C11.1333 14.549 11.3627 13.9972 11.3638 13.4215V12.4958C11.361 12.0418 11.5597 11.6099 11.9063 11.3167C12.9774 10.4164 13.6052 9.09578 13.6272 7.69691C13.6492 6.29792 13.0632 4.95825 12.0211 4.02477L12.021 4.02486ZM4.59241 7.19229C4.68766 6.22185 5.11192 5.31323 5.79472 4.61725C6.47752 3.92127 7.37779 3.47975 8.34619 3.36596C8.42027 3.35763 8.49329 3.35811 8.56689 3.35359V4.40406C8.18625 4.40406 7.8345 4.60716 7.64415 4.93679C7.4539 5.2664 7.4539 5.67261 7.64415 6.00223C7.83453 6.33185 8.18628 6.53496 8.56689 6.53496V8.13313H7.50144C7.50144 7.75249 7.29834 7.40074 6.96872 7.21039C6.6391 7.02013 6.23289 7.02013 5.90327 7.21039C5.57365 7.40077 5.37055 7.75252 5.37055 8.13313H4.60501C4.56672 7.82086 4.56256 7.5054 4.59241 7.19231L4.59241 7.19229ZM6.12626 10.928C5.42279 10.345 4.92419 9.55237 4.70337 8.66577H5.63694C5.70757 8.66577 5.77536 8.63771 5.8253 8.58776C5.87524 8.53782 5.9033 8.47004 5.9033 8.39941V8.13305C5.9033 7.94267 6.00485 7.76681 6.16967 7.67168C6.33448 7.57655 6.53758 7.57655 6.70239 7.67168C6.8672 7.76681 6.96875 7.94267 6.96875 8.13305V8.39941C6.96875 8.47004 6.99681 8.53782 7.04676 8.58776C7.0967 8.6377 7.16448 8.66577 7.23511 8.66577H8.56692V9.46485C8.18628 9.46485 7.83453 9.66796 7.64418 9.99758C7.45393 10.3272 7.45393 10.7334 7.64418 11.063C7.83456 11.3926 8.18631 11.5957 8.56692 11.5957V12.3948H6.83033C6.81357 11.8284 6.55779 11.2954 6.12626 10.928ZM9.19079 15.0583H8.47566C7.89895 15.0579 7.36492 14.7544 7.06918 14.2592H10.5973C10.3016 14.7544 9.76756 15.0578 9.19085 15.0583H9.19079ZM10.8309 13.4214C10.8307 13.5238 10.8207 13.6259 10.8013 13.7265H6.86526C6.84588 13.6259 6.83589 13.5238 6.83565 13.4214V12.9274H10.8311L10.8309 13.4214ZM11.5637 10.9087C11.1241 11.2805 10.8603 11.8194 10.8364 12.3947H9.09956V11.3293C9.09956 11.2586 9.07149 11.1909 9.02155 11.1409C8.97161 11.091 8.90383 11.0629 8.83319 11.0629H8.56683C8.37645 11.0629 8.20059 10.9614 8.10546 10.7965C8.01033 10.6317 8.01033 10.4286 8.10546 10.2638C8.20059 10.099 8.37646 9.99746 8.56683 9.99746H8.83319C8.90383 9.99746 8.97161 9.96939 9.02155 9.91945C9.07149 9.86951 9.09956 9.80173 9.09956 9.73109V8.66565H10.4314C10.502 8.66565 10.5698 8.63758 10.6197 8.58764C10.6697 8.5377 10.6977 8.46992 10.6977 8.39929V8.13292C10.6977 7.94255 10.7993 7.76668 10.9641 7.67155C11.1289 7.57643 11.332 7.57643 11.4968 7.67155C11.6616 7.76668 11.7632 7.94255 11.7632 8.13292V8.39929C11.7632 8.46992 11.7912 8.5377 11.8412 8.58764C11.8911 8.63758 11.9589 8.66565 12.0295 8.66565H12.9623C12.7446 9.54227 12.255 10.3274 11.5637 10.9087ZM12.2959 8.13292C12.2959 7.75228 12.0928 7.40053 11.7632 7.21019C11.4336 7.01993 11.0274 7.01993 10.6978 7.21019C10.3681 7.40056 10.165 7.75232 10.165 8.13292H9.09959V6.26839C9.09959 6.19776 9.07152 6.12998 9.02158 6.08003C8.97164 6.03009 8.90386 6.00203 8.83322 6.00203H8.56686C8.37648 6.00203 8.20062 5.90048 8.10549 5.73567C8.01036 5.57085 8.01036 5.36775 8.10549 5.20294C8.20062 5.03813 8.37649 4.93658 8.56686 4.93658H8.83322C8.90386 4.93658 8.97164 4.90852 9.02158 4.85857C9.07152 4.80863 9.09959 4.74085 9.09959 4.67022V3.34995C10.0519 3.40512 10.957 3.78325 11.6657 4.42182C12.7122 5.35457 13.2344 6.74154 13.063 8.13292H12.2959Z" fill="#006F7B"/>
<path d="M12.021 4.02486C11.0056 3.10949 9.64503 2.6764 8.28738 2.83634C7.03119 2.98641 5.88452 3.62413 5.09439 4.61192C4.30422 5.59971 3.93393 6.85853 4.06343 8.11694C4.19292 9.37527 4.81174 10.5323 5.78656 11.3386C6.12272 11.6279 6.31204 12.0522 6.30288 12.4958V13.4215C6.30395 13.9972 6.53333 14.5489 6.94071 14.9556C7.34811 15.3624 7.9001 15.591 8.47575 15.5912H9.19088C9.76653 15.591 10.3185 15.3624 10.7259 14.9556C11.1333 14.549 11.3627 13.9972 11.3638 13.4215V12.4958C11.361 12.0418 11.5597 11.6099 11.9063 11.3167C12.9774 10.4164 13.6052 9.09578 13.6272 7.69691C13.6492 6.29792 13.0632 4.95825 12.0211 4.02477L12.021 4.02486ZM4.59241 7.19229C4.68766 6.22185 5.11192 5.31323 5.79472 4.61725C6.47752 3.92127 7.37779 3.47975 8.34619 3.36596C8.42027 3.35763 8.49329 3.35811 8.56689 3.35359V4.40406C8.18625 4.40406 7.8345 4.60716 7.64415 4.93679C7.4539 5.2664 7.4539 5.67261 7.64415 6.00223C7.83453 6.33185 8.18628 6.53496 8.56689 6.53496V8.13313H7.50144C7.50144 7.75249 7.29834 7.40074 6.96872 7.21039C6.6391 7.02013 6.23289 7.02013 5.90327 7.21039C5.57365 7.40077 5.37055 7.75252 5.37055 8.13313H4.60501C4.56672 7.82086 4.56256 7.5054 4.59241 7.19231L4.59241 7.19229ZM6.12626 10.928C5.42279 10.345 4.92419 9.55237 4.70337 8.66577H5.63694C5.70757 8.66577 5.77536 8.63771 5.8253 8.58776C5.87524 8.53782 5.9033 8.47004 5.9033 8.39941V8.13305C5.9033 7.94267 6.00485 7.76681 6.16967 7.67168C6.33448 7.57655 6.53758 7.57655 6.70239 7.67168C6.8672 7.76681 6.96875 7.94267 6.96875 8.13305V8.39941C6.96875 8.47004 6.99681 8.53782 7.04676 8.58776C7.0967 8.6377 7.16448 8.66577 7.23511 8.66577H8.56692V9.46485C8.18628 9.46485 7.83453 9.66796 7.64418 9.99758C7.45393 10.3272 7.45393 10.7334 7.64418 11.063C7.83456 11.3926 8.18631 11.5957 8.56692 11.5957V12.3948H6.83033C6.81357 11.8284 6.55779 11.2954 6.12626 10.928ZM9.19079 15.0583H8.47566C7.89895 15.0579 7.36492 14.7544 7.06918 14.2592H10.5973C10.3016 14.7544 9.76756 15.0578 9.19085 15.0583H9.19079ZM10.8309 13.4214C10.8307 13.5238 10.8207 13.6259 10.8013 13.7265H6.86526C6.84588 13.6259 6.83589 13.5238 6.83565 13.4214V12.9274H10.8311L10.8309 13.4214ZM11.5637 10.9087C11.1241 11.2805 10.8603 11.8194 10.8364 12.3947H9.09956V11.3293C9.09956 11.2586 9.07149 11.1909 9.02155 11.1409C8.97161 11.091 8.90383 11.0629 8.83319 11.0629H8.56683C8.37645 11.0629 8.20059 10.9614 8.10546 10.7965C8.01033 10.6317 8.01033 10.4286 8.10546 10.2638C8.20059 10.099 8.37646 9.99746 8.56683 9.99746H8.83319C8.90383 9.99746 8.97161 9.96939 9.02155 9.91945C9.07149 9.86951 9.09956 9.80173 9.09956 9.73109V8.66565H10.4314C10.502 8.66565 10.5698 8.63758 10.6197 8.58764C10.6697 8.5377 10.6977 8.46992 10.6977 8.39929V8.13292C10.6977 7.94255 10.7993 7.76668 10.9641 7.67155C11.1289 7.57643 11.332 7.57643 11.4968 7.67155C11.6616 7.76668 11.7632 7.94255 11.7632 8.13292V8.39929C11.7632 8.46992 11.7912 8.5377 11.8412 8.58764C11.8911 8.63758 11.9589 8.66565 12.0295 8.66565H12.9623C12.7446 9.54227 12.255 10.3274 11.5637 10.9087ZM12.2959 8.13292C12.2959 7.75228 12.0928 7.40053 11.7632 7.21019C11.4336 7.01993 11.0274 7.01993 10.6978 7.21019C10.3681 7.40056 10.165 7.75232 10.165 8.13292H9.09959V6.26839C9.09959 6.19776 9.07152 6.12998 9.02158 6.08003C8.97164 6.03009 8.90386 6.00203 8.83322 6.00203H8.56686C8.37648 6.00203 8.20062 5.90048 8.10549 5.73567C8.01036 5.57085 8.01036 5.36775 8.10549 5.20294C8.20062 5.03813 8.37649 4.93658 8.56686 4.93658H8.83322C8.90386 4.93658 8.97164 4.90852 9.02158 4.85857C9.07152 4.80863 9.09959 4.74085 9.09959 4.67022V3.34995C10.0519 3.40512 10.957 3.78325 11.6657 4.42182C12.7122 5.35457 13.2344 6.74154 13.063 8.13292H12.2959Z" stroke="#006F7B" stroke-width="0.2" mask="url(#path-1-outside-1_4896_24996)"/>
<path d="M15.7586 0.358691H15.7586C15.3921 0.358691 15.0407 0.504277 14.7814 0.763339L14.7814 0.763359C14.5223 1.02257 14.3768 1.37406 14.3768 1.7405C14.3768 2.10694 14.5223 2.45841 14.7814 2.71764L14.7814 2.71766C15.0406 2.97674 15.3921 3.12231 15.7586 3.12231C16.125 3.12231 16.4765 2.97673 16.7357 2.71766L16.7357 2.71764C16.9948 2.45844 17.1404 2.10694 17.1404 1.7405V1.74045C17.14 1.37414 16.9942 1.02291 16.7352 0.763846L16.7352 0.763829C16.4762 0.504886 16.1249 0.35907 15.7586 0.358691ZM15.7637 2.48959H15.7586C15.5599 2.48959 15.3693 2.41066 15.2289 2.27022C15.0884 2.12976 15.0095 1.93913 15.0095 1.74052C15.0095 1.5419 15.0884 1.35124 15.2289 1.21082C15.3693 1.0704 15.56 0.991446 15.7586 0.991446C15.9572 0.991446 16.1478 1.07037 16.2883 1.21082C16.4287 1.35125 16.5076 1.54187 16.5076 1.74046C16.5074 1.9391 16.4284 2.12951 16.288 2.26999C16.1488 2.40911 15.9605 2.48799 15.7637 2.48959Z" fill="#006F7B" stroke="#006F7B" stroke-width="0.1"/>
<path d="M12.8847 11.3779L12.8524 11.4161L12.8906 11.4484L13.956 12.35L13.9942 12.3823L14.0265 12.3441L14.3707 11.9373L14.403 11.8991L14.3649 11.8668L13.2994 10.9652L13.2612 10.933L13.2289 10.9711L12.8847 11.3779Z" fill="#006F7B" stroke="#006F7B" stroke-width="0.1"/>
<path d="M3.02921 3.03856L2.99692 3.07673L3.03509 3.10902L4.36702 4.23572L4.40519 4.26801L4.43749 4.22984L4.78163 3.82305L4.81392 3.78488L4.77575 3.75258L3.44381 2.62589L3.40564 2.5936L3.37335 2.63177L3.02921 3.03856Z" fill="#006F7B" stroke="#006F7B" stroke-width="0.1"/>
<path d="M12.7206 3.89618L12.6825 3.92848L12.7148 3.96665L13.059 4.37344L13.0913 4.4116L13.1295 4.37931L14.7035 3.0475L14.7417 3.0152L14.7094 2.97703L14.3651 2.57024L14.3328 2.53208L14.2947 2.56437L12.7206 3.89618Z" fill="#006F7B" stroke="#006F7B" stroke-width="0.1"/>
<path d="M2.96283 12.1533L2.92465 12.1856L2.95694 12.2237L3.30108 12.6305L3.33338 12.6687L3.37155 12.6364L4.77602 11.4484L4.8142 11.4161L4.7819 11.3779L4.43776 10.9711L4.40547 10.933L4.3673 10.9652L2.96283 12.1533Z" fill="#006F7B" stroke="#006F7B" stroke-width="0.1"/>
<path d="M16.824 12.0789H14.6931C14.6092 12.0789 14.5287 12.1122 14.4694 12.1716C14.4101 12.2309 14.3768 12.3114 14.3768 12.3953V14.5262C14.3768 14.6101 14.4101 14.6906 14.4694 14.7499C14.5287 14.8092 14.6092 14.8425 14.6931 14.8425H16.824C16.9079 14.8425 16.9884 14.8092 17.0477 14.7499C17.107 14.6906 17.1404 14.6101 17.1404 14.5262V12.3953C17.1404 12.3114 17.1071 12.2309 17.0477 12.1716C16.9884 12.1122 16.9079 12.0789 16.824 12.0789ZM16.5077 14.2098H15.0095V12.7116H16.5077V14.2098Z" fill="#006F7B" stroke="#006F7B" stroke-width="0.1"/>
<path d="M2.31696 12.2398L2.31687 12.2398L3.51546 14.3707L2.31696 12.2398ZM2.31696 12.2398L2.31516 12.237M2.31696 12.2398L2.31516 12.237M2.31516 12.237C2.2548 12.1445 2.15164 12.0887 2.04117 12.0887C1.9307 12.0887 1.82755 12.1445 1.76718 12.237L1.76709 12.237M2.31516 12.237L1.76709 12.237M1.76709 12.237L1.76548 12.2398M1.76709 12.237L1.76548 12.2398M1.76548 12.2398L0.56688 14.3707C0.566871 14.3707 0.566858 14.3707 0.566849 14.3707C0.51161 14.4687 0.512796 14.5886 0.569386 14.6855L0.569413 14.6856M1.76548 12.2398L0.569413 14.6856M0.569413 14.6856C0.626186 14.7826 0.730134 14.8422 0.842543 14.8422H3.2398C3.35221 14.8422 3.45616 14.7826 3.51293 14.6856L3.51296 14.6855M0.569413 14.6856L3.51296 14.6855M3.51296 14.6855C3.56955 14.5886 3.57073 14.4687 3.5155 14.3707L3.51296 14.6855ZM2.69887 14.2095H1.38347L2.04117 13.0403L2.69887 14.2095Z" fill="#006F7B" stroke="#006F7B" stroke-width="0.1"/>
<path d="M2.45194 1.08924L3.02112 1.17629C3.02114 1.17629 3.02116 1.17629 3.02118 1.17629C3.13846 1.19412 3.23572 1.2762 3.2734 1.38854L3.2269 1.40414L3.2734 1.38854C3.31111 1.50098 3.28272 1.625 3.19983 1.70988C3.19982 1.70989 3.19982 1.7099 3.19981 1.7099L2.77867 2.14154L2.87865 2.75491L2.87866 2.75496L2.45194 1.08924ZM2.45194 1.08924L2.19441 0.540603L2.19441 0.5406C2.14229 0.429586 2.03071 0.358691 1.908 0.358691C1.78528 0.358691 1.6737 0.429585 1.62158 0.5406L1.62158 0.540603L1.36406 1.08924L0.794865 1.17629L0.794811 1.17629L0.80237 1.22572C0.703673 1.2407 0.621743 1.30979 0.589993 1.40444C0.558242 1.4991 0.582145 1.6035 0.651947 1.67497L2.45194 1.08924ZM1.03732 2.14154L0.616178 1.7099L1.03732 2.14154ZM1.03732 2.14154L0.93734 2.7549C0.937338 2.75492 0.937336 2.75493 0.937335 2.75494L0.937331 2.75496L0.98668 2.763C0.970151 2.86372 1.01272 2.96491 1.09608 3.02366C1.17956 3.0824 1.28919 3.08834 1.37838 3.039M1.03732 2.14154L1.40256 3.08276L1.37838 3.039M1.37838 3.039L1.40258 3.08274L1.90799 2.80348M1.37838 3.039L1.90799 2.74635M1.90799 2.74635L1.88381 2.79012L1.90799 2.80348M1.90799 2.74635L1.93218 2.79012L1.90799 2.80348M1.90799 2.74635L2.43761 3.039M1.90799 2.80348L2.4134 3.08274L2.43761 3.039M2.43761 3.039L2.41343 3.08276L2.71991 3.02366C2.63643 3.0824 2.5268 3.08834 2.43761 3.039ZM1.90795 1.41983L1.86515 1.51092L1.86513 1.51098L1.81987 1.48971C1.78218 1.57021 1.70679 1.62646 1.61903 1.63978L1.90795 1.41983ZM1.90795 1.41983L1.95071 1.51095L1.95072 1.51097C1.99563 1.60657 2.08517 1.67339 2.18944 1.68921M1.90795 1.41983L2.18944 1.68921M2.21432 1.81401C2.14412 1.88591 2.11234 1.98688 2.12857 2.08589L2.25009 1.84895M2.21432 1.81401L2.25009 1.84895M2.21432 1.81401L2.21432 1.81402L2.25009 1.84895M2.21432 1.81401L2.31702 1.70881M2.25009 1.84895L2.37779 1.71814L2.31702 1.70881M2.31702 1.70881L2.18944 1.68921M2.31702 1.70881L2.35997 1.66481L2.19694 1.63978L2.18935 1.6892L2.18944 1.68921" fill="#006F7B" stroke="#006F7B" stroke-width="0.1"/>
</svg>
