<svg width="23" height="22" viewBox="0 0 23 22" fill="none" xmlns="http://www.w3.org/2000/svg">
<mask id="path-1-outside-1_4896_25145" maskUnits="userSpaceOnUse" x="2" y="2.29883" width="19" height="17" fill="black">
<rect fill="white" x="2" y="2.29883" width="19" height="17"/>
<path d="M18.5833 4.32564H18.0167V4.06894C18.0167 3.86469 17.9271 3.66881 17.7677 3.52439C17.6083 3.37996 17.3921 3.29883 17.1667 3.29883C16.9412 3.29883 16.725 3.37996 16.5656 3.52439C16.4062 3.66881 16.3167 3.86469 16.3167 4.06894V4.32564H15.1833V4.06894C15.1833 3.86469 15.0938 3.66881 14.9344 3.52439C14.775 3.37996 14.5588 3.29883 14.3333 3.29883C14.1079 3.29883 13.8917 3.37996 13.7323 3.52439C13.5729 3.66881 13.4833 3.86469 13.4833 4.06894V4.32564H12.35V4.06894C12.35 3.86469 12.2604 3.66881 12.101 3.52439C11.9416 3.37996 11.7254 3.29883 11.5 3.29883C11.2746 3.29883 11.0584 3.37996 10.899 3.52439C10.7396 3.66881 10.65 3.86469 10.65 4.06894V4.32564H9.51667V4.06894C9.51667 3.86469 9.42711 3.66881 9.26771 3.52439C9.1083 3.37996 8.8921 3.29883 8.66667 3.29883C8.44123 3.29883 8.22503 3.37996 8.06563 3.52439C7.90622 3.66881 7.81667 3.86469 7.81667 4.06894V4.32564H6.68333V4.06894C6.68333 3.86469 6.59378 3.66881 6.43437 3.52439C6.27497 3.37996 6.05877 3.29883 5.83333 3.29883C5.6079 3.29883 5.3917 3.37996 5.23229 3.52439C5.07289 3.66881 4.98333 3.86469 4.98333 4.06894V4.32564H4.41667C4.04108 4.32605 3.68101 4.46141 3.41543 4.70203C3.14985 4.94265 3.00045 5.26888 3 5.60917V17.4176C3.00045 17.7578 3.14985 18.0841 3.41543 18.3247C3.68101 18.5653 4.04108 18.7007 4.41667 18.7011H18.5833C18.9589 18.7007 19.319 18.5653 19.5846 18.3247C19.8501 18.0841 19.9995 17.7578 20 17.4176V5.60917C19.9995 5.26888 19.8501 4.94265 19.5846 4.70203C19.319 4.46141 18.9589 4.32605 18.5833 4.32564ZM16.8833 4.06894C16.8833 4.00086 16.9132 3.93556 16.9663 3.88742C17.0195 3.83928 17.0915 3.81224 17.1667 3.81224C17.2418 3.81224 17.3139 3.83928 17.367 3.88742C17.4201 3.93556 17.45 4.00086 17.45 4.06894V5.09576C17.45 5.16384 17.4201 5.22913 17.367 5.27727C17.3139 5.32542 17.2418 5.35246 17.1667 5.35246C17.0915 5.35246 17.0195 5.32542 16.9663 5.27727C16.9132 5.22913 16.8833 5.16384 16.8833 5.09576V4.06894ZM14.05 4.06894C14.05 4.00086 14.0799 3.93556 14.133 3.88742C14.1861 3.83928 14.2582 3.81224 14.3333 3.81224C14.4085 3.81224 14.4805 3.83928 14.5337 3.88742C14.5868 3.93556 14.6167 4.00086 14.6167 4.06894V5.09576C14.6167 5.16384 14.5868 5.22913 14.5337 5.27727C14.4805 5.32542 14.4085 5.35246 14.3333 5.35246C14.2582 5.35246 14.1861 5.32542 14.133 5.27727C14.0799 5.22913 14.05 5.16384 14.05 5.09576V4.06894ZM11.2167 4.06894C11.2167 4.00086 11.2465 3.93556 11.2997 3.88742C11.3528 3.83928 11.4249 3.81224 11.5 3.81224C11.5751 3.81224 11.6472 3.83928 11.7003 3.88742C11.7535 3.93556 11.7833 4.00086 11.7833 4.06894V5.09576C11.7833 5.16384 11.7535 5.22913 11.7003 5.27727C11.6472 5.32542 11.5751 5.35246 11.5 5.35246C11.4249 5.35246 11.3528 5.32542 11.2997 5.27727C11.2465 5.22913 11.2167 5.16384 11.2167 5.09576V4.06894ZM8.38333 4.06894C8.38333 4.00086 8.41318 3.93556 8.46632 3.88742C8.51945 3.83928 8.59152 3.81224 8.66667 3.81224C8.74181 3.81224 8.81388 3.83928 8.86701 3.88742C8.92015 3.93556 8.95 4.00086 8.95 4.06894V5.09576C8.95 5.16384 8.92015 5.22913 8.86701 5.27727C8.81388 5.32542 8.74181 5.35246 8.66667 5.35246C8.59152 5.35246 8.51945 5.32542 8.46632 5.27727C8.41318 5.22913 8.38333 5.16384 8.38333 5.09576V4.06894ZM5.55 4.06894C5.55 4.00086 5.57985 3.93556 5.63299 3.88742C5.68612 3.83928 5.75819 3.81224 5.83333 3.81224C5.90848 3.81224 5.98054 3.83928 6.03368 3.88742C6.08682 3.93556 6.11667 4.00086 6.11667 4.06894V5.09576C6.11667 5.16384 6.08682 5.22913 6.03368 5.27727C5.98054 5.32542 5.90848 5.35246 5.83333 5.35246C5.75819 5.35246 5.68612 5.32542 5.63299 5.27727C5.57985 5.22913 5.55 5.16384 5.55 5.09576V4.06894ZM4.41667 4.83905H4.98333V5.09576C4.98333 5.3 5.07289 5.49589 5.23229 5.64031C5.3917 5.78473 5.6079 5.86587 5.83333 5.86587C6.05877 5.86587 6.27497 5.78473 6.43437 5.64031C6.59378 5.49589 6.68333 5.3 6.68333 5.09576V4.83905H7.81667V5.09576C7.81667 5.3 7.90622 5.49589 8.06563 5.64031C8.22503 5.78473 8.44123 5.86587 8.66667 5.86587C8.8921 5.86587 9.1083 5.78473 9.26771 5.64031C9.42711 5.49589 9.51667 5.3 9.51667 5.09576V4.83905H10.65V5.09576C10.65 5.3 10.7396 5.49589 10.899 5.64031C11.0584 5.78473 11.2746 5.86587 11.5 5.86587C11.7254 5.86587 11.9416 5.78473 12.101 5.64031C12.2604 5.49589 12.35 5.3 12.35 5.09576V4.83905H13.4833V5.09576C13.4833 5.3 13.5729 5.49589 13.7323 5.64031C13.8917 5.78473 14.1079 5.86587 14.3333 5.86587C14.5588 5.86587 14.775 5.78473 14.9344 5.64031C15.0938 5.49589 15.1833 5.3 15.1833 5.09576V4.83905H16.3167V5.09576C16.3167 5.3 16.4062 5.49589 16.5656 5.64031C16.725 5.78473 16.9412 5.86587 17.1667 5.86587C17.3921 5.86587 17.6083 5.78473 17.7677 5.64031C17.9271 5.49589 18.0167 5.3 18.0167 5.09576V4.83905H18.5833C18.8088 4.83905 19.025 4.92019 19.1844 5.06461C19.3438 5.20904 19.4333 5.40492 19.4333 5.60917V6.37928H3.56667V5.60917C3.56667 5.40492 3.65622 5.20904 3.81563 5.06461C3.97503 4.92019 4.19123 4.83905 4.41667 4.83905ZM18.5833 18.1877H4.41667C4.19123 18.1877 3.97503 18.1065 3.81563 17.9621C3.65622 17.8177 3.56667 17.6218 3.56667 17.4176V6.89269H19.4333V17.4176C19.4333 17.6218 19.3438 17.8177 19.1844 17.9621C19.025 18.1065 18.8088 18.1877 18.5833 18.1877Z"/>
</mask>
<path d="M18.5833 4.32564H18.0167V4.06894C18.0167 3.86469 17.9271 3.66881 17.7677 3.52439C17.6083 3.37996 17.3921 3.29883 17.1667 3.29883C16.9412 3.29883 16.725 3.37996 16.5656 3.52439C16.4062 3.66881 16.3167 3.86469 16.3167 4.06894V4.32564H15.1833V4.06894C15.1833 3.86469 15.0938 3.66881 14.9344 3.52439C14.775 3.37996 14.5588 3.29883 14.3333 3.29883C14.1079 3.29883 13.8917 3.37996 13.7323 3.52439C13.5729 3.66881 13.4833 3.86469 13.4833 4.06894V4.32564H12.35V4.06894C12.35 3.86469 12.2604 3.66881 12.101 3.52439C11.9416 3.37996 11.7254 3.29883 11.5 3.29883C11.2746 3.29883 11.0584 3.37996 10.899 3.52439C10.7396 3.66881 10.65 3.86469 10.65 4.06894V4.32564H9.51667V4.06894C9.51667 3.86469 9.42711 3.66881 9.26771 3.52439C9.1083 3.37996 8.8921 3.29883 8.66667 3.29883C8.44123 3.29883 8.22503 3.37996 8.06563 3.52439C7.90622 3.66881 7.81667 3.86469 7.81667 4.06894V4.32564H6.68333V4.06894C6.68333 3.86469 6.59378 3.66881 6.43437 3.52439C6.27497 3.37996 6.05877 3.29883 5.83333 3.29883C5.6079 3.29883 5.3917 3.37996 5.23229 3.52439C5.07289 3.66881 4.98333 3.86469 4.98333 4.06894V4.32564H4.41667C4.04108 4.32605 3.68101 4.46141 3.41543 4.70203C3.14985 4.94265 3.00045 5.26888 3 5.60917V17.4176C3.00045 17.7578 3.14985 18.0841 3.41543 18.3247C3.68101 18.5653 4.04108 18.7007 4.41667 18.7011H18.5833C18.9589 18.7007 19.319 18.5653 19.5846 18.3247C19.8501 18.0841 19.9995 17.7578 20 17.4176V5.60917C19.9995 5.26888 19.8501 4.94265 19.5846 4.70203C19.319 4.46141 18.9589 4.32605 18.5833 4.32564ZM16.8833 4.06894C16.8833 4.00086 16.9132 3.93556 16.9663 3.88742C17.0195 3.83928 17.0915 3.81224 17.1667 3.81224C17.2418 3.81224 17.3139 3.83928 17.367 3.88742C17.4201 3.93556 17.45 4.00086 17.45 4.06894V5.09576C17.45 5.16384 17.4201 5.22913 17.367 5.27727C17.3139 5.32542 17.2418 5.35246 17.1667 5.35246C17.0915 5.35246 17.0195 5.32542 16.9663 5.27727C16.9132 5.22913 16.8833 5.16384 16.8833 5.09576V4.06894ZM14.05 4.06894C14.05 4.00086 14.0799 3.93556 14.133 3.88742C14.1861 3.83928 14.2582 3.81224 14.3333 3.81224C14.4085 3.81224 14.4805 3.83928 14.5337 3.88742C14.5868 3.93556 14.6167 4.00086 14.6167 4.06894V5.09576C14.6167 5.16384 14.5868 5.22913 14.5337 5.27727C14.4805 5.32542 14.4085 5.35246 14.3333 5.35246C14.2582 5.35246 14.1861 5.32542 14.133 5.27727C14.0799 5.22913 14.05 5.16384 14.05 5.09576V4.06894ZM11.2167 4.06894C11.2167 4.00086 11.2465 3.93556 11.2997 3.88742C11.3528 3.83928 11.4249 3.81224 11.5 3.81224C11.5751 3.81224 11.6472 3.83928 11.7003 3.88742C11.7535 3.93556 11.7833 4.00086 11.7833 4.06894V5.09576C11.7833 5.16384 11.7535 5.22913 11.7003 5.27727C11.6472 5.32542 11.5751 5.35246 11.5 5.35246C11.4249 5.35246 11.3528 5.32542 11.2997 5.27727C11.2465 5.22913 11.2167 5.16384 11.2167 5.09576V4.06894ZM8.38333 4.06894C8.38333 4.00086 8.41318 3.93556 8.46632 3.88742C8.51945 3.83928 8.59152 3.81224 8.66667 3.81224C8.74181 3.81224 8.81388 3.83928 8.86701 3.88742C8.92015 3.93556 8.95 4.00086 8.95 4.06894V5.09576C8.95 5.16384 8.92015 5.22913 8.86701 5.27727C8.81388 5.32542 8.74181 5.35246 8.66667 5.35246C8.59152 5.35246 8.51945 5.32542 8.46632 5.27727C8.41318 5.22913 8.38333 5.16384 8.38333 5.09576V4.06894ZM5.55 4.06894C5.55 4.00086 5.57985 3.93556 5.63299 3.88742C5.68612 3.83928 5.75819 3.81224 5.83333 3.81224C5.90848 3.81224 5.98054 3.83928 6.03368 3.88742C6.08682 3.93556 6.11667 4.00086 6.11667 4.06894V5.09576C6.11667 5.16384 6.08682 5.22913 6.03368 5.27727C5.98054 5.32542 5.90848 5.35246 5.83333 5.35246C5.75819 5.35246 5.68612 5.32542 5.63299 5.27727C5.57985 5.22913 5.55 5.16384 5.55 5.09576V4.06894ZM4.41667 4.83905H4.98333V5.09576C4.98333 5.3 5.07289 5.49589 5.23229 5.64031C5.3917 5.78473 5.6079 5.86587 5.83333 5.86587C6.05877 5.86587 6.27497 5.78473 6.43437 5.64031C6.59378 5.49589 6.68333 5.3 6.68333 5.09576V4.83905H7.81667V5.09576C7.81667 5.3 7.90622 5.49589 8.06563 5.64031C8.22503 5.78473 8.44123 5.86587 8.66667 5.86587C8.8921 5.86587 9.1083 5.78473 9.26771 5.64031C9.42711 5.49589 9.51667 5.3 9.51667 5.09576V4.83905H10.65V5.09576C10.65 5.3 10.7396 5.49589 10.899 5.64031C11.0584 5.78473 11.2746 5.86587 11.5 5.86587C11.7254 5.86587 11.9416 5.78473 12.101 5.64031C12.2604 5.49589 12.35 5.3 12.35 5.09576V4.83905H13.4833V5.09576C13.4833 5.3 13.5729 5.49589 13.7323 5.64031C13.8917 5.78473 14.1079 5.86587 14.3333 5.86587C14.5588 5.86587 14.775 5.78473 14.9344 5.64031C15.0938 5.49589 15.1833 5.3 15.1833 5.09576V4.83905H16.3167V5.09576C16.3167 5.3 16.4062 5.49589 16.5656 5.64031C16.725 5.78473 16.9412 5.86587 17.1667 5.86587C17.3921 5.86587 17.6083 5.78473 17.7677 5.64031C17.9271 5.49589 18.0167 5.3 18.0167 5.09576V4.83905H18.5833C18.8088 4.83905 19.025 4.92019 19.1844 5.06461C19.3438 5.20904 19.4333 5.40492 19.4333 5.60917V6.37928H3.56667V5.60917C3.56667 5.40492 3.65622 5.20904 3.81563 5.06461C3.97503 4.92019 4.19123 4.83905 4.41667 4.83905ZM18.5833 18.1877H4.41667C4.19123 18.1877 3.97503 18.1065 3.81563 17.9621C3.65622 17.8177 3.56667 17.6218 3.56667 17.4176V6.89269H19.4333V17.4176C19.4333 17.6218 19.3438 17.8177 19.1844 17.9621C19.025 18.1065 18.8088 18.1877 18.5833 18.1877Z" fill="#006F7B"/>
<path d="M18.5833 4.32564H18.0167V4.06894C18.0167 3.86469 17.9271 3.66881 17.7677 3.52439C17.6083 3.37996 17.3921 3.29883 17.1667 3.29883C16.9412 3.29883 16.725 3.37996 16.5656 3.52439C16.4062 3.66881 16.3167 3.86469 16.3167 4.06894V4.32564H15.1833V4.06894C15.1833 3.86469 15.0938 3.66881 14.9344 3.52439C14.775 3.37996 14.5588 3.29883 14.3333 3.29883C14.1079 3.29883 13.8917 3.37996 13.7323 3.52439C13.5729 3.66881 13.4833 3.86469 13.4833 4.06894V4.32564H12.35V4.06894C12.35 3.86469 12.2604 3.66881 12.101 3.52439C11.9416 3.37996 11.7254 3.29883 11.5 3.29883C11.2746 3.29883 11.0584 3.37996 10.899 3.52439C10.7396 3.66881 10.65 3.86469 10.65 4.06894V4.32564H9.51667V4.06894C9.51667 3.86469 9.42711 3.66881 9.26771 3.52439C9.1083 3.37996 8.8921 3.29883 8.66667 3.29883C8.44123 3.29883 8.22503 3.37996 8.06563 3.52439C7.90622 3.66881 7.81667 3.86469 7.81667 4.06894V4.32564H6.68333V4.06894C6.68333 3.86469 6.59378 3.66881 6.43437 3.52439C6.27497 3.37996 6.05877 3.29883 5.83333 3.29883C5.6079 3.29883 5.3917 3.37996 5.23229 3.52439C5.07289 3.66881 4.98333 3.86469 4.98333 4.06894V4.32564H4.41667C4.04108 4.32605 3.68101 4.46141 3.41543 4.70203C3.14985 4.94265 3.00045 5.26888 3 5.60917V17.4176C3.00045 17.7578 3.14985 18.0841 3.41543 18.3247C3.68101 18.5653 4.04108 18.7007 4.41667 18.7011H18.5833C18.9589 18.7007 19.319 18.5653 19.5846 18.3247C19.8501 18.0841 19.9995 17.7578 20 17.4176V5.60917C19.9995 5.26888 19.8501 4.94265 19.5846 4.70203C19.319 4.46141 18.9589 4.32605 18.5833 4.32564ZM16.8833 4.06894C16.8833 4.00086 16.9132 3.93556 16.9663 3.88742C17.0195 3.83928 17.0915 3.81224 17.1667 3.81224C17.2418 3.81224 17.3139 3.83928 17.367 3.88742C17.4201 3.93556 17.45 4.00086 17.45 4.06894V5.09576C17.45 5.16384 17.4201 5.22913 17.367 5.27727C17.3139 5.32542 17.2418 5.35246 17.1667 5.35246C17.0915 5.35246 17.0195 5.32542 16.9663 5.27727C16.9132 5.22913 16.8833 5.16384 16.8833 5.09576V4.06894ZM14.05 4.06894C14.05 4.00086 14.0799 3.93556 14.133 3.88742C14.1861 3.83928 14.2582 3.81224 14.3333 3.81224C14.4085 3.81224 14.4805 3.83928 14.5337 3.88742C14.5868 3.93556 14.6167 4.00086 14.6167 4.06894V5.09576C14.6167 5.16384 14.5868 5.22913 14.5337 5.27727C14.4805 5.32542 14.4085 5.35246 14.3333 5.35246C14.2582 5.35246 14.1861 5.32542 14.133 5.27727C14.0799 5.22913 14.05 5.16384 14.05 5.09576V4.06894ZM11.2167 4.06894C11.2167 4.00086 11.2465 3.93556 11.2997 3.88742C11.3528 3.83928 11.4249 3.81224 11.5 3.81224C11.5751 3.81224 11.6472 3.83928 11.7003 3.88742C11.7535 3.93556 11.7833 4.00086 11.7833 4.06894V5.09576C11.7833 5.16384 11.7535 5.22913 11.7003 5.27727C11.6472 5.32542 11.5751 5.35246 11.5 5.35246C11.4249 5.35246 11.3528 5.32542 11.2997 5.27727C11.2465 5.22913 11.2167 5.16384 11.2167 5.09576V4.06894ZM8.38333 4.06894C8.38333 4.00086 8.41318 3.93556 8.46632 3.88742C8.51945 3.83928 8.59152 3.81224 8.66667 3.81224C8.74181 3.81224 8.81388 3.83928 8.86701 3.88742C8.92015 3.93556 8.95 4.00086 8.95 4.06894V5.09576C8.95 5.16384 8.92015 5.22913 8.86701 5.27727C8.81388 5.32542 8.74181 5.35246 8.66667 5.35246C8.59152 5.35246 8.51945 5.32542 8.46632 5.27727C8.41318 5.22913 8.38333 5.16384 8.38333 5.09576V4.06894ZM5.55 4.06894C5.55 4.00086 5.57985 3.93556 5.63299 3.88742C5.68612 3.83928 5.75819 3.81224 5.83333 3.81224C5.90848 3.81224 5.98054 3.83928 6.03368 3.88742C6.08682 3.93556 6.11667 4.00086 6.11667 4.06894V5.09576C6.11667 5.16384 6.08682 5.22913 6.03368 5.27727C5.98054 5.32542 5.90848 5.35246 5.83333 5.35246C5.75819 5.35246 5.68612 5.32542 5.63299 5.27727C5.57985 5.22913 5.55 5.16384 5.55 5.09576V4.06894ZM4.41667 4.83905H4.98333V5.09576C4.98333 5.3 5.07289 5.49589 5.23229 5.64031C5.3917 5.78473 5.6079 5.86587 5.83333 5.86587C6.05877 5.86587 6.27497 5.78473 6.43437 5.64031C6.59378 5.49589 6.68333 5.3 6.68333 5.09576V4.83905H7.81667V5.09576C7.81667 5.3 7.90622 5.49589 8.06563 5.64031C8.22503 5.78473 8.44123 5.86587 8.66667 5.86587C8.8921 5.86587 9.1083 5.78473 9.26771 5.64031C9.42711 5.49589 9.51667 5.3 9.51667 5.09576V4.83905H10.65V5.09576C10.65 5.3 10.7396 5.49589 10.899 5.64031C11.0584 5.78473 11.2746 5.86587 11.5 5.86587C11.7254 5.86587 11.9416 5.78473 12.101 5.64031C12.2604 5.49589 12.35 5.3 12.35 5.09576V4.83905H13.4833V5.09576C13.4833 5.3 13.5729 5.49589 13.7323 5.64031C13.8917 5.78473 14.1079 5.86587 14.3333 5.86587C14.5588 5.86587 14.775 5.78473 14.9344 5.64031C15.0938 5.49589 15.1833 5.3 15.1833 5.09576V4.83905H16.3167V5.09576C16.3167 5.3 16.4062 5.49589 16.5656 5.64031C16.725 5.78473 16.9412 5.86587 17.1667 5.86587C17.3921 5.86587 17.6083 5.78473 17.7677 5.64031C17.9271 5.49589 18.0167 5.3 18.0167 5.09576V4.83905H18.5833C18.8088 4.83905 19.025 4.92019 19.1844 5.06461C19.3438 5.20904 19.4333 5.40492 19.4333 5.60917V6.37928H3.56667V5.60917C3.56667 5.40492 3.65622 5.20904 3.81563 5.06461C3.97503 4.92019 4.19123 4.83905 4.41667 4.83905ZM18.5833 18.1877H4.41667C4.19123 18.1877 3.97503 18.1065 3.81563 17.9621C3.65622 17.8177 3.56667 17.6218 3.56667 17.4176V6.89269H19.4333V17.4176C19.4333 17.6218 19.3438 17.8177 19.1844 17.9621C19.025 18.1065 18.8088 18.1877 18.5833 18.1877Z" stroke="#006F7B" stroke-width="0.4" mask="url(#path-1-outside-1_4896_25145)"/>
<path d="M7.96686 7.68418H6.26686C6.09306 7.68418 5.92464 7.74664 5.79903 7.86045C5.67309 7.97455 5.6002 8.13154 5.6002 8.29759V9.83781C5.6002 10.0039 5.67309 10.1609 5.79903 10.275C5.92464 10.3888 6.09306 10.4512 6.26686 10.4512H7.96686C8.14066 10.4512 8.30909 10.3888 8.4347 10.275C8.56064 10.1609 8.63353 10.0039 8.63353 9.83781V8.29759C8.63353 8.13154 8.56064 7.97455 8.4347 7.86045C8.30909 7.74664 8.14066 7.68418 7.96686 7.68418ZM6.36686 9.73781V8.39759H7.86686V9.73781H6.36686Z" fill="#006F7B" stroke="#006F7B" stroke-width="0.2"/>
<path d="M12.3663 7.68418H10.6663C10.4925 7.68418 10.324 7.74664 10.1984 7.86045C10.0725 7.97455 9.99961 8.13154 9.99961 8.29759V9.83781C9.99961 10.0039 10.0725 10.1609 10.1984 10.275C10.324 10.3888 10.4925 10.4512 10.6663 10.4512H12.3663C12.5401 10.4512 12.7085 10.3888 12.8341 10.275C12.96 10.1609 13.0329 10.0039 13.0329 9.83781V8.29759C13.0329 8.13154 12.96 7.97455 12.8341 7.86045C12.7085 7.74664 12.5401 7.68418 12.3663 7.68418ZM10.7663 9.73781V8.39759H12.2663V9.73781H10.7663Z" fill="#006F7B" stroke="#006F7B" stroke-width="0.2"/>
<path d="M16.7667 7.68418H15.0667C14.8929 7.68418 14.7244 7.74664 14.5988 7.86045C14.4729 7.97455 14.4 8.13154 14.4 8.29759V9.83781C14.4 10.0039 14.4729 10.1609 14.5988 10.275C14.7244 10.3888 14.8929 10.4512 15.0667 10.4512H16.7667C16.9405 10.4512 17.1089 10.3888 17.2345 10.275C17.3604 10.1609 17.4333 10.0039 17.4333 9.83781V8.29759C17.4333 8.13154 17.3604 7.97455 17.2345 7.86045C17.1089 7.74664 16.9405 7.68418 16.7667 7.68418ZM15.1667 9.73781V8.39759H16.6667V9.73781H15.1667Z" fill="#006F7B" stroke="#006F7B" stroke-width="0.2"/>
</svg>
