<svg width="23" height="22" viewBox="0 0 23 22" fill="none" xmlns="http://www.w3.org/2000/svg">
<path d="M8.79761 14.6846V13.3687C9.52322 13.3687 10.1135 12.7784 10.1135 12.0528V9.42112C10.1135 8.08083 9.19661 6.95364 7.95805 6.62538C8.46677 6.24097 8.79761 5.63272 8.79761 4.94718C8.79761 3.78627 7.85314 2.8418 6.69223 2.8418C5.53132 2.8418 4.58685 3.78627 4.58685 4.94718C4.58685 5.60463 4.88996 6.19197 5.36343 6.57861C4.02441 6.83203 3.00781 8.00913 3.00781 9.42112V10.2106C3.00781 10.9362 3.59807 11.5265 4.32368 11.5265H4.58685V17.9744C4.58685 18.6273 5.11825 19.1587 5.77113 19.1587C6.1451 19.1587 6.47511 18.981 6.69223 18.7097C6.90935 18.981 7.23936 19.1587 7.61334 19.1587C8.12735 19.1587 8.56124 18.8276 8.72501 18.3691H16.2394L19.31 16.5269L16.2394 14.6847L8.79761 14.6846ZM8.79761 16.79H15.9033V17.8426H8.79761V16.79ZM15.9033 15.2109V16.2636H8.79761V15.2109H15.9033ZM5.11319 4.94718C5.11319 4.07636 5.82141 3.36814 6.69223 3.36814C7.56305 3.36814 8.27127 4.07636 8.27127 4.94718C8.27127 5.81799 7.56305 6.52622 6.69223 6.52622C5.82141 6.52622 5.11319 5.81799 5.11319 4.94718ZM6.29747 11.5265C6.80538 11.5265 7.21858 11.1133 7.21858 10.6054C7.21858 10.0975 6.80538 9.68429 6.29747 9.68429H5.11319V9.15794H7.21858V12.316H5.11319V11.5265H6.29747ZM5.77113 18.6322C5.40843 18.6322 5.11319 18.3369 5.11319 17.9742V12.8425H6.42906V17.9742C6.42906 18.3369 6.13381 18.6322 5.77113 18.6322ZM8.27127 8.6316V17.9741C8.27127 18.3368 7.97602 18.632 7.61334 18.632C7.25065 18.632 6.9554 18.3368 6.9554 17.9741V12.8424H7.74492V8.6316H4.58685V9.68429H4.0605V10.2106H6.29747C6.51506 10.2106 6.69223 10.3878 6.69223 10.6054C6.69223 10.823 6.51506 11.0002 6.29747 11.0002H4.32368C3.88837 11.0002 3.53416 10.6459 3.53416 10.2106V9.42112C3.53416 8.11524 4.59683 7.05256 5.90271 7.05256H7.21858C8.52445 7.05256 9.58713 8.11524 9.58713 9.42112V12.0528C9.58713 12.4881 9.23292 12.8424 8.79761 12.8424V8.6316H8.27127ZM16.4296 17.6411V15.4126L18.2865 16.5269L16.4296 17.6411Z" fill="#006F7B"/>
<path d="M15.6405 9.94727H11.4297V13.6317H15.6405V9.94727ZM15.1141 13.1053H11.956V10.4736H15.1141V13.1053Z" fill="#006F7B"/>
<path d="M15.6404 6.10845L16.8792 4.86964L16.5071 4.49756L15.6405 5.36425V5.20999H11.4297V8.89441H15.6405L15.6404 6.10845ZM11.956 8.36809V5.73637H15.1141V5.89063L13.535 7.46966L12.6685 6.60309L12.2964 6.97517L13.5351 8.21386L15.1141 6.63482V8.36812L11.956 8.36809Z" fill="#006F7B"/>
<path d="M16.167 9.94727H19.3251V10.4736H16.167V9.94727Z" fill="#006F7B"/>
<path d="M16.167 8.36816H19.3251V8.89451H16.167V8.36816Z" fill="#006F7B"/>
<path d="M16.167 7.31592H19.3251V7.84226H16.167V7.31592Z" fill="#006F7B"/>
<path d="M16.167 6.26318H19.3251V6.78953H16.167V6.26318Z" fill="#006F7B"/>
<path d="M17.2188 5.20996H19.3241V5.73631H17.2188V5.20996Z" fill="#006F7B"/>
<path d="M16.167 11H19.3251V11.5263H16.167V11Z" fill="#006F7B"/>
<path d="M18.7988 12.0522H19.3252V12.5786H18.7988V12.0522Z" fill="#006F7B"/>
<path d="M16.167 12.0522H18.2724V12.5786H16.167V12.0522Z" fill="#006F7B"/>
<path d="M16.167 13.1055H19.3251V13.6318H16.167V13.1055Z" fill="#006F7B"/>
</svg>
