<svg width="157" height="165" viewBox="0 0 157 165" fill="none" xmlns="http://www.w3.org/2000/svg">
<path d="M2.80337 156.798C2.13982 156.798 1.4716 156.564 0.934224 156.083C-0.219972 155.05 -0.318103 153.279 0.714599 152.125C4.05569 148.387 8.75659 149.312 12.1865 149.985C15.5836 150.653 17.3079 150.836 18.4014 149.611C19.4948 148.387 19.121 146.7 18.0789 143.396C17.0275 140.06 15.5836 135.49 18.9247 131.756C22.2658 128.023 26.9667 128.943 30.3966 129.621C33.7938 130.289 35.518 130.471 36.6068 129.247C37.6395 128.093 39.4105 127.995 40.5647 129.027C41.7189 130.06 41.8171 131.831 40.7844 132.985C37.4433 136.719 32.7424 135.798 29.3125 135.121C25.9153 134.453 24.191 134.27 23.1023 135.495C22.0088 136.719 22.3826 138.406 23.4247 141.709C24.4761 145.046 25.92 149.616 22.5789 153.35C19.2378 157.083 14.5369 156.163 11.107 155.49C7.70987 154.822 5.98559 154.639 4.89681 155.864C4.34074 156.48 3.57439 156.798 2.80337 156.798Z" fill="#10CDE1"/>
<path d="M113.313 46.9402C111.809 46.9402 110.561 45.7439 110.514 44.2252C110.351 39.2159 114.393 36.6412 117.341 34.758C120.262 32.8935 121.631 31.8375 121.58 30.1973C121.528 28.5571 120.089 27.5945 117.056 25.9216C113.991 24.2347 109.795 21.9264 109.631 16.917C109.468 11.9077 113.51 9.333 116.458 7.44984C119.379 5.58537 120.748 4.52931 120.697 2.89381C120.645 1.34709 121.86 0.0527102 123.407 0.00130881C124.949 -0.0454197 126.248 1.16485 126.299 2.71157C126.463 7.72087 122.421 10.2956 119.472 12.1788C116.552 14.0432 115.183 15.0993 115.234 16.7348C115.285 18.375 116.725 19.3423 119.757 21.0105C122.823 22.6974 127.019 25.0058 127.183 30.0151C127.346 35.0244 123.304 37.5991 120.355 39.4823C117.435 41.3467 116.066 42.4028 116.117 44.043C116.169 45.5897 114.954 46.8841 113.407 46.9355C113.374 46.9355 113.342 46.9402 113.313 46.9402Z" fill="#10CDE1"/>
<path d="M81.2829 27.5184C80.7969 27.5184 80.3016 27.3923 79.853 27.1259C78.5212 26.3362 78.0867 24.6119 78.8764 23.2848L82.2782 17.5652C83.0679 16.2335 84.7922 15.7989 86.1193 16.5886C87.4511 17.3783 87.8856 19.1026 87.0959 20.4297L83.6941 26.1493C83.1707 27.0278 82.2408 27.5184 81.2829 27.5184Z" fill="#006F7B"/>
<path d="M14.0214 115.834C13.0728 115.834 12.1476 115.353 11.6195 114.484C10.8158 113.161 11.2364 111.437 12.5635 110.633L19.7129 106.297C21.0354 105.493 22.7596 105.914 23.5634 107.241C24.3671 108.563 23.9465 110.288 22.6195 111.091L15.47 115.428C15.0167 115.703 14.5167 115.834 14.0214 115.834Z" fill="#006F7B"/>
<path d="M121.147 147.111C120.661 147.111 120.166 146.985 119.717 146.718C118.385 145.929 117.951 144.204 118.741 142.877L122.142 137.158C122.932 135.826 124.652 135.391 125.983 136.181C127.315 136.971 127.75 138.695 126.96 140.022L123.558 145.742C123.035 146.62 122.1 147.111 121.147 147.111Z" fill="#10CDE1"/>
<path d="M20.242 76.5983C19.5223 76.5983 18.8074 76.3226 18.2607 75.7759C17.1672 74.6824 17.1672 72.9067 18.2607 71.8086L22.9662 67.103C24.0597 66.0096 25.8354 66.0096 26.9335 67.103C28.0269 68.1965 28.0269 69.9722 26.9335 71.0703L22.2279 75.7759C21.6765 76.3226 20.9616 76.5983 20.242 76.5983Z" fill="#10CDE1"/>
<path d="M148.759 67.6153C148.039 67.6153 147.324 67.3396 146.777 66.7929L142.072 62.092C140.978 60.9986 140.978 59.2229 142.072 58.1248C143.165 57.0313 144.941 57.0313 146.039 58.1248L150.745 62.8303C151.838 63.9238 151.838 65.6995 150.745 66.7976C150.193 67.3443 149.478 67.6153 148.759 67.6153Z" fill="#006F7B"/>
<path d="M97.9884 164.335C96.8622 164.335 95.8015 163.653 95.3716 162.54L92.9697 156.335C92.409 154.891 93.1286 153.265 94.5725 152.709C96.0164 152.148 97.6426 152.868 98.1986 154.312L100.6 160.517C101.161 161.961 100.442 163.587 98.9977 164.143C98.6659 164.274 98.3248 164.335 97.9884 164.335Z" fill="#10CDE1"/>
<path d="M38.2792 36.108C37.6297 36.108 36.9801 35.8837 36.4521 35.4304L31.4101 31.0893C30.2372 30.08 30.1017 28.309 31.1157 27.1361C32.125 25.9632 33.8961 25.8277 35.0689 26.8417L40.111 31.1828C41.2838 32.1921 41.4194 33.9631 40.4053 35.136C39.8539 35.7809 39.0689 36.108 38.2792 36.108Z" fill="#006F7B"/>
<path d="M154.193 127.76C152.969 127.76 151.843 126.951 151.497 125.713L149.693 119.307C149.273 117.816 150.142 116.269 151.632 115.849C153.123 115.428 154.67 116.297 155.09 117.788L156.894 124.194C157.315 125.685 156.445 127.232 154.955 127.652C154.702 127.727 154.445 127.76 154.193 127.76Z" fill="#006F7B"/>
<path d="M85.6706 49.8303C63.1224 49.8303 44.8472 68.1125 44.8472 90.6537C44.8472 113.194 63.1242 131.477 85.6706 131.477C108.219 131.477 126.494 113.195 126.494 90.6537C126.493 68.1132 108.216 49.8303 85.6706 49.8303ZM85.6706 126.58C65.8295 126.58 49.7445 110.496 49.7445 90.6537C49.7445 70.8126 65.8301 54.7277 85.6706 54.7277C105.511 54.7277 121.595 70.8132 121.595 90.6537C121.595 110.495 105.511 126.58 85.6706 126.58ZM100.844 80.3364C99.9144 79.3518 98.3631 79.3045 97.3762 80.2314L80.959 95.6466L74.2526 88.5017C73.3227 87.5178 71.7722 87.4705 70.7853 88.3966C69.8006 89.3265 69.7533 90.877 70.6802 91.864L79.0641 100.795H79.0633C79.9932 101.78 81.5437 101.827 82.5307 100.9C82.5892 100.844 82.6455 100.787 82.698 100.726C82.7506 100.665 82.8234 100.621 82.8819 100.57L100.738 83.7983C101.719 82.8691 101.767 81.3223 100.844 80.3361L100.844 80.3364Z" fill="#006F7B"/>
</svg>
