<svg width="75" height="75" viewBox="0 0 75 75" fill="none" xmlns="http://www.w3.org/2000/svg">
<path d="M18.1094 72.4607L18.8854 72.0727C18.8854 72.0727 19.8295 67.1194 20.3856 64.951C20.6227 64.0328 21.196 61.8902 21.778 59.7218C22.5756 56.7688 23.3903 53.777 23.3903 53.777L22.748 42.7669C22.748 42.7669 23.3731 44.211 24.0413 45.9354C24.7095 47.6598 27.2271 52.9407 27.2271 52.9407C25.4466 55.2772 24.5025 58.0018 24.8345 62.2265C25.1664 66.4512 25.8907 70.4173 25.8907 70.4173L26.4726 69.831L26.6192 69.6888C26.6192 69.6888 28.7316 63.5715 29.7878 60.0667C30.5296 57.4334 31.124 54.7608 31.5682 52.0613C31.5682 52.0613 29.2058 44.4912 28.7575 43.0643C28.2399 41.5501 27.7996 40.0105 27.4383 38.4516C27.2755 37.6918 27.1874 36.9179 27.1753 36.1409C26.1308 36.438 25.0681 36.667 23.9938 36.8264C23.6533 36.8824 23.2869 36.9384 22.8946 36.9902C22.5023 37.0419 22.2393 37.0678 21.9332 37.0807C20.5858 37.1705 19.2335 37.0083 17.9456 36.6022C17.6093 37.9903 17.5145 43.7196 17.8895 46.9485C18.1957 49.1804 18.6786 51.3845 19.3337 53.5399C19.3337 53.5399 17.1782 56.2343 17.0532 59.5753C16.9282 62.9163 18.1094 72.4607 18.1094 72.4607Z" fill="#280821"/>
<path d="M24.1665 15.3533C24.1665 15.4396 24.1924 15.5301 24.2096 15.6249C23.6406 15.7068 22.5542 15.7974 22.3645 15.3016C22.2932 15.1169 22.2814 14.9145 22.3309 14.7228C22.3803 14.531 22.4886 14.3596 22.6404 14.2325C23.0379 14.7378 23.5655 15.1253 24.1665 15.3533Z" fill="#F3E1D0"/>
<path d="M23.6712 8.01188C23.6617 7.88848 23.6617 7.76453 23.6712 7.64114C23.7143 7.95584 23.7143 8.18432 23.6712 8.01188Z" fill="#F3E1D0"/>
<path d="M21.458 10.3786C21.4577 10.5114 21.4678 10.644 21.4882 10.7753C21.5203 11.3106 21.7509 11.8148 22.1348 12.1892C22.173 11.9306 22.2912 11.6905 22.473 11.5026C22.6547 11.3147 22.8907 11.1885 23.1479 11.1417C23.3593 11.0972 23.5794 11.1248 23.7733 11.2201C23.9671 11.3155 24.1233 11.473 24.217 11.6676C24.411 10.4771 24.7273 9.30985 25.1611 8.18437C25.4661 7.54028 25.8706 6.94819 26.3596 6.42981C26.6427 6.08075 27.0451 5.84887 27.489 5.77886C28.015 5.77886 28.2736 6.24875 28.5194 6.80918C28.6271 7.05059 28.7263 7.30925 28.847 7.55928C29.0311 7.88066 29.2921 8.15131 29.6066 8.34694C29.9212 8.54257 30.2793 8.65705 30.649 8.68013C31.1577 8.77066 32.3992 8.512 32.6493 8.05935V8.02918C32.8605 7.55928 33.1752 7.05921 33.5934 7.42564C34.0115 7.79207 34.5547 9.72338 34.4556 11.5167C34.4556 11.5642 34.4556 11.6159 34.4556 11.6633C34.296 13.4912 34.4038 13.6765 34.4038 13.6765C34.5781 14.0492 34.6805 14.4514 34.7056 14.862C34.9642 14.8275 35.9687 14.5387 36.1153 13.8059C36.2618 13.073 35.4471 13.0213 35.4471 13.0213C35.735 12.9484 36.0033 12.8129 36.2329 12.6243C36.4624 12.4358 36.6474 12.1989 36.7748 11.9306L36.8093 11.8401C36.8507 11.7269 36.881 11.6099 36.8999 11.4909C36.8999 11.4434 36.8999 11.3917 36.8999 11.3486C36.8999 11.3055 36.8999 11.2926 36.8999 11.271C36.9091 11.1628 36.9019 11.0537 36.8783 10.9477C36.8706 10.9046 36.8576 10.8626 36.8395 10.8227C36.8283 10.796 36.8153 10.7701 36.8007 10.7451C36.7366 10.6433 36.6366 10.5695 36.5205 10.5381H36.4343C36.3199 10.5254 36.2041 10.5356 36.0937 10.5683C36.3805 10.1 36.5956 9.59146 36.7317 9.05949L36.7705 8.91292C36.9519 8.16257 36.971 7.38214 36.8266 6.62381L36.8007 6.49017C36.3696 4.52868 34.6926 5.19688 34.2443 5.41243L34.1495 5.45985C34.0498 4.84538 33.8656 4.24766 33.602 3.68374C33.5718 3.62338 33.5416 3.55872 33.5071 3.49836C33.076 2.69653 32.3992 1.94642 31.3258 1.89469C30.8919 1.85142 30.4549 1.93868 30.0709 2.14527C29.6869 2.35187 29.3733 2.66841 29.1703 3.05434C29.1287 3.12242 29.0913 3.19297 29.0582 3.26557C28.8882 3.62472 28.7775 4.00907 28.7306 4.40366C28.7306 4.40366 28.6702 4.33469 28.5668 4.23554L28.4935 4.17087C28.1486 3.86048 27.4761 3.36041 26.8338 3.48543C26.6868 3.52026 26.5515 3.5931 26.4415 3.69667C26.4156 3.72253 26.3898 3.74409 26.3682 3.76995C26.06 4.14256 25.8272 4.57157 25.6828 5.03306C25.6828 5.07617 25.6526 5.11928 25.6396 5.16239C25.5146 5.54176 25.4456 5.83921 25.4456 5.83921C25.4456 5.83921 25.1094 5.00289 24.4283 5.13653C23.9713 5.22275 23.7515 6.64536 23.6782 7.68861C23.6782 7.71879 23.6782 7.75327 23.6782 7.78345C23.6782 8.01624 23.6566 8.21455 23.6566 8.39561C23.704 8.68875 23.704 8.89137 23.6566 8.74479C23.6494 8.62851 23.6494 8.51189 23.6566 8.39561C23.6172 8.10499 23.5314 7.82261 23.4023 7.55928C23.3814 7.52001 23.3553 7.48376 23.3247 7.45151C23.29 7.39804 23.2388 7.35733 23.1789 7.33555C23.119 7.31377 23.0536 7.3121 22.9927 7.3308L22.9238 7.36098C22.8877 7.37901 22.8555 7.40391 22.8289 7.43426C22.359 7.86536 22.3331 9.38281 22.497 10.2579C22.497 10.2105 22.1478 9.30091 21.6865 9.63285C21.6064 9.72014 21.5452 9.82298 21.5066 9.93498C21.4681 10.047 21.453 10.1657 21.4623 10.2838L21.458 10.3786Z" fill="#A5A5A5"/>
<path d="M27.46 20.276L27.5235 20.2379L27.46 20.276Z" fill="#714B31"/>
<path d="M27.46 20.276L27.5235 20.2379L27.46 20.276Z" fill="url(#paint0_linear_353_1359)"/>
<path d="M26.0071 20.4965C26.3069 20.56 26.6168 20.56 26.9167 20.4965C26.5735 20.6159 26.2021 20.6279 25.8519 20.531C25.3232 20.2893 24.8616 19.9223 24.5068 19.4619V19.4317C24.8618 19.9562 25.3948 20.3345 26.0071 20.4965Z" fill="#714B31"/>
<g style="mix-blend-mode:multiply" opacity="0.4">
<path d="M18.1094 72.4607L18.8854 72.0727C18.769 69.0938 18.2603 61.0237 18.6655 58.7087C18.9405 57.0582 19.4653 55.4592 20.2218 53.9667C19.6096 52.5786 18.4974 45.5689 18.4974 45.5689C18.4974 45.5689 21.0021 45.293 21.278 44.5128C21.5539 43.7325 19.5018 39.1198 19.5018 39.1198L21.6142 39.2318C21.6142 39.2318 21.791 37.8653 21.9332 37.0419C20.5858 37.1317 19.2335 36.9694 17.9456 36.5634C17.6093 37.9515 17.5145 43.6807 17.8895 46.9097C18.1957 49.1416 18.6786 51.3456 19.3337 53.5011C19.3337 53.5011 17.1782 56.1954 17.0532 59.5364C16.9282 62.8774 18.1094 72.4607 18.1094 72.4607Z" fill="#280821"/>
</g>
<path d="M26.2101 18.203C26.8093 18.5695 27.6197 19.1169 27.6197 19.1169L27.5896 19.2247C26.9563 19.0478 26.3665 18.7421 25.8568 18.3267C25.3472 17.9113 24.9289 17.3951 24.6279 16.8106V16.6597C25.0932 17.2342 25.6242 17.7522 26.2101 18.203Z" fill="url(#paint1_linear_353_1359)"/>
<path d="M22.235 13.4179C22.3189 13.7073 22.4548 13.979 22.636 14.2198C22.8614 14.5141 23.1355 14.7678 23.4464 14.9699C23.6714 15.1206 23.913 15.2449 24.1663 15.3406C24.1663 15.4268 24.1922 15.5174 24.2095 15.6122C24.2962 16.0258 24.4413 16.425 24.6406 16.7977C24.9415 17.3823 25.3599 17.8984 25.8695 18.3138C26.3791 18.7292 26.969 19.0349 27.6022 19.2118C27.7789 19.2593 27.96 19.3067 28.154 19.3412C28.4428 19.3929 28.736 19.4317 29.0162 19.4576C29.9067 19.5477 30.806 19.4865 31.676 19.2765C32.099 19.1687 32.5062 19.0064 32.8874 18.7937L32.9693 18.7463C33.5963 18.3831 34.0813 17.8176 34.3445 17.1426C34.6395 16.4176 34.762 15.6339 34.7023 14.8535C34.6773 14.4428 34.5749 14.0406 34.4006 13.668C34.4006 13.668 34.2928 13.4826 34.4523 11.6547C34.5902 10.0295 34.1505 8.23616 33.7582 7.60245C33.7191 7.53469 33.6713 7.47237 33.616 7.41708C33.1849 7.05065 32.8831 7.55072 32.6719 8.02061C32.4606 8.49051 31.1803 8.7621 30.6586 8.67157C30.289 8.64849 29.9308 8.534 29.6163 8.33838C29.3018 8.14275 29.0408 7.8721 28.8567 7.55072C28.4644 6.74026 28.2531 5.77029 27.4987 5.77029C26.7443 5.77029 25.7183 7.02478 25.1708 8.17581C24.7373 9.2999 24.4209 10.4657 24.2267 11.6547C24.133 11.4601 23.9767 11.3026 23.7829 11.2072C23.5891 11.1119 23.3689 11.0843 23.1576 11.1288C23.025 11.1558 22.8972 11.2023 22.7782 11.2668C22.6095 11.3592 22.4646 11.4894 22.3546 11.6472C22.2447 11.805 22.1728 11.9861 22.1445 12.1764C22.0794 12.5917 22.1104 13.0164 22.235 13.4179Z" fill="url(#paint2_radial_353_1359)"/>
<path d="M31.9439 11.1417C31.8879 10.7709 33.3967 9.8872 34.2847 11.2495C34.2847 11.2495 34.4701 11.59 33.8537 11.4047C33.2251 11.2662 32.5865 11.1783 31.9439 11.1417Z" fill="#A5A5A5"/>
<path d="M29.2666 10.8055C29.452 10.8055 29.0036 9.88724 28.1156 9.86137C27.5309 9.87645 26.9687 10.0892 26.5205 10.4649C26.5205 10.4649 28.5855 10.8831 29.2666 10.8055Z" fill="#A5A5A5"/>
<g style="mix-blend-mode:multiply" opacity="0.4">
<path d="M23.9512 39.2233C24.6409 39.3181 26.6714 38.6801 27.4387 38.4602C27.2759 37.7004 27.1878 36.9265 27.1758 36.1496C26.1312 36.4466 25.0685 36.6756 23.9943 36.835C23.9814 37.7015 23.9512 39.2233 23.9512 39.2233Z" fill="#280821"/>
</g>
<path d="M29.0029 19.4835C29.0029 19.4835 30.6756 19.7464 31.6714 19.3283C31.6724 19.3154 31.6724 19.3024 31.6714 19.2895C31.6714 19.2464 31.6714 19.1688 31.6499 19.0696C31.5852 18.5566 31.3653 17.4401 30.6799 17.3452C29.9945 17.2504 29.4771 18.3583 29.1969 19.0179C29.0978 19.2464 29.0331 19.4231 29.0116 19.4748L29.0029 19.4835Z" fill="#A5A5A5"/>
<path d="M21.377 37.3998C21.9544 37.3686 22.53 37.3082 23.1013 37.2187C23.5269 37.1504 23.9474 37.0539 24.3601 36.9299C24.4275 34.6198 24.7558 32.3247 25.3387 30.0884C26.1578 27.2216 27.0631 22.8029 27.4683 20.8069C27.5201 20.5612 27.5589 20.3542 27.5934 20.1861L27.5244 20.2378L27.464 20.268C27.2949 20.3668 27.1117 20.4395 26.9208 20.4836C26.5768 20.5994 26.2061 20.6099 25.856 20.5137C25.328 20.2751 24.8673 19.9093 24.5153 19.4489C24.2092 21.488 23.11 27.7561 22.6746 30.5798C22.3297 32.7913 21.7261 35.7487 21.377 37.3998Z" fill="#E2C697"/>
<path d="M24.3381 38.4861C24.55 38.5239 24.7659 38.534 24.9804 38.5163C25.8085 38.4546 26.633 38.351 27.4506 38.2059C27.2868 37.6498 27.5066 36.2574 27.5066 36.2574C27.5282 36.3781 27.7998 37.1195 30.6709 39.1845C33.8437 41.465 35.456 41.4089 35.456 41.4089L35.5293 41.3658C35.8551 41.074 36.1446 40.744 36.3915 40.3829C34.8611 39.1845 30.6881 32.9552 30.6881 32.9552C30.6881 32.9552 31.8003 27.1181 31.5244 23.9496C31.485 23.3536 31.339 22.7696 31.0933 22.2252C30.4294 20.8284 29.1965 20.2896 28.2481 19.9447L27.7006 19.7507L27.6187 20.1818C27.5411 20.5698 27.4161 21.1992 27.2566 21.9752C26.7953 24.2212 26.0495 27.6915 25.3641 30.0841C24.7811 32.3204 24.4529 34.6155 24.3855 36.9255C24.3251 37.8783 24.3381 38.4861 24.3381 38.4861Z" fill="url(#paint3_linear_353_1359)"/>
<path d="M14.3848 33.0888C14.6607 35.0374 18.3336 41.1546 18.3336 41.1546C18.4457 41.2667 18.6914 41.2451 18.9673 41.1546C19.4103 41.0152 19.8425 40.8437 20.2606 40.6416C20.2046 40.2536 19.8855 38.4861 19.8855 38.4861L20.6141 38.581L21.1099 38.6499C21.1099 38.6499 21.2133 38.1671 21.3728 37.3998C21.722 35.7487 22.3256 32.7914 22.6661 30.5885C23.0239 28.2735 23.8258 23.6521 24.2741 20.9362C24.3689 20.337 24.4508 19.8283 24.5069 19.4576C24.55 19.1687 24.5759 18.9661 24.5845 18.867C24.2588 18.8405 23.9316 18.8405 23.6059 18.867C22.9842 18.9072 22.3678 19.0068 21.7651 19.1644L21.4547 19.2463C19.7821 19.7378 18.7733 19.9706 16.6049 24.5876C15.634 26.6535 14.955 28.8443 14.5874 31.0971C14.4787 31.7562 14.411 32.4214 14.3848 33.0888Z" fill="url(#paint4_linear_353_1359)"/>
<g style="mix-blend-mode:multiply" opacity="0.5">
<path d="M20.5574 25.4283C20.5574 25.4283 19.1089 30.1014 18.001 32.0456C19.8504 37.6024 19.7254 37.3481 19.9064 38.512C19.9064 38.512 19.8461 36.2703 18.4795 32.0456C18.4795 32.0068 20.0013 29.6444 20.5574 25.4283Z" fill="#5E5E5E"/>
</g>
<g style="mix-blend-mode:multiply" opacity="0.5">
<path d="M27.5064 36.2573C27.528 36.378 27.7996 37.1195 30.6707 39.1845C33.8435 41.465 35.4558 41.4089 35.4558 41.4089L35.5291 41.3658C31.4725 39.9432 28.0237 35.8694 28.0237 35.8694C27.8599 32.8129 29.636 27.8122 30.0801 26.5836C29.2022 28.2318 28.4945 29.9651 27.9677 31.7567C27.1184 34.6494 27.5064 36.2573 27.5064 36.2573Z" fill="#5E5E5E"/>
</g>
<g style="mix-blend-mode:screen" opacity="0.4">
<path d="M24.3478 38.4948C24.5595 38.5345 24.7756 38.5447 24.9901 38.5249C25.1496 35.6625 25.917 29.6099 26.9085 26.1482C27.8095 22.9883 28.163 21.0397 28.2362 19.9706L27.6844 19.7766C27.6844 19.7766 27.6543 19.9275 27.6025 20.2077C27.3094 21.7122 26.2705 26.8897 25.3522 30.1229C24.7656 32.3585 24.4373 34.654 24.3736 36.9644C24.3348 37.8912 24.3478 38.4948 24.3478 38.4948Z" fill="#686663"/>
</g>
<g style="mix-blend-mode:screen" opacity="0.4">
<path d="M20.6182 38.581L21.1139 38.6499C21.1139 38.6499 21.2174 38.1671 21.3769 37.3998C21.7261 35.7487 22.3296 32.7914 22.6702 30.5885C23.1013 27.7648 24.2049 21.4967 24.511 19.4576C24.5541 19.1687 24.5799 18.9661 24.5885 18.867C24.2629 18.8405 23.9356 18.8405 23.61 18.867C23.541 21.8243 22.7909 25.5403 22.2261 28.9244C21.7347 31.8688 21.0622 36.3996 20.6182 38.581Z" fill="#686663"/>
</g>
<path d="M24.5068 19.4488C24.8659 19.9131 25.3338 20.2817 25.8691 20.5223C26.2347 20.6197 26.6206 20.6107 26.9813 20.4964C27.1953 20.4247 27.4029 20.3353 27.6021 20.2291L27.6926 19.798L27.8521 19.1773C27.1794 18.9904 26.5526 18.6664 26.0111 18.2257C25.4695 17.7851 25.0249 17.2372 24.7051 16.6165L24.5241 19.4402L24.5068 19.4488Z" fill="url(#paint5_linear_353_1359)"/>
<g style="mix-blend-mode:multiply" opacity="0.25">
<path d="M24.5068 19.4488C25.5568 19.5517 26.6002 19.7129 27.6323 19.9317L27.8349 19.16C27.1622 18.9731 26.5354 18.6491 25.9938 18.2085C25.4523 17.7678 25.0077 17.22 24.6879 16.5993L24.5068 19.423V19.4488Z" fill="#E6582C"/>
</g>
<g style="mix-blend-mode:multiply" opacity="0.2">
<path d="M23.4457 14.9826C23.6707 15.1333 23.9123 15.2577 24.1656 15.3534C24.1656 15.4396 24.1915 15.5301 24.2087 15.625C24.2955 16.0386 24.4406 16.4378 24.6398 16.8105C24.9408 17.395 25.3591 17.9112 25.8688 18.3266C26.3784 18.742 26.9682 19.0477 27.6015 19.2246C27.7782 19.272 27.9593 19.3194 28.1533 19.3539C28.4421 19.4057 28.7352 19.4445 29.0155 19.4703C29.0155 19.4703 30.6881 19.7333 31.6839 19.3151C31.6849 19.3022 31.6849 19.2892 31.6839 19.2763C32.1069 19.1685 32.5141 19.0062 32.8953 18.7935L32.9772 18.7461C32.5558 18.9111 32.1131 19.0157 31.6624 19.0565H31.4253C30.6861 19.1139 29.9428 19.0879 29.2095 18.9789C26.8902 18.5995 25.7046 17.2545 25.2563 15.4999C24.6829 13.2539 25.3598 9.0335 25.9892 7.76177C26.1521 7.41161 26.4217 7.12205 26.7594 6.93463C27.0971 6.7472 27.4854 6.67155 27.8688 6.71852C27.9663 7.3192 28.2281 7.88118 28.6253 8.34226C29.0225 8.80333 29.5394 9.14552 30.1191 9.33096C32.1581 10.0121 33.0979 8.86107 33.2057 8.17994C33.2661 7.7704 33.4816 7.58934 33.7661 7.58071C33.727 7.51295 33.6792 7.45063 33.6239 7.39534C33.1928 7.02891 32.891 7.52898 32.6798 7.99888C32.4685 8.46877 31.1882 8.74036 30.6666 8.64983C30.2969 8.62675 29.9387 8.51227 29.6242 8.31664C29.3097 8.12101 29.0487 7.85036 28.8646 7.52898C28.4723 6.71852 28.261 5.74856 27.5066 5.74856C26.7522 5.74856 25.7262 7.00305 25.1787 8.15407C24.7452 9.27816 24.4288 10.444 24.2346 11.633C24.1409 11.4384 23.9847 11.2808 23.7908 11.1855C23.597 11.0902 23.3769 11.0625 23.1655 11.1071C23.0329 11.1341 22.9051 11.1806 22.7861 11.245C23.3552 12.3314 23.4759 13.7885 23.4457 14.9826Z" fill="#E6582C"/>
</g>
<g style="mix-blend-mode:multiply" opacity="0.4">
<path d="M23.3945 53.7771L22.7522 42.7669C22.7522 42.7669 23.3773 44.2111 24.0455 45.9354C24.7137 47.6598 27.2313 52.9407 27.2313 52.9407C25.4509 55.2773 24.5067 58.0018 24.8387 62.2265C25.1706 66.4513 25.8949 70.4173 25.8949 70.4173L26.4725 69.831C26.2484 67.8092 25.7181 62.136 26.395 58.6226C27.2313 54.2858 28.4513 52.8933 28.4513 52.8933C26.3949 50.393 22.3383 40.883 22.3383 40.883C22.3383 40.883 22.6142 52.8933 22.6703 53.5055C22.7091 53.9366 22.1185 57.7087 21.7822 59.7305C22.5798 56.7689 23.3945 53.7771 23.3945 53.7771Z" fill="#280821"/>
</g>
<path d="M25.8682 70.4258C27.4391 70.9389 29.0983 71.1252 30.7439 70.9733C30.7439 70.9733 30.7051 70.8871 30.6275 70.7492C30.2202 70.0275 29.5668 69.4766 28.7867 69.1972C27.5839 68.8394 26.5407 69.1972 26.0234 70.0982C25.9622 70.2027 25.9103 70.3123 25.8682 70.4258Z" fill="#714B31"/>
<g style="mix-blend-mode:multiply" opacity="0.3">
<path d="M25.8682 70.426C27.4391 70.939 29.0983 71.1253 30.7439 70.9735C30.7439 70.9735 30.7051 70.8873 30.6275 70.7493C29.0713 70.7291 27.5241 70.5103 26.0234 70.0984C25.9622 70.2028 25.9103 70.3125 25.8682 70.426Z" fill="#714B31"/>
</g>
<path d="M18.0371 72.4564C21.0548 73.422 22.8266 73.0427 22.8266 73.0427C22.8266 73.0427 22.7835 72.9521 22.7016 72.8142C22.3998 72.3055 21.5807 71.1157 20.4599 71.0898C19.714 71.112 19.0053 71.4208 18.4811 71.952C18.3181 72.1063 18.1695 72.2751 18.0371 72.4564Z" fill="#714B31"/>
<g style="mix-blend-mode:multiply" opacity="0.3">
<path d="M18.0371 72.4563C21.0548 73.422 22.8266 73.0426 22.8266 73.0426C22.8266 73.0426 22.7835 72.9521 22.7016 72.8141C22.0334 72.8141 19.8606 72.7193 18.4811 71.9519C18.3181 72.1062 18.1695 72.2751 18.0371 72.4563Z" fill="#714B31"/>
</g>
<g style="mix-blend-mode:multiply" opacity="0.4">
<path d="M23.1016 37.2188C23.5271 37.1505 23.9476 37.054 24.3604 36.9299C24.4277 34.6199 24.756 32.3248 25.3389 30.0885C26.158 27.2217 27.0633 22.8029 27.4686 20.807L27.3953 20.7466C27.2875 21.6907 26.6193 25.6396 25.5631 27.808C24.6966 29.5841 23.343 34.3132 23.1016 37.2188Z" fill="#E2C697"/>
</g>
<g style="mix-blend-mode:screen" opacity="0.4">
<g style="mix-blend-mode:screen" opacity="0.4">
<path d="M28.494 4.87347C28.6374 5.49759 29.0136 6.04344 29.5458 6.39955C30.0604 6.76977 30.6903 6.94406 31.322 6.891C31.6718 6.83294 32.0038 6.69602 32.2928 6.49062C32.5819 6.28523 32.8204 6.01673 32.9903 5.70548C33.4021 5.10513 33.6134 4.38985 33.5938 3.66209C33.5637 3.60174 33.5335 3.53707 33.499 3.47672C33.5751 4.2537 33.3701 5.03221 32.9213 5.671C32.7549 5.97525 32.5204 6.23701 32.2363 6.43589C31.9522 6.63478 31.626 6.76544 31.2832 6.81771C30.7061 6.85271 30.1339 6.69334 29.6579 6.36506C29.3625 6.18284 29.1103 5.93842 28.919 5.6488C28.7276 5.35918 28.6017 5.03134 28.55 4.6881C28.5282 4.53078 28.5282 4.37121 28.55 4.21389C28.6092 3.84741 28.781 3.50843 29.0415 3.24393C29.2111 3.07111 29.4153 2.93598 29.6407 2.84732C30.3692 2.55418 31.4944 2.54555 31.9729 3.27842C32.1677 3.63288 32.2517 4.03761 32.214 4.44031C32.1764 4.843 32.0188 5.22515 31.7617 5.53736C31.5275 5.85653 31.1779 6.07156 30.7874 6.13658C30.6656 6.14959 30.5428 6.14959 30.421 6.13658C30.6455 6.02652 30.8373 5.85955 30.9772 5.65231C31.1171 5.44506 31.2003 5.20478 31.2185 4.95538C31.2239 4.81971 31.1942 4.68493 31.1323 4.5641C31.0704 4.44326 30.9783 4.34045 30.865 4.26562C30.7211 4.19645 30.5634 4.16053 30.4037 4.16053C30.244 4.16053 30.0864 4.19645 29.9425 4.26562C29.7964 4.32677 29.6651 4.41839 29.5573 4.53437C29.4495 4.65034 29.3677 4.788 29.3174 4.93813C29.2711 5.08749 29.2663 5.24663 29.3035 5.3985C29.3407 5.55038 29.4185 5.68927 29.5286 5.80032L29.5803 5.84774C29.5897 5.91945 29.6146 5.98825 29.6533 6.04931C29.692 6.11038 29.7436 6.16223 29.8045 6.20124C29.8832 6.23644 29.9684 6.25463 30.0545 6.25463C30.1407 6.25463 30.2259 6.23644 30.3046 6.20124C30.6748 6.27907 31.0609 6.21113 31.3823 6.01156C31.6714 5.8172 31.9091 5.55566 32.0751 5.24934C32.241 4.94301 32.3302 4.60103 32.335 4.25269C32.3557 3.90426 32.2573 3.55916 32.0559 3.27403C31.8546 2.9889 31.5624 2.78066 31.2271 2.6835C30.8807 2.58874 30.5175 2.57247 30.164 2.63586C29.8105 2.69925 29.4756 2.84071 29.1837 3.04994C29.1479 3.07199 29.1146 3.09802 29.0846 3.12753C28.7787 3.39744 28.5747 3.76421 28.5069 4.16647C28.4595 4.39938 28.4551 4.63899 28.494 4.87347ZM29.6924 5.95983C29.8328 6.06306 29.9905 6.14043 30.158 6.18831C30.1123 6.19485 30.0658 6.19485 30.0201 6.18831C29.9489 6.18712 29.8797 6.16474 29.8214 6.12404C29.763 6.08334 29.7181 6.02617 29.6924 5.95983ZM30.3089 6.1452C30.076 6.10073 29.8581 5.99845 29.6752 5.84774H29.6536C29.6451 5.7747 29.6451 5.70093 29.6536 5.62789C29.9024 5.60326 30.1535 5.63117 30.3908 5.70979C30.4382 5.70979 30.4555 5.64513 30.3908 5.6322C30.1338 5.54836 29.8616 5.52187 29.5933 5.5546C29.5884 5.55456 29.5835 5.55557 29.579 5.55757C29.5745 5.55957 29.5705 5.5625 29.5672 5.56617C29.564 5.56985 29.5615 5.57418 29.5601 5.57887C29.5586 5.58357 29.5582 5.58852 29.5588 5.5934C29.5545 5.6436 29.5545 5.69408 29.5588 5.74428C29.435 5.61019 29.3628 5.43657 29.3549 5.25426C29.347 5.07195 29.4039 4.89274 29.5157 4.74845C29.6466 4.59423 29.8132 4.47433 30.0011 4.3992C30.1889 4.32407 30.3922 4.29597 30.5934 4.31736C30.7725 4.34896 30.9319 4.45005 31.0369 4.59861C31.1419 4.74717 31.1839 4.93117 31.1538 5.11057C31.1054 5.41293 30.9529 5.68889 30.7227 5.89085C30.6006 5.99902 30.4605 6.08508 30.3089 6.1452Z" fill="#FCECE0"/>
</g>
<g style="mix-blend-mode:screen" opacity="0.4">
<path d="M36.0382 7.84798C36.146 7.779 36.2279 7.92989 36.2495 8.0161C36.3443 8.35667 35.9994 8.35667 35.8701 8.12388C35.8795 8.09232 35.8926 8.06194 35.9089 8.03335C35.9348 7.96115 35.9794 7.89716 36.0382 7.84798Z" fill="#FCECE0"/>
</g>
<g style="mix-blend-mode:screen" opacity="0.4">
<path d="M36.7108 10.8699C36.7355 10.8493 36.765 10.8352 36.7966 10.8288C36.8282 10.8224 36.8608 10.824 36.8916 10.8334C36.9224 10.8428 36.9504 10.8598 36.973 10.8827C36.9956 10.9056 37.0122 10.9338 37.0212 10.9647C37.0902 11.1846 36.9651 11.3656 36.741 11.2277C36.693 11.1963 36.6495 11.1586 36.6117 11.1156C36.603 11.0695 36.6077 11.0218 36.6253 10.9782C36.6428 10.9347 36.6725 10.8971 36.7108 10.8699Z" fill="#FCECE0"/>
</g>
<g style="mix-blend-mode:screen" opacity="0.4">
<path d="M35.1493 9.22763C34.8642 9.06221 34.6208 8.83362 34.4379 8.55944C34.0659 7.91107 33.9217 7.15677 34.0284 6.41689C34.0542 6.08426 34.1061 5.75417 34.1836 5.42968L34.2784 5.38226C34.1797 5.76476 34.119 6.15609 34.0974 6.55053C34.051 6.94504 34.0843 7.34484 34.1954 7.72622C34.3065 8.10759 34.4931 8.46277 34.744 8.77067C34.8836 8.9228 35.0484 9.04968 35.2312 9.14573L35.2743 9.09831C35.3088 9.06382 35.3691 9.11555 35.3346 9.15435L35.3045 9.18452C35.4947 9.28553 35.7084 9.33398 35.9236 9.32488C36.1388 9.31579 36.3477 9.24948 36.5288 9.13279C36.6316 9.0623 36.7244 8.97819 36.8047 8.88276C37.084 8.51926 37.2355 8.07375 37.2358 7.61534C37.2462 7.42773 37.2175 7.24001 37.1514 7.06411C37.0854 6.88821 36.9834 6.72799 36.8521 6.59364C36.7185 6.46904 36.5576 6.37749 36.3822 6.32636C36.2939 6.28537 36.1981 6.26327 36.1007 6.2615C36.0034 6.25972 35.9068 6.27831 35.8171 6.31605C35.7274 6.3538 35.6466 6.40988 35.5798 6.4807C35.5131 6.55152 35.4619 6.63551 35.4295 6.72728C35.3265 7.12788 35.3476 7.55028 35.4898 7.93866C35.5804 8.24905 35.8088 8.71463 36.0804 8.80085C36.352 8.88707 36.5374 8.57237 36.6322 8.36975C36.809 7.96452 36.9167 7.25753 36.3779 7.10233C35.839 6.94714 35.7355 7.61103 35.839 7.99039C35.858 7.93093 35.8904 7.87666 35.9337 7.83179C35.9771 7.78693 36.0303 7.75269 36.089 7.73173C36.3003 7.68862 36.408 8.0723 36.3434 8.21887C36.3252 8.25823 36.2975 8.2924 36.2627 8.31825C36.228 8.3441 36.1872 8.36079 36.1443 8.3668C36.1014 8.37281 36.0577 8.36794 36.0171 8.35263C35.9766 8.33733 35.9405 8.31209 35.9123 8.27922L35.839 8.20594C35.8201 8.26659 35.8057 8.32854 35.7959 8.39131C35.7873 8.45597 35.7183 8.43873 35.7183 8.39131C35.7347 8.30246 35.7563 8.21465 35.783 8.12834C35.6981 7.91759 35.68 7.68582 35.7312 7.46445C35.749 7.37068 35.7915 7.28337 35.8544 7.21159C35.9173 7.13981 35.9983 7.08618 36.0889 7.05626C36.1795 7.02634 36.2765 7.02124 36.3698 7.04147C36.4631 7.0617 36.5492 7.10653 36.6193 7.17131C37.0504 7.52912 36.8391 8.24905 36.5762 8.63703C36.5505 8.69826 36.5111 8.75274 36.4609 8.79622C36.4107 8.8397 36.3512 8.87101 36.2869 8.8877C36.2227 8.90439 36.1554 8.90601 36.0905 8.89244C36.0255 8.87887 35.9645 8.85048 35.9123 8.80947C35.644 8.57408 35.4594 8.25787 35.3863 7.90848C35.188 7.31357 35.188 6.20997 36.0502 6.20997C36.3281 6.2143 36.5972 6.30803 36.8176 6.47725C36.9712 6.59927 37.0938 6.75584 37.1754 6.93421C37.2692 7.18048 37.3133 7.44289 37.3052 7.7063C37.297 7.96971 37.2368 8.22889 37.128 8.46891C37.0429 8.68565 36.9137 8.88237 36.7486 9.04657C36.5602 9.24003 36.316 9.36967 36.0502 9.41732C35.7667 9.45619 35.4782 9.40332 35.2268 9.26643C35.0182 9.53154 34.9081 9.86081 34.9151 10.1981C34.9222 10.5353 35.0461 10.8597 35.2656 11.1158C35.4341 11.3633 35.6655 11.5613 35.9361 11.6893C36.2067 11.8174 36.5065 11.8709 36.8047 11.8444C36.8976 11.8299 36.9887 11.8053 37.0762 11.7711C37.2617 11.7036 37.4231 11.583 37.5404 11.4243C37.6577 11.2656 37.7257 11.0758 37.7358 10.8787C37.7155 10.7277 37.6505 10.5863 37.549 10.4725C37.4476 10.3588 37.3145 10.2781 37.1668 10.2407C37.0419 10.2077 36.9094 10.2198 36.7927 10.2751C36.6759 10.3303 36.5824 10.425 36.5288 10.5425C36.4971 10.6103 36.4781 10.6834 36.4727 10.758C36.4693 10.8506 36.4933 10.942 36.5417 11.021C36.5454 10.9671 36.5644 10.9153 36.5965 10.8718C36.6285 10.8283 36.6723 10.7948 36.7227 10.7753C36.7494 10.7608 36.7788 10.752 36.809 10.7494C36.9814 10.7278 37.0978 10.883 37.1194 11.0641C37.1277 11.0976 37.1285 11.1325 37.1217 11.1663C37.1149 11.2001 37.1007 11.232 37.08 11.2596C37.0594 11.2872 37.0329 11.31 37.0024 11.3261C36.9719 11.3422 36.9383 11.3514 36.9038 11.3529C36.8553 11.352 36.8073 11.3433 36.7615 11.3271C36.719 11.3083 36.6786 11.2852 36.6408 11.2581C36.6526 11.2922 36.667 11.3254 36.684 11.3572C36.7055 11.4004 36.6408 11.4478 36.615 11.4004C36.5803 11.3249 36.5557 11.2451 36.5417 11.1633C36.486 11.0945 36.445 11.015 36.4213 10.9297C36.3975 10.8444 36.3916 10.7552 36.4037 10.6675C36.4222 10.5449 36.4757 10.4303 36.5578 10.3375C36.6399 10.2446 36.7471 10.1775 36.8665 10.1442C36.9859 10.111 37.1124 10.113 37.2307 10.15C37.349 10.187 37.4541 10.2574 37.5332 10.3528C37.628 10.4276 37.7031 10.5245 37.7519 10.6349C37.8007 10.7453 37.8218 10.866 37.8134 10.9865C37.7874 11.1451 37.7257 11.2958 37.6332 11.4272C37.5406 11.5586 37.4195 11.6673 37.2789 11.7452C37.1253 11.8513 36.9473 11.9166 36.7615 11.9349C36.4762 11.9467 36.1922 11.8913 35.9323 11.7729C35.6724 11.6546 35.444 11.4767 35.2656 11.2538C35.007 10.9858 34.8531 10.6341 34.8317 10.2623C34.8104 9.89053 34.923 9.52343 35.1493 9.22763Z" fill="#FCECE0"/>
</g>
<g style="mix-blend-mode:screen" opacity="0.4">
<path d="M25.6405 5.16668C25.7123 5.37799 25.8441 5.56376 26.0199 5.70124C26.0743 5.76762 26.1473 5.81626 26.2295 5.84093C26.3117 5.86559 26.3993 5.86517 26.4813 5.8397C26.5632 5.81424 26.6357 5.76489 26.6895 5.69799C26.7432 5.63108 26.7758 5.54966 26.7829 5.46414C26.793 5.4417 26.8016 5.41867 26.8088 5.39516C26.8809 5.32387 26.9355 5.2368 26.9683 5.14082C26.9749 5.12272 26.9749 5.10288 26.9683 5.08478C26.9872 5.01095 26.9793 4.93283 26.9462 4.86421C26.9131 4.7956 26.8568 4.74088 26.7873 4.70972C26.7602 4.66493 26.7194 4.63014 26.6709 4.61057C26.6035 4.59758 26.534 4.60227 26.469 4.62418C26.404 4.64609 26.3458 4.68448 26.3001 4.73559C26.2204 4.82551 26.1722 4.93902 26.1628 5.05885C26.1535 5.17868 26.1835 5.29828 26.2484 5.39948C26.2731 5.43571 26.3051 5.46638 26.3423 5.48953C26.3796 5.51267 26.4213 5.52777 26.4647 5.53386C26.5081 5.53994 26.5524 5.53689 26.5945 5.52488C26.6367 5.51288 26.6759 5.49219 26.7097 5.46414C26.6728 5.56223 26.6066 5.64654 26.52 5.70555C26.2958 5.83919 26.0544 5.61502 25.9208 5.4469C25.8174 5.32062 25.7424 5.1736 25.7009 5.0158C25.6579 4.83292 25.6579 4.64257 25.7009 4.45969C25.7699 4.1881 25.9509 3.757 26.2915 3.74838H26.3777C26.7786 3.80442 26.9985 4.31312 27.0545 4.6623C27.1074 4.886 27.1056 5.11913 27.0494 5.342C26.9931 5.56486 26.884 5.77089 26.7312 5.94266C26.6967 5.97714 26.7528 6.02887 26.7916 5.99439C26.9666 5.78613 27.0841 5.53574 27.1325 5.26805C27.1809 5.00036 27.1585 4.72466 27.0675 4.46831C27.0293 4.29868 26.9521 4.14026 26.8421 4.00558C26.7321 3.8709 26.5923 3.76366 26.4338 3.69234C26.3571 3.67509 26.2776 3.67509 26.201 3.69234C25.813 3.78718 25.619 4.25707 25.5802 4.61488C25.5593 4.80102 25.5799 4.98947 25.6405 5.16668ZM26.8605 5.14082C26.8605 5.0934 26.8605 5.04598 26.8605 4.99856C26.9123 5.05891 26.908 5.09771 26.8605 5.1322V5.14082ZM26.7829 5.11064C26.7613 5.0189 26.7526 4.92458 26.7571 4.83043C26.7837 4.91833 26.7925 5.01067 26.7829 5.10202V5.11064ZM26.7355 5.37361C26.6928 5.40517 26.6445 5.42856 26.5933 5.44258C26.3044 5.52018 26.1622 5.2529 26.2398 5.01149C26.2699 4.91234 26.4467 4.67955 26.5933 4.67955C26.6123 4.67968 26.631 4.684 26.6481 4.6922C26.6653 4.7004 26.6804 4.71227 26.6924 4.72697C26.6666 4.90443 26.6799 5.08539 26.7312 5.25721C26.7341 5.26345 26.7383 5.269 26.7435 5.27346C26.7487 5.27793 26.7548 5.28121 26.7614 5.28308L26.7355 5.37361Z" fill="#FCECE0"/>
</g>
<g style="mix-blend-mode:screen" opacity="0.4">
<path d="M20.9544 8.76621C21.0582 8.44253 21.2404 8.14954 21.4849 7.91336C21.7293 7.67718 22.0284 7.50514 22.3555 7.41257C22.6742 7.32037 23.0141 7.33246 23.3254 7.44706C23.552 7.53463 23.7389 7.70165 23.8514 7.91695C24.138 8.44496 24.2751 9.04116 24.248 9.64133C24.248 9.99483 24.1143 10.6199 23.6229 10.469C23.5755 10.469 23.5927 10.3742 23.6229 10.3914C24.2006 10.5682 24.1661 9.56805 24.1402 9.24472C24.0928 8.71448 23.9419 7.92126 23.4634 7.59794C23.298 7.50405 23.1152 7.44491 22.9262 7.42416C22.7372 7.4034 22.5459 7.42146 22.3641 7.47723C21.9902 7.58188 21.6557 7.79488 21.4028 8.08939C21.1219 8.37346 20.9643 8.75685 20.9643 9.15635C20.9643 9.55585 21.1219 9.93924 21.4028 10.2233C22.1399 10.9044 23.3384 9.93879 23.4375 9.13695C23.4591 8.95589 23.3901 8.64981 23.1918 8.57653C22.9935 8.50324 22.8211 8.95589 22.7607 9.08953C22.7004 9.22317 22.6271 9.69738 22.9073 9.71031C23.0237 9.71031 23.1013 9.56374 23.1271 9.46889C23.1471 9.40566 23.1456 9.33762 23.123 9.27528C23.1005 9.21294 23.058 9.15978 23.0021 9.12402C22.959 9.09384 23.0021 9.0378 23.0538 9.06798C23.1414 9.14034 23.1968 9.24432 23.2081 9.35733C23.2194 9.47034 23.1857 9.58324 23.1142 9.67151C23.0868 9.70764 23.05 9.73549 23.0077 9.75197C22.9655 9.76845 22.9195 9.77292 22.8749 9.76489C22.8302 9.75686 22.7887 9.73663 22.7549 9.70646C22.721 9.67628 22.6962 9.63733 22.6831 9.59391C22.6478 9.46096 22.6407 9.32211 22.6623 9.18625C22.6838 9.0504 22.7335 8.92054 22.8081 8.80501C22.8857 8.65844 23.0754 8.37391 23.2694 8.52911C23.7436 8.87398 23.4418 9.55511 23.153 9.89999C22.9827 10.1372 22.7443 10.317 22.4694 10.4155C22.1945 10.5141 21.8962 10.5267 21.614 10.4518C20.976 10.2061 20.782 9.36543 20.9544 8.76621Z" fill="#FCECE0"/>
</g>
</g>
<g style="mix-blend-mode:multiply" opacity="0.5">
<path d="M34.4448 11.6675C34.2852 13.4954 34.393 13.6808 34.393 13.6808C34.5673 14.0534 34.6697 14.4556 34.6948 14.8663C34.9534 14.8318 35.9579 14.5429 36.1045 13.8101C36.251 13.0772 35.4363 13.0255 35.4363 13.0255C35.7242 12.9526 35.9926 12.8171 36.2221 12.6286C36.4516 12.44 36.6367 12.2031 36.764 11.9348L36.7985 11.8443C36.8399 11.7311 36.8702 11.6141 36.8891 11.4951C36.8891 11.4477 36.8891 11.3959 36.8891 11.3528C36.8891 11.3097 36.8891 11.2968 36.8891 11.2752C36.8983 11.167 36.8911 11.058 36.8675 10.9519C36.6089 11.4692 36.1691 12.0598 35.5311 11.965C35.1363 11.908 34.7601 11.7604 34.4318 11.5339C34.4534 11.5684 34.4448 11.6331 34.4448 11.6675Z" fill="#F3E1D0"/>
</g>
<g style="mix-blend-mode:multiply" opacity="0.4">
<path d="M28.5205 6.81348C28.6283 7.0549 28.7274 7.31355 28.8481 7.56359C29.0323 7.88497 29.2933 8.15562 29.6078 8.35125C29.9223 8.54687 30.2805 8.66136 30.6501 8.68444C31.1588 8.77497 32.4004 8.51631 32.6504 8.06366C32.0555 7.55928 29.9216 5.90818 28.5205 6.81348Z" fill="#F3E1D0"/>
</g>
<g style="mix-blend-mode:multiply">
<path d="M21.4902 10.7709C21.5224 11.3063 21.7529 11.8104 22.1369 12.1849C22.175 11.9263 22.2933 11.6862 22.475 11.4983C22.6567 11.3103 22.8928 11.1841 23.15 11.1374C23.3613 11.0928 23.5815 11.1204 23.7753 11.2158C23.9691 11.3111 24.1254 11.4687 24.2191 11.6633C24.4133 10.4743 24.7297 9.30844 25.1632 8.18435C25.4682 7.54026 25.8726 6.94817 26.3616 6.42979C26.0748 6.3651 25.7759 6.37858 25.4961 6.46882C25.2163 6.55906 24.9658 6.72274 24.7709 6.9428C23.594 8.27488 23.8268 10.6287 23.8268 10.6287C23.8268 10.6287 22.2533 10.0639 21.4902 10.7709Z" fill="#F3E1D0"/>
</g>
<path style="mix-blend-mode:multiply" opacity="0.3" d="M27.5926 20.1861C27.515 20.5741 27.39 21.2035 27.2305 21.9795C28.4891 22.2585 29.7826 22.3457 31.0672 22.2381C30.4033 20.8414 29.1704 20.3025 28.222 19.9576L27.6745 19.7637L27.5926 20.1861Z" fill="url(#paint6_linear_353_1359)"/>
<path style="mix-blend-mode:multiply" opacity="0.3" d="M21.7686 19.16C22.5118 19.8737 23.3574 20.4723 24.2775 20.9361C24.3724 20.3369 24.4543 19.8282 24.5103 19.4575C24.5364 19.2646 24.5479 19.0701 24.5448 18.8755C24.2338 18.8444 23.9204 18.8444 23.6093 18.8755C22.9881 18.9115 22.3717 19.0067 21.7686 19.16Z" fill="url(#paint7_linear_353_1359)"/>
<path d="M34.0805 12.5944C33.9224 12.7283 33.7376 12.8271 33.5385 12.8843C33.3393 12.9415 33.1303 12.9558 32.9252 12.9264C32.5791 12.8485 32.2522 12.7019 31.9639 12.4953C31.9639 12.4953 32.0242 13.5342 32.8864 13.5902C33.7486 13.6463 34.0805 12.5944 34.0805 12.5944Z" fill="#3D4649"/>
<path d="M29.0022 12.2238C29.1229 12.2798 28.8082 13.086 27.7693 13.086C27.4793 13.0747 27.2039 12.9559 26.9967 12.7527C26.7895 12.5494 26.6654 12.2764 26.6484 11.9867C27.0019 12.263 27.4234 12.4387 27.8684 12.4954C28.2649 12.5189 28.6594 12.4244 29.0022 12.2238Z" fill="#3D4649"/>
<path opacity="0.53" d="M23.0635 11.8703C23.0635 11.8703 23.9645 13.0472 23.9472 13.7499C23.9472 13.7499 23.5937 14.2413 23.223 13.9094C22.8522 13.5774 23.3954 13.1248 23.3954 13.1248L23.0635 11.8703Z" fill="#E6582C"/>
<g style="mix-blend-mode:multiply" opacity="0.2">
<path d="M23.9158 11.8228L26.0023 12.685L26.1403 14.1119C26.1429 14.1293 26.151 14.1454 26.1634 14.1578C26.1758 14.1702 26.1919 14.1783 26.2093 14.1809L29.0545 14.5171C29.0728 14.5166 29.0904 14.5099 29.1044 14.4982C29.1185 14.4865 29.1282 14.4704 29.1321 14.4525L29.3864 12.9695C29.7861 13.1216 30.2091 13.2033 30.6366 13.2109C30.906 13.2158 31.1738 13.1689 31.4255 13.073V14.4956C31.4255 14.5154 31.4331 14.5346 31.4467 14.549C31.4603 14.5634 31.479 14.5721 31.4988 14.5732L33.8914 14.7499C33.9048 14.7503 33.9181 14.7473 33.9302 14.7413C33.9422 14.7353 33.9526 14.7264 33.9603 14.7155C34.212 13.9353 34.357 13.1247 34.3914 12.3056C34.3864 12.2911 34.3778 12.278 34.3666 12.2674C34.3553 12.2569 34.3416 12.2493 34.3268 12.2453C33.9517 12.1461 31.5893 11.9564 31.4902 11.9478C31.4791 11.9463 31.4678 11.9474 31.4573 11.9512C31.4468 11.9549 31.4374 11.9612 31.4298 11.9694C31.4214 11.9761 31.4148 11.9846 31.4103 11.9943C31.4058 12.0041 31.4036 12.0147 31.4039 12.0254V12.8876C31.2444 12.9652 30.5418 13.2282 29.395 12.8014L29.5416 11.9392C29.5456 11.9296 29.5477 11.9194 29.5477 11.909C29.5477 11.8987 29.5456 11.8884 29.5416 11.8788C29.5351 11.8699 29.5267 11.8626 29.517 11.8574C29.5073 11.8521 29.4966 11.8492 29.4856 11.8487L25.9894 11.6331C25.9667 11.6334 25.945 11.6427 25.929 11.659C25.9208 11.6665 25.9146 11.676 25.9108 11.6865C25.9071 11.697 25.9059 11.7083 25.9075 11.7193L25.9851 12.5082L23.9762 11.6805C23.9668 11.6762 23.9568 11.6738 23.9465 11.6734C23.9362 11.673 23.926 11.6747 23.9163 11.6783C23.9067 11.6819 23.8979 11.6874 23.8904 11.6944C23.8829 11.7015 23.8769 11.7099 23.8727 11.7193C23.8685 11.7289 23.8663 11.7393 23.8662 11.7497C23.8661 11.7602 23.8682 11.7706 23.8722 11.7803C23.8762 11.7899 23.8822 11.7987 23.8897 11.806C23.8972 11.8133 23.9061 11.819 23.9158 11.8228ZM31.5936 12.1116C32.0247 12.1461 33.8655 12.3013 34.2794 12.3875C34.2101 13.1345 34.0657 13.8725 33.8483 14.5904L31.5807 14.4223L31.5936 12.1116ZM26.1575 12.6591C26.1641 12.6395 26.1641 12.6184 26.1575 12.5988L26.0799 11.7969L29.4123 12.0211L29.0071 14.3533L26.2998 14.0343L26.1575 12.6591Z" fill="#E6582C"/>
</g>
<path d="M31.5117 11.9867C31.3461 12.3416 31.2863 12.7367 31.3393 13.1248C31.6122 13.7866 31.9187 14.4341 32.2575 15.0647C32.2575 15.0647 31.2186 15.4958 30.5547 15.1423C31.0153 15.0963 31.473 15.0243 31.9256 14.9267C31.5738 14.3974 31.3089 13.8153 31.141 13.2024C31.0595 12.9873 31.0517 12.7512 31.1188 12.5312C31.1859 12.3112 31.3241 12.1197 31.5117 11.9867Z" fill="#DA774D"/>
<path d="M24.0709 11.4909L26.1574 12.3531L26.2996 13.7886C26.3007 13.8066 26.3083 13.8236 26.321 13.8363C26.3337 13.849 26.3507 13.8566 26.3686 13.8576L29.2095 14.1896C29.2283 14.1908 29.2468 14.1848 29.2612 14.1727C29.2757 14.1607 29.285 14.1436 29.2871 14.1249L29.5458 12.6462C29.9439 12.7983 30.3655 12.88 30.7917 12.8877C31.0624 12.8919 31.3315 12.8451 31.5849 12.7497V14.1723C31.5848 14.1915 31.5917 14.21 31.6045 14.2243C31.6172 14.2387 31.6348 14.2478 31.6538 14.2499L34.0507 14.4267C34.0635 14.4267 34.0761 14.4236 34.0874 14.4175C34.0987 14.4115 34.1083 14.4028 34.1154 14.3922C34.3666 13.6119 34.5116 12.8013 34.5465 11.9824C34.5407 11.967 34.5314 11.9533 34.5195 11.9421C34.5075 11.9308 34.4932 11.9225 34.4775 11.9177C34.1068 11.8228 31.7444 11.6332 31.6409 11.6245C31.6314 11.6205 31.6211 11.6184 31.6107 11.6184C31.6004 11.6184 31.5901 11.6205 31.5806 11.6245C31.5672 11.6419 31.5596 11.663 31.559 11.6849V12.5471C31.3952 12.6204 30.6968 12.8877 29.5458 12.4609L29.6924 11.5987C29.7007 11.5779 29.7007 11.5548 29.6924 11.534C29.6779 11.5175 29.658 11.5068 29.6363 11.5038L26.1229 11.271C26.1114 11.2691 26.0996 11.2705 26.0889 11.2751C26.0782 11.2796 26.069 11.2872 26.0625 11.2969C26.0546 11.3047 26.0485 11.3142 26.0448 11.3246C26.0411 11.3351 26.0398 11.3462 26.041 11.3573L26.1186 12.1462L24.1442 11.3443C24.1247 11.337 24.1031 11.3374 24.0839 11.3454C24.0647 11.3534 24.0492 11.3685 24.0407 11.3874C24.0332 11.4055 24.0321 11.4257 24.0376 11.4445C24.0431 11.4633 24.0548 11.4797 24.0709 11.4909ZM31.7487 11.7754C32.1798 11.8142 34.0249 11.9651 34.4387 12.0556C34.3689 12.8025 34.2245 13.5405 34.0076 14.2585L31.7401 14.0904L31.7487 11.7754ZM26.2996 12.3229C26.3039 12.3134 26.3061 12.3031 26.3061 12.2927C26.3061 12.2823 26.3039 12.272 26.2996 12.2626L26.2177 11.465L29.5501 11.6849L29.1449 14.0171L26.4419 13.6981L26.2996 12.3229Z" fill="#4C3315"/>
<path d="M30.831 16.7243C31.2815 16.7432 31.7287 16.6389 32.1243 16.4225C32.1358 16.408 32.1421 16.3901 32.1421 16.3716C32.1421 16.3531 32.1359 16.3351 32.1244 16.3206C32.1129 16.3061 32.0968 16.296 32.0788 16.2918C32.0608 16.2876 32.0419 16.2896 32.0252 16.2975C31.5091 16.5541 30.924 16.6372 30.3568 16.5346C29.8294 16.4478 29.3276 16.2462 28.8868 15.944C28.8723 15.93 28.853 15.9222 28.8329 15.9222C28.8128 15.9222 28.7935 15.93 28.779 15.944C28.7648 15.9592 28.7568 15.9792 28.7568 16C28.7568 16.0209 28.7648 16.0409 28.779 16.0561C29.3735 16.4733 30.0832 16.6949 30.8095 16.6898L30.831 16.7243Z" fill="#C92323"/>
<path d="M32.9051 16.1123C32.8534 16.0303 32.6982 15.3018 30.7496 15.1682C28.8011 15.0345 28.1889 15.5605 28.1889 15.5605C28.1889 15.5605 27.926 15.4311 28.0553 15.3277C28.0553 15.3277 28.8916 16.7891 30.6979 15.9786C30.6979 15.9786 32.2154 16.8408 33.1034 16.164C33.1034 16.164 33.3362 15.9786 33.1552 15.9269C32.9741 15.8752 32.9051 16.1123 32.9051 16.1123Z" fill="#A5A5A5"/>
<path style="mix-blend-mode:multiply" opacity="0.1" d="M14.3848 33.0889C14.6607 35.0374 18.3336 41.1547 18.3336 41.1547C18.4457 41.2668 18.6914 41.2452 18.9673 41.1547C17.9499 39.3484 14.8504 32.356 14.5917 31.08C14.4809 31.7446 14.4117 32.4156 14.3848 33.0889Z" fill="url(#paint8_linear_353_1359)"/>
<path d="M35.4053 41.3184C35.4053 41.3184 35.4053 41.3873 35.5863 41.6374C35.8407 41.9909 36.1813 42.4996 36.1813 42.4996C36.3796 43.2497 37.0995 43.6377 37.4357 43.5126C37.5392 43.4738 36.9443 42.8746 37.1297 42.5642C37.1647 42.5153 37.2105 42.475 37.2636 42.4466C37.3167 42.4182 37.3756 42.4024 37.4357 42.4004C37.7677 42.3444 38.0738 43.4695 38.0738 44.0817C38.0738 44.3964 38.1514 44.6464 38.2807 44.7111C38.41 44.7758 38.5781 44.6594 38.7678 44.2498C39.1601 43.4135 39.4102 40.8571 39.1989 40.6631C38.9877 40.4691 37.5176 40.4174 36.7546 40.3915H36.3925C36.3235 40.4045 35.4053 41.3184 35.4053 41.3184Z" fill="url(#paint9_linear_353_1359)"/>
<g style="mix-blend-mode:multiply" opacity="0.2">
<path d="M35.4053 41.3184C35.4053 41.3184 35.4053 41.3873 35.5863 41.6374C35.8407 41.9909 36.1813 42.4996 36.1813 42.4996C36.3796 43.2497 37.0995 43.6377 37.4357 43.5126C36.1424 43.0557 36.1424 41.5813 36.1424 41.5813C36.3927 41.2142 36.59 40.8136 36.7287 40.3915H36.3666C36.3235 40.4045 35.4053 41.3184 35.4053 41.3184Z" fill="#E6582C"/>
</g>
<g style="mix-blend-mode:multiply" opacity="0.2">
<path d="M37.1284 42.5815C37.1634 42.5325 37.2092 42.4923 37.2623 42.4639C37.3154 42.4355 37.3743 42.4197 37.4344 42.4177C37.7664 42.3616 38.0725 43.4868 38.0725 44.0989C38.0725 44.4136 38.1501 44.6637 38.2794 44.7283C38.2889 44.2204 38.3306 43.7135 38.4044 43.2109C38.538 42.2797 36.9861 41.6762 37.1284 42.5815Z" fill="#E6582C"/>
</g>
<path d="M17.1904 44.099C17.2378 44.2197 17.5611 44.1507 17.6473 44.1335C17.6215 44.155 17.268 44.474 17.2421 44.6637C17.2332 44.6903 17.2332 44.719 17.2421 44.7456C17.2819 44.7923 17.3353 44.8253 17.3949 44.84C17.4544 44.8547 17.5171 44.8503 17.574 44.8275C17.5794 44.8401 17.5866 44.8517 17.5956 44.862C17.6103 44.8789 17.6261 44.8947 17.643 44.9094C17.7551 45.0043 18.0353 45.1336 18.6604 45.0215C19.5743 44.8534 20.9409 44.1852 21.0788 43.6593C21.0886 43.5849 21.0886 43.5095 21.0788 43.4351C20.9813 42.5424 20.7472 41.6701 20.3848 40.8485C20.277 40.6459 20.208 40.6502 20.1261 40.6804C19.9494 40.7494 19.958 40.7407 18.2853 41.1675L18.8113 42.3617C18.1646 42.6721 17.1386 43.9653 17.1904 44.099Z" fill="url(#paint10_linear_353_1359)"/>
<g style="mix-blend-mode:multiply" opacity="0.2">
<path d="M17.1904 44.0989C17.2378 44.2196 17.5611 44.1506 17.6473 44.1333C18.2179 43.6314 18.7537 43.0913 19.251 42.5167L18.8199 41.6804C19.4455 41.614 20.0199 41.3044 20.4193 40.8182C20.3115 40.6156 20.2684 40.6156 20.1692 40.6587C20.0701 40.7018 18.3198 41.1372 18.3198 41.1372L18.8458 42.3314C18.1646 42.6719 17.1386 43.9652 17.1904 44.0989Z" fill="#E6582C"/>
</g>
<g style="mix-blend-mode:multiply" opacity="0.2">
<path d="M17.1992 44.8275C17.3421 44.8474 17.4861 44.8589 17.6303 44.862C17.645 44.8789 17.6609 44.8947 17.6777 44.9094L17.7596 44.862C18.3159 44.53 18.8103 44.1041 19.221 43.6032C18.6936 44.1523 18.0079 44.5231 17.2596 44.6637C17.2507 44.6903 17.2507 44.719 17.2596 44.7456L17.1992 44.8275Z" fill="#E6582C"/>
</g>
<g style="mix-blend-mode:multiply" opacity="0.2">
<path d="M17.6299 44.8577C17.6446 44.8745 17.6604 44.8904 17.6773 44.9051C17.7894 44.9999 18.0696 45.1293 18.6947 45.0172C19.6086 44.849 20.9752 44.1808 21.1131 43.6549C21.1229 43.5805 21.1229 43.5051 21.1131 43.4307C20.1915 44.2843 19.0006 44.789 17.7463 44.8577H17.6299Z" fill="#E6582C"/>
</g>
<path d="M60.1368 71.1244C59.2279 71.2386 58.3083 71.2386 57.3994 71.1244C56.5579 71.015 55.7242 70.8523 54.9033 70.6372C54.9095 70.5443 54.9376 70.4542 54.9852 70.3743C54.9942 70.3541 55.0058 70.3353 55.0197 70.3182C55.3775 69.8871 56.5932 68.887 57.9124 69.0249H58.0331C58.4939 69.1098 58.923 69.3183 59.2745 69.6281C59.6261 69.9379 59.8869 70.3373 60.029 70.7838C60.0722 70.8949 60.1082 71.0087 60.1368 71.1244Z" fill="url(#paint11_linear_353_1359)"/>
<path style="mix-blend-mode:multiply" d="M60.1368 71.1242C59.2279 71.2384 58.3083 71.2384 57.3994 71.1242C56.5579 71.0148 55.7242 70.8521 54.9033 70.637C54.9095 70.5442 54.9376 70.4541 54.9852 70.3741C55.2482 70.4517 56.369 70.6241 57.2183 70.7276C58.1524 70.8186 59.0921 70.8373 60.029 70.7836C60.0722 70.8947 60.1082 71.0085 60.1368 71.1242Z" fill="url(#paint12_linear_353_1359)"/>
<path d="M57.9115 68.9904C57.5451 69.2577 56.8122 69.8526 56.7518 70.6803L55.1395 70.4561C54.3306 67.5276 53.6816 64.5573 53.1953 61.5583H53.704C54.1351 61.5583 55.3594 61.4893 56.6053 61.3772L56.5837 61.7782V62.0842L56.2518 69.4129C56.6477 69.1561 57.104 69.0075 57.5752 68.9818C57.6874 68.9767 57.7997 68.9796 57.9115 68.9904Z" fill="url(#paint13_linear_353_1359)"/>
<path d="M47.6707 70.3872C47.6707 70.3872 47.4379 70.9994 45.0841 71.2796C42.8467 71.5469 41.9932 71.1072 41.9932 71.1072L42.0535 70.9649C42.2911 70.4499 42.6509 70.0008 43.1017 69.6566C43.5525 69.3125 44.0807 69.0838 44.6401 68.9905H44.7479C45.2957 68.8991 45.8584 68.9734 46.3637 69.2038C46.8691 69.4342 47.2942 69.8103 47.5845 70.2838V70.3096L47.6707 70.3872Z" fill="url(#paint14_linear_353_1359)"/>
<path style="mix-blend-mode:multiply" d="M47.6707 70.3872C47.6707 70.3872 47.4379 70.9994 45.0841 71.2796C42.8467 71.5468 41.9932 71.1071 41.9932 71.1071L42.0535 70.9649C43.9312 71.0561 45.8103 70.8183 47.606 70.2622V70.288L47.6707 70.3872Z" fill="url(#paint15_linear_353_1359)"/>
<path d="M47.5759 70.2276L47.6233 70.2966C47.5543 70.2966 45.8127 70.7277 45.8127 70.7277C45.7653 70.1199 45.0411 69.2879 44.666 69.0033H44.7738C45.438 68.8995 46.1175 69.0339 46.6922 69.3827L46.6706 69.3611C46.5801 68.361 45.8084 64.257 45.4247 62.4636C45.4247 62.4119 45.4032 62.3601 45.3903 62.3127C45.3558 62.1446 45.3256 61.998 45.2997 61.8816C46.048 61.9482 46.8004 61.9568 47.55 61.9075L48.6881 61.8428C48.3907 64.3001 47.7182 69.2059 47.5759 70.2276Z" fill="url(#paint16_linear_353_1359)"/>
<path d="M58.2021 17.5908C58.1676 19.5997 57.1632 19.7074 57.1632 19.7074V19.7764C57.0856 20.184 56.9111 20.567 56.6545 20.8929L56.607 20.949C56.2053 21.4053 55.6589 21.7097 55.0594 21.8112C54.8011 21.8632 54.5384 21.8906 54.2748 21.8931H54.1972C52.7703 21.8211 51.3629 21.5303 50.0242 21.0309C49.2054 21.3859 48.3427 21.6294 47.4592 21.7551H47.3773C46.7522 21.8573 46.1218 21.9235 45.4891 21.9534C45.1257 21.9733 44.7612 21.9516 44.4027 21.8888H44.3079L44.0923 21.8414C43.5179 21.6914 43.008 21.3585 42.6396 20.8929C42.5595 20.7914 42.4861 20.6849 42.4197 20.5739C42.0697 19.9482 41.876 19.2472 41.855 18.5305C41.7817 17.0993 43.394 16.4182 43.394 16.4182C43.2517 15.9871 43.1439 13.116 44.3295 10.4992C45.515 7.88249 47.2695 6.48574 48.8818 6.37797C49.4086 6.31961 49.9404 6.42641 50.4038 6.6836C50.8672 6.94078 51.2393 7.33563 51.4684 7.81351C51.4882 7.87071 51.5012 7.93003 51.5072 7.99026C51.524 7.93808 51.5457 7.88757 51.5719 7.83938C51.7041 7.60233 51.8974 7.40498 52.1316 7.26778C52.3658 7.13058 52.6325 7.05853 52.9039 7.0591C54.0507 6.98581 55.4517 9.4603 55.844 11.0036C56.1518 12.3761 56.3906 13.763 56.5596 15.1594C57.067 15.3208 57.5051 15.6486 57.8031 16.0898C58.1011 16.531 58.2417 17.0598 58.2021 17.5908Z" fill="#A5A5A5"/>
<g style="mix-blend-mode:multiply" opacity="0.5">
<path d="M57.1502 19.7765C57.0533 20.2926 56.7991 20.766 56.4225 21.1319C56.0458 21.4978 55.5651 21.7381 55.0464 21.8199C53.1108 22.2165 50.0112 21.031 50.0112 21.031C50.0112 21.031 48.4162 21.8199 45.4761 21.9664C45.0064 21.9955 44.535 21.9504 44.0794 21.8328C43.963 20.8326 45.5451 20.2808 45.5451 20.2808C45.5451 20.2808 45.1873 20.3153 44.7217 18.0909C44.2561 15.8664 45.6184 12.1763 45.6184 12.1763C46.7468 12.8056 48.021 13.1267 49.3129 13.1074C50.054 13.0697 50.7688 12.8201 51.3724 12.3884C51.9761 11.9567 52.4432 11.3609 52.7185 10.6717C52.7185 10.6717 53.973 10.7795 54.9775 12.4651C55.5717 13.4557 55.7514 14.6407 55.4775 15.763C56.3397 17.7115 55.2878 19.7334 55.262 19.7765C55.5513 19.6176 55.876 19.5343 56.2061 19.5343C56.5361 19.5343 56.8609 19.6176 57.1502 19.7765Z" fill="#F3DFCD"/>
</g>
<path d="M59.8563 60.778C59.3927 60.9892 58.8946 61.1148 58.3863 61.1487C57.8517 61.2306 57.2223 61.2996 56.6058 61.3556C55.36 61.4677 54.14 61.5367 53.7046 61.5367H53.1959C52.3121 61.5712 50.9542 61.679 48.6866 61.8169L47.5485 61.8816C46.7989 61.9309 46.0465 61.9222 45.2982 61.8557L45.1042 61.8341C44.6356 61.7878 44.1714 61.7042 43.7161 61.5841C43.3777 61.4993 43.0496 61.3779 42.7375 61.222H42.7159L42.6685 61.1961C42.6685 61.1961 42.4702 56.6782 42.509 54.0831C42.5478 51.4879 42.1124 46.0905 42.4702 43.2539C42.7484 41.3283 43.1589 39.4241 43.6988 37.5549C43.6988 37.5161 43.7204 37.4816 43.729 37.4514C43.9705 37.7344 44.254 37.9787 44.5697 38.1756C45.4319 38.7404 46.9881 39.3827 49.5445 39.2189C51.7392 39.0857 53.905 38.6505 55.9808 37.9256C56.4463 37.7575 56.6921 37.6454 56.6921 37.6454L56.8257 37.904C57.2882 38.7942 57.6719 39.7232 57.9724 40.6803C58.8004 43.8675 59.2575 47.1396 59.3347 50.4317C59.4554 55.6048 59.8563 60.778 59.8563 60.778Z" fill="url(#paint17_linear_353_1359)"/>
<path style="mix-blend-mode:multiply" opacity="0.3" d="M59.8568 60.7781C59.8568 60.7781 59.4559 55.5834 59.3352 50.4318C59.2464 47.1398 58.7778 43.8691 57.9385 40.6847C57.6368 39.735 57.2531 38.8133 56.7918 37.93L56.6581 37.6714C56.6498 37.6747 56.6405 37.6747 56.6322 37.6714H56.5934L56.5374 37.6972C54.2898 38.5719 51.9185 39.0869 49.5105 39.2233C46.8507 39.3957 45.2643 38.6887 44.4322 38.1111H44.4021L44.3245 38.055H44.2986L44.2081 37.986C44.1752 37.9651 44.1449 37.9405 44.1175 37.9128L44.0443 37.8481L43.9063 37.7231L43.8546 37.667L43.7727 37.5765L43.7468 37.5506C43.7468 37.5808 43.7252 37.6153 43.7166 37.6541C43.708 37.6929 43.6476 37.8567 43.6088 37.999C43.5132 38.19 43.4561 38.398 43.4407 38.6111C43.0421 40.1745 42.7241 41.7572 42.488 43.3532C42.1302 46.1898 42.5699 51.5871 42.5268 54.1823C42.4837 56.7775 42.6863 61.2954 42.6863 61.2954L42.7337 61.3212H42.7553C43.0674 61.4771 43.3955 61.5985 43.7339 61.6834C44.1892 61.8034 44.6534 61.887 45.122 61.9334C44.8332 59.9245 43.958 53.3977 43.8503 50.9965C43.7339 48.2375 43.2942 45.5216 43.4537 43.3661C43.5054 42.6376 43.958 40.7795 45.053 40.2364C46.0661 39.7147 48.1957 40.1027 49.3252 40.2364C53.4163 40.7537 55.4122 39.0509 56.2658 39.1586C56.8737 39.2319 57.003 41.465 57.0375 41.9952C57.1582 43.7929 57.6755 47.3063 58.0764 50.1041C58.4302 52.6412 58.616 55.1988 58.6325 57.7604C58.6325 58.7562 58.5204 60.0754 58.404 61.1704C58.9079 61.1276 59.3999 60.9947 59.8568 60.7781Z" fill="url(#paint18_linear_353_1359)"/>
<path d="M58.6573 27.9458C57.7046 24.4754 55.9414 22.7468 53.6393 21.9363C53.2295 21.793 52.8103 21.6778 52.3848 21.5914C52.3848 21.5914 49.6689 21.2724 48.3498 21.5138C47.5852 21.6179 46.8434 21.8496 46.1555 22.1993C44.5966 23.0226 43.3884 24.3824 42.7542 26.0274C41.0298 30.1012 40.7582 34.9554 41.6764 38.3912L43.3534 38.5938H43.3749C43.373 38.5709 43.373 38.5478 43.3749 38.5248C43.377 38.5091 43.377 38.4932 43.3749 38.4774C43.4827 38.0894 43.5733 37.7747 43.6379 37.5592C43.6402 37.5147 43.6402 37.4701 43.6379 37.4255L43.6595 37.4557C43.9599 37.8028 44.3188 38.0946 44.72 38.3179C45.6167 38.8439 47.1298 39.3741 49.462 39.2232C51.6567 39.09 53.8225 38.6548 55.8983 37.9299C56.3639 37.7618 56.6096 37.6497 56.6096 37.6497C56.6096 37.6497 56.4975 37.2186 56.3466 36.6237C56.3251 36.5504 56.3078 36.4728 56.2863 36.3909C56.2647 36.309 56.2604 36.2788 56.2431 36.2228C56.2259 36.1667 56.1871 35.99 56.1569 35.8693C56.1569 35.8305 56.1354 35.7917 56.1268 35.7529C56.088 35.5805 56.0448 35.4037 56.0017 35.227C56.0017 35.1666 55.9759 35.1063 55.9586 35.0459C55.9155 34.8476 55.8724 34.6536 55.8293 34.4682L55.8034 34.326C55.7603 34.1277 55.7215 33.938 55.6913 33.7655C55.6913 33.6923 55.6655 33.619 55.6525 33.5543C55.6396 33.4896 55.6224 33.3431 55.6137 33.2525C55.493 32.136 55.3335 30.0193 55.3335 30.0193C55.3335 30.0193 57.2691 35.6236 57.5494 37.7489L57.7951 37.6583L59.7092 36.9298C59.7092 36.9298 59.7738 32.0196 58.6573 27.9458ZM43.7543 36.6366C43.7543 36.6366 43.875 35.1968 44.2328 32.7999C44.5906 30.403 44.914 30.1228 44.914 30.1228C44.914 30.1228 45.233 32.5412 43.7543 36.6366Z" fill="url(#paint19_linear_353_1359)"/>
<path style="mix-blend-mode:multiply" opacity="0.4" d="M53.6403 21.9363C53.368 22.4556 52.9041 22.8483 52.347 23.0313C51.3598 23.2425 51.0149 22.6821 51.0149 22.6821C51.0149 22.6821 50.5838 23.5917 49.1742 23.5443C48.7966 23.5537 48.4245 23.4531 48.1031 23.2549C47.7816 23.0567 47.5247 22.7693 47.3635 22.4278C47.1568 22.4859 46.9396 22.4963 46.7283 22.4582C46.5169 22.4201 46.317 22.3345 46.1436 22.2079C46.8315 21.8583 47.5732 21.6266 48.3378 21.5225C49.657 21.281 52.3729 21.6001 52.3729 21.6001C52.8026 21.683 53.226 21.7954 53.6403 21.9363Z" fill="url(#paint20_linear_353_1359)"/>
<path d="M51.5629 7.83093C51.5601 7.93324 51.5381 8.03411 51.4983 8.12838C51.4958 8.13448 51.4917 8.13974 51.4863 8.14356C51.481 8.14738 51.4747 8.14959 51.4681 8.14994C51.4634 8.15068 51.4586 8.15029 51.4541 8.14882C51.4496 8.14735 51.4455 8.14483 51.4421 8.14146C51.4387 8.1381 51.4362 8.13399 51.4347 8.12947C51.4333 8.12495 51.4329 8.12015 51.4336 8.11545C51.5112 7.52485 50.7697 7.25326 50.3171 7.14549C49.6841 6.96351 49.0084 6.99995 48.3987 7.24895C46.6398 7.96457 45.4457 9.68033 44.7732 11.3918C44.1059 13.1839 43.7756 15.0839 43.7989 16.996C43.7982 17.0022 43.796 17.0082 43.7925 17.0133C43.789 17.0185 43.7843 17.0228 43.7788 17.0257C43.7733 17.0287 43.7671 17.0303 43.7609 17.0304C43.7546 17.0304 43.7484 17.029 43.7429 17.0262C43.148 16.5951 42.6996 17.3021 42.5013 17.7935C42.2777 18.3827 42.1993 19.0171 42.2728 19.6429C42.3168 20.0686 42.4396 20.4823 42.635 20.8629C42.5549 20.7614 42.4815 20.6549 42.4151 20.5439C42.2766 20.1843 42.1994 19.804 42.1866 19.4188C42.1391 18.7657 42.264 18.1116 42.5487 17.522C42.7858 17.065 43.2169 16.6167 43.7256 16.927C43.7047 15.0457 44.0306 13.1766 44.687 11.4133C45.325 9.77517 46.4113 8.14132 48.015 7.33086C48.3995 7.12597 48.8193 6.99578 49.2523 6.94718C49.6079 6.92041 49.9655 6.9569 50.3085 7.05496C50.7051 7.16273 51.3043 7.36535 51.4681 7.78351C51.4879 7.84071 51.5009 7.90003 51.5069 7.96026C51.5221 7.91573 51.5409 7.87249 51.5629 7.83093Z" fill="#FCF1E7"/>
<path d="M55.499 20.0739C55.7362 20.1226 55.9606 20.2207 56.1574 20.3618C56.3542 20.5029 56.5191 20.6839 56.6414 20.893L56.5939 20.9491C56.4621 20.7093 56.2698 20.5083 56.036 20.3661C55.8023 20.2239 55.5354 20.1455 55.2619 20.1386C55.2542 20.136 55.2477 20.131 55.243 20.1244C55.2383 20.1179 55.2358 20.11 55.2358 20.102C55.2358 20.0939 55.2383 20.086 55.243 20.0795C55.2477 20.0729 55.2542 20.068 55.2619 20.0653C56.2534 19.8843 56.6802 18.7419 56.7621 17.8538C56.818 17.3741 56.7231 16.8889 56.4905 16.4657C56.3956 16.3019 56.2404 16.0863 56.0292 16.0691C55.818 16.0518 55.5593 16.2674 55.4084 16.4614C55.4047 16.4687 55.3984 16.4744 55.3908 16.4775C55.3832 16.4806 55.3747 16.4809 55.3669 16.4783C55.3591 16.4757 55.3524 16.4704 55.3482 16.4633C55.344 16.4563 55.3424 16.4479 55.3438 16.4398C55.3438 16.3363 55.3438 16.2329 55.3438 16.1251C55.3007 14.1291 55.5205 11.9952 54.6756 10.1243C54.2445 9.12411 53.2314 7.5032 52.0157 7.96878C51.9486 7.99512 51.8837 8.02684 51.8217 8.06362C51.7474 8.10502 51.6768 8.15261 51.6105 8.20588C51.576 8.20588 51.5329 8.1757 51.5674 8.14984C51.635 8.0971 51.7055 8.04817 51.7786 8.00327C51.9568 7.89342 52.1569 7.82424 52.3649 7.80065C52.6625 7.80632 52.9545 7.88327 53.2163 8.02503C53.478 8.16679 53.702 8.36925 53.8694 8.61542C54.2953 9.14638 54.6343 9.74149 54.8739 10.3786C55.611 12.2539 55.3653 14.3533 55.4257 16.3277C55.6886 16.0173 56.0766 15.8104 56.4043 16.1811C56.7253 16.5903 56.8876 17.1016 56.8612 17.621C56.8009 18.5306 56.4301 19.742 55.499 20.0739Z" fill="#FCF1E7"/>
<path d="M54.5679 20.1645C54.386 20.3229 54.2462 20.524 54.1612 20.7497C54.0762 20.9754 54.0485 21.2187 54.0807 21.4578C54.1089 21.613 54.1707 21.7601 54.2618 21.8889H54.1842C54.038 21.6284 53.9781 21.3284 54.0129 21.0318C54.0478 20.7352 54.1756 20.4572 54.3782 20.2378C54.0376 20.2809 53.7229 19.7765 53.5807 19.5265C53.2336 18.9783 53.1087 18.3184 53.2315 17.6814C53.3435 17.1684 53.5548 16.6856 53.6884 16.1812C53.8322 15.615 53.9316 15.0384 53.9859 14.4568C54.0333 13.9481 54.0549 13.4351 54.0807 12.9221C54.1066 12.4091 54.1281 11.9607 54.1152 11.4822C54.0893 10.62 53.973 9.6199 53.3953 8.93446C53.072 8.55078 52.3693 7.89983 51.8045 8.07227C51.7183 8.0998 51.639 8.14536 51.5717 8.20591C51.8618 8.44348 52.0699 8.76619 52.1667 9.12845C52.3255 9.55637 52.4383 10 52.5029 10.4519C52.6624 11.6935 52.1667 12.7884 51.4597 13.7713C51.4338 13.8101 51.3734 13.7713 51.3993 13.7369C52.0718 12.7928 52.5934 11.715 52.4383 10.5295C52.3799 10.1059 52.2818 9.6888 52.1451 9.28364C52.0583 8.91399 51.8667 8.57721 51.5933 8.31368C51.683 8.80026 51.6932 9.29818 51.6235 9.78803C51.6155 10.3875 51.5752 10.9862 51.5028 11.5814C51.3561 12.7933 50.7477 13.902 49.8043 14.6766C49.7698 14.7068 49.7223 14.6508 49.7568 14.6249C50.7034 13.8533 51.3076 12.7396 51.4381 11.5253C51.5243 10.9606 51.5157 10.4002 51.5459 9.83114C51.6338 9.30718 51.6177 8.77106 51.4985 8.25333L51.4597 8.23177C50.9079 10.3183 50.1319 12.4738 48.6231 14.0688C48.5929 14.1033 48.5412 14.0688 48.5756 14.0128C50.0629 12.4436 50.8303 10.3183 51.3778 8.26195C51.3751 8.26641 51.3713 8.27011 51.3667 8.27267C51.3622 8.27523 51.3571 8.27658 51.3519 8.27658C51.3467 8.27658 51.3416 8.27523 51.337 8.27267C51.3325 8.27011 51.3287 8.26641 51.326 8.26195C50.7354 8.22746 50.1534 8.10244 49.6016 8.46456C49.086 8.85968 48.6747 9.37465 48.4032 9.96478C48.1149 10.5532 47.8644 11.1594 47.6531 11.7797C47.4548 12.3401 47.222 12.8962 47.0625 13.4696C46.521 15.1636 46.3288 16.9499 46.4978 18.7203C46.6179 19.7946 46.9412 20.8362 47.4505 21.7897H47.3686C47.0494 21.2056 46.8074 20.5825 46.6486 19.936C46.3315 18.5987 46.2715 17.2133 46.4719 15.8535C46.7423 14.1534 47.2201 12.4928 47.8945 10.9089C48.1705 10.0965 48.6108 9.34959 49.1878 8.7146C49.4871 8.39231 49.8897 8.18489 50.3259 8.12831C50.6398 8.11674 50.9541 8.13115 51.2657 8.17142C51.1062 8.02485 50.7785 8.05502 50.5932 8.07227C50.3295 8.09945 50.0685 8.14847 49.8129 8.21884C49.1287 8.36586 48.4695 8.61126 47.8557 8.94739C47.0879 9.44487 46.4602 10.1305 46.0322 10.9391C45.4894 11.8426 45.0759 12.8177 44.8036 13.836C44.5912 14.702 44.5502 15.6012 44.6828 16.4829C44.7949 17.233 44.9889 18.1039 45.545 18.6384C45.5709 18.6643 45.545 18.7074 45.5062 18.6945C45.2871 18.5956 45.0448 18.5598 44.8065 18.591C44.5681 18.6222 44.3432 18.7193 44.1569 18.8712C43.8958 19.2162 43.777 19.6483 43.825 20.0783C43.849 20.5946 43.9734 21.1012 44.1914 21.5699C44.2414 21.6821 44.2975 21.7914 44.3595 21.8975H44.2647C44.1764 21.7411 44.1 21.5783 44.0362 21.4104C43.8388 20.9262 43.742 20.407 43.7517 19.8843C43.7419 19.6771 43.7751 19.4702 43.8493 19.2765C43.9235 19.0829 44.0371 18.9067 44.1828 18.7591C44.3566 18.6414 44.5559 18.5667 44.7643 18.5412C44.9727 18.5157 45.1842 18.5402 45.3812 18.6125C44.8962 17.9791 44.6124 17.2147 44.5664 16.4183C44.4415 15.4931 44.5016 14.5524 44.7432 13.6506C45.0335 12.6728 45.4463 11.7357 45.9718 10.8615C46.3765 10.1073 46.9578 9.46237 47.666 8.98188C48.3316 8.57675 49.0601 8.28536 49.8215 8.11969C50.1275 8.03317 50.4434 7.9868 50.7613 7.98174C50.8604 7.9686 50.9611 7.97893 51.0555 8.01187C51.1498 8.04482 51.2351 8.09947 51.3045 8.17142H51.4122C51.4122 8.17142 51.4338 8.14124 51.4467 8.14124C51.4511 8.13808 51.4564 8.13639 51.4618 8.13639C51.4672 8.13639 51.4725 8.13808 51.4769 8.14124C51.5424 8.08375 51.6186 8.0398 51.7011 8.01191C51.7789 7.98609 51.8605 7.97299 51.9425 7.97311C52.3509 8.00838 52.7346 8.18349 53.0288 8.46887C53.5288 8.89178 53.8757 9.46743 54.0161 10.107C54.1998 11.035 54.2463 11.9849 54.154 12.9264C54.1333 13.989 54.0106 15.0472 53.7876 16.0863C53.5548 17.0175 52.99 17.9961 53.3867 18.966C53.5117 19.2807 54.0419 20.4921 54.5204 20.1084C54.5592 20.0826 54.6067 20.1343 54.5679 20.1645Z" fill="#FCF1E7"/>
<path d="M52.2087 20.4533L52.0319 21.5483L51.9328 22.1863C51.4466 22.435 50.905 22.5552 50.3593 22.5355C49.7628 22.5032 49.1811 22.3382 48.6565 22.0527L48.5616 21.4362L48.415 20.5051C49.1327 20.6594 49.8681 20.7145 50.6007 20.6689C51.1425 20.6504 51.6811 20.5782 52.2087 20.4533Z" fill="url(#paint21_linear_353_1359)"/>
<path d="M50.0965 20.3154C49.5217 20.2849 48.9456 20.2936 48.3721 20.3413L48.4022 20.5223C49.1184 20.6768 49.8524 20.7319 50.5836 20.6862C51.126 20.662 51.6646 20.5841 52.1916 20.4534L52.2347 20.1818C51.5262 20.2786 50.8115 20.3233 50.0965 20.3154Z" fill="url(#paint22_linear_353_1359)"/>
<path d="M54.9897 17.0089C54.9755 17.2894 54.9351 17.5679 54.869 17.8409C54.5629 19.0695 53.7007 20.1085 51.985 20.5482C51.5114 20.6646 51.0279 20.7353 50.5408 20.7594C49.8848 20.7972 49.2267 20.7479 48.5836 20.6129C46.9627 20.255 45.8591 19.3196 45.4022 18.0565C45.1893 17.3591 45.1103 16.6277 45.1694 15.901V15.6768C45.2336 14.7235 45.4116 13.7814 45.6996 12.8704C47.0311 13.3108 48.4336 13.4965 49.8338 13.4179C50.9911 13.2733 52.0499 12.6938 52.7954 11.797C52.8213 12.297 54.231 13.3748 54.231 13.3748C54.5173 14.0552 54.734 14.763 54.8776 15.4871C54.8776 15.5604 54.9035 15.6337 54.9164 15.7113C54.9654 15.9963 54.9942 16.2844 55.0027 16.5735C54.9983 16.7071 54.9983 16.858 54.9897 17.0089Z" fill="url(#paint23_radial_353_1359)"/>
<path d="M46.3467 14.6508C46.5364 14.5344 47.2994 13.9869 48.1099 14.1809C48.1099 14.1809 48.9031 14.0559 48.2349 13.7929C47.9916 13.6803 47.7255 13.626 47.4576 13.6342C47.1897 13.6425 46.9274 13.713 46.6916 13.8403C46.4286 14.0171 46.3467 14.6508 46.3467 14.6508Z" fill="#A5A5A5"/>
<path d="M51.6084 13.987C51.8024 13.9396 53.2595 14.2974 53.738 14.181C54.2165 14.0646 53.6259 13.5602 52.9491 13.4481C52.6991 13.4274 52.4478 13.4654 52.215 13.5589C51.9823 13.6525 51.7746 13.7991 51.6084 13.987Z" fill="#A5A5A5"/>
<path d="M46.8027 15.6208C46.8964 15.8347 47.0475 16.0184 47.2393 16.1516C47.431 16.2847 47.656 16.3621 47.8891 16.3752C48.1216 16.3536 48.3456 16.277 48.5427 16.1518C48.7398 16.0267 48.9044 15.8565 49.0229 15.6553C48.6331 15.8134 48.2146 15.8883 47.7942 15.8751C47.4526 15.8423 47.1181 15.7565 46.8027 15.6208Z" fill="#052E3F"/>
<path d="M51.7344 15.5906C51.7344 15.5906 51.8378 16.1855 52.8423 16.1381C53.8467 16.0907 53.8295 15.457 53.8295 15.457C53.4666 15.562 53.0939 15.6299 52.7173 15.6596C52.3881 15.6723 52.0585 15.6492 51.7344 15.5906Z" fill="#052E3F"/>
<path d="M51.0194 14.806C51.0194 14.806 50.709 16.5303 51.4246 17.3236C51.4246 17.3236 50.4589 17.9486 49.752 17.3882C49.752 17.3882 50.6357 17.6038 51.1401 17.2675C50.956 16.9037 50.8406 16.5092 50.7995 16.1036C50.8084 15.6625 50.8825 15.2253 51.0194 14.806Z" fill="#DA6C3F"/>
<path d="M52.046 18.9618C51.8822 19.311 51.4727 19.7421 50.4768 19.7593C49.2137 19.7895 48.9551 19.0178 48.9077 18.7117C48.9045 18.6716 48.9045 18.6312 48.9077 18.591C48.9077 18.591 51.2657 18.8885 52.1753 18.5048C52.1636 18.6643 52.1196 18.8198 52.046 18.9618Z" fill="#B6081F"/>
<path d="M52.046 18.9618C51.1431 19.1148 50.2234 19.1423 49.3129 19.0437C49.1537 18.9663 49.0148 18.8526 48.9077 18.7117C48.9045 18.6716 48.9045 18.6312 48.9077 18.591C48.9077 18.591 51.2657 18.8885 52.1753 18.5048C52.1636 18.6643 52.1196 18.8198 52.046 18.9618Z" fill="white"/>
<g style="mix-blend-mode:multiply" opacity="0.2">
<path d="M50.7433 20.4404C47.3549 20.7982 45.4365 18.5048 45.3115 17.177C45.1865 15.8492 45.8331 13.1635 45.8331 13.1635C47.0737 13.5401 48.3572 13.7573 49.6526 13.8101C51.4718 13.8101 52.6401 12.3056 52.6961 12.2323C52.9376 12.9178 53.9549 13.323 53.9549 13.323C54.3395 14.2772 54.6677 15.2531 54.9378 16.2458C54.9635 16.3479 54.9822 16.4516 54.9939 16.5562C54.9237 15.4534 54.6626 14.3711 54.2222 13.3575C54.2222 13.3575 52.8125 12.2798 52.7867 11.7797C52.0412 12.6765 50.9823 13.2561 49.825 13.4006C48.4288 13.4837 47.0293 13.3039 45.6995 12.8704C45.5313 13.254 44.7898 16.3579 45.4106 18.0435C45.8676 19.2894 46.9712 20.2421 48.5921 20.5999C49.2352 20.735 49.8933 20.7842 50.5493 20.7465C51.0363 20.7223 51.5199 20.6516 51.9935 20.5352C53.7178 20.1041 54.58 19.0566 54.8775 17.828C54.9436 17.555 54.984 17.2764 54.9982 16.9959C54.8559 18.3927 53.5756 20.1429 50.7433 20.4404Z" fill="#E64918"/>
</g>
<g style="mix-blend-mode:multiply" opacity="0.2">
<path d="M52.2087 20.4533L52.0319 21.5483C51.4958 21.2805 50.908 21.1318 50.309 21.1125C49.71 21.0931 49.1139 21.2036 48.5616 21.4362L48.415 20.5051C49.1327 20.6594 49.8681 20.7145 50.6007 20.6689C51.1425 20.6504 51.6811 20.5782 52.2087 20.4533Z" fill="#E64918"/>
</g>
<path style="mix-blend-mode:multiply" opacity="0.3" d="M60.6149 42.9263C60.5761 43.5686 59.9338 43.3573 59.9338 43.3573C59.8476 42.7236 59.3001 42.3357 58.9595 42.5986C58.9234 42.4794 58.8641 42.3685 58.7849 42.2723C58.7057 42.1761 58.6083 42.0966 58.4983 42.0382C58.1405 41.9347 57.8171 42.9004 57.6663 43.7065C57.6663 43.6203 57.6663 43.547 57.6663 43.4781C57.6275 41.2795 58.5284 41.0467 59.2268 40.9993C59.8174 40.9691 60.6537 42.2882 60.6149 42.9263Z" fill="url(#paint24_linear_353_1359)"/>
<path d="M42.0875 42.8358L41.9409 42.9307C41.9927 42.9307 42.76 42.8445 42.8031 42.9953C42.8462 43.1462 42.4237 43.4695 42.4237 43.4695L42.5833 43.4437C42.7557 43.4437 42.8893 43.4997 42.9238 43.6161C42.9317 43.6686 42.9277 43.7223 42.912 43.773C42.8963 43.8238 42.8694 43.8703 42.8333 43.9093C42.5833 44.2585 41.609 44.1938 41.609 44.1938C41.609 44.1938 40.4666 43.3316 40.5916 42.7108C40.7166 42.09 42.2125 40.6717 42.2125 40.6717C42.0315 39.9432 41.8116 38.9818 41.7038 38.5163L41.6348 38.2145C41.9334 38.0845 42.2655 38.0528 42.5833 38.124C42.8745 38.158 43.1627 38.2142 43.4454 38.2921L43.1049 40.8097C43.1049 40.8097 43.1351 41.9133 42.7859 42.2927C42.5725 42.4974 42.3385 42.6795 42.0875 42.8358Z" fill="url(#paint25_linear_353_1359)"/>
<g style="mix-blend-mode:multiply" opacity="0.2">
<path d="M43.0749 40.7881C43.0749 40.7881 43.105 41.8917 42.7559 42.2711C42.5531 42.4817 42.3292 42.671 42.0876 42.8358L41.8764 42.866C42.2586 42.2778 42.5862 41.6559 42.855 41.008L43.0576 38.693C42.8621 38.5535 42.636 38.4628 42.3983 38.4283C42.1607 38.3938 41.9182 38.4166 41.691 38.4947L41.6221 38.1929C41.9206 38.0629 42.2527 38.0312 42.5705 38.1024C42.8617 38.1364 43.15 38.1926 43.4327 38.2705L43.0749 40.7881Z" fill="#E64918"/>
</g>
<g style="mix-blend-mode:multiply" opacity="0.2">
<path d="M42.9103 43.616C42.6973 43.724 42.4592 43.7726 42.221 43.7567C41.9828 43.7408 41.7533 43.6609 41.5566 43.5255C41.8921 43.6313 42.2556 43.6019 42.5697 43.4436C42.7421 43.4393 42.8758 43.4996 42.9103 43.616Z" fill="#E64918"/>
</g>
<path d="M60.3566 43.129C60.0721 43.6937 59.266 43.7023 59.2401 43.7023L59.5419 43.4911C59.4715 43.5279 59.3979 43.5582 59.322 43.5816C58.9254 43.6937 58.3779 43.6635 58.3477 43.4566C58.3477 43.3445 58.4943 43.2626 58.6797 43.2066L58.8047 43.1764C58.6516 43.1616 58.504 43.1114 58.3736 43.0298C58.3176 42.991 58.2874 42.9522 58.296 42.9177C58.3305 42.7712 59.1582 42.3745 59.1582 42.0124C59.1582 41.6503 58.4167 41.2537 58.4167 41.2537C58.4167 41.2537 57.8563 42.1935 57.7873 42.3745C57.7183 42.5556 57.4554 42.5168 57.3993 41.9133C57.3605 41.4822 57.9382 40.5165 57.9382 40.5165C57.8692 40.1156 57.6752 37.6713 57.6752 37.6713L59.4298 37.0333C59.4298 37.223 59.4298 37.4256 59.4298 37.6368C59.3867 38.8439 59.2487 40.2751 59.2487 40.2751C60.2747 41.3313 60.6627 42.5513 60.3566 43.129Z" fill="url(#paint26_linear_353_1359)"/>
<g style="mix-blend-mode:multiply" opacity="0.2">
<path d="M58.2612 38.236C58.223 39.1478 58.2489 40.0611 58.3388 40.9692C58.7432 41.1784 59.0976 41.4725 59.3778 41.8314C59.5761 42.215 59.2829 42.6936 58.4078 43.0298C58.3517 42.991 58.3216 42.9522 58.3302 42.9177C58.3647 42.7712 59.1924 42.3745 59.1924 42.0124C59.1924 41.6503 58.4509 41.2537 58.4509 41.2537C58.4509 41.2537 57.8905 42.1935 57.8215 42.3745C57.7525 42.5556 57.4896 42.5168 57.4335 41.9133C57.3947 41.4822 57.9724 40.5165 57.9724 40.5165C57.9034 40.1156 57.7094 37.6713 57.7094 37.6713L59.464 37.0333C59.464 37.223 59.464 37.4256 59.464 37.6368C59.1277 37.8092 58.6664 38.042 58.2612 38.236Z" fill="#E64918"/>
</g>
<g style="mix-blend-mode:multiply" opacity="0.2">
<path d="M59.8558 42.7281C59.6963 43.4265 58.3643 43.4567 58.3643 43.4567C58.3643 43.3446 58.5108 43.2627 58.6962 43.2066C59.1113 43.1276 59.5058 42.9648 59.8558 42.7281Z" fill="#E64918"/>
</g>
<g style="mix-blend-mode:multiply" opacity="0.2">
<path d="M60.1976 42.8272C60.176 43.3488 59.2578 43.6894 59.2578 43.6894L59.5596 43.4782C59.4892 43.515 59.4156 43.5453 59.3397 43.5687C59.652 43.3537 59.9397 43.1051 60.1976 42.8272Z" fill="#E64918"/>
</g>
<g style="mix-blend-mode:multiply" opacity="0.2">
<path d="M47.5759 70.2275L47.6233 70.2965C47.5543 70.2965 45.8127 70.7276 45.8127 70.7276C45.7653 70.1197 45.0411 69.2877 44.666 69.0032H44.7738C45.085 69.1433 45.3561 69.3592 45.5624 69.631C45.7688 69.9028 45.9037 70.222 45.955 70.5594C46.274 70.5206 47.2698 70.3223 47.3129 70.1801C47.5115 69.0708 47.6454 67.951 47.7139 66.8262C47.7527 65.6062 47.9122 62.291 47.9122 62.291C47.0887 62.5205 46.2197 62.5324 45.3903 62.3255C45.3558 62.1574 45.3256 62.0108 45.2997 61.8944C46.048 61.9609 46.8004 61.9696 47.55 61.9203L48.6881 61.8556C48.3907 64.2999 47.7182 69.2058 47.5759 70.2275Z" fill="#E64918"/>
</g>
<g style="mix-blend-mode:multiply" opacity="0.2">
<path d="M57.9115 68.9904C57.5451 69.2577 56.8122 69.8526 56.7518 70.6803L55.1395 70.4561C54.3306 67.5276 53.6816 64.5573 53.1953 61.5583H53.704C54.1351 61.5583 55.3594 61.4893 56.6053 61.3772L56.5837 61.7782C55.7435 62.017 54.869 62.1117 53.9971 62.0584C53.9971 62.0584 54.1567 63.994 54.2989 65.2959C54.5553 66.9706 54.9094 68.6288 55.3594 70.2621C55.4198 70.2621 56.5406 70.482 56.601 70.482C56.6613 70.482 56.657 69.4517 57.5623 68.9688C57.6791 68.9675 57.7958 68.9747 57.9115 68.9904Z" fill="#E64918"/>
</g>
<g style="mix-blend-mode:multiply" opacity="0.4">
<path d="M46.4189 31.7653C46.7121 31.8214 47.8847 31.1532 50.1738 31.179C52.4629 31.2049 53.6225 32.0067 53.9286 31.8731H50.9454C49.4539 31.8946 46.4189 31.7653 46.4189 31.7653Z" fill="#D0606D"/>
</g>
<g style="mix-blend-mode:multiply" opacity="0.2">
<path d="M54.9089 15.7114C54.9089 15.6338 54.8873 15.5605 54.8701 15.4872L54.439 15.7372C54.3675 15.3366 54.1535 14.9754 53.8365 14.7203C53.5195 14.4651 53.1209 14.3333 52.7143 14.349C52.3077 14.3648 51.9205 14.5271 51.6242 14.806C51.328 15.085 51.1426 15.4616 51.1023 15.8666C50.8978 15.7556 50.6689 15.6975 50.4363 15.6975C50.2036 15.6975 49.9747 15.7556 49.7702 15.8666C49.7265 15.4359 49.5188 15.0386 49.1902 14.7569C48.8615 14.4752 48.437 14.3307 48.0048 14.3534C47.5725 14.3762 47.1655 14.5643 46.8682 14.8789C46.5709 15.1935 46.406 15.6104 46.4077 16.0433C46.4077 16.0821 46.4077 16.1209 46.4077 16.1597L45.1963 15.6553V15.8795L46.4551 16.4097C46.5421 16.8122 46.7734 17.1688 47.1053 17.4125C47.4372 17.6561 47.8468 17.7698 48.2568 17.7321C48.6668 17.6945 49.0488 17.508 49.3308 17.208C49.6128 16.908 49.7752 16.5152 49.7875 16.1037C49.9828 15.9735 50.2123 15.9041 50.447 15.9041C50.6818 15.9041 50.9113 15.9735 51.1066 16.1037C51.1373 16.5376 51.3346 16.9429 51.6572 17.2348C51.9798 17.5266 52.4028 17.6825 52.8376 17.6697C53.2725 17.6569 53.6855 17.4764 53.9904 17.1661C54.2953 16.8557 54.4684 16.4395 54.4735 16.0045C54.4735 16.0045 54.4735 15.97 54.4735 15.9528L54.9089 15.7114ZM48.076 17.522C47.7853 17.522 47.5011 17.4358 47.2593 17.2742C47.0176 17.1127 46.8291 16.8831 46.7179 16.6145C46.6066 16.3459 46.5775 16.0503 46.6342 15.7651C46.6909 15.48 46.8309 15.218 47.0365 15.0125C47.2421 14.8069 47.5041 14.6669 47.7892 14.6101C48.0744 14.5534 48.37 14.5825 48.6386 14.6938C48.9072 14.8051 49.1368 14.9935 49.2983 15.2352C49.4598 15.477 49.5461 15.7612 49.5461 16.0519C49.5461 16.4418 49.3912 16.8157 49.1155 17.0914C48.8398 17.3671 48.4659 17.522 48.076 17.522ZM52.762 17.4961C52.4713 17.4961 52.1871 17.4099 51.9453 17.2484C51.7036 17.0868 51.5152 16.8572 51.4039 16.5886C51.2926 16.32 51.2635 16.0244 51.3202 15.7393C51.377 15.4541 51.517 15.1922 51.7226 14.9866C51.9281 14.781 52.1901 14.641 52.4752 14.5843C52.7604 14.5276 53.056 14.5567 53.3246 14.6679C53.5932 14.7792 53.8228 14.9676 53.9843 15.2094C54.1458 15.4511 54.2321 15.7353 54.2321 16.0261C54.2321 16.4159 54.0772 16.7899 53.8015 17.0655C53.5258 17.3412 53.1519 17.4961 52.762 17.4961Z" fill="#E64918"/>
</g>
<path d="M55.1833 15.0818C55.167 15.0607 55.1438 15.0461 55.1177 15.0405C55.0917 15.035 55.0645 15.0389 55.041 15.0517L54.4116 15.4095C54.3525 15.0352 54.1687 14.6919 53.89 14.4352C53.574 14.1521 53.1632 13.9982 52.739 14.0041C52.407 14.0032 52.0826 14.1023 51.8078 14.2886C51.6008 14.4249 51.4265 14.6054 51.2975 14.8171C51.1685 15.0288 51.0881 15.2664 51.062 15.5129C50.8578 15.4012 50.6288 15.3427 50.396 15.3427C50.1632 15.3427 49.9342 15.4012 49.7299 15.5129C49.7126 15.3341 49.666 15.1593 49.592 14.9956C49.4578 14.7 49.2413 14.4492 48.9684 14.2734C48.6955 14.0975 48.3776 14.0041 48.053 14.0041C47.9488 14.0054 47.845 14.0155 47.7426 14.0343C47.4487 14.0875 47.1742 14.2177 46.9471 14.4116C46.7199 14.6054 46.5481 14.856 46.4493 15.1379C46.3848 15.3146 46.3526 15.5015 46.3545 15.6897C46.3523 15.7284 46.3523 15.7673 46.3545 15.8061H46.3157L44.9189 15.2198C44.8938 15.2112 44.8665 15.2112 44.8413 15.2198C44.8275 15.225 44.815 15.233 44.8046 15.2434C44.7942 15.2539 44.7862 15.2664 44.781 15.2801C44.7747 15.2927 44.7711 15.3065 44.7706 15.3206C44.77 15.3347 44.7725 15.3487 44.7778 15.3618C44.7831 15.3748 44.7911 15.3866 44.8013 15.3963C44.8115 15.406 44.8237 15.4134 44.837 15.4181L46.389 16.069C46.4653 16.41 46.6456 16.7188 46.9051 16.9528C47.1646 17.1868 47.4904 17.3343 47.8374 17.375C48.1845 17.4158 48.5356 17.3476 48.8422 17.1801C49.1488 17.0125 49.3957 16.7538 49.5489 16.4398C49.652 16.2285 49.7093 15.9979 49.717 15.763C49.9128 15.6339 50.1421 15.5651 50.3766 15.5651C50.6111 15.5651 50.8404 15.6339 51.0362 15.763C51.0614 16.1923 51.2493 16.5958 51.5617 16.8913C51.8741 17.1869 52.2874 17.3522 52.7174 17.3537C52.863 17.354 53.0079 17.3352 53.1485 17.2977C53.2998 17.2612 53.445 17.2031 53.5796 17.1252C53.8391 16.98 54.0555 16.7687 54.2069 16.5128C54.3584 16.2569 54.4394 15.9655 54.4418 15.6681V15.6121L55.1531 15.2112C55.1719 15.1961 55.185 15.1751 55.1905 15.1517C55.196 15.1283 55.1934 15.1037 55.1833 15.0818ZM48.0616 14.2196C48.3525 14.2188 48.6372 14.3043 48.8795 14.4653C49.1218 14.6263 49.3109 14.8556 49.4228 15.1241C49.5347 15.3927 49.5645 15.6884 49.5082 15.9738C49.452 16.2593 49.3123 16.5216 49.1069 16.7276C48.9015 16.9336 48.6396 17.0741 48.3543 17.1311C48.069 17.1882 47.7732 17.1594 47.5044 17.0482C47.2355 16.9371 47.0056 16.7487 46.8439 16.5068C46.6822 16.265 46.5959 15.9806 46.5959 15.6897C46.5959 15.302 46.749 14.9301 47.0219 14.6547C47.2948 14.3794 47.6653 14.223 48.053 14.2196H48.0616ZM52.7476 14.2196C53.0384 14.2196 53.3226 14.3059 53.5643 14.4674C53.8061 14.6289 53.9945 14.8585 54.1057 15.1271C54.217 15.3957 54.2461 15.6913 54.1894 15.9765C54.1327 16.2616 53.9927 16.5236 53.7871 16.7291C53.5815 16.9347 53.3196 17.0747 53.0344 17.1315C52.7492 17.1882 52.4537 17.1591 52.185 17.0478C51.9164 16.9365 51.6868 16.7481 51.5253 16.5064C51.3638 16.2646 51.2776 15.9804 51.2776 15.6897C51.2776 15.3013 51.4313 14.9287 51.7051 14.6532C51.9789 14.3778 52.3506 14.2219 52.739 14.2196H52.7476Z" fill="#D26409"/>
<g style="mix-blend-mode:multiply" opacity="0.4">
<path d="M49.5792 16.4269C49.426 16.741 49.1791 16.9996 48.8724 17.1672C48.5658 17.3348 48.2147 17.4029 47.8677 17.3622C47.5207 17.3215 47.1949 17.1739 46.9354 16.9399C46.6759 16.706 46.4955 16.3971 46.4192 16.0562L44.8673 15.4052C44.854 15.4006 44.8418 15.3931 44.8316 15.3834C44.8214 15.3737 44.8134 15.362 44.8081 15.3489C44.8028 15.3359 44.8003 15.3218 44.8009 15.3077C44.8014 15.2937 44.805 15.2799 44.8112 15.2673C44.8164 15.2535 44.8245 15.241 44.8349 15.2306C44.8453 15.2202 44.8578 15.2121 44.8716 15.2069L45.2078 15.4181C45.549 15.5939 45.9002 15.7494 46.2597 15.8837H46.3675V15.8061H46.4063C46.4042 15.7674 46.4042 15.7285 46.4063 15.6897C46.4045 15.5016 46.4366 15.3147 46.5011 15.1379C46.4766 15.4425 46.497 15.7489 46.5615 16.0475C46.5986 16.2366 46.6727 16.4165 46.7796 16.5768C46.8864 16.7372 47.024 16.8748 47.1842 16.9818C47.3445 17.0888 47.5243 17.163 47.7134 17.2002C47.9025 17.2374 48.097 17.2368 48.2859 17.1986C48.8022 17.1228 49.2673 16.8452 49.5792 16.4269Z" fill="#D26409"/>
</g>
<g style="mix-blend-mode:multiply" opacity="0.4">
<path d="M55.1363 15.2113L54.425 15.6122V15.6682C54.4226 15.9656 54.3415 16.257 54.1901 16.5129C54.0387 16.7688 53.8223 16.9801 53.5628 17.1253L53.1317 17.2978C52.9911 17.3353 52.8461 17.3541 52.7006 17.3538C52.2706 17.3524 51.8573 17.187 51.5449 16.8915C51.2325 16.5959 51.0446 16.1924 51.0193 15.7631C50.8236 15.634 50.5942 15.5653 50.3598 15.5653C50.1253 15.5653 49.896 15.634 49.7002 15.7631C49.7759 15.6398 49.8875 15.5427 50.0201 15.4849C50.1527 15.4271 50.2999 15.4113 50.4417 15.4398C51.0064 15.5001 51.1013 15.6208 51.1013 15.6208C51.1582 16.1354 51.4095 16.6089 51.8039 16.9443C52.0715 17.1286 52.3887 17.2272 52.7135 17.2272C53.0384 17.2272 53.3556 17.1286 53.6232 16.9443C54.1491 16.5735 54.3043 15.582 54.3043 15.582L55.1837 15.0518C55.1926 15.065 55.1985 15.08 55.2009 15.0957C55.2033 15.1114 55.2022 15.1275 55.1977 15.1427C55.1931 15.158 55.1853 15.172 55.1747 15.1839C55.1641 15.1957 55.151 15.2051 55.1363 15.2113Z" fill="#D26409"/>
</g>
<g style="mix-blend-mode:screen" opacity="0.5">
<path d="M49.5808 14.9958C49.1101 14.4505 48.4482 14.1064 47.7314 14.0344C47.8339 14.0156 47.9377 14.0055 48.0418 14.0042C48.3665 14.0042 48.6843 14.0977 48.9572 14.2735C49.2302 14.4494 49.4467 14.7001 49.5808 14.9958Z" fill="#D26409"/>
</g>
<g style="mix-blend-mode:screen" opacity="0.5">
<path d="M53.8898 14.4352C53.2371 14.136 52.4999 14.0764 51.8076 14.267C52.0823 14.0808 52.4068 13.9816 52.7388 13.9825C53.1659 13.9825 53.5771 14.1442 53.8898 14.4352Z" fill="#D26409"/>
</g>
<path style="mix-blend-mode:multiply" opacity="0.4" d="M57.7398 35.7098C57.4225 34.4 56.9583 33.1303 56.356 31.9248C55.6619 30.5151 55.1274 29.3986 55.1274 29.3986C55.1834 30.0624 55.1015 33.0456 55.261 34.3777C55.3581 35.2998 55.502 36.2163 55.6921 37.1238C54.9638 37.66 54.1662 38.095 53.3211 38.4171C52.2304 38.7102 49.7258 39.2146 47.3289 38.6585C46.3885 38.4664 45.495 38.0914 44.6992 37.5549C44.6366 36.0765 44.7509 34.596 45.0397 33.1448C45.4364 31.4204 44.932 29.2649 44.932 29.2649C44.2404 30.6156 43.7468 32.0587 43.4663 33.55C43.2809 34.545 43.2446 35.562 43.3585 36.5677C43.2103 37.0092 43.1134 37.4663 43.0696 37.9299L43.0352 37.9989L43.061 38.0334C43.061 38.1757 43.0352 38.2662 43.0352 38.2662L43.3369 38.43L43.393 38.5119C43.395 38.4962 43.395 38.4802 43.393 38.4645C43.5007 38.0765 43.5913 37.7618 43.6559 37.5463C43.6582 37.5017 43.6582 37.4571 43.6559 37.4126L43.6775 37.4428C43.9779 37.7899 44.3369 38.0817 44.738 38.305C45.6347 38.8309 47.1478 39.3612 49.48 39.2103C51.6747 39.0771 53.8405 38.6419 55.9163 37.917C56.3819 37.7489 56.6276 37.6368 56.6276 37.6368C56.6276 37.6368 56.5155 37.2057 56.3646 36.6108C56.3431 36.5375 56.3258 36.4599 56.3043 36.378C56.2827 36.2961 56.2784 36.2659 56.2612 36.2099C56.2439 36.1538 56.2051 35.9771 56.1749 35.8564C56.1749 35.8176 56.1534 35.7788 56.1448 35.74C56.106 35.5675 56.0629 35.3908 56.0197 35.214C56.0197 35.1537 55.9939 35.0933 55.9766 35.033C55.9335 34.8347 55.8904 34.6407 55.8473 34.4553L55.8214 34.313C55.7783 34.1147 55.7395 33.9251 55.7094 33.7526C55.7094 33.6793 55.6835 33.606 55.6706 33.5414C55.6576 33.4767 55.6404 33.3301 55.6318 33.2396C55.5111 32.1231 55.3516 30.0064 55.3516 30.0064C55.3516 30.0064 57.2872 35.6106 57.5674 37.7359L57.8131 37.6454C57.8512 36.9993 57.8266 36.3511 57.7398 35.7098ZM43.7551 36.6366C43.7551 36.6366 43.8758 35.1968 44.2336 32.7999C44.5914 30.403 44.9147 30.1228 44.9147 30.1228C44.9147 30.1228 45.2337 32.5412 43.7551 36.6366Z" fill="url(#paint27_linear_353_1359)"/>
<defs>
<linearGradient id="paint0_linear_353_1359" x1="380.886" y1="22.4152" x2="380.879" y2="22.1431" gradientUnits="userSpaceOnUse">
<stop stop-color="#F5C397"/>
<stop offset="1" stop-color="#F59E79"/>
</linearGradient>
<linearGradient id="paint1_linear_353_1359" x1="-3779.17" y1="163.02" x2="-3779.81" y2="145.697" gradientUnits="userSpaceOnUse">
<stop stop-color="#F5C397"/>
<stop offset="1" stop-color="#F59E79"/>
</linearGradient>
<radialGradient id="paint2_radial_353_1359" cx="0" cy="0" r="1" gradientUnits="userSpaceOnUse" gradientTransform="translate(-17260.4 430.64) rotate(180) scale(469.058 510.804)">
<stop stop-color="#F5C397"/>
<stop offset="1" stop-color="#F59E79"/>
</radialGradient>
<linearGradient id="paint3_linear_353_1359" x1="31.7012" y1="42.547" x2="24.5838" y2="20.7509" gradientUnits="userSpaceOnUse">
<stop offset="0.01" stop-color="#5E5E5E"/>
<stop offset="1" stop-color="#636573"/>
</linearGradient>
<linearGradient id="paint4_linear_353_1359" x1="14666.9" y1="2378.54" x2="14918.8" y2="1121.75" gradientUnits="userSpaceOnUse">
<stop offset="0.01" stop-color="#5E5E5E"/>
<stop offset="1" stop-color="#636573"/>
</linearGradient>
<linearGradient id="paint5_linear_353_1359" x1="-4283.58" y1="248.863" x2="-4283.11" y2="204.648" gradientUnits="userSpaceOnUse">
<stop stop-color="#F5C397"/>
<stop offset="1" stop-color="#F59E79"/>
</linearGradient>
<linearGradient id="paint6_linear_353_1359" x1="5449.24" y1="160.304" x2="5483.39" y2="160.304" gradientUnits="userSpaceOnUse">
<stop offset="0.01" stop-color="#5E5E5E"/>
<stop offset="1" stop-color="#636573"/>
</linearGradient>
<linearGradient id="paint7_linear_353_1359" x1="3987.83" y1="129.635" x2="4005.71" y2="129.635" gradientUnits="userSpaceOnUse">
<stop offset="0.01" stop-color="#5E5E5E"/>
<stop offset="1" stop-color="#636573"/>
</linearGradient>
<linearGradient id="paint8_linear_353_1359" x1="6618.98" y1="953.796" x2="6667.69" y2="953.796" gradientUnits="userSpaceOnUse">
<stop offset="0.01" stop-color="#5E5E5E"/>
<stop offset="1" stop-color="#636573"/>
</linearGradient>
<linearGradient id="paint9_linear_353_1359" x1="-4928.05" y1="525.971" x2="-4950.49" y2="473.426" gradientUnits="userSpaceOnUse">
<stop stop-color="#F5C397"/>
<stop offset="1" stop-color="#F59E79"/>
</linearGradient>
<linearGradient id="paint10_linear_353_1359" x1="-5153.23" y1="516.996" x2="-5097.7" y2="504.865" gradientUnits="userSpaceOnUse">
<stop stop-color="#F5C397"/>
<stop offset="1" stop-color="#F59E79"/>
</linearGradient>
<linearGradient id="paint11_linear_353_1359" x1="57.3476" y1="71.508" x2="58.0288" y2="68.8611" gradientUnits="userSpaceOnUse">
<stop stop-color="#FBD6A3"/>
<stop offset="1" stop-color="#FBC58F"/>
</linearGradient>
<linearGradient id="paint12_linear_353_1359" x1="2373.86" y1="214.622" x2="2373.97" y2="211.998" gradientUnits="userSpaceOnUse">
<stop stop-color="#FBD6A3"/>
<stop offset="1" stop-color="#FBC58F"/>
</linearGradient>
<linearGradient id="paint13_linear_353_1359" x1="56.1268" y1="71.439" x2="55.4327" y2="63.9854" gradientUnits="userSpaceOnUse">
<stop stop-color="#F5BF8E"/>
<stop offset="1" stop-color="#F5956C"/>
</linearGradient>
<linearGradient id="paint14_linear_353_1359" x1="2387.84" y1="489.541" x2="2390.02" y2="469.604" gradientUnits="userSpaceOnUse">
<stop stop-color="#FBD6A3"/>
<stop offset="1" stop-color="#FBC58F"/>
</linearGradient>
<linearGradient id="paint15_linear_353_1359" x1="2388.12" y1="262.383" x2="2388.46" y2="255.567" gradientUnits="userSpaceOnUse">
<stop stop-color="#FBD6A3"/>
<stop offset="1" stop-color="#FBC58F"/>
</linearGradient>
<linearGradient id="paint16_linear_353_1359" x1="1711.75" y1="1599.81" x2="1812.57" y2="1422.13" gradientUnits="userSpaceOnUse">
<stop stop-color="#F5BF8E"/>
<stop offset="1" stop-color="#F5956C"/>
</linearGradient>
<linearGradient id="paint17_linear_353_1359" x1="52.1268" y1="37.2057" x2="50.2256" y2="65.5459" gradientUnits="userSpaceOnUse">
<stop stop-color="#1B889C"/>
<stop offset="0.99" stop-color="#4FA3B1"/>
</linearGradient>
<linearGradient id="paint18_linear_353_1359" x1="48.0836" y1="62.3516" x2="55.1967" y2="36.7014" gradientUnits="userSpaceOnUse">
<stop stop-color="#38889A"/>
<stop offset="1" stop-color="#22748C"/>
</linearGradient>
<linearGradient id="paint19_linear_353_1359" x1="56.9286" y1="21.3888" x2="47.979" y2="37.21" gradientUnits="userSpaceOnUse">
<stop stop-color="#E7423B"/>
<stop offset="1" stop-color="#DB5051"/>
</linearGradient>
<linearGradient id="paint20_linear_353_1359" x1="51.0494" y1="20.0352" x2="49.325" y2="23.0787" gradientUnits="userSpaceOnUse">
<stop stop-color="#D0606D"/>
<stop offset="1" stop-color="#DB5051"/>
</linearGradient>
<linearGradient id="paint21_linear_353_1359" x1="1663.45" y1="149.573" x2="1664.73" y2="131.853" gradientUnits="userSpaceOnUse">
<stop stop-color="#F5BF8E"/>
<stop offset="1" stop-color="#F5956C"/>
</linearGradient>
<linearGradient id="paint22_linear_353_1359" x1="1692.57" y1="52.3947" x2="1692.65" y2="47.9468" gradientUnits="userSpaceOnUse">
<stop stop-color="#F5BF8E"/>
<stop offset="1" stop-color="#F5956C"/>
</linearGradient>
<radialGradient id="paint23_radial_353_1359" cx="0" cy="0" r="1" gradientUnits="userSpaceOnUse" gradientTransform="translate(4253.25 378.237) scale(211.035 192.24)">
<stop stop-color="#F5BF8E"/>
<stop offset="1" stop-color="#F5956C"/>
</radialGradient>
<linearGradient id="paint24_linear_353_1359" x1="1367.23" y1="326.075" x2="1387.48" y2="326.075" gradientUnits="userSpaceOnUse">
<stop offset="0.01" stop-color="#814600"/>
<stop offset="0.99" stop-color="#602F00"/>
</linearGradient>
<linearGradient id="paint25_linear_353_1359" x1="1197.69" y1="664.168" x2="1216.58" y2="664.168" gradientUnits="userSpaceOnUse">
<stop stop-color="#F5BF8E"/>
<stop offset="1" stop-color="#F5956C"/>
</linearGradient>
<linearGradient id="paint26_linear_353_1359" x1="1418.63" y1="767.894" x2="1470.68" y2="674.72" gradientUnits="userSpaceOnUse">
<stop stop-color="#F5BF8E"/>
<stop offset="1" stop-color="#F5956C"/>
</linearGradient>
<linearGradient id="paint27_linear_353_1359" x1="6506.37" y1="738.136" x2="6398.02" y2="1022.42" gradientUnits="userSpaceOnUse">
<stop stop-color="#D0606D"/>
<stop offset="1" stop-color="#DB5051"/>
</linearGradient>
</defs>
</svg>
