<svg width="65" height="65" viewBox="0 0 65 65" fill="none" xmlns="http://www.w3.org/2000/svg">
<path d="M56.2747 22.45C56.3542 22.7393 56.4279 23.0174 56.4904 23.3238C56.5868 23.7607 56.6719 24.2033 56.7344 24.6345C56.7344 24.7763 56.7797 24.9239 56.7968 25.0657C56.8138 25.2076 56.8308 25.3551 56.8478 25.5026C57.2443 29.3427 56.3991 33.2088 54.4363 36.5331C54.3682 36.6504 54.3002 36.7638 54.2321 36.8735C54.1583 36.987 54.0902 37.1005 54.0165 37.2083C53.9427 37.3161 53.8519 37.4636 53.7611 37.5941L53.3412 38.1899L53.0746 38.5361C50.9072 41.3222 47.9901 43.4323 44.6655 44.6187C44.5123 44.6698 44.3648 44.7265 44.2116 44.7719L43.8598 44.8854L43.6499 44.9478L43.4172 45.0159L43.1619 45.084C40.0679 45.8773 36.8183 45.8303 33.7486 44.9478C33.0397 44.7488 32.3426 44.5101 31.6605 44.2329C31.5243 44.1761 31.3938 44.125 31.2633 44.0626L30.9682 43.9321C30.8094 43.864 30.6505 43.7846 30.4859 43.7052C17.9065 37.5544 16.5844 19.3065 29.0901 11.7032C31.6624 10.1263 34.5857 9.21214 37.5981 9.0428C40.6106 8.87346 43.6179 9.45419 46.3507 10.7329H46.3905C48.7947 11.8441 50.9259 13.4693 52.6338 15.4938C54.3416 17.5183 55.5845 19.8928 56.2747 22.45Z" fill="white"/>
<g style="mix-blend-mode:multiply" opacity="0.18">
<path d="M56.7975 25.0657C58.687 39.0864 44.0648 50.2928 30.4867 43.7052C30.1576 43.5406 31.2016 41.5887 31.3435 41.3845C34.2826 37.0608 44.235 35.6479 48.2806 28.6177C50.1815 25.3097 50.3006 21.2811 49.4155 17.644C48.7838 15.1904 47.7566 12.8561 46.3742 10.7329H46.4139C49.2236 12.0377 51.6528 14.0397 53.4703 16.5485C55.2878 19.0572 56.4332 21.9893 56.7975 25.0657Z" fill="#162839"/>
</g>
<g opacity="0.25">
<path opacity="0.25" d="M41.1812 22.711C39.1329 25.9169 37.3455 31.2675 37.9016 35.2791C37.9016 35.3544 37.9315 35.4265 37.9847 35.4797C38.0379 35.5329 38.11 35.5628 38.1853 35.5628C38.2605 35.5628 38.3327 35.5329 38.3859 35.4797C38.4391 35.4265 38.469 35.3544 38.469 35.2791C39.3371 26.9552 42.1628 23.0344 41.5557 22.6486C41.5274 22.6271 41.495 22.6116 41.4605 22.6031C41.4259 22.5946 41.3901 22.5932 41.355 22.599C41.3199 22.6049 41.2864 22.6178 41.2565 22.6371C41.2266 22.6563 41.201 22.6815 41.1812 22.711Z" fill="#162839"/>
<path opacity="0.25" d="M24.4648 27.4999C24.4364 27.4424 24.3878 27.3974 24.3283 27.3734C24.2688 27.3494 24.2026 27.3482 24.1422 27.3699C24.0819 27.3917 24.0317 27.4349 24.0012 27.4913C23.9706 27.5477 23.962 27.6134 23.9768 27.6758C24.798 30.6649 26.556 33.3119 28.9927 35.2281C29.7993 35.8612 30.6842 36.3876 31.6255 36.7941C31.687 36.8195 31.7555 36.8221 31.8187 36.8012C31.8819 36.7804 31.9355 36.7376 31.9699 36.6806C32.0042 36.6236 32.017 36.5562 32.0058 36.4907C31.9947 36.4251 31.9604 36.3656 31.9092 36.3232C26.2408 32.096 25.0152 28.3113 24.4648 27.4999Z" fill="#162839"/>
<path opacity="0.25" d="M25.9463 21.3549C25.8975 21.3936 25.8642 21.4486 25.8524 21.5097C25.8406 21.5709 25.851 21.6343 25.8819 21.6884C25.9127 21.7426 25.9619 21.7839 26.0205 21.8049C26.0792 21.826 26.1434 21.8253 26.2016 21.8031C30.4005 20.1009 32.3921 19.3633 36.2845 18.654C36.3218 18.6521 36.3583 18.643 36.392 18.627C36.4257 18.611 36.456 18.5885 36.481 18.5609C36.506 18.5332 36.5253 18.5009 36.5379 18.4658C36.5504 18.4306 36.5559 18.3934 36.5541 18.3561C36.5522 18.3189 36.543 18.2823 36.527 18.2486C36.511 18.2149 36.4886 18.1847 36.4609 18.1597C36.4333 18.1346 36.4009 18.1153 36.3658 18.1028C36.3307 18.0902 36.2934 18.0847 36.2561 18.0866C32.7439 17.8086 28.4032 19.4994 25.9463 21.3549Z" fill="#162839"/>
<path opacity="0.25" d="M40.0469 14.3814C40.1122 14.3443 40.1605 14.2834 40.1816 14.2114C40.2028 14.1394 40.1952 14.062 40.1604 13.9956C39.088 12.0437 36.824 10.4095 35.0877 10.1485C35.0283 10.1378 34.9669 10.148 34.9141 10.1774C34.8614 10.2068 34.8204 10.2537 34.7984 10.3099C34.7763 10.3662 34.7744 10.4283 34.793 10.4858C34.8116 10.5433 34.8496 10.5925 34.9005 10.6251C36.0353 11.4195 36.285 11.5841 37.3574 12.4238C39.7235 14.3247 39.7916 14.5176 40.0469 14.3814Z" fill="#162839"/>
<path opacity="0.25" d="M24.0286 18.9207C24.0286 18.9959 24.0585 19.0681 24.1117 19.1213C24.1649 19.1745 24.237 19.2044 24.3123 19.2044C24.3875 19.2044 24.4597 19.1745 24.5129 19.1213C24.5661 19.0681 24.596 18.9959 24.596 18.9207C24.7173 18.3329 24.9078 17.7615 25.1634 17.2184C25.7989 15.7545 26.6273 14.3076 27.3139 12.9515C26.4503 13.6151 25.6506 14.3578 24.9251 15.1701C24.3633 16.2595 23.8243 17.7291 24.0286 18.9207Z" fill="#162839"/>
<path opacity="0.25" d="M22.1166 28.7653C22.1392 28.7113 22.143 28.6513 22.1274 28.5949C22.1118 28.5385 22.0777 28.489 22.0306 28.4543C21.9834 28.4196 21.926 28.4017 21.8675 28.4036C21.809 28.4055 21.7529 28.4269 21.7081 28.4645C21.2193 28.881 20.8313 29.4029 20.5732 29.9909C20.682 30.7179 20.8335 31.4379 21.0272 32.147C21.3159 30.9972 21.6799 29.8675 22.1166 28.7653Z" fill="#162839"/>
<path opacity="0.25" d="M31.8703 41.0951C31.9249 41.0678 31.9685 41.0226 31.9938 40.967C32.0191 40.9115 32.0245 40.8489 32.0093 40.7898C31.994 40.7307 31.9589 40.6786 31.9098 40.6423C31.8608 40.6059 31.8008 40.5875 31.7398 40.5901C31.2121 40.6582 31.632 40.5277 26.7012 41.2256C27.087 41.5547 27.4842 41.8668 27.8984 42.1618C28.61 42.0679 29.3149 41.9296 30.0092 41.7476C30.6465 41.5819 31.269 41.3636 31.8703 41.0951Z" fill="#162839"/>
<path opacity="0.25" d="M38.2369 42.3377C38.174 42.3653 38.1241 42.416 38.0977 42.4795C38.0712 42.5429 38.0703 42.6141 38.0951 42.6782C38.5867 43.7696 39.2841 44.7559 40.1491 45.5833C40.6257 45.5493 41.0967 45.4868 41.5676 45.4131C38.566 42.6952 38.6114 42.1845 38.2369 42.3377Z" fill="#162839"/>
<path opacity="0.25" d="M50.8392 35.4096C50.879 35.3564 50.8983 35.2906 50.8938 35.2243C50.8892 35.158 50.8611 35.0955 50.8144 35.0482C50.7678 35.0009 50.7057 34.9718 50.6395 34.9663C50.5732 34.9608 50.5072 34.9792 50.4534 35.0181C48.4794 36.5553 46.23 37.7012 43.826 38.3942C41.5053 39.0978 41.1932 38.9616 41.1876 39.2964C41.186 39.3647 41.2113 39.4308 41.258 39.4807C41.3046 39.5306 41.369 39.5601 41.4372 39.5631C44.8076 39.6539 48.7285 38.1559 50.8392 35.4096Z" fill="#162839"/>
<path opacity="0.25" d="M46.6344 21.9393C46.5787 21.9106 46.5146 21.9029 46.4537 21.9176C46.3928 21.9323 46.3392 21.9684 46.3027 22.0194C46.2662 22.0703 46.2493 22.1327 46.255 22.195C46.2607 22.2574 46.2886 22.3157 46.3337 22.3592C49.2218 25.0657 50.6347 26.4616 52.8305 29.4972C52.871 29.5491 52.9285 29.5849 52.9929 29.5984C53.0572 29.6119 53.1243 29.6021 53.1821 29.5708C53.24 29.5395 53.2848 29.4887 53.3088 29.4274C53.3327 29.3662 53.3341 29.2984 53.3128 29.2362C53.0249 28.4377 52.6441 27.676 52.178 26.9666C50.7583 24.872 48.8574 23.1481 46.6344 21.9393Z" fill="#162839"/>
<path opacity="0.25" d="M45.4492 16.3673C45.414 16.413 45.3944 16.4688 45.3936 16.5264C45.3927 16.5841 45.4106 16.6404 45.4444 16.6871C45.4783 16.7337 45.5264 16.7682 45.5815 16.7852C45.6365 16.8022 45.6957 16.8009 45.7499 16.7816C47.2685 16.0717 48.8487 15.5019 50.4708 15.0793C50.5461 15.0793 50.6182 15.0494 50.6714 14.9962C50.7246 14.943 50.7545 14.8709 50.7545 14.7956C50.7545 14.7204 50.7246 14.6482 50.6714 14.595C50.6182 14.5418 50.5461 14.5119 50.4708 14.5119C50.0112 14.4211 46.4819 15.0793 45.4492 16.3673Z" fill="#162839"/>
</g>
<path d="M51.2542 41.1405C48.9318 43.3051 46.0885 44.8315 43.0011 45.5713C39.9137 46.3111 36.6874 46.239 33.6361 45.362C29.6652 44.2637 26.1675 41.8863 23.6848 38.5984C21.2021 35.3105 19.8731 31.2955 19.9038 27.1756C19.9345 23.0557 21.3232 19.061 23.8545 15.8104C26.3859 12.5598 29.9187 10.2349 33.9055 9.19582C37.8923 8.15676 42.1105 8.46161 45.9065 10.0631C49.7025 11.6647 52.8643 14.4734 54.9019 18.0542C56.9396 21.635 57.7394 25.7879 57.1774 29.8694C56.6153 33.9509 54.7229 37.733 51.7932 40.6298C51.6173 40.8057 51.4358 40.9929 51.2542 41.1405ZM26.4413 14.2282C24.1257 16.4006 22.4292 19.1497 21.5259 22.1937C20.6225 25.2376 20.5448 28.4671 21.3006 31.551C22.0565 34.6349 23.6187 37.4624 25.8271 39.7437C28.0356 42.025 30.811 43.6781 33.8687 44.5336C36.8973 45.3964 40.102 45.4303 43.1481 44.6319C46.1943 43.8334 48.9702 42.2318 51.1861 39.9943C54.2937 36.9131 56.1619 32.7984 56.4365 28.4308C56.711 24.0633 55.3727 19.747 52.6755 16.3009C49.9782 12.8549 46.1098 10.5188 41.8042 9.73617C37.4987 8.9535 33.0556 9.77864 29.3181 12.055C28.2887 12.681 27.3249 13.4091 26.4413 14.2282Z" fill="#162839"/>
<path d="M39.8034 12.9515C41.6021 12.9515 44.2009 14.2168 45.8293 15.2836C46.0352 15.4083 46.2141 15.5729 46.3554 15.7678C46.4967 15.9627 46.5976 16.1839 46.6521 16.4184C47.2194 18.3137 47.4536 20.293 47.3443 22.2684C47.2649 23.0628 46.8847 22.5691 42.8561 23.8061C41.0234 24.3735 40.8702 24.5891 40.4787 24.1522C35.2812 18.3873 35.2528 18.654 35.5819 18.1263C36.9891 15.8566 37.5622 15.119 38.6346 13.4111C38.9523 12.8777 39.2701 12.9402 39.8034 12.9515Z" fill="#162839"/>
<path d="M30.6055 36.1586C30.7701 34.933 30.7474 35.9203 36.3874 34.0649C37.3861 33.7358 37.6187 33.4124 37.9875 33.8947C41.1423 38.0027 41.6473 37.963 42.6687 38.8254C42.7116 38.8511 42.749 38.885 42.7787 38.9252C42.8085 38.9653 42.83 39.0109 42.8422 39.0594C42.8543 39.1079 42.8567 39.1583 42.8494 39.2077C42.842 39.2571 42.8249 39.3046 42.7992 39.3475C42.4474 40.2894 40.5976 42.5079 39.616 43.4442C39.4325 43.6784 39.1865 43.856 38.9064 43.9564C38.6263 44.0568 38.3235 44.076 38.0329 44.0116C35.829 43.9757 33.6745 43.3528 31.7914 42.2072C31.0538 41.7476 30.7701 40.8171 30.6566 39.9376C30.4758 38.6855 30.4586 37.4152 30.6055 36.1586Z" fill="#162839"/>
<path d="M22.2246 19.9534C22.7524 19.2696 23.3474 18.6404 24.0006 18.0752C24.4034 17.7121 24.568 17.7291 24.8176 18.2001C26.3156 20.9009 27.3823 20.7818 26.9398 21.6045C25.981 23.3112 25.3407 25.1782 25.0503 27.1141C24.9739 27.4883 24.9246 27.8676 24.9028 28.2489C24.9028 28.7312 23.9836 28.5553 21.8955 29.4348C21.1806 29.7355 21.1181 29.6788 20.477 27.778C20.3805 27.5056 20.5053 22.2684 22.2246 19.9534Z" fill="#162839"/>
<path d="M54.2779 36.8849C54.0679 37.2027 54.0169 37.3388 52.6835 38.1786C52.6286 38.2267 52.5642 38.2625 52.4944 38.2839C52.4246 38.3052 52.3512 38.3115 52.2788 38.3024C52.2064 38.2933 52.1368 38.269 52.0745 38.231C52.0122 38.193 51.9587 38.1423 51.9174 38.0821C51.4692 37.6452 50.3003 36.3799 49.8804 35.9146C49.313 35.2735 49.9088 35.1373 50.5273 33.7301C51.3024 32.0956 51.6573 30.2936 51.56 28.4872C51.5259 27.4205 51.7586 28.2716 54.9361 26.7169C55.3219 26.524 55.4411 26.5637 55.6624 26.9496C56.1209 27.9792 56.4249 29.071 56.5645 30.1895C56.8482 31.9144 54.7602 36.1643 54.2779 36.8849Z" fill="#162839"/>
<path d="M37.0631 9.02504C37.1406 9.02 37.2183 9.02 37.2958 9.02504C37.4263 9.02504 37.6192 8.96262 37.6759 9.09312C37.7327 9.22363 37.5227 9.32576 37.4206 9.42222C37.3185 9.51868 37.1085 9.69458 36.9553 9.83643C36.6433 10.1315 36.3369 10.4038 36.0361 10.7443C35.96 10.8261 35.8664 10.8895 35.7622 10.9298C35.658 10.9701 35.546 10.9862 35.4347 10.9769C35.1226 10.9769 34.8162 10.9259 34.5098 10.8861C33.5857 10.7738 32.6539 10.7377 31.7238 10.7783C31.5071 10.8294 31.2802 10.8156 31.0713 10.7386C31.1451 10.4436 31.4401 10.4606 31.6387 10.3755C32.8122 9.87153 34.0404 9.50593 35.2985 9.28604C35.9113 9.16689 36.5241 9.08178 37.0631 9.02504Z" fill="#162839"/>
<path d="M48.9961 12.6224C48.9961 12.4182 49.1323 12.3274 49.2798 12.4182C50.7364 13.4089 52.0207 14.6318 53.0815 16.0382C53.1249 16.0922 53.1647 16.1491 53.2006 16.2085C53.2178 16.2281 53.2272 16.2533 53.2272 16.2794C53.2272 16.3055 53.2178 16.3307 53.2006 16.3503C53.1855 16.3574 53.1691 16.3611 53.1524 16.3611C53.1357 16.3611 53.1192 16.3574 53.1041 16.3503C53.0072 16.3165 52.9125 16.2767 52.8204 16.2312C51.9176 15.7592 50.9409 15.4445 49.9323 15.3006C49.2855 15.2155 49.5862 14.9488 49.0131 12.6111L48.9961 12.6224Z" fill="#162839"/>
<path d="M23.1955 40.4823L30.9009 35.7784L24.6821 42.9278L34.5153 47.643L23.9388 46.1564L28.5291 54.1285L22.1004 48.7154L21.1074 56.4095L19.1271 49.3793L11.9835 52.8802L16.483 46.9167H7.64844L14.7978 43.6995L11.7168 37.2537L17.0845 41.6341L17.9753 32.5669L20.018 40.6014L23.831 32.8222L23.1955 40.4823Z" fill="#FF9D15"/>
</svg>
