<svg width="65" height="65" viewBox="0 0 65 65" fill="none" xmlns="http://www.w3.org/2000/svg">
<path d="M28.4892 40.2325C31.629 42.1252 35.2773 42.9329 38.8975 42.5368C42.5176 42.1407 45.9184 40.5617 48.5995 38.0322C51.2805 35.5026 53.1002 32.1561 53.7909 28.4849C54.4815 24.8138 54.0066 21.0119 52.4361 17.6387C50.8655 14.2655 48.2823 11.499 45.0663 9.74639C41.8504 7.99377 38.1717 7.34752 34.5714 7.90272C30.9711 8.45792 27.6394 10.1853 25.0665 12.8306C22.4935 15.4759 20.8153 18.8995 20.2786 22.5977C19.7786 26.0429 20.2932 29.563 21.7563 32.7055C23.2195 35.848 25.5642 38.4693 28.4892 40.2325Z" fill="#FF5B26"/>
<g style="mix-blend-mode:multiply" opacity="0.34">
<path d="M28.4882 40.23C31.6839 42.1588 35.4043 42.961 39.0838 42.5147C42.7632 42.0684 46.2004 40.398 48.8727 37.7575C51.5449 35.117 53.3061 31.6508 53.8883 27.886C54.4705 24.1212 53.842 20.2637 52.0984 16.9001C50.8238 17.131 49.6593 17.7893 48.7866 18.7726C46.6725 20.9411 45.6689 23.9287 44.3844 26.6341C42.8523 29.8627 40.4572 32.8297 36.9447 33.7178C34.9252 34.2574 32.7905 34.1136 30.8566 33.3077C28.9226 32.5018 27.2922 31.0767 26.2068 29.2432C24.7884 26.7511 23.6644 24.3211 21.0485 22.9374C20.8077 22.8066 20.5467 22.6827 20.2791 22.5657C19.7783 26.0167 20.2924 29.5431 21.7554 32.691C23.2183 35.8389 25.5631 38.4645 28.4882 40.23Z" fill="#EE5110"/>
</g>
<path d="M49.5981 37.5487C49.6863 37.5132 49.7608 37.4506 49.811 37.3697C51.5284 35.6391 52.8753 33.5754 53.7693 31.3052C54.6633 29.0349 55.0856 26.6057 55.0104 24.1662C54.9352 21.7267 54.364 19.3283 53.3318 17.1176C52.2997 14.907 50.8282 12.9306 49.0075 11.3094H48.9732C45.7868 8.46673 41.6879 6.86481 37.4222 6.79516C37.3744 6.78829 37.3258 6.78829 37.278 6.79516C32.9917 6.75748 28.8326 8.25325 25.5484 11.0135C25.4701 11.0277 25.3969 11.0626 25.3365 11.1146C25.2761 11.1666 25.2308 11.2339 25.2051 11.3094C22.0559 14.1092 19.9876 17.928 19.3609 22.0997C19.1934 23.2638 19.1382 24.4414 19.1961 25.6161C19.4243 30.2964 21.4757 34.7002 24.9094 37.8812C28.3432 41.0621 32.8853 42.7662 37.5595 42.6272C37.6028 42.634 37.6468 42.634 37.69 42.6272C42.1512 42.4756 46.3962 40.6651 49.5981 37.5487ZM28.5083 39.3585C27.5026 38.7673 26.5593 38.0756 25.6927 37.294C26.867 33.6262 29.5178 30.5157 31.8733 27.7563C32.9023 26.6107 33.8588 25.4018 34.737 24.1366C34.8332 23.9852 34.9362 23.82 35.0323 23.6549C36.1886 21.7475 36.7925 19.5555 36.7767 17.3239C38.1896 17.2238 39.6078 17.2238 41.0207 17.3239C42.2774 25.3753 39.9769 34.452 37.2642 41.6844C34.1888 41.7216 31.1615 40.9174 28.5083 39.3585ZM20.1507 25.6987C20.6451 24.8591 24.3123 19.1062 33.6795 17.6611C34.4143 17.5441 35.1285 17.4615 35.8427 17.3996C35.8115 19.6037 35.1514 21.7527 33.9404 23.5929C33.0831 24.8229 32.152 25.9995 31.1522 27.1163C28.9547 29.6968 26.2489 32.8692 24.9716 36.5302C22.1085 33.6239 20.3955 29.7751 20.1507 25.6987ZM22.4581 16.0646C23.3931 14.4759 24.5781 13.0491 25.9673 11.8393C27.7803 11.6466 30.9188 11.5916 33.3842 13.0573C33.9657 13.3904 34.4714 13.8416 34.8688 14.382C35.2661 14.9224 35.5464 15.54 35.6916 16.1953C35.6916 16.2848 35.7259 16.3742 35.7397 16.4637C35.0529 16.5325 34.2838 16.6151 33.5352 16.7321C25.7339 17.9363 21.7508 21.9207 20.1369 24.0402C20.1369 23.4209 20.2125 22.7947 20.3017 22.1754C20.6208 20.0192 21.3505 17.9446 22.4512 16.0646H22.4581ZM37.1132 7.676C39.0073 10.2553 40.2854 13.2358 40.849 16.388C39.4565 16.2951 38.0593 16.2951 36.6668 16.388C36.6668 16.2504 36.6668 16.1127 36.605 15.982C36.4335 15.2021 36.1003 14.4671 35.6271 13.8245C35.1539 13.182 34.5511 12.6463 33.858 12.2522C31.8368 11.1587 29.5515 10.6511 27.2584 10.7864C30.1449 8.75661 33.5868 7.67023 37.1132 7.676ZM45.7043 10.0088C46.4439 10.442 47.1488 10.932 47.8126 11.4746C47.0448 11.8326 46.3893 12.3942 45.9172 13.0986C45.1936 14.257 44.8591 15.6171 44.9626 16.9798C43.9273 16.7307 42.8765 16.5514 41.8173 16.443C41.2772 13.3087 40.0787 10.325 38.3012 7.68976C40.915 7.87724 43.4494 8.67117 45.7043 10.0088ZM53.8628 21.8519C51.6701 19.6313 48.9243 18.0394 45.9103 17.2413C45.6699 13.4289 47.8812 12.4242 48.6023 12.1627C51.3761 14.7213 53.2259 18.1284 53.8628 21.8519ZM51.7476 33.3028C51.361 33.9587 50.932 34.5885 50.4634 35.1883C51.2188 31.3278 49.7217 27.9558 48.259 24.694C47.3287 22.7995 46.6101 20.8078 46.1163 18.7552C46.082 18.5832 46.0477 18.418 46.0271 18.2598C49.1661 19.1442 51.9617 20.9661 54.0413 23.4828C54.2875 26.9134 53.4876 30.338 51.7476 33.3028ZM38.2463 41.65C40.9177 34.4382 43.129 25.4785 41.9478 17.434C42.9803 17.5462 44.0037 17.7301 45.0107 17.9845C45.0519 18.2942 45.0999 18.6107 45.1686 18.941C45.6733 21.0639 46.4151 23.123 47.3799 25.0793C48.877 28.4306 50.2917 31.5893 49.4402 35.2709C49.3188 35.793 49.1605 36.3059 48.9663 36.8055C46.0827 39.648 42.2813 41.366 38.2463 41.65Z" fill="#162839"/>
<path d="M23.5911 18.6008C24.002 18.0962 24.4482 17.5775 24.9087 17.1009C25.3692 16.6243 25.8509 16.1617 26.3255 15.6992C27.3108 14.8306 28.3892 14.0715 29.5416 13.4353C30.1128 13.1281 30.7018 12.8543 31.3055 12.6153C31.9158 12.3825 32.5404 12.1882 33.1756 12.0335C34.4729 11.742 35.7981 11.5893 37.1284 11.578C37.2334 11.5802 37.3354 11.5432 37.4141 11.4744C37.4928 11.4056 37.5424 11.3101 37.5531 11.2067C37.5638 11.1034 37.5348 10.9998 37.4719 10.9167C37.409 10.8335 37.3167 10.7768 37.2134 10.7579C35.7939 10.4342 34.3253 10.3795 32.8852 10.5967L32.3397 10.6878C32.1626 10.6878 31.9855 10.7649 31.8013 10.807C31.4471 10.8841 31.093 11.0102 30.7458 11.1154C30.0512 11.3557 29.3782 11.6535 28.734 12.0055C27.4584 12.7118 26.3016 13.6104 25.3054 14.6689C24.8114 15.1887 24.3568 15.7439 23.9453 16.33C23.7469 16.6243 23.5486 16.9257 23.3715 17.2341C23.1903 17.5471 23.0271 17.8701 22.8827 18.2013C22.8618 18.2477 22.8506 18.2977 22.8497 18.3485C22.8487 18.3992 22.8581 18.4496 22.8773 18.4967C22.8965 18.5438 22.925 18.5866 22.9612 18.6225C22.9975 18.6585 23.0406 18.6868 23.0881 18.706C23.1667 18.74 23.2544 18.7474 23.3376 18.7272C23.4208 18.7069 23.495 18.66 23.5486 18.5938L23.5911 18.6008Z" fill="white"/>
<path d="M13.5744 47.3002C13.5324 47.3049 13.4898 47.3011 13.4493 47.2891C13.4087 47.2772 13.3709 47.2574 13.338 47.2307C13.2721 47.1741 13.2308 47.094 13.223 47.0074C13.2152 46.9208 13.2415 46.8346 13.2963 46.7672L21.223 37.2504C21.2805 37.1948 21.3565 37.1624 21.4365 37.1595C21.5164 37.1565 21.5946 37.1831 21.6561 37.2343C21.7175 37.2854 21.758 37.3574 21.7696 37.4366C21.7812 37.5157 21.7632 37.5963 21.719 37.663L13.7969 47.189C13.7399 47.2534 13.6602 47.2932 13.5744 47.3002Z" fill="#162839"/>
<path d="M10.339 58.2077C10.2969 58.2128 10.2542 58.2093 10.2136 58.1974C10.1729 58.1854 10.1351 58.1652 10.1025 58.1381C10.0688 58.1108 10.041 58.077 10.0205 58.0387C10.0001 58.0004 9.98762 57.9584 9.98373 57.9152C9.97984 57.872 9.98466 57.8284 9.9979 57.7871C10.0111 57.7457 10.0325 57.7075 10.0608 57.6746L24.3521 40.5232C24.3787 40.4881 24.4121 40.4588 24.4504 40.437C24.4887 40.4153 24.5309 40.4015 24.5747 40.3966C24.6184 40.3917 24.6627 40.3958 24.7048 40.4085C24.7469 40.4213 24.786 40.4424 24.8197 40.4708C24.8533 40.4991 24.8809 40.534 24.9007 40.5733C24.9205 40.6126 24.932 40.6555 24.9347 40.6994C24.9374 40.7434 24.9311 40.7874 24.9162 40.8288C24.9013 40.8702 24.8782 40.9082 24.8481 40.9403L10.5568 58.0918C10.5023 58.1576 10.424 58.1992 10.339 58.2077Z" fill="#162839"/>
</svg>
