<svg width="65" height="65" viewBox="0 0 65 65" fill="none" xmlns="http://www.w3.org/2000/svg">
<g clip-path="url(#clip0_1221_9289)">
<g clip-path="url(#clip1_1221_9289)">
<path d="M62.7384 37.8142C62.9795 37.6359 61.878 36.6813 61.4604 36.4525C61.0429 36.2237 59.705 34.7626 59.4371 34.3666C57.2861 30.9095 56.4887 30.6839 55.923 30.4551C55.3573 30.2263 53.8855 28.7795 53.2441 27.2569C52.6028 25.7342 52.4704 25.9346 50.7323 24.1564C48.7389 22.1636 46.9582 20.9834 45.5636 20.2765C45.3382 20.1629 45.1239 20.0619 44.9191 19.9704C44.1757 19.6334 43.3979 19.3784 42.5995 19.2099C41.9565 19.0521 39.8308 18.6355 38.6694 17.3165C35.7778 14.0314 32.5489 14.9955 31.3119 15.4104L31.0503 15.4988C30.0796 15.8144 23.6439 16.2877 21.8743 15.4641C20.1047 14.6404 18.1097 14.6988 16.1462 15.2463C14.1827 15.7938 12.837 15.8049 12.1058 15.9437C11.3746 16.0826 11.1745 15.5319 10.6876 15.2479C10.2006 14.9639 9.2977 15.614 9.03611 16.1473C8.77452 16.6806 7.31847 17.4443 7.05531 17.5137C6.79214 17.5831 6.58256 17.8782 6.1303 17.9413C5.70956 18.0012 5.67016 18.4888 5.67016 18.4888C5.58192 18.5661 5.55197 18.8328 5.55197 18.8328C5.33136 18.9227 5.355 19.0884 5.355 19.0884C5.09026 19.1673 5.39124 19.486 5.39124 19.486C5.29196 19.4655 5.18008 19.3992 5.18166 19.6548C5.18323 19.9104 5.61658 19.9388 6.56365 19.5759C6.39189 20.1976 6.83627 20.4595 6.94815 20.5921C7.06003 20.7246 6.89615 21.0007 7.09628 21.1664C7.29641 21.3321 7.59266 20.9849 7.8117 20.8272C11.2785 18.2537 19.4192 18.2079 21.9484 19.2935C24.2317 20.2733 30.9305 20.5668 32.7916 20.8066L33.0232 20.8398H32.9886C33.3424 20.7453 33.7115 20.7223 34.0743 20.7719C33.7224 20.7289 33.3656 20.754 33.0232 20.8461C33.0882 20.8558 33.1524 20.8701 33.2155 20.8887C33.9908 21.1475 34.3753 22.162 36.9864 22.4508C39.5975 22.7395 40.4059 24.2826 41.7217 25.6427C43.0375 27.0028 44.4747 27.6355 46.5642 27.6008C44.782 28.6611 45.7968 29.0351 45.978 29.0666C46.1592 29.0982 46.2302 29.3822 46.2302 29.3822C46.339 29.4225 46.4444 29.4716 46.5453 29.5289C46.6446 29.5936 46.7029 29.7593 46.7628 29.7751C46.8229 29.8392 46.8564 29.9238 46.8564 30.0118C46.8564 30.0997 46.8229 30.1844 46.7628 30.2484C46.6052 30.3826 46.9109 30.7013 47.5192 30.7959L48.1889 31.5375C48.4448 31.7538 48.7365 31.9236 49.0509 32.0393C50.0862 32.4022 51.1199 31.9241 52.5602 31.162L52.8565 31.0042C53.7106 32.5473 57.3964 34.5528 58.241 35.0766C59.0857 35.6005 58.7327 35.6036 58.8241 35.9571C58.9155 36.3105 60.5859 37.9136 60.6442 38.3002C60.7025 38.6867 61.109 38.3002 61.1295 38.185C61.15 38.0698 61.0145 37.5333 61.1027 37.4876C61.2052 37.4639 61.9679 38.3333 62.034 38.4422C62.1002 38.551 62.2436 38.3854 62.4217 38.5605C62.5998 38.7356 62.6628 38.3144 62.6628 38.3144C62.6628 38.3144 62.4958 37.9941 62.7384 37.8142Z" fill="#575757"/>
<g style="mix-blend-mode:multiply">
<g style="mix-blend-mode:multiply" opacity="0.62">
<path d="M62.7384 37.8142C62.9795 37.6359 61.878 36.6813 61.4604 36.4525C61.0429 36.2237 59.705 34.7626 59.4371 34.3666C57.2861 30.9095 56.4887 30.6839 55.923 30.4551C55.3573 30.2263 53.8855 28.7795 53.2441 27.2569C52.6028 25.7342 52.4704 25.9346 50.7323 24.1564C48.7389 22.1636 46.9582 20.9834 45.5636 20.2765C45.3382 20.1629 45.1239 20.0619 44.9191 19.9704C44.1757 19.6334 43.3979 19.3784 42.5995 19.2099C41.9565 19.0521 39.8308 18.6355 38.6694 17.3165C35.7778 14.0314 32.5489 14.9955 31.3119 15.4104L31.0503 15.4988C30.0796 15.8144 23.6439 16.2877 21.8743 15.4641C20.1047 14.6404 18.1097 14.6988 16.1462 15.2463C14.1827 15.7938 12.837 15.8049 12.1058 15.9437C11.3746 16.0826 11.1745 15.5319 10.6876 15.2479C10.2006 14.9639 9.2977 15.614 9.03611 16.1473C8.77452 16.6806 7.31847 17.4443 7.05531 17.5137C6.79214 17.5831 6.58256 17.8782 6.1303 17.9413C5.70956 18.0012 5.67016 18.4888 5.67016 18.4888C5.58192 18.5661 5.55197 18.8328 5.55197 18.8328C5.33136 18.9227 5.355 19.0884 5.355 19.0884C5.09026 19.1673 5.39124 19.486 5.39124 19.486C5.29196 19.4655 5.18008 19.3992 5.18166 19.6548C5.18323 19.9104 5.61658 19.9388 6.56365 19.5759C6.39189 20.1976 6.83627 20.4595 6.94815 20.5921C7.06003 20.7246 6.89615 21.0007 7.09628 21.1664C7.29641 21.3321 7.59266 20.9849 7.8117 20.8272C11.2785 18.2537 19.4192 18.2079 21.9484 19.2935C24.2317 20.2733 30.9305 20.5668 32.7916 20.8066L33.0232 20.8398H32.9886C33.3424 20.7453 33.7115 20.7223 34.0743 20.7719C33.7224 20.7289 33.3656 20.754 33.0232 20.8461C33.0882 20.8558 33.1524 20.8701 33.2155 20.8887C33.9908 21.1475 34.3753 22.162 36.9864 22.4508C39.5975 22.7395 40.4059 24.2826 41.7217 25.6427C43.0375 27.0028 44.4747 27.6355 46.5642 27.6008C44.782 28.6611 45.7968 29.0351 45.978 29.0666C46.1592 29.0982 46.2302 29.3822 46.2302 29.3822C46.339 29.4225 46.4444 29.4716 46.5453 29.5289C46.6446 29.5936 46.7029 29.7593 46.7628 29.7751C46.8229 29.8392 46.8564 29.9238 46.8564 30.0118C46.8564 30.0997 46.8229 30.1844 46.7628 30.2484C46.6052 30.3826 46.9109 30.7013 47.5192 30.7959L48.1889 31.5375C48.4448 31.7538 48.7365 31.9236 49.0509 32.0393C50.0862 32.4022 51.1199 31.9241 52.5602 31.162L52.8565 31.0042C53.7106 32.5473 57.3964 34.5528 58.241 35.0766C59.0857 35.6005 58.7327 35.6036 58.8241 35.9571C58.9155 36.3105 60.5859 37.9136 60.6442 38.3002C60.7025 38.6867 61.109 38.3002 61.1295 38.185C61.15 38.0698 61.0145 37.5333 61.1027 37.4876C61.2052 37.4639 61.9679 38.3333 62.034 38.4422C62.1002 38.551 62.2436 38.3854 62.4217 38.5605C62.5998 38.7356 62.6628 38.3144 62.6628 38.3144C62.6628 38.3144 62.4958 37.9941 62.7384 37.8142Z" fill="#575757"/>
</g>
</g>
<path d="M33.1752 20.6189C33.1752 20.6189 25.055 19.4024 22.9323 18.5677C20.8097 17.733 20.2787 17.4379 16.7315 17.4048C13.1843 17.3717 11.0774 17.9192 10.0815 18.1685C9.08561 18.4178 7.20724 18.9748 6.72661 19.1325C6.55012 19.7526 6.99292 20.0177 7.10323 20.1518C7.21354 20.2859 7.04808 20.5605 7.24663 20.7262C7.44519 20.8918 7.74459 20.5526 7.9652 20.3948C11.4588 17.8498 19.5932 17.8703 22.1145 18.9748C24.4955 20.0272 31.7333 20.3617 33.1752 20.6189Z" fill="#EBC19C"/>
<path d="M49.717 30.31C49.6868 30.1281 49.6762 29.9435 49.6855 29.7593C49.7084 29.0944 49.9363 28.4528 50.3378 27.9227C49.5485 27.4249 48.6208 27.1933 47.6905 27.2616C47.336 27.2843 46.987 27.3603 46.6552 27.4872C44.8634 28.5333 45.8751 28.9152 46.0579 28.9483C46.2407 28.9814 46.3069 29.2639 46.3069 29.2639C46.4158 29.3047 46.5212 29.3543 46.6221 29.4122C46.7213 29.4784 46.7702 29.6457 46.8379 29.6615C46.8955 29.7253 46.9274 29.8082 46.9274 29.8942C46.9274 29.9802 46.8955 30.0631 46.8379 30.1269C46.6709 30.2595 46.9813 30.5798 47.5896 30.6808L48.253 31.4271C48.5073 31.6451 48.7974 31.8175 49.1103 31.9367C49.3924 31.6906 49.9234 31.1226 49.7406 30.4457C49.7359 30.4031 49.7248 30.3573 49.717 30.31Z" fill="#EBC19C"/>
<path d="M33.1732 20.6504C33.1732 20.6504 25.0467 19.4718 22.9193 18.6592C20.7919 17.8466 20.2609 17.5437 16.7121 17.5279C13.1634 17.5121 11.0613 18.0707 10.0669 18.3168C9.07258 18.5629 7.19736 19.1325 6.71831 19.2903C5.77282 19.6501 5.33789 19.6185 5.33789 19.3645C5.33789 19.1105 5.44662 19.1751 5.5459 19.1972C5.5459 19.1972 5.24649 18.8817 5.51123 18.798C5.51123 18.798 5.48917 18.6403 5.70978 18.5424C5.72072 18.4196 5.76186 18.3015 5.82955 18.1985C5.82955 18.1985 5.87052 17.7125 6.29126 17.6541C6.74195 17.5926 6.95153 17.2975 7.21784 17.2297C7.48416 17.1618 8.93706 16.4013 9.20022 15.8696C9.46338 15.3378 10.3663 14.6909 10.8533 14.9765C11.3402 15.2621 11.5435 15.8143 12.2715 15.6771C12.9995 15.5398 14.35 15.5335 16.315 14.9939C18.2801 14.4543 20.2688 14.3974 22.0416 15.2305C23.8144 16.0636 30.2453 15.6108 31.2176 15.2968L31.4791 15.2085C32.0715 15.2962 32.6726 15.3073 33.2677 15.2416C34.2274 15.0838 36.2176 15.1611 38.2567 18.2221C40.2958 21.2831 37.7257 21.7439 36.1152 21.2042C34.6654 20.7183 34.3093 20.3711 33.1385 20.6378L33.1732 20.6504Z" fill="#7B7B7B"/>
<path d="M57.916 34.5954C56.5561 33.8648 52.7363 30.5813 52.7363 30.5813C52.8025 30.6965 52.8671 30.8133 52.9317 30.9364C53.7716 32.4858 57.4417 34.5228 58.2895 35.0529C59.1373 35.5831 58.7749 35.5847 58.8647 35.9397C58.9545 36.2947 60.6107 37.9088 60.6658 38.297C60.721 38.6851 61.1307 38.297 61.1528 38.1865C61.1748 38.0761 61.0409 37.5333 61.1307 37.4891C60.4909 36.5109 59.1089 35.2265 57.916 34.5954Z" fill="#EBC19C"/>
<path d="M33.1743 20.6189C33.1743 20.6189 25.0541 19.4024 22.9315 18.5677C20.8088 17.733 20.2778 17.4379 16.7306 17.4048C13.1834 17.3717 11.0766 17.9192 10.0807 18.1685C9.08474 18.4178 7.20637 18.9748 6.72574 19.1325C5.78025 19.4876 5.34375 19.4481 5.34375 19.1988C5.34375 18.9495 5.45563 19.011 5.55491 19.0331C5.55491 19.0331 5.2555 18.7176 5.52182 18.6355C5.52182 18.6355 5.49976 18.4683 5.72037 18.3799C5.7319 18.2575 5.77359 18.1398 5.84171 18.0375C5.84171 18.0375 5.88583 17.55 6.31445 17.4947C6.76514 17.4348 6.97787 17.1413 7.24261 17.075C7.50735 17.0088 8.96656 16.2546 9.23287 15.7244C9.49918 15.1943 10.4037 14.5505 10.8906 14.8392C11.3776 15.128 11.5761 15.6802 12.3089 15.5461C13.0416 15.412 14.3858 15.4136 16.354 14.8834C18.3222 14.3533 20.3109 14.3075 22.0805 15.1485C23.8502 15.9895 30.2748 15.5698 31.2549 15.2589L31.5181 15.1737C32.1096 15.2633 32.7101 15.2771 33.3051 15.2148C34.2663 15.0649 36.2566 15.1485 38.2799 18.2206C40.3033 21.2926 37.7315 21.7391 36.1242 21.1916C34.6776 20.6993 34.3231 20.3491 33.1506 20.611L33.1743 20.6189Z" fill="#F4E0CD"/>
<path d="M45.7176 20.1613C45.4922 20.0445 45.2795 19.942 45.0746 19.8457C45.0431 19.901 45.01 19.9546 44.9769 20.013C42.7928 23.7035 39.9753 19.0884 39.4017 18.0044C39.2377 17.7036 39.0529 17.4147 38.8486 17.1397C35.9837 13.8263 32.747 14.773 31.5068 15.1737C32.0983 15.2633 32.6988 15.2771 33.2938 15.2148C34.2551 15.0649 36.2453 15.1485 38.2687 18.2206C40.292 21.2926 37.7203 21.7391 36.113 21.1916C34.6664 20.6993 34.3465 20.3538 33.1741 20.6157C33.239 20.6266 33.3031 20.6414 33.3663 20.6599C34.14 20.9265 34.5151 21.9443 37.1246 22.2535C39.7342 22.5628 40.5284 24.1138 41.8332 25.4865C43.1379 26.8592 44.5688 27.4998 46.6583 27.4841C46.9901 27.3572 47.3392 27.2811 47.6936 27.2584C45.467 23.9497 45.5237 21.3415 45.7176 20.1613Z" fill="#222558"/>
<path d="M61.4385 36.533C61.0256 36.2995 59.7051 34.821 59.4419 34.4218C57.3366 30.9364 56.5408 30.6997 55.9751 30.4646C55.4094 30.2295 53.9628 28.7574 53.3404 27.2316C52.7179 25.7058 52.584 25.8999 50.8679 24.098C48.9029 22.08 47.1364 20.8761 45.7512 20.1534C45.5527 21.3242 45.4833 23.9402 47.6942 27.2632C48.9218 27.1732 51.0129 27.5614 52.7211 30.605C52.7211 30.605 56.5251 33.9075 57.8803 34.6443C59.07 35.2896 60.4457 36.574 61.0776 37.5538C61.1801 37.5318 61.9317 38.4106 61.9963 38.5211C62.0609 38.6315 62.2075 38.4658 62.384 38.6441C62.5605 38.8224 62.6298 38.398 62.6298 38.398C62.6298 38.398 62.4533 38.0824 62.6976 37.912C62.9418 37.7416 61.8514 36.7681 61.4385 36.533Z" fill="#666766"/>
<path d="M61.4825 36.4683C61.0665 36.2363 59.7413 34.7642 59.475 34.365C57.3539 30.8938 56.5565 30.6587 55.994 30.4204C55.4314 30.1822 53.9706 28.7274 53.3403 27.2C52.71 25.6727 52.5776 25.8715 50.8536 24.0791C48.8776 22.0689 47.1063 20.8745 45.7181 20.1566C45.5242 21.3289 45.4675 23.9434 47.6941 27.2569C48.9201 27.1622 51.0144 27.5393 52.7368 30.5703C52.7368 30.5703 56.5565 33.8538 57.9165 34.5843C59.1094 35.2249 60.4914 36.503 61.1264 37.4797C61.2304 37.4576 61.9852 38.3333 62.0514 38.4422C62.1176 38.551 62.261 38.3869 62.4375 38.5637C62.614 38.7404 62.6817 38.3207 62.6817 38.3207C62.6817 38.3207 62.5037 38.0051 62.7479 37.8331C62.9922 37.6611 61.897 36.7018 61.4825 36.4683Z" fill="#F4E0CD"/>
<path d="M44.9809 20.0161C45.014 19.9578 45.0471 19.9041 45.0786 19.8489C44.3383 19.5052 43.5625 19.2439 42.7653 19.0694C42.1239 18.9117 40.0013 18.4714 38.8525 17.1445C39.0568 17.4194 39.2416 17.7083 39.4057 18.0091C39.9761 19.0915 42.7937 23.7083 44.9809 20.0161Z" fill="#F4E0CD"/>
<path d="M48.6051 31.3545C48.6949 31.3198 48.8556 31.0689 48.7169 30.7581C48.8367 30.7044 49.2338 30.5293 49.716 30.31C49.6858 30.1281 49.6753 29.9435 49.6845 29.7593C49.2743 30.0013 48.8441 30.2077 48.3986 30.3762C47.8014 29.9108 47.5918 30.6808 47.5918 30.6808L48.2552 31.4271C48.3986 31.4776 48.4821 31.405 48.6051 31.3545Z" fill="#1E8699"/>
<path d="M52.7368 30.5798C52.4798 30.1187 52.1829 29.681 51.8496 29.2717C51.7015 29.0903 51.5518 28.9246 51.4021 28.7747C51.0836 28.4496 50.7276 28.1635 50.3416 27.9227C49.9389 28.4524 49.7099 29.094 49.6861 29.7593C49.6768 29.9434 49.6874 30.1281 49.7176 30.31C49.7255 30.3573 49.7365 30.403 49.7475 30.4472C49.9287 31.1241 49.3977 31.6921 49.1172 31.9383C50.1509 32.3091 51.1894 31.8405 52.6344 31.0894L52.9338 30.9316C52.8676 30.8086 52.803 30.6949 52.7368 30.5798Z" fill="#222558"/>
<path d="M60.9284 46.3645C60.2623 46.436 59.5931 46.5149 58.9208 46.6011C50.2112 47.7246 41.1676 50.0724 30.5797 50.3422C29.8443 50.3611 29.0974 50.3701 28.3389 50.369C28.3389 50.369 39.959 51.1895 53.3219 48.7249C66.6848 46.2603 68.2922 46.3582 81.4912 47.1045C81.4912 47.1045 70.8671 45.3136 60.9284 46.3645Z" fill="#0892B0"/>
<path style="mix-blend-mode:multiply" d="M60.9284 46.3645C60.2623 46.436 59.5931 46.5149 58.9208 46.6011C50.2112 47.7246 41.1676 50.0724 30.5797 50.3422C29.8443 50.3611 29.0974 50.3701 28.3389 50.369C28.3389 50.369 39.959 51.1895 53.3219 48.7249C66.6848 46.2603 68.2922 46.3582 81.4912 47.1045C81.4912 47.1045 70.8671 45.3136 60.9284 46.3645Z" fill="url(#paint0_linear_1221_9289)"/>
<path opacity="0.27" d="M58.9271 46.7447C59.5984 46.658 60.2681 46.5775 60.9347 46.5081C68.5475 45.7034 76.5621 46.5649 79.8965 47.013L81.4912 47.1029C81.4912 47.1029 70.8671 45.3121 60.9284 46.3629C60.2623 46.4344 59.5931 46.5133 58.9208 46.5996C50.2112 47.723 41.1676 50.0708 30.5797 50.3406C29.8443 50.3596 29.0974 50.3685 28.3389 50.3675C28.3389 50.3675 29.2954 50.4353 30.9705 50.4732C41.3929 50.1529 50.3231 47.8492 58.9271 46.7447Z" fill="#042F38"/>
<path d="M83.4996 47.2417C83.4996 47.2417 74.8563 45.7538 66.8937 47.54C58.931 49.3261 52.3961 49.9241 49.2256 49.8973C49.2256 49.8973 54.254 50.7004 66.2948 48.3888C78.3357 46.0773 83.4996 47.2417 83.4996 47.2417Z" fill="#0892B0"/>
<path d="M39.6998 46.1735C39.0317 46.244 38.362 46.3229 37.6907 46.4102C28.9811 47.5336 19.9375 49.8815 9.34959 50.1513C8.61421 50.1702 7.86779 50.1792 7.11035 50.1781C7.11035 50.1781 18.7289 50.9986 32.0934 48.534C45.4579 46.0694 47.0636 46.1672 60.2627 46.9135C60.2658 46.9135 49.6369 45.1227 39.6998 46.1735Z" fill="#0892B0"/>
<path style="mix-blend-mode:multiply" d="M39.6998 46.1735C39.0317 46.244 38.362 46.3229 37.6907 46.4102C28.9811 47.5336 19.9375 49.8815 9.34959 50.1513C8.61421 50.1702 7.86779 50.1792 7.11035 50.1781C7.11035 50.1781 18.7289 50.9986 32.0934 48.534C45.4579 46.0694 47.0636 46.1672 60.2627 46.9135C60.2658 46.9135 49.6369 45.1227 39.6998 46.1735Z" fill="url(#paint1_linear_1221_9289)"/>
<path opacity="0.27" d="M37.697 46.5538C38.3683 46.4686 39.038 46.3881 39.7061 46.3171C47.3173 45.5124 55.332 46.3755 58.6664 46.822L60.2627 46.9135C60.2627 46.9135 49.6369 45.1227 39.6998 46.1735C39.0317 46.244 38.362 46.3229 37.6907 46.4102C28.9811 47.5336 19.9375 49.8815 9.34959 50.1513C8.61421 50.1702 7.86779 50.1791 7.11035 50.1781C7.11035 50.1781 8.0653 50.2444 9.74197 50.2838C20.1628 49.9619 29.0946 47.6646 37.697 46.5538Z" fill="#042F38"/>
<path d="M62.2717 47.0492C62.2717 47.0492 53.6268 45.5613 45.6657 47.3475C37.7047 49.1336 31.1682 49.7332 27.9961 49.7063C27.9961 49.7063 33.0245 50.5094 45.0654 48.1979C57.1062 45.8864 62.2717 47.0492 62.2717 47.0492Z" fill="#0892B0"/>
<path d="M17.7712 46.0252C18.4424 46.0094 19.1164 46.001 19.7929 46C28.575 45.9905 37.8439 47.1455 48.3783 46.052C49.1137 45.9763 49.8553 45.889 50.6033 45.7901C50.6033 45.7901 39.1865 48.1032 25.6171 47.3837C12.0478 46.6643 10.4704 46.964 -2.52539 49.4129C-2.52539 49.4129 7.78046 46.2714 17.7712 46.0252Z" fill="#0892B0"/>
<path style="mix-blend-mode:multiply" d="M17.7712 46.0252C18.4424 46.0094 19.1164 46.001 19.7929 46C28.575 45.9905 37.8439 47.1455 48.3783 46.052C49.1137 45.9763 49.8553 45.889 50.6033 45.7901C50.6033 45.7901 39.1865 48.1032 25.6171 47.3837C12.0478 46.6643 10.4704 46.964 -2.52539 49.4129C-2.52539 49.4129 7.78046 46.2714 17.7712 46.0252Z" fill="url(#paint2_linear_1221_9289)"/>
<path opacity="0.27" d="M19.8034 46.1452C19.1279 46.1452 18.454 46.153 17.7816 46.1688C10.1295 46.3534 2.2945 48.2421 -0.956408 49.1115L-2.53223 49.4066C-2.53223 49.4066 7.77362 46.2603 17.7643 46.0189C18.4356 46.0031 19.1095 45.9947 19.7861 45.9937C28.5681 45.9842 37.8371 47.1392 48.3714 46.0458C49.1068 45.97 49.8485 45.8827 50.5965 45.7838C50.5965 45.7838 49.651 45.9732 48.0011 46.2272C37.6307 47.2607 28.4783 46.1341 19.8034 46.1452Z" fill="#042F38"/>
<path d="M-4.5 49.8073C-4.5 49.8073 3.8802 47.2181 12.0051 47.9597C20.13 48.7013 26.6886 48.4536 29.8308 48.0181C29.8308 48.0181 24.9457 49.4634 12.7095 48.7249C0.473282 47.9865 -4.5 49.8073 -4.5 49.8073Z" fill="#0892B0"/>
<path opacity="0.27" d="M12.0053 47.9597C20.1318 48.7044 26.6888 48.4535 29.831 48.0181L32.6296 47.7183C33.5278 47.7041 34.4087 47.6804 35.2644 47.6473L29.853 48.2279C26.7124 48.6634 20.1539 48.9127 12.0289 48.1695C9.77364 47.9813 7.5061 47.9934 5.25293 48.2058C6.04084 48.0733 6.78935 47.9581 7.50635 47.854C9.00673 47.7942 10.5094 47.8295 12.0053 47.9597Z" fill="#042F38"/>
</g>
</g>
<defs>
<linearGradient id="paint0_linear_1221_9289" x1="54.9518" y1="49.2443" x2="54.7589" y2="46.846" gradientUnits="userSpaceOnUse">
<stop offset="0.7" stop-color="white"/>
<stop offset="0.71" stop-color="#FCFCFC"/>
<stop offset="0.91" stop-color="#BABBBE"/>
<stop offset="1" stop-color="#A0A2A5"/>
</linearGradient>
<linearGradient id="paint1_linear_1221_9289" x1="12857.2" y1="1830.61" x2="12857" y2="1762.46" gradientUnits="userSpaceOnUse">
<stop offset="0.7" stop-color="white"/>
<stop offset="0.71" stop-color="#FCFCFC"/>
<stop offset="0.91" stop-color="#BABBBE"/>
<stop offset="1" stop-color="#A0A2A5"/>
</linearGradient>
<linearGradient id="paint2_linear_1221_9289" x1="24823.9" y1="-474.281" x2="24819.6" y2="-529.534" gradientUnits="userSpaceOnUse">
<stop offset="0.7" stop-color="white"/>
<stop offset="0.71" stop-color="#FCFCFC"/>
<stop offset="0.91" stop-color="#BABBBE"/>
<stop offset="1" stop-color="#A0A2A5"/>
</linearGradient>
<clipPath id="clip0_1221_9289">
<rect width="63" height="42" fill="white" transform="translate(1 11.5)"/>
</clipPath>
<clipPath id="clip1_1221_9289">
<rect width="88" height="36" fill="white" transform="translate(-4.5 14.5)"/>
</clipPath>
</defs>
</svg>
