<svg width="65" height="65" viewBox="0 0 65 65" fill="none" xmlns="http://www.w3.org/2000/svg">
<path d="M46.3067 57.7906C46.3067 57.7906 48.2127 60.0911 47.7362 60.6262C47.2787 61.1037 46.6992 61.4468 46.0606 61.6182C45.4412 61.8658 44.7657 61.9387 44.1077 61.8291C43.4086 61.6846 43.5609 58.7045 43.5609 58.7045C43.5609 58.7045 44.7365 58.8569 46.3067 57.7906Z" fill="#3B3239"/>
<path d="M44.561 50.4634C45.2797 53.0022 46.3069 57.7907 46.3069 57.7907C44.7446 58.8374 43.5729 58.7046 43.5729 58.7046C43.5729 58.7046 41.5263 54.2481 40.5732 51.7875C42.0084 51.775 43.4034 51.3118 44.561 50.4634Z" fill="#282328"/>
<path d="M41.3304 47.4091C41.3769 47.3964 41.4226 47.3808 41.4671 47.3622C41.8634 47.1959 42.2373 46.9807 42.5803 46.7217C42.6584 46.6631 42.7013 46.624 42.7013 46.624C42.7013 46.624 43.791 47.7958 44.5019 50.2525C44.5019 50.3189 44.5449 50.3892 44.5605 50.4634C43.4028 51.3118 42.0079 51.775 40.5727 51.7875C40.5493 51.7211 40.518 51.6508 40.4946 51.5844C39.5845 49.1823 39.7681 47.6005 39.7681 47.6005H39.9243C40.3619 47.6068 40.7982 47.553 41.221 47.4403L41.3304 47.4091Z" fill="#3B3239"/>
<path d="M34.4959 34.6607C34.3237 35.005 34.2494 35.3901 34.2811 35.7738C33.8905 35.2544 33.5 34.7857 33.1719 34.3599C33.6027 34.502 34.046 34.6027 34.4959 34.6607Z" fill="#C21D00"/>
<path d="M27.0156 30.0245C25.7216 28.7757 24.5449 27.4107 23.5004 25.9468C20.6922 21.9708 18.4502 15.3192 20.161 10.105C21.1765 7.02337 23.4653 4.8088 26.8008 3.70346C30.1363 2.59813 33.2805 3.00042 35.9403 4.87519C40.4319 8.02324 42.627 14.6943 42.7598 19.557C42.7987 21.1242 42.7073 22.6919 42.4864 24.2439L41.3654 24.0994C41.5171 22.6008 41.5693 21.0938 41.5216 19.5882C41.3967 15.0224 39.3774 8.78878 35.2294 5.88679C32.886 4.23465 30.1519 3.89875 27.1914 4.89082C24.2308 5.88288 22.2467 7.76937 21.3522 10.5034C19.7704 15.3114 21.8912 21.5138 24.5237 25.2438C25.5007 26.6406 26.5845 27.9595 27.7655 29.1886L27.0156 30.0245Z" fill="#C21D00"/>
<path d="M36.6248 33.2623C39.1284 32.4304 40.8235 29.048 41.3508 24.0876L42.4717 24.2322C42.214 26.1226 41.8156 27.802 41.4758 29.3097C41.2922 30.1143 40.6048 38.6015 42.5772 46.7372C42.2343 46.9962 41.8603 47.2114 41.4641 47.3778C41.2948 46.7034 41.1464 46.0277 41.0188 45.3507C40.2938 41.5015 39.9601 37.5888 40.0228 33.6724C40.0228 33.0944 40.0463 32.5593 40.0619 32.075C39.8095 32.4304 39.5273 32.7636 39.2182 33.0709C38.598 33.6889 37.8445 34.1566 37.0154 34.4379C36.2018 34.701 35.3393 34.7771 34.4922 34.6606C34.0371 34.6035 33.5885 34.5028 33.1526 34.3598C33.4924 34.7856 33.8634 35.2543 34.2618 35.7737C36.6229 38.8291 38.672 42.1133 40.3782 45.5772C40.6751 46.1904 40.9563 46.8192 41.2219 47.452C40.799 47.5646 40.3627 47.6185 39.9252 47.6121C36.6482 39.9568 31.0747 33.6021 30.3756 33.0123C29.3483 32.1414 28.1961 31.1766 27.0166 30.0322L27.7548 29.1847C31.0044 32.5358 34.2188 34.0669 36.6248 33.2623Z" fill="#C21D00"/>
<path d="M41.0068 45.339C41.1343 46.016 41.2828 46.6917 41.452 47.3661C41.4075 47.3847 41.3618 47.4003 41.3153 47.413L41.206 47.4481C40.9404 46.8154 40.6591 46.1866 40.3623 45.5734C40.4807 45.5897 40.6013 45.5769 40.7136 45.536C40.8259 45.4952 40.9265 45.4276 41.0068 45.339Z" fill="#C21D00"/>
<path d="M40.0653 32.0594C40.0653 32.5437 40.0302 33.0788 40.0263 33.6568C39.8195 33.3851 39.5408 33.1768 39.2217 33.0554C39.5308 32.748 39.813 32.4148 40.0653 32.0594Z" fill="#C21D00"/>
<path d="M27.1914 4.87918C28.0793 7.22264 28.9021 9.57652 29.6598 11.9408C30.0504 13.1125 30.3824 14.3272 30.773 15.5107C31.1636 16.6941 31.5541 17.8776 31.9799 19.0493C32.8118 21.3928 33.6398 23.7362 34.4132 26.1227C35.1865 28.5091 35.9403 30.8721 36.6395 33.2663H36.6082C35.7307 30.9229 34.8975 28.5729 34.1085 26.2164C33.3274 23.8729 32.5462 21.4787 31.8197 19.0962C31.4292 17.9049 31.0776 16.7176 30.648 15.538C30.2184 14.3585 29.8122 13.1946 29.3982 12.0228C28.5897 9.67937 27.8359 7.28904 27.1445 4.89089L27.1914 4.87918Z" fill="#666B7A"/>
<path d="M29.625 4.35968C30.4843 6.60941 31.2732 8.88256 32.0114 11.1753C32.3747 12.3196 32.7067 13.4797 33.0816 14.6241C33.4566 15.7684 33.8628 16.905 34.2533 18.0377C35.0579 20.307 35.8586 22.5762 36.5968 24.865C37.335 27.1538 38.0732 29.4465 38.7411 31.7626H38.7098C37.8636 29.5076 37.059 27.2397 36.2961 24.9587C35.5149 22.6778 34.8001 20.3812 34.0854 18.0846C33.73 16.9324 33.3706 15.7841 32.9762 14.6475C32.5817 13.5109 32.1637 12.3821 31.7654 11.2456C30.9842 8.9724 30.2538 6.6758 29.5938 4.35968H29.625Z" fill="#666B7A"/>
<path d="M22.9082 7.65994C23.6894 9.64928 24.3963 11.6582 25.029 13.6866C25.3493 14.7021 25.6383 15.7293 25.9703 16.7409C26.3023 17.7525 26.646 18.7602 27.0054 19.7639C27.7318 21.7663 28.4284 23.7791 29.0949 25.8023C29.7628 27.8254 30.3956 29.8604 30.9775 31.9109H30.9463C30.186 29.9215 29.4686 27.9166 28.7942 25.896C28.1107 23.8767 27.4662 21.8457 26.8413 19.8069C26.5288 18.7914 26.2164 17.772 25.8649 16.7682C25.5133 15.7644 25.1384 14.7645 24.783 13.7608C24.0877 11.748 23.4511 9.71438 22.873 7.65994H22.9082Z" fill="#666B7A"/>
<path d="M24.9346 5.92189C25.7938 8.17161 26.5828 10.4448 27.321 12.7336C27.6803 13.8819 28.0123 15.0419 28.3912 16.1824C28.77 17.3228 29.1723 18.4672 29.5629 19.5999C30.3675 21.8692 31.1682 24.1384 31.9064 26.4272C32.6446 28.716 33.3788 31.0087 34.0467 33.3209H34.0194C33.1679 31.0673 32.3672 28.798 31.6017 26.517C30.8362 24.2361 30.1097 21.9395 29.395 19.6429C29.0356 18.4907 28.6802 17.3424 28.2818 16.2058C27.8834 15.0692 27.4694 13.9404 27.071 12.8039C26.2899 10.5307 25.5595 8.23411 24.8994 5.91798L24.9346 5.92189Z" fill="#666B7A"/>
<path d="M21.2978 10.6637C21.8954 12.1322 22.4266 13.6242 22.9031 15.1319C23.1375 15.8896 23.3367 16.659 23.5827 17.4089C23.8288 18.1588 24.0866 18.9087 24.3639 19.6547C24.9146 21.1389 25.4419 22.6309 25.9262 24.1347C26.4105 25.6384 26.8792 27.1538 27.2893 28.6849H27.2581C26.667 27.2111 26.1215 25.7243 25.6215 24.2245C25.1138 22.7247 24.6412 21.2131 24.192 19.6938C23.9694 18.9361 23.739 18.1784 23.4734 17.4324C23.2078 16.6864 22.9227 15.9482 22.6532 15.2022C22.1337 13.7102 21.6611 12.1947 21.2627 10.6637H21.2978Z" fill="#666B7A"/>
<path d="M32.293 4.53533C33.0741 6.52337 33.7654 8.53484 34.4177 10.5619C34.7341 11.5813 35.0231 12.6086 35.3551 13.6202C35.6871 14.6317 36.0308 15.6394 36.3901 16.6393C37.1166 18.6417 37.8131 20.6544 38.4797 22.6776C39.1476 24.7008 39.7803 26.7357 40.3623 28.7863H40.331C39.5707 26.7943 38.8534 24.7881 38.179 22.7675C37.4955 20.7521 36.851 18.7211 36.2261 16.6823C35.9136 15.6629 35.6012 14.6474 35.2496 13.6397C34.8981 12.632 34.5232 11.636 34.1677 10.6322C33.4998 8.63248 32.8359 6.60148 32.2617 4.56657L32.293 4.53533Z" fill="#666B7A"/>
<path d="M35.3789 5.98054C35.9765 7.44911 36.5077 8.93721 36.9842 10.4487C37.2146 11.2065 37.4177 11.972 37.6638 12.7258C37.9098 13.4796 38.1715 14.2256 38.4449 14.9677C38.9996 16.4519 39.5268 17.9439 40.0072 19.4476C40.4877 20.9514 40.9642 22.4707 41.3704 24.0018H41.343C40.7519 22.528 40.2064 21.0412 39.7065 19.5414C39.1987 18.0455 38.7261 16.5339 38.277 15.0146C38.0505 14.2334 37.8239 13.4952 37.5583 12.7492C37.2927 12.0032 37.0076 11.265 36.7381 10.523C36.2147 9.02704 35.746 7.51551 35.3477 5.98054H35.3789Z" fill="#666B7A"/>
<path d="M40.9948 15.6356C39.4911 16.2449 37.9639 16.7839 36.4212 17.276C35.64 17.5103 34.8588 17.7174 34.0777 17.9712C33.2965 18.2251 32.5427 18.4868 31.7811 18.7524C30.2618 19.3148 28.7385 19.8538 27.1957 20.3538C25.6529 20.8537 24.1258 21.3614 22.5635 21.752V21.7247C24.0659 21.1232 25.5865 20.566 27.1254 20.053C28.6643 19.54 30.2045 19.0648 31.7459 18.6274C32.5271 18.3931 33.3083 18.1587 34.0582 17.8892C34.8081 17.6197 35.5775 17.3268 36.3391 17.0495C37.8702 16.5183 39.4169 16.0379 40.9831 15.6239L40.9948 15.6356Z" fill="#666B7A"/>
<path d="M40.0231 12.4836C38.5077 13.0968 36.9688 13.6553 35.4143 14.1357C34.6332 14.374 33.852 14.5849 33.0708 14.8348C32.2897 15.0848 31.5085 15.3543 30.7586 15.6394C29.2276 16.2058 27.6887 16.7487 26.1381 17.2525C24.5875 17.7564 23.0135 18.2368 21.4512 18.6625V18.6313C22.9705 18.0259 24.5016 17.4595 26.0483 16.9518C27.595 16.444 29.1494 15.9402 30.7352 15.4793C31.5163 15.245 32.2975 15.0067 33.0787 14.7333C33.8598 14.4599 34.6097 14.167 35.3753 13.8897C36.9141 13.3546 38.4764 12.8702 40.0622 12.4523L40.0231 12.4836Z" fill="#666B7A"/>
<path d="M41.0805 26.0483C40.0859 26.4875 39.066 26.867 38.0262 27.1849C37.5028 27.3372 36.9716 27.4661 36.4639 27.6262C35.9561 27.7864 35.4367 27.9778 34.9289 28.1731C32.9098 28.9791 30.8374 29.6447 28.7266 30.165V30.1338C30.7217 29.2826 32.7732 28.5701 34.8664 28.0012C35.3898 27.8528 35.9132 27.7005 36.4287 27.5169C36.9443 27.3333 37.4442 27.1263 37.952 26.931C38.9752 26.5648 40.0185 26.2571 41.0766 26.0093L41.0805 26.0483Z" fill="#666B7A"/>
<path d="M41.4864 22.4199C40.2483 22.9433 38.9867 23.3964 37.7056 23.7948C37.0651 23.9901 36.4128 24.1541 35.7762 24.3611C35.1395 24.5681 34.5068 24.7907 33.878 25.0251C31.377 25.9914 28.8238 26.8168 26.2305 27.4974V27.4662C28.7122 26.4615 31.2485 25.5969 33.8272 24.8767C34.4677 24.6892 35.1122 24.4861 35.741 24.2713C36.3699 24.0565 36.9987 23.7948 37.6275 23.5643C38.8891 23.1191 40.1702 22.7285 41.4747 22.3926L41.4864 22.4199Z" fill="#666B7A"/>
<path d="M41.4832 18.9477C40.0733 19.5257 38.6359 20.0374 37.1869 20.51C36.4565 20.7326 35.7183 20.924 34.9957 21.1623C34.2732 21.4005 33.5545 21.6466 32.8398 21.9122C29.9918 22.9954 27.0914 23.9352 24.1494 24.7282V24.7009C26.9772 23.5565 29.8714 22.6074 32.7929 21.752C33.5233 21.5333 34.2536 21.3146 34.9723 21.0607C35.691 20.8068 36.3979 20.5256 37.1127 20.2795C38.55 19.7757 40.0029 19.3265 41.4832 18.9438V18.9477Z" fill="#666B7A"/>
<path d="M39.9053 29.8956C39.2805 30.2171 38.6266 30.4787 37.9524 30.6767C37.6165 30.7666 37.2728 30.833 36.9369 30.9306C36.6035 31.0331 36.2762 31.1544 35.9565 31.2938C34.6777 31.8542 33.3419 32.2746 31.9727 32.5476V32.5163C33.2314 31.913 34.5513 31.4469 35.9097 31.1259C36.248 31.0448 36.5818 30.9457 36.9096 30.829C37.2376 30.708 37.554 30.5556 37.8782 30.4385C38.5318 30.194 39.2064 30.0096 39.8936 29.8878L39.9053 29.8956Z" fill="#666B7A"/>
<path d="M38.5301 9.50352C37.0927 10.0933 35.6281 10.6128 34.1478 11.0658C33.4057 11.2924 32.6519 11.4877 31.9137 11.7298C31.1755 11.972 30.4451 12.2258 29.7147 12.511C28.2618 13.0526 26.7971 13.5655 25.3207 14.0498C23.8444 14.5381 22.3563 14.9872 20.8525 15.3856V15.3544C22.2977 14.7724 23.7545 14.2412 25.227 13.7491C26.6995 13.257 28.1798 12.7844 29.6679 12.3508C30.4139 12.1282 31.1599 11.9017 31.8903 11.6439C32.6206 11.3861 33.3471 11.101 34.0775 10.8393C35.5421 10.3237 37.0263 9.86285 38.5301 9.47227V9.50352Z" fill="#666B7A"/>
<path d="M36.3038 6.76957C35.0618 7.29294 33.7963 7.74601 32.5152 8.14831C31.8707 8.3436 31.2146 8.50764 30.5623 8.71464C29.91 8.92165 29.289 9.14428 28.6563 9.37863C26.1532 10.3487 23.5974 11.1767 21.001 11.8588V11.8315C23.4943 10.8192 26.0423 9.94683 28.6329 9.21849C29.2773 9.03102 29.9218 8.82791 30.5545 8.6131C31.1872 8.39828 31.8122 8.13659 32.4449 7.90615C33.7143 7.46089 34.9993 7.06641 36.3077 6.73442L36.3038 6.76957Z" fill="#666B7A"/>
<path d="M32.4139 4.59003C31.6486 4.94971 30.8574 5.25131 30.047 5.49227C29.6564 5.60553 29.2268 5.69537 28.8245 5.82036C28.4222 5.94534 28.0433 6.09376 27.6527 6.24999C26.0935 6.90364 24.4793 7.41733 22.8291 7.78496V7.75371C24.3688 7.0585 25.9674 6.50168 27.6059 6.08985C27.9964 5.98439 28.4222 5.86723 28.8206 5.72271C29.2189 5.5782 29.6017 5.40634 29.9923 5.25011C30.7785 4.96162 31.5854 4.73312 32.4061 4.5666L32.4139 4.59003Z" fill="#666B7A"/>
<path d="M26.7934 3.73086C24.6755 4.43917 22.8472 5.82034 21.587 7.66397C20.3947 9.52554 19.7917 11.7035 19.8567 13.9132C19.895 16.1188 20.2975 18.3029 21.048 20.3773C21.7762 22.4569 22.8138 24.4149 24.1258 26.1852C25.4457 27.9636 26.9514 29.5963 28.6174 31.0557C29.008 31.4462 29.4493 31.7938 29.8711 32.1571L30.5117 32.7C30.7303 32.8964 30.9377 33.105 31.1327 33.3249C31.8904 34.1686 32.5857 35.0513 33.2614 35.9496C34.6177 37.7479 35.8709 39.6218 37.0148 41.5622C38.1378 43.5048 39.1232 45.5238 39.9637 47.6044H39.9246C38.106 43.5111 35.7907 39.6571 33.0309 36.1292C32.3474 35.2465 31.6405 34.3795 30.8905 33.5514C30.511 33.142 30.0996 32.7632 29.6602 32.4188C29.2345 32.0555 28.8088 31.6923 28.3909 31.3212C26.6914 29.8609 25.1517 28.2244 23.7977 26.439C22.4673 24.6298 21.4214 22.6277 20.6965 20.5023C19.9318 18.3891 19.5355 16.1604 19.5248 13.9132C19.4901 11.65 20.1409 9.42935 21.3917 7.5429C22.7158 5.708 24.6029 4.35576 26.7661 3.69181L26.7934 3.73086Z" fill="#FF4F1F"/>
<path d="M42.5576 46.749C41.9894 44.5738 41.5731 42.3617 41.3117 40.1287C41.0546 37.896 40.9242 35.6505 40.9211 33.403C40.9211 32.2781 40.9485 31.1533 41.0539 30.0245C41.0742 29.7309 41.112 29.4387 41.1672 29.1496L41.3547 28.3333C41.4757 27.7865 41.589 27.2436 41.6984 26.7007C42.1556 24.533 42.3834 22.3231 42.378 20.1077C42.3678 17.9007 42.0228 15.7081 41.3547 13.6046C40.7151 11.4945 39.7291 9.50533 38.4371 7.71863C37.1665 5.91438 35.3823 4.53435 33.3166 3.75818C31.2005 3.04035 28.9082 3.03075 26.7861 3.73084V3.69178C28.9152 2.92684 31.2359 2.87884 33.3947 3.55508C35.5233 4.31305 37.3734 5.69619 38.7026 7.52334C40.0435 9.32705 41.0659 11.3468 41.7257 13.4953C42.4157 15.6312 42.7779 17.8594 42.7998 20.1038C42.7991 22.3462 42.5622 24.5822 42.0929 26.7749C41.9796 27.3217 41.8585 27.8685 41.7335 28.4153C41.5871 28.9526 41.4865 29.5014 41.4328 30.0557C41.3273 31.1689 41.2844 32.2898 41.2648 33.4069C41.1667 37.8838 41.6206 42.3558 42.6162 46.7217L42.5576 46.749Z" fill="#E0420F"/>
<path d="M40.085 32.0673C40.1397 32.7117 40.1592 33.3523 40.2178 33.9928C40.2764 34.6334 40.2803 35.2739 40.331 35.9106C40.417 37.1878 40.4795 38.4649 40.6162 39.7343C40.7529 41.0037 40.8505 42.277 41.0067 43.5464C41.077 44.183 41.1591 44.8157 41.2489 45.4485C41.3387 46.0812 41.4286 46.7218 41.5067 47.3623H41.4676C40.8518 44.8657 40.4352 42.3242 40.2217 39.7617C40.0121 37.1986 39.9586 34.6251 40.0615 32.0556L40.085 32.0673Z" fill="#FF4F1F"/>
<path d="M41.202 47.4599C40.9052 46.8858 40.6123 46.3155 40.3076 45.7531L39.3585 44.0775C38.7297 42.9644 38.0266 41.8903 37.3509 40.8123C36.6752 39.7343 35.937 38.6837 35.1793 37.6525C34.4216 36.6214 33.6834 35.5786 32.8905 34.5748L32.2148 33.7194L33.246 34.0553C33.8424 34.2505 34.46 34.3738 35.0856 34.4225C35.7078 34.467 36.3331 34.4022 36.933 34.2311C37.5408 34.0424 38.1144 33.7576 38.632 33.3874C39.1536 33.0015 39.627 32.5543 40.042 32.0556L40.0733 32.079C39.3312 33.1782 38.2609 34.0148 37.015 34.4693C35.7464 34.8578 34.3873 34.8346 33.1327 34.4029L33.1679 34.3483C34.7973 36.3417 36.3 38.4354 37.6673 40.617C39.04 42.7917 40.2351 45.0736 41.2411 47.4404L41.202 47.4599Z" fill="#E0420F"/>
<path d="M27.1719 4.86353C28.7242 4.24982 30.4108 4.05584 32.0619 4.3011C33.7264 4.62144 35.2677 5.40222 36.5106 6.55473C37.7461 7.695 38.7662 9.04848 39.5219 10.5503C40.2887 12.0383 40.8774 13.6114 41.2756 15.2373C41.666 16.8591 41.8613 18.5217 41.8576 20.1898C41.8836 21.8474 41.7686 23.5042 41.5139 25.1423C41.2697 26.7889 40.7951 28.393 40.1039 29.9073C39.7426 30.6612 39.2699 31.3564 38.7017 31.9696C38.1418 32.589 37.4274 33.0487 36.6317 33.3015V33.2624C37.4046 32.9864 38.0914 32.5123 38.6236 31.8876C39.1553 31.2643 39.5934 30.567 39.9242 29.8175C40.573 28.3116 41.0069 26.7221 41.2131 25.0954C41.4293 23.4696 41.5207 21.8296 41.4865 20.1898C41.4752 18.5506 41.2707 16.9184 40.8772 15.3271C40.497 13.7333 39.9293 12.1902 39.186 10.73C38.4557 9.26165 37.4765 7.93093 36.2919 6.79689C35.1068 5.65562 33.6271 4.86712 32.0189 4.51982C30.4006 4.2266 28.7338 4.36123 27.1836 4.9104L27.1719 4.86353Z" fill="#FF4F1F"/>
<path d="M36.6245 33.2898C35.8342 33.5646 34.9852 33.6253 34.1639 33.4655C33.3477 33.3107 32.5584 33.0384 31.8204 32.657C30.3588 31.8577 29.0176 30.8557 27.8365 29.6808C26.6509 28.523 25.5664 27.2659 24.5947 25.9235C23.5937 24.5958 22.7545 23.1535 22.095 21.6271C21.4438 20.0886 20.9758 18.4787 20.7007 16.8308C20.398 15.1768 20.398 13.4816 20.7007 11.8275C21.0059 10.1609 21.7717 8.61311 22.9113 7.35934C24.0874 6.17432 25.5541 5.31906 27.1647 4.87918V4.91823C25.5946 5.40796 24.1796 6.29924 23.0597 7.50386C21.9809 8.74524 21.2694 10.2628 21.0053 11.8861C20.7357 13.5034 20.7476 15.1551 21.0405 16.7683C21.3246 18.3802 21.7965 19.9532 22.4465 21.4553C23.0819 22.9663 23.8962 24.3956 24.872 25.7126C25.8289 27.0428 26.8879 28.2965 28.0396 29.4621C29.1916 30.6411 30.5038 31.6522 31.9376 32.4656C32.6506 32.8681 33.4192 33.163 34.2185 33.3405C35.0181 33.526 35.8526 33.495 36.6362 33.2507L36.6245 33.2898Z" fill="#E0420F"/>
<path d="M42.7217 46.6122C43.3472 47.383 43.842 48.2512 44.1863 49.1822C44.5188 50.1124 44.7991 51.0603 45.0261 52.0217C45.5078 53.9355 45.9517 55.8572 46.3579 57.7866V57.7632C46.7422 58.2325 47.0945 58.727 47.4125 59.2435C47.5713 59.5037 47.7022 59.7799 47.8031 60.0676C47.8594 60.2172 47.873 60.3795 47.8421 60.5363C47.812 60.612 47.7653 60.6801 47.7054 60.7355C47.6524 60.7918 47.5963 60.8453 47.5375 60.8956C47.0619 61.2807 46.5092 61.5591 45.9166 61.7119C45.3397 61.9176 44.7197 61.9714 44.116 61.8682V61.8057C44.7047 61.8288 45.2902 61.7096 45.8229 61.4581C46.3492 61.2606 46.8341 60.9665 47.2524 60.591C47.297 60.5468 47.3388 60.4999 47.3774 60.4504C47.3994 60.4291 47.419 60.4055 47.4359 60.3801L47.4086 60.4113C47.4086 60.4113 47.4086 60.3098 47.3422 60.2043C47.2346 59.9618 47.1038 59.7303 46.9516 59.513C46.6292 59.0308 46.2756 58.5703 45.8932 58.1342L45.815 58.0444L45.7838 57.9077C45.5651 56.9508 45.3268 55.9939 45.1237 55.0331L44.8035 53.5957L44.4949 52.1545C44.2801 51.1937 44.1317 50.2016 43.8387 49.315C43.6864 48.858 43.5419 48.3971 43.3466 47.9519C43.1573 47.5018 42.9313 47.0681 42.6709 46.6552L42.7217 46.6122Z" fill="#161216"/>
<path d="M44.1084 61.876C44.0382 61.8513 43.9742 61.8116 43.9209 61.7597C43.8676 61.7077 43.8263 61.6448 43.7998 61.5752C43.7414 61.4499 43.6956 61.3191 43.6631 61.1847C43.6034 60.9145 43.563 60.6404 43.542 60.3644C43.4984 59.8149 43.488 59.2632 43.5108 58.7123V58.7397C42.6867 56.9469 41.8547 55.162 41.1087 53.3341C40.7168 52.4266 40.3752 51.4982 40.0854 50.5532C39.805 49.5991 39.6823 48.6057 39.7222 47.6121H39.8042C39.9812 48.5645 40.2588 49.4953 40.6322 50.3891C40.8041 50.8305 41.0228 51.2601 41.2142 51.6936L41.8352 53.0216L42.4328 54.3613C42.632 54.8104 42.8234 55.2674 43.0069 55.7205C43.3975 56.6266 43.7373 57.5484 44.0615 58.4819L44.1201 58.6537V58.7357L44.0185 59.5169L43.9443 60.3176C43.9443 60.5832 43.9209 60.8488 43.9443 61.0987C43.9459 61.23 43.9603 61.3608 43.9873 61.4893C44.0185 61.6143 44.0381 61.7237 44.1591 61.7901L44.1084 61.876Z" fill="#60585E"/>
<path d="M39.7695 47.5888C40.2984 47.6065 40.8266 47.5352 41.3318 47.3779C41.8281 47.1961 42.2902 46.932 42.6989 46.5968L42.7262 46.628C42.61 46.8951 42.432 47.1307 42.2067 47.3154C41.9879 47.506 41.7347 47.6531 41.4607 47.749C41.1832 47.8365 40.8917 47.8709 40.6015 47.8505C40.3114 47.8366 40.0289 47.7535 39.7773 47.6084L39.7695 47.5888Z" fill="#60585E"/>
<path d="M27.1426 23.9982C27.1429 24.9872 26.85 25.9541 26.3007 26.7766C25.7515 27.5991 24.9707 28.2403 24.057 28.619C23.1434 28.9977 22.1379 29.0969 21.1679 28.9041C20.1978 28.7113 19.3068 28.2351 18.6074 27.5358C17.908 26.8366 17.4316 25.9456 17.2387 24.9756C17.0457 24.0055 17.1447 23.0001 17.5233 22.0864C17.9018 21.1727 18.5428 20.3917 19.3652 19.8423C20.1876 19.293 21.1545 18.9998 22.1435 19C23.4691 19.0002 24.7404 19.5269 25.6778 20.4642C26.6152 21.4014 27.1421 22.6726 27.1426 23.9982Z" fill="#D4D921"/>
<g style="mix-blend-mode:multiply">
<path d="M18.9556 25.6363C18.277 24.4049 18.2172 22.8782 18.5097 21.5245C18.6086 21.0546 18.755 20.596 18.9467 20.1557C17.9917 20.9521 17.3679 22.0758 17.1969 23.3075C17.0259 24.5391 17.3201 25.7902 18.022 26.8167C18.7239 27.8431 19.7831 28.5711 20.9928 28.8585C22.2026 29.146 23.4761 28.9723 24.5646 28.3713C22.3923 28.5862 20.031 27.591 18.9556 25.6363Z" fill="#C1CCBC"/>
</g>
<g style="mix-blend-mode:multiply">
<g style="mix-blend-mode:multiply">
<path d="M19.4291 28.1965C19.5532 28.1939 19.6759 28.1688 19.7911 28.1225L19.8375 28.1038L19.8491 28.0985L19.8651 28.0904H19.8696L19.8865 28.0815C19.9097 28.069 19.9302 28.0592 19.957 28.0432C19.9837 28.0271 20.0176 28.0039 20.0462 27.9834C20.0747 27.9629 20.0988 27.9415 20.1264 27.9201C20.3332 27.7355 20.4887 27.5005 20.5776 27.2379C20.6686 26.9763 20.7262 26.7043 20.7489 26.4282C20.7741 26.1466 20.78 25.8635 20.7667 25.5811C20.7542 25.2948 20.7292 25.005 20.6971 24.7116C20.6802 24.5672 20.6641 24.4209 20.6472 24.2738C20.6374 24.1989 20.6329 24.1329 20.6258 24.0615L20.6097 23.8475C20.5741 23.2777 20.5973 22.6829 20.7685 22.1532C20.8109 22.0242 20.8634 21.8986 20.9254 21.7778C20.9847 21.6597 21.0568 21.5484 21.1403 21.4461C21.3058 21.2422 21.512 21.0751 21.7458 20.9556C21.9907 20.8325 22.2524 20.7462 22.5225 20.6997L22.7392 20.6658L22.9354 20.6471L23.1423 20.6408L23.3474 20.6471C23.616 20.6618 23.8813 20.7137 24.1357 20.8013C24.3861 20.8839 24.6224 21.0042 24.8366 21.158C25.0506 21.3098 25.2432 21.4898 25.4091 21.6931C25.5758 21.8921 25.7219 22.1075 25.8452 22.336L25.8692 22.3779C25.8612 22.361 25.8692 22.3779 25.8692 22.3779V22.3833L25.8755 22.3949L25.8862 22.4181L25.9299 22.5072C25.9593 22.5679 25.9887 22.6285 26.0191 22.6856C26.0815 22.8069 26.1207 22.9201 26.1671 23.0342C26.1894 23.0904 26.2117 23.1466 26.2331 23.2028C26.2545 23.259 26.2705 23.3178 26.2893 23.3749C26.308 23.432 26.3258 23.489 26.3436 23.5452C26.3526 23.5738 26.3615 23.6014 26.3695 23.6344C26.3775 23.6674 26.3838 23.6915 26.39 23.7191C26.4991 24.1268 26.5637 24.5451 26.5826 24.9667C26.5993 25.2938 26.591 25.6217 26.5577 25.9476C26.5416 26.0902 26.5479 26.2855 26.5291 26.3934C26.7726 25.9476 27.0267 25.3135 27.0865 24.7357C27.074 24.3986 26.9028 23.9911 26.8189 23.6041C26.8127 23.5729 26.8074 23.5425 26.802 23.5149C26.7967 23.4873 26.7868 23.4534 26.7797 23.4257L26.7342 23.2385C26.7182 23.1751 26.7048 23.1109 26.6861 23.0476C26.6673 22.9843 26.6459 22.9183 26.6254 22.8532C26.5835 22.723 26.5434 22.5857 26.4926 22.4653C26.4685 22.4029 26.4444 22.3396 26.4194 22.2772L26.3829 22.1817L26.374 22.1577L26.3695 22.1461V22.1398L26.3624 22.1247L26.3392 22.0747C26.2176 21.7987 26.0682 21.5358 25.8933 21.29C25.7104 21.0272 25.4923 20.7908 25.245 20.5873C24.9864 20.3766 24.6963 20.2078 24.3854 20.087C24.0708 19.9654 23.7405 19.8892 23.4045 19.8605C22.7147 19.8038 22.0227 19.9403 21.4061 20.2547C20.9154 20.5124 20.5182 20.918 20.2709 21.414C20.1893 21.5742 20.1227 21.7417 20.072 21.9142C19.9755 22.2443 19.9187 22.5846 19.9026 22.9281C19.8855 23.2516 19.8917 23.5758 19.9213 23.8983C19.9285 23.9768 19.9374 24.0544 19.9463 24.132C19.9552 24.2096 19.9659 24.2916 19.9775 24.3621C19.9989 24.5083 20.0212 24.6528 20.0426 24.7954C20.0836 25.0763 20.1175 25.3501 20.1371 25.6149C20.1588 25.8676 20.1648 26.1213 20.155 26.3747C20.1485 26.5987 20.1137 26.8211 20.0515 27.0364C20.0026 27.2114 19.9106 27.3715 19.784 27.5019C19.7697 27.5153 19.7546 27.5304 19.7412 27.5411C19.7278 27.5518 19.7153 27.5616 19.7028 27.5723C19.6904 27.583 19.66 27.5991 19.6395 27.6125L19.6235 27.6223L19.6003 27.633C19.5385 27.6629 19.4717 27.681 19.4032 27.6865C19.3317 27.6924 19.2597 27.6885 19.1892 27.6749C19.1173 27.6624 19.0466 27.644 18.9779 27.6196C18.8483 27.572 18.7234 27.5123 18.6051 27.4412C18.54 27.4029 18.4803 27.3645 18.4268 27.328C18.7209 27.6607 19.0579 27.9527 19.4291 28.1965Z" fill="#C1CCBC"/>
</g>
</g>
<path d="M19.7063 27.9549L19.7545 27.9353L19.766 27.9299C19.7589 27.9344 19.7839 27.9219 19.783 27.9219H19.7874L19.8053 27.913C19.8294 27.8996 19.8499 27.8907 19.8775 27.8746C19.9052 27.8586 19.9408 27.8354 19.972 27.814C20.0032 27.7926 20.0264 27.773 20.0541 27.7507C20.2674 27.5689 20.4286 27.3338 20.5213 27.0694C20.6164 26.8082 20.6763 26.5357 20.6997 26.2588C20.7261 25.9775 20.7323 25.6947 20.7184 25.4125C20.7059 25.1263 20.6801 24.8356 20.6462 24.5422C20.6293 24.3986 20.6114 24.2524 20.5945 24.1052C20.5847 24.0294 20.5802 23.9634 20.5731 23.893C20.5659 23.8225 20.5615 23.7503 20.5561 23.679C20.5196 23.1083 20.5428 22.5144 20.7202 21.9847C20.7637 21.8552 20.818 21.7296 20.8825 21.6092C20.9443 21.4907 21.019 21.3795 21.1054 21.2775C21.2773 21.0724 21.4899 20.9051 21.7297 20.7862C21.9838 20.6636 22.254 20.5777 22.5322 20.5311L22.7569 20.4963L22.9594 20.4785L23.1734 20.4714L23.3856 20.4785C23.6633 20.4931 23.9377 20.545 24.2016 20.6328C24.4598 20.7145 24.7042 20.8347 24.9266 20.9895C25.1475 21.1401 25.347 21.3201 25.5196 21.5245C25.6899 21.723 25.8393 21.9384 25.9654 22.1675L25.9913 22.2094C25.9833 22.1924 25.9913 22.2094 25.9913 22.2094V22.2156L25.9975 22.2272L26.0082 22.2504L26.0537 22.3396L26.1429 22.5179C26.2071 22.6401 26.2481 22.7533 26.2954 22.8666L26.364 23.0351C26.3854 23.0922 26.4033 23.1511 26.422 23.2081C26.4407 23.2652 26.4595 23.3223 26.4782 23.3785C26.4871 23.407 26.4969 23.4346 26.5049 23.4676L26.5263 23.5523C26.642 23.9579 26.712 24.3752 26.735 24.7963C26.7517 25.1235 26.7427 25.4515 26.7083 25.7772C26.6922 25.9208 26.6726 26.0448 26.6539 26.1544C26.901 25.6432 27.0584 25.0933 27.1194 24.5288C27.1067 24.1616 27.0626 23.7961 26.9874 23.4364C26.982 23.4061 26.9758 23.3749 26.9704 23.3472C26.9651 23.3196 26.9553 23.2857 26.9472 23.2581C26.9312 23.1965 26.916 23.1341 26.9 23.0708C26.8839 23.0075 26.8697 22.9442 26.8509 22.88C26.8322 22.8158 26.809 22.7516 26.7876 22.6856C26.7448 22.5554 26.6984 22.418 26.6503 22.2977L26.5754 22.1095L26.537 22.015L26.5272 21.9909L26.5228 21.9784V21.9722L26.5156 21.957L26.4916 21.908C26.3651 21.6311 26.2103 21.3682 26.0296 21.1232C25.8385 20.8594 25.6113 20.6238 25.3546 20.4232C25.0851 20.2112 24.7842 20.0424 24.4629 19.9229C24.1357 19.801 23.7933 19.7248 23.4454 19.6964C22.7332 19.6396 22.0188 19.7757 21.3774 20.0906C21.0426 20.2601 20.7468 20.4976 20.5089 20.7879C20.3905 20.9313 20.2879 21.0871 20.203 21.2525C20.1194 21.4129 20.0507 21.5807 19.9979 21.7537C19.8968 22.083 19.8369 22.4236 19.8195 22.7676C19.8018 23.091 19.8084 23.4154 19.8392 23.7378C19.8463 23.8163 19.8552 23.893 19.865 23.9715C19.8748 24.0499 19.8846 24.1302 19.8971 24.2015C19.9194 24.3469 19.9426 24.4913 19.9649 24.634C20.0068 24.9158 20.0416 25.1896 20.063 25.4535C20.0847 25.7065 20.0907 25.9605 20.0808 26.2142C20.0742 26.4382 20.0382 26.6603 19.9738 26.875C19.9233 27.051 19.8292 27.2115 19.7001 27.3414C19.6849 27.3538 19.6688 27.3699 19.6555 27.3806C19.6418 27.3902 19.6287 27.4006 19.6162 27.4118L19.5502 27.4519L19.5333 27.4617L19.5092 27.4733C19.445 27.5034 19.3758 27.5215 19.305 27.5268C19.2311 27.5327 19.1568 27.5288 19.0839 27.5152C19.0096 27.5028 18.9365 27.484 18.8654 27.4591C18.7316 27.412 18.6026 27.3523 18.4802 27.2807C18.4035 27.237 18.3348 27.1915 18.2715 27.1541C18.5377 27.4806 18.8439 27.7724 19.1828 28.0226C19.2305 28.0275 19.2785 28.0296 19.3264 28.0289C19.4564 28.0266 19.585 28.0016 19.7063 27.9549Z" fill="white"/>
<g style="mix-blend-mode:soft-light" opacity="0.4">
<path d="M26.6631 23.0057C26.6631 23.7317 26.4478 24.4413 26.0445 25.0449C25.6412 25.6485 25.068 26.1189 24.3973 26.3967C23.7266 26.6745 22.9886 26.7472 22.2766 26.6056C21.5646 26.464 20.9106 26.1144 20.3973 25.6011C19.884 25.0878 19.5344 24.4338 19.3928 23.7218C19.2512 23.0098 19.3239 22.2718 19.6017 21.6011C19.8795 20.9304 20.3499 20.3572 20.9535 19.9539C21.5571 19.5506 22.2667 19.3353 22.9927 19.3353C23.9661 19.3353 24.8997 19.722 25.5881 20.4103C26.2764 21.0987 26.6631 22.0323 26.6631 23.0057Z" fill="white"/>
</g>
<g style="mix-blend-mode:soft-light" opacity="0.4">
<path d="M26.2884 22.5839C26.2889 23.1523 26.1208 23.7081 25.8055 24.1809C25.4901 24.6537 25.0415 25.0224 24.5166 25.2403C23.9916 25.4582 23.4138 25.5155 22.8563 25.4049C22.2988 25.2943 21.7866 25.0209 21.3845 24.6192C20.9824 24.2175 20.7085 23.7055 20.5974 23.1481C20.4863 22.5907 20.5431 22.0128 20.7604 21.4877C20.9778 20.9625 21.3461 20.5136 21.8186 20.1978C22.2912 19.882 22.8468 19.7134 23.4152 19.7134C24.1767 19.7134 24.9071 20.0157 25.4459 20.554C25.9846 21.0922 26.2877 21.8224 26.2884 22.5839Z" fill="white"/>
</g>
<g style="mix-blend-mode:soft-light" opacity="0.4">
<path d="M26.0814 21.9633C26.0814 22.368 25.9614 22.7637 25.7365 23.1003C25.5116 23.4368 25.192 23.6991 24.818 23.854C24.4441 24.0089 24.0326 24.0495 23.6356 23.9705C23.2386 23.8915 22.8739 23.6966 22.5877 23.4104C22.3015 23.1242 22.1066 22.7595 22.0276 22.3625C21.9486 21.9655 21.9892 21.554 22.1441 21.1801C22.299 20.8061 22.5613 20.4865 22.8978 20.2616C23.2344 20.0367 23.6301 19.9167 24.0348 19.9167C24.3036 19.9166 24.5698 19.9694 24.8182 20.0723C25.0665 20.1751 25.2922 20.3258 25.4822 20.5159C25.6723 20.7059 25.823 20.9316 25.9258 21.1799C26.0286 21.4283 26.0815 21.6945 26.0814 21.9633Z" fill="white"/>
</g>
</svg>
