<svg width="65" height="65" viewBox="0 0 65 65" fill="none" xmlns="http://www.w3.org/2000/svg">
<path fill-rule="evenodd" clip-rule="evenodd" d="M27.9706 31.2063L32.4652 33.2818V33.2515V33.2818L36.985 31.2265L36.5457 29.4185C36.0104 27.1915 37.2527 23.6564 37.9142 21.5909C38.9243 18.5154 39.2879 15.0713 37.0557 15.2581C36.374 15.3137 34.9347 15.5914 33.9398 14.8895C32.2632 13.4249 32.647 13.4249 30.9653 14.8895C29.9553 15.5914 28.5312 15.3137 27.8494 15.2581C25.6224 15.0713 26.0011 18.5154 26.9909 21.5909C27.6525 23.6564 28.8998 27.1915 28.3595 29.4185L27.9706 31.2063Z" fill="#FFDBA7"/>
<path fill-rule="evenodd" clip-rule="evenodd" d="M29.1667 15.9451C27.0355 13.8544 24.9347 15.4401 23.8439 17.4904C22.6482 18.6588 21.5692 19.9408 20.622 21.3184C20.0614 22.6112 21.0916 23.0707 22.2784 22.9899C24.2075 21.5254 25.8538 20.8891 27.1012 19.4953C27.8739 18.6368 28.2678 17.2177 29.1667 15.9451Z" fill="#FFDBA7"/>
<path fill-rule="evenodd" clip-rule="evenodd" d="M27.9692 15.1268C26.2825 14.4703 24.7371 15.8136 23.8534 17.4902C22.6577 18.6586 21.5786 19.9407 20.6314 21.3182C20.5185 21.5037 20.4622 21.7182 20.4694 21.9353C20.4765 22.1524 20.5469 22.3626 20.6718 22.5403C20.7764 22.2622 20.9013 21.9921 21.0455 21.7323C21.9268 20.2488 23.119 18.9739 24.5402 17.9953C25.4441 15.955 26.4138 15.3288 27.9692 15.1268Z" fill="#F0C17D"/>
<path fill-rule="evenodd" clip-rule="evenodd" d="M30.9643 12.7887L34.1862 12.8442C34.161 13.7129 34.1358 14.5764 34.1408 15.4501L33.0601 17.7681L30.833 15.4097L30.9643 12.7887Z" fill="#F0C17D"/>
<path fill-rule="evenodd" clip-rule="evenodd" d="M30.9651 12.7887L34.187 12.8442C34.1618 13.7129 34.1365 14.5764 34.1416 15.4501C33.0811 15.5258 30.9398 13.8694 30.9651 12.7887Z" fill="#E0A95C"/>
<path fill-rule="evenodd" clip-rule="evenodd" d="M32.515 14.0512C32.2922 14.0673 32.0685 14.0363 31.8585 13.9603C31.6868 13.8845 31.611 13.7178 31.3535 13.4855C31.0959 13.2532 30.8081 13.0916 30.7222 12.8846C30.6481 12.5891 30.6124 12.2853 30.6162 11.9806C30.4293 12.0816 30.2425 11.5514 30.2021 11.3746C30.1516 11.1171 29.9748 10.6828 29.9243 10.3899C29.894 10.2232 29.9243 10.0919 29.9698 10.0515C30.0152 10.0111 30.2172 10.0162 30.3889 10.2586C30.3889 10.0515 30.4192 9.84446 30.4192 9.6172C30.4101 9.25537 30.4354 8.89349 30.495 8.53648C30.5402 8.24102 30.6909 7.97194 30.9192 7.77897C31.0592 7.6607 31.2136 7.56059 31.3787 7.48101H31.4141H31.4444H31.4696H31.4949H31.5302H31.5807C32.0396 7.32974 32.5286 7.29333 33.0049 7.37497C33.4662 7.43836 33.8985 7.63691 34.2472 7.94561C34.4689 8.14457 34.6107 8.41742 34.6461 8.71323C34.6798 9.06762 34.6798 9.4244 34.6461 9.77879C34.6461 10.001 34.6461 10.2181 34.6461 10.4252C34.8229 10.1929 34.9491 10.1474 35.0653 10.2384C35.1814 10.3293 35.136 10.4101 35.1006 10.5767C35.04 10.8696 34.8481 11.2989 34.7875 11.5514C34.7421 11.7231 34.5401 12.2382 34.3583 12.1473C34.3538 12.4434 34.3079 12.7375 34.2219 13.0209C34.1361 13.228 33.7775 13.4199 33.5755 13.6118C33.3735 13.8037 33.2574 14.0007 33.0705 14.0714C32.8857 14.1 32.6972 14.0932 32.515 14.0512Z" fill="#FFDBA7"/>
<path fill-rule="evenodd" clip-rule="evenodd" d="M31.0557 8.24866C30.6732 9.05911 30.4881 9.94863 30.5154 10.8444C30.0104 8.98598 29.768 7.65276 30.9194 6.8397C32.4344 5.77413 34.2171 6.50639 34.3534 6.9306C35.5402 7.35985 35.0301 9.19808 34.6766 10.6576C34.6954 9.86217 34.5222 9.07396 34.1716 8.35976C34.0858 8.26886 33.6919 8.75367 33.601 8.74357C32.7122 8.67287 32.4091 8.48096 31.0557 8.24866Z" fill="#632404"/>
<path fill-rule="evenodd" clip-rule="evenodd" d="M34.8884 55.8407C34.954 56.376 35.0096 56.8507 35.1005 57.3557C35.2621 58.3657 35.9741 58.4819 36.9993 58.2344C38.7214 57.8203 37.2265 57.1688 36.6963 55.4064C36.6275 55.1232 36.6451 54.826 36.7468 54.5529C36.789 54.2167 36.7787 53.876 36.7165 53.5429C36.8133 52.8125 36.9481 52.0877 37.1205 51.3714L34.8126 50.7654C35.0005 51.7547 35.0227 52.7684 34.8782 53.7651C34.73 54.4494 34.7334 55.1579 34.8884 55.8407Z" fill="#FFDBA7"/>
<path fill-rule="evenodd" clip-rule="evenodd" d="M37.0599 31.4337C37.7517 34.6506 38.1457 37.7614 37.5649 40.6854C37.3337 41.7675 37.3166 42.8844 37.5144 43.973C37.7164 45.1598 38.0194 45.887 38.0447 46.7102C38.075 48.9675 37.4134 50.427 36.9993 51.9521C36.8382 52.509 36.735 53.081 36.6912 53.6591C36.5599 55.4922 36.7569 56.2902 35.7974 56.0781C34.8884 56.2447 35.0298 53.3813 35.0348 52.7854C35.0427 52.2693 35.0021 51.7536 34.9136 51.2451C34.712 50.2441 34.567 49.2325 34.4793 48.2151C34.4137 47.2758 34.651 46.8364 34.8429 44.8113C34.5984 44.0414 34.3945 43.2593 34.2318 42.4681C33.8985 41.2561 33.5147 40.236 33.2471 38.933C32.8981 37.1271 32.6519 35.3027 32.5098 33.4689L32.6259 32.5194L36.5801 29.5551C36.6256 30.156 36.9437 30.8075 37.0599 31.4337Z" fill="#FFDBA7"/>
<path fill-rule="evenodd" clip-rule="evenodd" d="M36.9079 58.2747C35.9333 58.4918 35.2565 58.3302 35.1 57.3757C35.0091 56.8303 34.9535 56.3657 34.8879 55.8607C34.7444 55.195 34.7444 54.5064 34.8879 53.8407C35.0315 52.8781 35.0127 51.8983 34.8323 50.942C34.6521 50.0516 34.5273 49.151 34.4586 48.2452C34.393 47.3059 34.6303 46.8666 34.8222 44.8415C34.5778 44.0716 34.3738 43.2894 34.2112 42.4982C33.8779 41.2862 33.4941 40.2661 33.2264 38.9632C32.8854 37.19 32.6409 35.3997 32.4941 33.6V33.5091L32.6103 32.5597H32.6406C32.8471 32.7029 33.0339 32.8727 33.1961 33.0647C33.5749 33.5394 33.7567 35.9028 33.989 37.7613C34.3273 40.4378 35.2515 42.2205 35.9332 44.6395C35.5077 46.8811 35.4141 49.1731 35.6555 51.4419C35.7144 52.0971 35.7144 52.7563 35.6555 53.4114C35.578 54.0819 35.5442 54.7566 35.5545 55.4315C35.5684 55.9737 35.6961 56.507 35.9292 56.9968C36.1624 57.4866 36.4958 57.9219 36.9079 58.2747Z" fill="#F0C17D"/>
<path fill-rule="evenodd" clip-rule="evenodd" d="M35.833 15.9451C37.8227 13.9554 40.07 15.4401 41.1608 17.4904C42.3547 18.659 43.4321 19.9411 44.3777 21.3184C44.4845 21.506 44.5499 21.7144 44.5696 21.9294C44.6151 22.5657 43.6505 23.0505 42.7213 22.9899C39.5852 20.6214 38.1762 19.268 35.833 15.9451Z" fill="#FFDBA7"/>
<path fill-rule="evenodd" clip-rule="evenodd" d="M27.9086 31.4337C27.2168 34.6506 26.8178 37.7614 27.4036 40.6854C27.6373 41.7672 27.6545 42.8846 27.4541 43.973C27.2521 45.1598 26.9491 45.887 26.9239 46.7102C26.8936 48.9675 27.5551 50.427 27.9743 51.9521C28.1305 52.5101 28.2336 53.0817 28.2823 53.6591C28.4086 55.4922 28.2116 56.2902 29.1711 56.0781C30.0802 56.2447 29.9388 53.3813 29.9337 52.7854C29.9284 52.2694 29.9689 51.7539 30.0549 51.2451C30.2586 50.2442 30.4053 49.2326 30.4943 48.2151C30.5549 47.2758 30.3175 46.8364 30.1256 44.8113C30.3701 44.0414 30.574 43.2593 30.7367 42.4681C31.075 41.2561 31.4588 40.236 31.7214 38.933C32.0695 37.1267 32.3174 35.3026 32.4638 33.4689L32.3426 32.5194L28.3884 29.5551C28.3278 30.156 28.0096 30.8075 27.9086 31.4337Z" fill="#FFDBA7"/>
<path fill-rule="evenodd" clip-rule="evenodd" d="M30.0655 55.8407C29.9999 56.376 29.9443 56.8507 29.8534 57.3557C29.6969 58.3657 28.9798 58.4819 27.9546 58.2344C27.5658 58.1435 27.7577 58.1587 27.485 58.0122C27.1315 57.8153 27.1264 57.5779 27.586 57.1436C27.8536 56.8911 27.8688 56.6941 28.2576 55.4064C28.3247 55.1234 28.3089 54.8271 28.2122 54.5529C28.1648 54.217 28.175 53.8754 28.2425 53.5429C28.1436 52.8125 28.0071 52.0877 27.8334 51.3714L30.1413 50.7654C29.9534 51.7547 29.9312 52.7684 30.0756 53.7651C30.2239 54.4494 30.2205 55.1579 30.0655 55.8407Z" fill="#FFDBA7"/>
<path fill-rule="evenodd" clip-rule="evenodd" d="M27.308 58.0274C26.9646 57.8355 26.9646 57.5931 27.4191 57.1638C27.6868 56.9113 27.8686 56.7346 28.2574 55.4468C28.3245 55.1638 28.3087 54.8676 28.212 54.5933C28.1646 54.2574 28.1748 53.9158 28.2423 53.5833C28.1478 52.875 28.0163 52.172 27.8484 51.4774C27.4393 50.1139 26.9141 48.7352 26.9394 46.7152C26.9394 45.892 27.2676 45.1648 27.4696 43.9781C27.67 42.8896 27.6528 41.7723 27.4191 40.6905C26.8182 37.7665 27.2171 34.6304 27.9241 31.4387C28.0251 30.8125 28.3433 30.1611 28.4291 29.5551L29.2371 30.1611C28.9442 31.8276 28.5251 33.4335 28.3382 35.2111C28.0756 37.6503 28.5756 40.1249 28.3837 42.564C28.2271 44.5841 27.7676 45.6597 27.8231 47.5131C27.8837 49.6392 28.6614 51.4168 28.8331 53.3914C28.8836 53.9974 28.7574 54.1944 28.8685 55.0781C28.9796 56.3356 28.5503 57.179 27.308 58.0274Z" fill="#F0C17D"/>
<path fill-rule="evenodd" clip-rule="evenodd" d="M27.9697 31.2064C27.9498 31.2794 27.9346 31.3536 27.9243 31.4286C27.3031 34.3172 26.9143 37.12 27.2829 39.7764C28.6143 40.1792 29.9977 40.3834 31.3886 40.3824C31.5199 39.9228 31.6462 39.4481 31.7522 38.933C32.1003 37.1267 32.3482 35.3025 32.4946 33.4688C32.6367 35.3027 32.8829 37.1271 33.2319 38.933C33.338 39.438 33.4642 39.943 33.5955 40.3824C34.9881 40.3833 36.3732 40.1791 37.7063 39.7764C38.0699 37.12 37.7063 34.3172 37.0649 31.4286L37.0195 31.2064L36.5801 29.3985C36.1004 27.4037 37.171 24.3484 37.7467 22.2526C37.2114 20.5205 36.1862 18.258 36.6407 15.2936C36.1357 15.3593 34.8782 15.4098 34.1864 15.0058C34.0446 15.3362 33.8089 15.6178 33.5087 15.8157C33.2084 16.0136 32.8567 16.1191 32.4971 16.1191C32.1375 16.1191 31.7858 16.0136 31.4856 15.8157C31.1853 15.6178 30.9497 15.3362 30.8079 15.0058H30.7826C30.0908 15.4047 28.8636 15.3542 28.3333 15.2886C28.7879 18.253 27.7627 20.5154 27.2274 22.2476C27.8031 24.3484 28.8737 27.3986 28.3939 29.3934L27.9546 31.2014L27.9697 31.2064ZM32.5148 33.4638L32.4845 33.2567V33.2264V33.2567L32.5148 33.4638Z" fill="#D10000"/>
<path fill-rule="evenodd" clip-rule="evenodd" d="M32.4804 33.4788V33.5748C32.6272 35.3744 32.8717 37.1648 33.2127 38.938C33.3188 39.443 33.445 39.948 33.5763 40.3873C33.9046 40.3873 34.2177 40.3621 34.5308 40.3419C34.2721 39.4817 34.0846 38.6017 33.9702 37.7108C33.7379 35.8523 33.5561 33.4889 33.1774 33.0142C32.738 32.4486 32.036 32.2062 31.4199 31.4133C31.5613 32.1961 31.7785 33.0092 32.4804 33.4788Z" fill="#BD0000"/>
<path fill-rule="evenodd" clip-rule="evenodd" d="M27.9697 31.2064C27.9498 31.2794 27.9346 31.3536 27.9243 31.4286C27.3031 34.3172 26.9143 37.12 27.2829 39.7763C27.6459 39.8957 28.0151 39.9952 28.3889 40.0743C28.2476 38.4503 28.2273 36.8179 28.3283 35.1909C28.6414 32.2871 29.5656 29.8075 29.5454 26.7977C29.5454 25.0352 28.4697 23.2273 27.8384 20.4043C27.6869 20.9093 27.5253 21.3638 27.3789 21.793C27.3385 21.9698 27.293 22.1516 27.2526 22.3283C27.8182 24.4191 28.8737 27.4188 28.399 29.3984L27.9697 31.2064Z" fill="#BD0000"/>
<path fill-rule="evenodd" clip-rule="evenodd" d="M42.8073 22.8232C41.9336 22.1565 40.7872 21.8535 40.0045 21.3485C38.944 20.6567 38.0703 20.1517 38.0703 18.7982C40.3984 20.3133 41.464 21.1617 43.3931 22.4444L43.59 22.7727C43.3274 22.9242 43.1204 22.8434 42.8073 22.8232Z" fill="#F0C17D"/>
<path fill-rule="evenodd" clip-rule="evenodd" d="M34.0655 20.4852C34.3079 20.2024 34.4796 20.1569 34.8634 20.4044C35.2472 20.6518 36.1259 21.4699 36.6006 21.5861C37.7217 21.379 39.3882 21.0811 40.1357 20.9296C41.2722 20.6136 42.4662 20.5635 43.6253 20.7831C44.6353 21.0457 44.7767 22.485 44.6353 23.2728C44.5242 23.8384 43.9889 23.6465 43.3778 23.7425C41.3511 23.9667 39.3008 23.8386 37.3177 23.3637L36.1007 23.1819C35.2724 23.591 34.5604 23.4496 33.6261 22.9799C33.3552 22.8567 33.1186 22.6689 32.9372 22.4329C32.7559 22.1969 32.6352 21.92 32.5858 21.6265C32.5606 21.3891 32.409 20.3842 32.8585 20.2478C33.0757 20.1923 33.1716 20.3943 34.0655 20.4852Z" fill="#FFDBA7"/>
<path fill-rule="evenodd" clip-rule="evenodd" d="M44.4779 21.6012C44.6768 22.1348 44.7292 22.7121 44.6294 23.2728C44.5183 23.8384 43.983 23.6465 43.3719 23.7424C41.3452 23.9667 39.2949 23.8385 37.3118 23.3637L36.0998 23.1819C35.2716 23.5909 34.5595 23.4495 33.6253 22.9799C33.3543 22.8567 33.1178 22.6688 32.9364 22.4329C32.755 22.1969 32.6343 21.92 32.585 21.6265C33.191 22.138 33.909 22.4995 34.6807 22.6819C35.1508 22.7885 35.6425 22.7425 36.0847 22.5506C39.1147 23.3384 40.6651 22.5506 43.281 22.8334C44.6344 22.8789 44.589 22.4345 44.4779 21.6012Z" fill="#F0C17D"/>
<path fill-rule="evenodd" clip-rule="evenodd" d="M30.9344 20.485C30.692 20.2022 30.5203 20.1568 30.1365 20.4042C29.7527 20.6517 28.874 21.4698 28.3993 21.5859C27.2782 21.3789 25.6117 21.0809 24.8642 20.9294C23.7277 20.6135 22.5337 20.5634 21.3746 20.783C20.3646 21.0456 20.2232 22.4849 20.3646 23.2727C20.4757 23.8383 21.011 23.6464 21.6221 23.7423C23.6488 23.9666 25.6991 23.8384 27.6822 23.3636L28.9093 23.1919C29.7375 23.6009 30.4496 23.4595 31.3839 22.9899C31.6548 22.8667 31.8914 22.6788 32.0728 22.4428C32.2542 22.2069 32.3748 21.93 32.4242 21.6365C32.4545 21.3991 32.6009 20.3941 32.1515 20.2578C31.9242 20.1921 31.8283 20.3941 30.9344 20.485Z" fill="#FFDBA7"/>
<path fill-rule="evenodd" clip-rule="evenodd" d="M20.5211 21.6012C20.3221 22.1348 20.2698 22.7121 20.3696 23.2728C20.4807 23.8384 21.016 23.6465 21.6271 23.7424C23.6538 23.9667 25.7041 23.8385 27.6872 23.3637L28.9143 23.192C29.7425 23.601 30.4546 23.4596 31.3889 22.99C31.6598 22.8668 31.8963 22.6789 32.0777 22.4429C32.2591 22.207 32.3798 21.9301 32.4292 21.6366C31.8241 22.1466 31.1081 22.508 30.3384 22.692C29.8667 22.7986 29.3734 22.7526 28.9295 22.5607C25.8994 23.3485 24.3541 22.5607 21.7331 22.8435C20.3645 22.8789 20.3948 22.4345 20.5211 21.6012Z" fill="#F0C17D"/>
<path fill-rule="evenodd" clip-rule="evenodd" d="M34.8279 56.8608C34.8803 57.1827 34.9632 57.4989 35.0754 57.8051C35.2909 58.1314 35.5965 58.3881 35.9551 58.5441C36.3137 58.7 36.7098 58.7486 37.0954 58.6838C37.7014 58.5929 37.8883 58.4465 38.0499 58.1788C38.4741 57.5274 37.8529 56.7093 37.257 55.6942C37.05 55.3457 37.0651 54.4822 36.752 54.5377L35.949 54.6943L34.6865 54.5478C34.7522 55.27 34.631 56.2598 34.8279 56.8608Z" fill="#CC0606"/>
<path fill-rule="evenodd" clip-rule="evenodd" d="M34.8779 57.0679C34.9127 57.3208 34.9789 57.5685 35.0749 57.8052C35.2904 58.1314 35.596 58.3881 35.9546 58.5441C36.3132 58.7001 36.7093 58.7486 37.0949 58.6839C37.7009 58.593 37.8878 58.4465 38.0494 58.1789C38.3423 57.7244 38.1352 57.1941 37.7817 56.5729C37.6377 56.5838 37.4941 56.5472 37.3728 56.4688C37.2515 56.3904 37.1593 56.2744 37.1101 56.1386C36.8982 55.6284 36.7293 55.1014 36.6051 54.563L35.9384 54.6943L34.9284 54.5832C35.2769 55.4064 35.5142 56.4719 34.8779 57.0376V57.0679Z" fill="#090A0A"/>
<path fill-rule="evenodd" clip-rule="evenodd" d="M30.1319 56.8608C30.0795 57.1827 29.9967 57.4989 29.8845 57.8051C29.6689 58.1314 29.3634 58.3881 29.0048 58.5441C28.6462 58.7 28.2501 58.7486 27.8645 58.6838C27.2584 58.5929 27.0716 58.4465 26.91 58.1788C26.4858 57.5274 27.1019 56.7093 27.7028 55.6942C27.9099 55.3457 27.8947 54.4822 28.2079 54.5377L29.0108 54.6943L30.2733 54.5478C30.2077 55.27 30.3289 56.2598 30.1319 56.8608Z" fill="#CC0606"/>
<path fill-rule="evenodd" clip-rule="evenodd" d="M30.0803 57.0679C30.0432 57.3204 29.9771 57.5678 29.8834 57.8052C29.6678 58.1314 29.3623 58.3881 29.0037 58.5441C28.6451 58.7001 28.249 58.7486 27.8633 58.6839C27.2573 58.593 27.0705 58.4465 26.9089 58.1789C26.616 57.7244 26.823 57.1941 27.1765 56.5729C27.3205 56.5838 27.4642 56.5472 27.5854 56.4688C27.7067 56.3904 27.799 56.2744 27.8482 56.1386C28.06 55.6284 28.229 55.1014 28.3532 54.563L29.0198 54.6943L30.0298 54.5832C29.6814 55.4064 29.444 56.4719 30.0803 57.0376V57.0679Z" fill="#090A0A"/>
</svg>
