<svg width="18" height="16" viewBox="0 0 18 16" fill="none" xmlns="http://www.w3.org/2000/svg">
<path d="M6.4084 11.0824H3.83333C3.14819 11.0824 2.49111 10.8102 2.00664 10.3257C1.52217 9.84125 1.25 9.18417 1.25 8.49902L1.25 3.33236C1.25 2.64721 1.52217 1.99013 2.00664 1.50566C2.49111 1.0212 3.14819 0.749023 3.83333 0.749023L14.1667 0.749023C14.8518 0.749023 15.5089 1.0212 15.9934 1.50566C16.4778 1.99013 16.75 2.64721 16.75 3.33236V8.49902C16.75 9.18417 16.4778 9.84125 15.9934 10.3257C15.5089 10.8102 14.8518 11.0824 14.1667 11.0824H11.5182" stroke="#006F7B" stroke-width="1.5" stroke-linecap="round"/>
<circle cx="5.25" cy="5.76758" r="1" fill="#006F7B"/>
<circle cx="9.25" cy="5.76758" r="1" fill="#006F7B"/>
<circle cx="13.25" cy="5.76758" r="1" fill="#006F7B"/>
</svg>
