<svg width="18" height="18" viewBox="0 0 18 18" fill="none" xmlns="http://www.w3.org/2000/svg">
<g filter="url(#filter0_d_703_3811)">
<path d="M14.6 16.5H11.8C11.4287 16.5 11.0726 16.342 10.8101 16.0606C10.5475 15.7793 10.4 15.3978 10.4 14.9999V12.4998C10.4 12.1019 10.2525 11.7204 9.98995 11.4391C9.7274 11.1577 9.3713 10.9997 9 10.9997C8.6287 10.9997 8.2726 11.1577 8.01005 11.4391C7.7475 11.7204 7.6 12.1019 7.6 12.4998V14.9999C7.6 15.3978 7.4525 15.7793 7.18995 16.0606C6.9274 16.342 6.5713 16.5 6.2 16.5H3.4C3.0287 16.5 2.6726 16.342 2.41005 16.0606C2.1475 15.7793 2 15.3978 2 14.9999V7.04448C2.00039 6.79348 2.05955 6.54661 2.17206 6.32646C2.28458 6.10632 2.44684 5.91994 2.644 5.78441L8.748 1.57917C8.82319 1.52748 8.91066 1.5 9 1.5C9.08934 1.5 9.17681 1.52748 9.252 1.57917L15.356 5.78441C15.5532 5.91994 15.7154 6.10632 15.8279 6.32646C15.9404 6.54661 15.9996 6.79348 16 7.04448V14.9999C16 15.3978 15.8525 15.7793 15.5899 16.0606C15.3274 16.342 14.9713 16.5 14.6 16.5ZM9 9.99964C9.61884 9.99964 10.2123 10.263 10.6499 10.7319C11.0875 11.2008 11.3333 11.8367 11.3333 12.4998V14.9999C11.3333 15.1325 11.3825 15.2597 11.47 15.3535C11.5575 15.4473 11.6762 15.4999 11.8 15.4999H14.6C14.7238 15.4999 14.8425 15.4473 14.93 15.3535C15.0175 15.2597 15.0667 15.1325 15.0667 14.9999V7.04448C15.0665 6.96081 15.0468 6.87852 15.0093 6.80514C14.9718 6.73176 14.9177 6.66963 14.852 6.62445L9 2.59423L3.148 6.62445C3.08228 6.66963 3.02819 6.73176 2.99069 6.80514C2.95318 6.87852 2.93346 6.96081 2.93333 7.04448V14.9999C2.93333 15.1325 2.9825 15.2597 3.07002 15.3535C3.15753 15.4473 3.27623 15.4999 3.4 15.4999H6.2C6.32377 15.4999 6.44247 15.4473 6.52998 15.3535C6.6175 15.2597 6.66667 15.1325 6.66667 14.9999V12.4998C6.66667 11.8367 6.9125 11.2008 7.35008 10.7319C7.78767 10.263 8.38116 9.99964 9 9.99964Z" fill="#006F7B"/>
<path d="M1.875 7.04428V7.04448V14.9999C1.875 15.4282 2.03372 15.8406 2.31867 16.1459C2.60389 16.4515 2.99265 16.625 3.4 16.625H6.2C6.60735 16.625 6.99611 16.4515 7.28133 16.1459C7.56628 15.8406 7.725 15.4282 7.725 14.9999V12.4998C7.725 12.1324 7.86128 11.7817 8.10143 11.5243C8.34132 11.2673 8.66474 11.1247 9 11.1247C9.33526 11.1247 9.65868 11.2673 9.89857 11.5243C10.1387 11.7817 10.275 12.1324 10.275 12.4998V14.9999C10.275 15.4282 10.4337 15.8406 10.7187 16.1459C11.0039 16.4515 11.3926 16.625 11.8 16.625H14.6C15.0073 16.625 15.3961 16.4515 15.6813 16.1459C15.9663 15.8406 16.125 15.4282 16.125 14.9999V7.04448V7.04428C16.1246 6.77389 16.0609 6.50755 15.9392 6.26958C15.8176 6.0316 15.6417 5.82914 15.4269 5.68144C15.4269 5.68143 15.4268 5.68141 15.4268 5.6814L9.32292 1.47624L9.32281 1.47616C9.22726 1.41047 9.1152 1.375 9 1.375C8.8848 1.375 8.77274 1.41047 8.67719 1.47616L8.67708 1.47624L2.57319 5.6814C2.35833 5.8291 2.1824 6.03157 2.06076 6.26958C1.93913 6.50755 1.87542 6.77389 1.875 7.04428ZM14.7811 6.7274L14.7812 6.72746C14.8292 6.76047 14.8696 6.8065 14.898 6.86202C14.9264 6.91758 14.9416 6.98041 14.9417 7.04467V14.9999C14.9417 15.1021 14.9037 15.1984 14.8386 15.2682C14.7738 15.3377 14.6877 15.3749 14.6 15.3749H11.8C11.7123 15.3749 11.6262 15.3377 11.5614 15.2682C11.4963 15.1984 11.4583 15.1021 11.4583 14.9999V12.4998C11.4583 11.8062 11.2013 11.1395 10.7413 10.6466C10.281 10.1535 9.65488 9.87464 9 9.87464C8.34512 9.87464 7.71896 10.1535 7.2587 10.6466C6.79872 11.1395 6.54167 11.8062 6.54167 12.4998V14.9999C6.54167 15.1021 6.50372 15.1984 6.4386 15.2682C6.37375 15.3377 6.28772 15.3749 6.2 15.3749H3.4C3.31228 15.3749 3.22625 15.3377 3.1614 15.2682C3.09628 15.1984 3.05833 15.1021 3.05833 14.9999V7.04453C3.05845 6.98032 3.07362 6.91754 3.10199 6.86202C3.13037 6.8065 3.1708 6.76047 3.21881 6.72746L3.2189 6.7274L9 2.746L14.7811 6.7274Z" stroke="#006F7B" stroke-width="0.25"/>
</g>
<defs>
<filter id="filter0_d_703_3811" x="0.75" y="0.25" width="16.5" height="17.5" filterUnits="userSpaceOnUse" color-interpolation-filters="sRGB">
<feFlood flood-opacity="0" result="BackgroundImageFix"/>
<feColorMatrix in="SourceAlpha" type="matrix" values="0 0 0 0 0 0 0 0 0 0 0 0 0 0 0 0 0 0 127 0" result="hardAlpha"/>
<feOffset/>
<feGaussianBlur stdDeviation="0.5"/>
<feComposite in2="hardAlpha" operator="out"/>
<feColorMatrix type="matrix" values="0 0 0 0 0.0627451 0 0 0 0 0.803922 0 0 0 0 0.882353 0 0 0 0.71 0"/>
<feBlend mode="normal" in2="BackgroundImageFix" result="effect1_dropShadow_703_3811"/>
<feBlend mode="normal" in="SourceGraphic" in2="effect1_dropShadow_703_3811" result="shape"/>
</filter>
</defs>
</svg>
