<svg width="23" height="16" viewBox="0 0 23 16" fill="none" xmlns="http://www.w3.org/2000/svg">
<path d="M22.5 4.85732C22.5 2.7023 20.6765 0.966309 18.4128 0.966309H6.74866C6.05699 0.966309 5.39675 1.26562 4.98803 1.80437L0.806538 7.10214C0.397821 7.64089 0.397821 8.35923 0.806538 8.89799L4.98803 14.1957C5.39675 14.7345 6.05699 15.0338 6.74866 15.0338H18.4128C20.6765 15.0338 22.5 13.2978 22.5 11.1428V4.85732ZM20.6136 11.1428C20.6136 12.3101 19.639 13.238 18.4128 13.238H6.74866C6.65434 13.238 6.56002 13.208 6.49714 13.1182L2.44141 8.00006L6.49714 2.88188C6.56002 2.79209 6.65434 2.76216 6.74866 2.76216H18.4128C19.639 2.76216 20.6136 3.69002 20.6136 4.85732V11.1428Z" fill="#8E9A9C"/>
<path d="M16.7778 5.33627C16.4005 4.9771 15.8031 4.9771 15.4573 5.33627L13.9796 6.74302L12.502 5.33627C12.0932 5.00703 11.4959 5.0669 11.1815 5.456C10.8985 5.78524 10.8985 6.26413 11.1815 6.59337L12.6592 8.00012L11.1815 9.40687C10.8042 9.73611 10.7728 10.3048 11.1501 10.664C11.4959 11.0231 12.0932 11.0531 12.4705 10.6939C12.502 10.6939 12.502 10.664 12.502 10.664L13.9796 9.25722L15.4573 10.664C15.8346 10.9932 16.4319 10.9932 16.7778 10.634C17.1236 10.2749 17.1236 9.76604 16.7778 9.40687L15.3001 8.00012L16.7778 6.59337C17.1551 6.2342 17.1551 5.66551 16.7778 5.33627Z" fill="#8E9A9C"/>
</svg>
