<svg width="18" height="16" viewBox="0 0 18 16" fill="none" xmlns="http://www.w3.org/2000/svg">
<mask id="path-1-inside-1_4896_24975" fill="white">
<path d="M0.818359 14.8252H17.5129V15.3637H0.818359V14.8252Z"/>
</mask>
<path d="M0.818359 14.8252V14.2252H0.218359V14.8252H0.818359ZM17.5129 14.8252H18.1129V14.2252H17.5129V14.8252ZM17.5129 15.3637V15.9637H18.1129V15.3637H17.5129ZM0.818359 15.3637H0.218359V15.9637H0.818359V15.3637ZM0.818359 15.4252H17.5129V14.2252H0.818359V15.4252ZM16.9129 14.8252V15.3637H18.1129V14.8252H16.9129ZM17.5129 14.7637H0.818359V15.9637H17.5129V14.7637ZM1.41836 15.3637V14.8252H0.218359V15.3637H1.41836Z" fill="#006F7B" mask="url(#path-1-inside-1_4896_24975)"/>
<path d="M2.92598 11.0866H4.48011V13.9871H2.92598V11.0866Z" stroke="#006F7B" stroke-width="0.6"/>
<path d="M8.23359 8.39424H9.78773V13.9874H8.23359V8.39424Z" stroke="#006F7B" stroke-width="0.6"/>
<path d="M13.5432 5.70088H15.0973V13.9867H13.5432V5.70088Z" stroke="#006F7B" stroke-width="0.6"/>
<path d="M4.41283 5.73825C4.41283 6.13021 4.09505 6.44799 3.7031 6.44799C3.31114 6.44799 2.99336 6.13021 2.99336 5.73825C2.99336 5.34629 3.31114 5.02852 3.7031 5.02852C4.09505 5.02852 4.41283 5.34629 4.41283 5.73825Z" stroke="#006F7B" stroke-width="0.6"/>
<path d="M4.79062 7.27518C4.64478 7.12942 4.44708 7.04756 4.24105 7.04756H3.16398C2.958 7.04756 2.76035 7.12938 2.61454 7.27505C2.6145 7.27509 2.61446 7.27513 2.61442 7.27517M4.79062 7.27518L2.61442 7.27517M4.79062 7.27518C4.9363 7.421 5.01812 7.61864 5.01812 7.82463V9.4095H2.38691M4.79062 7.27518L2.38691 9.4095M2.61442 7.27517C2.46873 7.42101 2.38691 7.61865 2.38691 7.82463V9.4095M2.61442 7.27517L2.38691 9.4095" stroke="#006F7B" stroke-width="0.6"/>
<path d="M8.55604 5.44295L8.71207 5.42025L8.78186 5.27886L9.01207 4.8125L9.2423 5.27887L9.31209 5.42025L9.46812 5.44295L9.98299 5.51785L9.61049 5.88087L9.49753 5.99095L9.52418 6.14642L9.61212 6.65925L9.15164 6.41725L9.01208 6.3439L8.87251 6.41725L8.41203 6.65925L8.49997 6.14642L8.52663 5.99095L8.41367 5.88087L8.04117 5.51785L8.55604 5.44295Z" stroke="#006F7B" stroke-width="0.6"/>
<path d="M14.4603 3.72389L14.3207 3.65054L14.1811 3.72389L13.7206 3.9659L13.8086 3.45305L13.8352 3.29759L13.7223 3.18751L13.3498 2.82449L13.8646 2.74959L14.0207 2.72689L14.0905 2.58551L14.3207 2.11913L14.5509 2.58551L14.6207 2.72689L14.7767 2.74959L15.2916 2.82449L14.9191 3.18751L14.8061 3.2976L14.8328 3.45306L14.9207 3.96589L14.4603 3.72389Z" stroke="#006F7B" stroke-width="0.6"/>
<path d="M6.93728 1.77799L6.79224 1.51543L6.79223 1.51544L6.67694 1.30661L6.50499 0.995152L7.58888 1.11075L7.10931 2.0894L6.93728 1.77799Z" stroke="#006F7B" stroke-width="0.6"/>
</svg>
