<svg width="25" height="24" viewBox="0 0 25 24" fill="none" xmlns="http://www.w3.org/2000/svg">
<path d="M9.66838 1.5C4.91995 1.5 1.07059 5.41663 1.07059 10.248C1.07059 11.5695 1.3591 12.8244 1.87609 13.9495C1.58488 15.1136 1.25952 16.4116 1.04584 17.2636C0.778715 18.3289 1.72153 19.2979 2.7697 19.0416C3.62973 18.8313 4.95153 18.5084 6.12941 18.2228C7.20964 18.7198 8.40832 18.9961 9.66838 18.9961C14.4168 18.9961 18.2662 15.0794 18.2662 10.248C18.2662 5.41663 14.4168 1.5 9.66838 1.5ZM2.79015 10.248C2.79015 6.38291 5.86964 3.24961 9.66838 3.24961C13.4671 3.24961 16.5466 6.38291 16.5466 10.248C16.5466 14.1132 13.4671 17.2465 9.66838 17.2465C8.56702 17.2465 7.52844 16.9838 6.6076 16.5174L6.32856 16.376L6.02533 16.4495C4.96753 16.7056 3.74543 17.0037 2.82952 17.2276C3.05736 16.3188 3.35905 15.1148 3.62062 14.0688L3.70107 13.747L3.55146 13.4519C3.06513 12.4929 2.79015 11.4044 2.79015 10.248ZM15.4003 22.4954C13.1426 22.4954 11.0882 21.61 9.55412 20.1619C9.59218 20.1624 9.63029 20.1626 9.66844 20.1626C10.4915 20.1626 11.2907 20.0587 12.0541 19.8632C13.0446 20.4254 14.1857 20.7458 15.4003 20.7458C16.5016 20.7458 17.5402 20.483 18.4611 20.0166L18.7401 19.8752L19.0433 19.9487C20.0998 20.2046 21.2961 20.4687 22.1835 20.6596C21.9828 19.7842 21.7092 18.6124 21.4481 17.5681L21.3676 17.2464L21.5172 16.9513C22.0035 15.9922 22.2785 14.9037 22.2785 13.7474C22.2785 11.2807 21.0244 9.11216 19.1294 7.86579C18.925 7.02217 18.6143 6.2211 18.2128 5.47805C21.58 6.66349 23.9981 9.91807 23.9981 13.7474C23.9981 15.069 23.7094 16.3243 23.1922 17.4495C23.4823 18.6253 23.776 19.8989 23.9623 20.7192C24.1966 21.7515 23.3031 22.6858 22.2801 22.4682C21.4465 22.2909 20.1367 22.0066 18.9401 21.7216C17.8597 22.2189 16.6607 22.4954 15.4003 22.4954Z" fill="#006F7B"/>
</svg>
