<svg width="23" height="22" viewBox="0 0 23 22" fill="none" xmlns="http://www.w3.org/2000/svg">
<path d="M16.927 3.73088C16.9235 3.81212 16.9595 3.89 17.0239 3.9398C17.0881 3.98959 17.1725 4.00514 17.2504 3.98153H17.3055H17.3054C17.4379 3.95154 17.5224 3.82152 17.496 3.68826C17.4856 3.62078 17.4482 3.56047 17.3924 3.5212C17.3366 3.48192 17.2672 3.46715 17.2002 3.48024H17.1325C17.0119 3.50229 16.925 3.60837 16.927 3.73089L16.927 3.73088Z" fill="#006F7B"/>
<path d="M8.58991 13.3056C8.49648 13.2033 8.33758 13.1959 8.23519 13.2893C8.1328 13.3827 8.12542 13.5416 8.21885 13.644C8.43996 13.871 8.7178 14.0345 9.02351 14.1178C9.07319 14.3182 9.189 14.4961 9.35227 14.6226C9.51564 14.749 9.71685 14.8167 9.92329 14.8146C10.0618 14.8146 10.1739 14.7023 10.1739 14.5639C10.1739 14.4255 10.0618 14.3133 9.92329 14.3133C9.77839 14.3184 9.6421 14.2446 9.56746 14.1203C10.0011 14.015 10.377 13.659 10.6853 13.05C10.7476 12.9261 10.6976 12.7751 10.5737 12.7128C10.4499 12.6506 10.2989 12.7005 10.2366 12.8244C9.98593 13.3257 9.6977 13.6064 9.38941 13.649C9.08628 13.653 8.79568 13.5282 8.58991 13.3056H8.58991Z" fill="#006F7B"/>
<path d="M9.49787 16.1407C9.49787 16.2792 9.6101 16.3913 9.74852 16.3913C9.88705 16.3913 9.99917 16.2792 9.99917 16.1407C10.0156 15.8027 9.89231 15.4729 9.65834 15.2284C9.3993 14.9965 9.06595 14.8649 8.71842 14.8574C8.58001 14.8574 8.46777 14.9695 8.46777 15.1081C8.46777 15.1745 8.49418 15.2382 8.54118 15.2853C8.58817 15.3323 8.65196 15.3587 8.71842 15.3587C8.93248 15.3643 9.13802 15.444 9.29996 15.5843C9.43905 15.7349 9.51055 15.936 9.4979 16.1407H9.49787Z" fill="#006F7B"/>
<path d="M9.90894 16.6194C9.58387 16.5219 9.23296 16.5626 8.93891 16.7321C8.64922 16.9255 8.43985 17.2178 8.3499 17.5542C8.33413 17.619 8.34476 17.6875 8.37956 17.7445C8.41436 17.8014 8.47053 17.842 8.53543 17.8575H8.59306C8.71178 17.8607 8.8164 17.7802 8.84371 17.6646C8.90301 17.461 9.03046 17.284 9.2047 17.1633C9.38519 17.0651 9.598 17.0452 9.79371 17.1081C9.92866 17.1399 10.0638 17.0563 10.0957 16.9214C10.1275 16.7864 10.0439 16.6511 9.90896 16.6193L9.90894 16.6194Z" fill="#006F7B"/>
<path d="M3.91296 15.5287V15.4836C3.93232 15.345 3.83587 15.2171 3.69745 15.1978C3.55904 15.1784 3.43103 15.2749 3.41167 15.4133C3.40965 15.4425 3.40965 15.4718 3.41167 15.501V15.5287C3.41167 15.6671 3.5239 15.7793 3.66232 15.7793C3.80073 15.7793 3.91296 15.6671 3.91296 15.5287V15.5287Z" fill="#006F7B"/>
<path d="M3.82313 14.5716C3.76707 14.6772 3.79336 14.8078 3.88601 14.8833C3.97866 14.959 4.11193 14.9585 4.20412 14.8824C4.24933 14.8467 4.298 14.8156 4.34948 14.7897C4.40374 14.7935 4.45813 14.7935 4.5124 14.7897C4.68942 14.7916 4.86331 14.7429 5.0137 14.6492C5.22373 14.5114 5.3636 14.2892 5.39717 14.0402C5.41933 13.9018 5.32511 13.7716 5.18658 13.7495C5.04817 13.7273 4.91803 13.8215 4.89589 13.96C4.88783 14.07 4.83311 14.1712 4.7455 14.2383C4.62957 14.2978 4.49619 14.3138 4.36952 14.2833C4.18478 14.2474 4.0279 14.126 3.94689 13.956C3.86576 13.7862 3.87001 13.5879 3.9583 13.4216C4.04659 13.2555 4.20839 13.1409 4.39457 13.1128C4.48062 13.1005 4.55414 13.0445 4.58883 12.9649C4.62362 12.8852 4.61456 12.7932 4.56499 12.7218C4.48129 12.6037 4.44358 12.4591 4.45903 12.3152C4.47436 12.1713 4.54172 12.0379 4.64847 11.9402C4.75522 11.8424 4.89408 11.787 5.03876 11.7844H5.06137H5.06126C5.25629 11.7893 5.44227 11.8671 5.58269 12.0025C5.80324 12.2616 5.91065 12.5984 5.88089 12.9374C5.88089 13.0758 5.99312 13.188 6.13154 13.188C6.26996 13.188 6.38219 13.0758 6.38219 12.9374C6.41676 12.4581 6.2506 11.986 5.92352 11.634C5.76764 11.485 5.57596 11.3789 5.36705 11.3257C5.40934 11.2121 5.48521 11.114 5.58469 11.0446C5.68405 10.9752 5.80222 10.9378 5.92351 10.9372C5.97174 10.9369 6.01974 10.9427 6.0664 10.9548H6.09393C6.21914 10.9817 6.3335 11.0452 6.42269 11.137C6.51187 11.2289 6.57196 11.3452 6.59524 11.471C6.62914 11.6053 6.76554 11.6867 6.89983 11.6528C7.0341 11.6189 7.11545 11.4826 7.08155 11.3483C7.01004 11.0312 6.80919 10.7586 6.52754 10.5964C6.641 10.4933 6.79016 10.4385 6.94336 10.4436C7.09655 10.4488 7.24168 10.5134 7.34798 10.6238C7.45428 10.7342 7.51336 10.8817 7.51269 11.035V12.0024C7.40538 11.9185 7.28275 11.8564 7.1517 11.8195C6.94514 11.7651 6.72537 11.7968 6.54264 11.9072C6.43869 11.9827 6.4087 12.1247 6.47337 12.2359C6.53794 12.347 6.67613 12.3913 6.79329 12.3383C7.0916 12.1654 7.40235 12.5714 7.50519 12.7194L7.50507 15.8423C7.2354 15.6306 6.90306 15.5142 6.56023 15.5114C6.4217 15.5114 6.30958 15.6237 6.30958 15.7621C6.30958 15.9005 6.4217 16.0127 6.56023 16.0127C6.94525 16.0305 7.29851 16.2319 7.51012 16.5541V18.0179C7.40505 18.0619 7.2899 18.0762 7.17723 18.0594C7.06466 18.0426 6.95869 17.9953 6.87098 17.9227C6.7668 17.8337 6.61059 17.8449 6.52007 17.9478C6.40537 18.0779 6.23988 18.152 6.06644 18.1507C5.91414 18.1508 5.76735 18.0941 5.65466 17.9916C5.54209 17.8892 5.4717 17.7484 5.45738 17.5968C5.4444 17.4683 5.33586 17.3706 5.20673 17.3713C5.04538 17.3686 4.8914 17.3029 4.77805 17.188C4.66459 17.0732 4.60069 16.9185 4.60014 16.7572V16.7321C4.8199 16.6825 5.01719 16.5619 5.1613 16.3887C5.30543 16.2156 5.38834 15.9998 5.39718 15.7746C5.41039 15.6362 5.30879 15.5133 5.17037 15.5001C5.03195 15.487 4.90909 15.5885 4.89588 15.7269C4.89879 15.858 4.85292 15.9853 4.7672 16.0843C4.6816 16.1835 4.56221 16.2473 4.43219 16.2634C4.3401 16.2314 4.25506 16.182 4.18154 16.118C4.1332 16.0687 4.06663 16.0416 3.99758 16.0429C3.92854 16.0443 3.8632 16.0742 3.81676 16.1253C3.77043 16.1764 3.74727 16.2446 3.75275 16.3134C3.75824 16.3822 3.79181 16.4458 3.84563 16.489C3.92127 16.5601 4.00553 16.6216 4.09628 16.6719V16.7621V16.7622C4.10098 17.0178 4.19262 17.2642 4.35621 17.4606C4.51981 17.6571 4.74562 17.7918 4.99616 17.8425C5.09787 18.1929 5.36508 18.4713 5.71118 18.5874C6.05716 18.7034 6.43818 18.6423 6.73068 18.424C7.05105 18.5951 7.43395 18.6025 7.7608 18.444C8.0871 18.6008 8.46855 18.5934 8.78846 18.424C9.08096 18.6423 9.46198 18.7034 9.80796 18.5874C10.1541 18.4713 10.4213 18.1929 10.523 17.8425C10.774 17.7897 10.9992 17.6524 11.1612 17.4535C11.3231 17.2546 11.412 17.0062 11.4128 16.7497V16.6595V16.6594C11.7833 16.4631 12.0373 16.1012 12.0958 15.6859C12.1544 15.2707 12.0104 14.8526 11.7085 14.5615C12.0067 14.3282 12.1633 13.9573 12.1224 13.5809C12.0816 13.2045 11.8493 12.8757 11.508 12.7117C11.6022 12.4119 11.5635 12.0861 11.4015 11.8167C11.2396 11.5474 10.9699 11.3603 10.6608 11.303C10.604 11.0458 10.4571 10.8172 10.2466 10.6586C10.0361 10.5 9.77583 10.4219 9.51289 10.4383C9.32121 10.1494 9.00354 9.96875 8.6571 9.95196C8.31078 9.93518 7.97711 10.0841 7.75835 10.3531C7.53892 10.085 7.20557 9.93687 6.85959 9.95365C6.51361 9.97044 6.19616 10.1503 6.0038 10.4383H5.92357C5.67259 10.4385 5.42921 10.5246 5.23396 10.6824C5.03881 10.8402 4.90353 11.0602 4.85083 11.3056C4.60062 11.3544 4.37516 11.4884 4.2128 11.685C4.05055 11.8816 3.96148 12.1285 3.96103 12.3834C3.96137 12.4957 3.97905 12.6073 4.01362 12.7143C3.67076 12.8798 3.43848 13.2115 3.40009 13.5903C3.36182 13.9691 3.52296 14.3407 3.82562 14.5715L3.82313 14.5716ZM8.60551 10.446C8.74896 10.4472 8.88715 10.5006 8.994 10.5964C8.71236 10.7587 8.5115 11.0313 8.44011 11.3484C8.40699 11.4825 8.48879 11.6183 8.62306 11.6516C8.64387 11.6542 8.66491 11.6542 8.68572 11.6516C8.80366 11.6551 8.90806 11.5758 8.93637 11.4612C8.95965 11.3352 9.01974 11.219 9.10892 11.1272C9.1981 11.0353 9.31246 10.9719 9.43768 10.9448H9.46521C9.51265 10.9318 9.56144 10.925 9.61056 10.9247C9.73219 10.9274 9.84991 10.9673 9.94815 11.039C10.0463 11.1107 10.12 11.2108 10.1595 11.3258C9.94972 11.3786 9.75714 11.4848 9.60059 11.6341C9.27352 11.9861 9.10734 12.4582 9.14192 12.9375C9.14192 13.0759 9.25404 13.1881 9.39257 13.1881C9.53098 13.1881 9.64322 13.0759 9.64322 12.9375C9.612 12.5992 9.71763 12.2625 9.93637 12.0025C10.0752 11.8683 10.2596 11.7913 10.4528 11.787H10.4703C10.6263 11.7903 10.7748 11.8545 10.884 11.9661C10.9932 12.0776 11.0543 12.2275 11.0543 12.3835C11.0543 12.5047 11.0167 12.623 10.9466 12.7219C10.8958 12.7934 10.886 12.8862 10.9208 12.9666C10.9557 13.0472 11.03 13.1036 11.117 13.1155C11.3002 13.1437 11.4597 13.2557 11.5484 13.4185C11.637 13.5813 11.6446 13.7762 11.5687 13.9454C11.493 14.1146 11.3426 14.2387 11.1621 14.281C11.0346 14.3121 10.9003 14.296 10.7837 14.2358C10.696 14.1689 10.6413 14.0676 10.6333 13.9576C10.6111 13.8192 10.4809 13.7249 10.3425 13.747C10.204 13.7692 10.1098 13.8994 10.132 14.0378C10.1597 14.2882 10.2951 14.5143 10.5029 14.6569C10.6532 14.7505 10.8271 14.7992 11.0042 14.7973C11.0585 14.8011 11.1129 14.8011 11.1671 14.7973C11.3522 14.8923 11.4932 15.0553 11.5607 15.2521C11.6281 15.4489 11.6167 15.6642 11.5289 15.8528C11.4409 16.0414 11.2835 16.1886 11.0893 16.2636C10.9604 16.2482 10.8416 16.1862 10.7552 16.0892C10.6688 15.9923 10.6209 15.867 10.6207 15.7372C10.6068 15.5988 10.4834 15.4977 10.345 15.5116C10.2065 15.5255 10.1055 15.6489 10.1194 15.7873C10.1322 16.0082 10.2163 16.219 10.3591 16.3881C10.502 16.5571 10.6958 16.6752 10.9114 16.7248V16.7499C10.9108 16.9108 10.8473 17.0651 10.7344 17.1799C10.6215 17.2946 10.4683 17.3606 10.3074 17.364C10.1782 17.3633 10.0696 17.461 10.0568 17.5896C10.042 17.7486 9.96568 17.8955 9.84405 17.999C9.72241 18.1025 9.5652 18.1543 9.40585 18.1434C9.24651 18.1324 9.0978 18.0595 8.9915 17.9405C8.9012 17.8392 8.74689 17.8281 8.64305 17.9154C8.5551 17.9876 8.44925 18.0346 8.33669 18.0514C8.22412 18.0682 8.10909 18.0541 8.00391 18.0106V16.5518C8.21685 16.2288 8.57235 16.0283 8.95884 16.013C9.09737 16.013 9.20949 15.9007 9.20949 15.7623C9.20949 15.6239 9.09737 15.5117 8.95884 15.5117C8.61544 15.5132 8.2822 15.6287 8.01142 15.84V12.7193C8.12454 12.5339 8.29284 12.3884 8.49269 12.3033C8.57102 12.2817 8.65494 12.2945 8.72331 12.3384C8.84047 12.3914 8.97855 12.347 9.04322 12.2359C9.10779 12.1248 9.07791 11.9828 8.97396 11.9073C8.79056 11.7958 8.56968 11.7642 8.36232 11.8196C8.23431 11.8558 8.11436 11.9162 8.00895 11.9975V11.0375C8.01029 10.8802 8.07373 10.7297 8.18541 10.6189C8.29719 10.5081 8.44814 10.446 8.60547 10.446L8.60551 10.446Z" fill="#006F7B"/>
<path d="M5.59546 14.3133C5.45693 14.3133 5.34481 14.4256 5.34481 14.564C5.34481 14.7024 5.45693 14.8146 5.59546 14.8146C5.80191 14.8168 6.00309 14.7491 6.16648 14.6226C6.32974 14.4962 6.44555 14.3183 6.49525 14.1179C6.80096 14.0346 7.07879 13.871 7.2999 13.6441C7.39334 13.5417 7.38595 13.3828 7.28357 13.2894C7.18118 13.1959 7.02229 13.2033 6.92885 13.3057C6.72318 13.5267 6.43371 13.6505 6.13181 13.6465C5.82353 13.6039 5.53776 13.3257 5.28207 12.8219L5.28218 12.822C5.21986 12.6981 5.06891 12.6481 4.94502 12.7104C4.82114 12.7727 4.77114 12.9237 4.83346 13.0476C5.14679 13.6566 5.51526 14.0075 5.94887 14.1203C5.87501 14.2442 5.73962 14.3182 5.59549 14.3133L5.59546 14.3133Z" fill="#006F7B"/>
<path d="M6.80367 15.3587C6.9422 15.3587 7.05432 15.2465 7.05432 15.1081C7.05432 14.9695 6.9422 14.8574 6.80367 14.8574C6.456 14.8642 6.12245 14.9958 5.86375 15.2284C5.62978 15.4729 5.50657 15.8027 5.52293 16.1407C5.52293 16.2792 5.63516 16.3913 5.77358 16.3913C5.91199 16.3913 6.02423 16.2792 6.02423 16.1407C6.01013 15.9297 6.08756 15.7228 6.23683 15.5731C6.3861 15.4234 6.59278 15.3452 6.8037 15.3587L6.80367 15.3587Z" fill="#006F7B"/>
<path d="M5.60055 16.6196C5.46627 16.6535 5.38492 16.7898 5.41882 16.924C5.45273 17.0583 5.58913 17.1397 5.72341 17.1058C5.9246 17.041 6.14393 17.066 6.32543 17.1745C6.50681 17.283 6.63271 17.4644 6.67087 17.6723C6.69918 17.7869 6.80357 17.8662 6.92151 17.8627H6.97914C7.11185 17.825 7.18906 17.6873 7.15213 17.5545C7.06217 17.218 6.85282 16.9257 6.56312 16.7324C6.2712 16.5647 5.92341 16.5239 5.60057 16.6196L5.60055 16.6196Z" fill="#006F7B"/>
<path d="M18.0093 3.36242C17.8709 3.37071 17.7654 3.48965 17.7736 3.62818C17.7819 3.76659 17.9009 3.872 18.0394 3.86372H18.4303V7.89674C18.0598 7.87962 17.6888 7.90737 17.325 7.97943C16.577 8.12892 15.8767 8.45847 15.2847 8.9394V8.27517C15.8734 7.69532 16.6179 7.2991 17.4277 7.13473C17.5666 7.10485 17.7072 7.08393 17.8488 7.07206C17.9872 7.06166 18.091 6.94103 18.0806 6.80262C18.0702 6.6642 17.9496 6.56036 17.8112 6.57077C17.6495 6.58397 17.4887 6.60736 17.3299 6.64093C16.5815 6.79053 15.8811 7.12097 15.2897 7.60348V6.40787C15.8373 5.88239 16.5117 5.50765 17.2472 5.32011C17.4474 5.26998 17.6509 5.23484 17.8563 5.21481C17.9948 5.20228 18.0968 5.07998 18.0844 4.94156C18.0719 4.80314 17.9496 4.70098 17.8112 4.71351C17.5813 4.736 17.3535 4.77528 17.1294 4.83134C16.456 4.99717 15.826 5.30568 15.2822 5.73614V5.06689C15.6457 4.7218 16.0641 4.4397 16.5203 4.23225C16.6375 4.17048 16.6864 4.02826 16.632 3.90752C16.5776 3.78678 16.4387 3.72915 16.3148 3.77604C15.8446 3.99178 15.4109 4.27923 15.029 4.62825C14.5338 4.18367 13.9541 3.8435 13.3245 3.62823C12.6948 3.41283 12.0282 3.32679 11.3645 3.37501C11.232 3.38295 11.1287 3.49295 11.1289 3.62566V8.16742C11.1281 8.24049 11.1594 8.3102 11.2143 8.35832C11.2691 8.40643 11.3423 8.42825 11.4146 8.41807C11.8417 8.35496 12.2764 8.36425 12.7005 8.44559C13.5296 8.61926 14.2824 9.05096 14.8511 9.67882C14.8737 9.70321 14.901 9.72279 14.9313 9.73644C14.9614 9.74931 14.9937 9.75614 15.0265 9.75658C15.0574 9.75625 15.0879 9.75032 15.1167 9.73902C15.1438 9.72671 15.1683 9.7097 15.1894 9.68889C15.7956 9.06685 16.5759 8.64298 17.4277 8.47322C17.8336 8.39221 18.2493 8.37274 18.6609 8.4156C18.7317 8.42265 18.802 8.39937 18.8546 8.35159C18.9071 8.30381 18.937 8.236 18.9367 8.16495V3.62319C18.9371 3.49216 18.8366 3.38295 18.706 3.37254C18.4743 3.35251 18.2414 3.34915 18.0093 3.36247L18.0093 3.36242ZM11.9937 7.87411C11.8751 7.87411 11.7548 7.87914 11.6327 7.8891V3.8664C12.7987 3.84279 13.9278 4.27437 14.7809 5.06951V5.75635V5.75624C14.3758 5.43856 13.9244 5.18502 13.4423 5.00429C13.0618 4.86767 12.6663 4.77681 12.2643 4.73361C12.1259 4.7184 12.0013 4.81821 11.9861 4.95674C11.9709 5.09515 12.0707 5.2197 12.2091 5.23491C13.1719 5.33663 14.075 5.7503 14.7809 6.41296V7.58351C14.2132 7.09731 13.5307 6.7643 12.7981 6.61594C12.6187 6.58036 12.437 6.55698 12.2542 6.54579C12.1158 6.53616 11.9957 6.64045 11.9861 6.77887C11.9764 6.91739 12.0808 7.03746 12.2192 7.04708C12.3808 7.05704 12.5416 7.07797 12.7005 7.10975C13.4967 7.27636 14.2228 7.68323 14.7809 8.27528V8.91946C14.2124 8.43306 13.5291 8.10005 12.7957 7.95201C12.5306 7.89998 12.2612 7.87402 11.991 7.87425L11.9937 7.87411Z" fill="#006F7B"/>
<path d="M9.74546 6.78888C9.81708 6.78944 9.88544 6.75934 9.93345 6.70619L10.8608 5.66845C10.9454 5.57345 10.9454 5.43011 10.8608 5.3351L9.93345 4.29735C9.89037 4.24375 9.82726 4.21018 9.75866 4.20448C9.69018 4.19877 9.62237 4.22149 9.57101 4.26725C9.51976 4.31302 9.48955 4.37792 9.48742 4.44662C9.4853 4.51533 9.51159 4.58191 9.55993 4.6308L10.3369 5.50057L9.55993 6.37034V6.37023C9.49369 6.44374 9.47679 6.54926 9.51685 6.63967C9.55702 6.7302 9.64654 6.78861 9.74546 6.78883L9.74546 6.78888Z" fill="#006F7B"/>
<path d="M13.29 14.348C13.29 14.4144 13.3164 14.4782 13.3634 14.5252C13.4104 14.5722 13.4742 14.5986 13.5407 14.5986H15.5259H15.5257C15.5922 14.5986 15.656 14.5722 15.703 14.5252C15.75 14.4782 15.7764 14.4144 15.7764 14.348V10.4631C15.7764 10.3246 15.6643 10.2124 15.5257 10.2124C15.3873 10.2124 15.2751 10.3246 15.2751 10.4631V14.0976H13.5407C13.4022 14.0976 13.29 14.2098 13.29 14.3483L13.29 14.348Z" fill="#006F7B"/>
<path d="M13.2946 13.1684L12.3672 14.2061C12.2826 14.3011 12.2826 14.4444 12.3672 14.5394L13.2946 15.5772V15.5771C13.3873 15.6802 13.5461 15.6886 13.6493 15.5959C13.7524 15.5032 13.7608 15.3443 13.6681 15.2413L12.8911 14.3715L13.6681 13.5068C13.7165 13.458 13.7427 13.3914 13.7406 13.3227C13.7386 13.2539 13.7082 13.1891 13.657 13.1433C13.6057 13.0974 13.5378 13.0748 13.4693 13.0804C13.4009 13.0861 13.3376 13.1198 13.2946 13.1734L13.2946 13.1684Z" fill="#006F7B"/>
<path d="M9.99721 5.50065C9.99721 5.43418 9.9708 5.37051 9.9238 5.3234C9.87681 5.27641 9.81303 5.25 9.74656 5.25H7.76139C7.62298 5.25 7.51074 5.36223 7.51074 5.50065V9.38557C7.51074 9.52409 7.62298 9.63621 7.76139 9.63621C7.89981 9.63621 8.01204 9.52409 8.01204 9.38557V5.75101H9.74656C9.81303 5.75101 9.87681 5.7246 9.9238 5.67761C9.9708 5.63061 9.99721 5.56683 9.99721 5.50036V5.50065Z" fill="#006F7B"/>
</svg>
