<svg width="24" height="18" viewBox="0 0 24 18" fill="none" xmlns="http://www.w3.org/2000/svg">
<path d="M1.36339 0.949951C0.833702 0.949951 0.404297 1.37936 0.404297 1.90905C0.404297 2.43874 0.833702 2.86814 1.36339 2.86814H22.6362C23.1659 2.86814 23.5953 2.43875 23.5953 1.90905C23.5953 1.37934 23.1659 0.949951 22.6362 0.949951H1.36339Z" fill="#006F7B" stroke="#006F7B" stroke-width="0.5"/>
<path d="M1.36339 8.04102C0.833702 8.04102 0.404297 8.47042 0.404297 9.00011C0.404297 9.5298 0.833702 9.95921 1.36339 9.95921H22.6362C23.1659 9.95921 23.5953 9.52981 23.5953 9.00011C23.5953 8.47041 23.1659 8.04102 22.6362 8.04102H1.36339Z" fill="#006F7B" stroke="#006F7B" stroke-width="0.5"/>
<path d="M1.36339 15.1318C0.833689 15.1318 0.404297 15.5613 0.404297 16.0909C0.404297 16.6206 0.833689 17.05 1.36339 17.05H22.6362C23.1659 17.05 23.5953 16.6206 23.5953 16.0909C23.5953 15.5613 23.1659 15.1318 22.6362 15.1318H1.36339Z" fill="#006F7B" stroke="#006F7B" stroke-width="0.5"/>
</svg>
