<svg width="24" height="24" viewBox="0 0 24 24" fill="none" xmlns="http://www.w3.org/2000/svg">
<mask id="path-1-outside-1_3902_24785" maskUnits="userSpaceOnUse" x="1.93359" y="0.45459" width="20" height="23" fill="black">
<rect fill="white" x="1.93359" y="0.45459" width="20" height="23"/>
<path fill-rule="evenodd" clip-rule="evenodd" d="M10.1077 2.94703C10.2907 2.86612 10.4797 2.79944 10.673 2.74756C11.1733 2.58244 11.6983 2.50471 12.225 2.51777C12.9689 2.5421 13.6988 2.72685 14.3647 3.05937C15.0306 3.3919 15.6168 3.86434 16.0833 4.44439C17.1677 5.76056 17.7524 7.4175 17.7341 9.12279L17.7651 9.21051C17.7547 9.35225 17.7525 9.49789 17.7503 9.63961C17.7497 9.67789 17.7491 9.71589 17.7484 9.75344C17.7039 10.9726 17.7998 12.1928 18.0342 13.39C18.1711 14.0717 18.4306 14.7228 18.8001 15.3119C18.9279 15.5108 19.0804 15.6926 19.2541 15.8531C19.2869 15.8923 19.3249 15.9268 19.367 15.9557C19.4011 15.9823 19.4333 16.0113 19.4633 16.0423C19.5611 16.1153 19.6522 16.1969 19.7356 16.286C19.8657 16.4143 19.9656 16.57 20.028 16.7418C20.0932 16.94 20.1159 17.1498 20.0948 17.3574C20.0736 17.565 20.009 17.7659 19.9052 17.9469C19.7989 18.1338 19.637 18.2829 19.442 18.3734L19.3737 18.3975C19.2391 18.4412 19.0979 18.4614 18.9564 18.4571L5.20529 18.3443C5.0357 18.3446 4.86775 18.3111 4.71118 18.246C4.55461 18.1808 4.41253 18.0852 4.29317 17.9647C4.17643 17.8501 4.08394 17.7132 4.02121 17.5621C3.95848 17.411 3.92679 17.2488 3.92802 17.0852C3.92951 16.9336 3.94993 16.7828 3.98883 16.6363C4.02166 16.5362 4.06961 16.4416 4.13103 16.356C4.22517 16.2256 4.33386 16.1063 4.45498 16.0005C4.52082 15.9516 4.58222 15.8969 4.63845 15.8372C4.92757 15.5447 5.19418 15.2308 5.43601 14.8981C5.72041 14.5195 5.94155 14.0972 6.09083 13.6478C6.49825 12.1834 6.68331 10.6661 6.63981 9.14667C6.65526 7.81269 7.008 6.50431 7.66517 5.34334C8.22632 4.32202 9.07583 3.48858 10.1077 2.94703ZM12.2554 1.45483C11.5998 1.44875 10.948 1.55636 10.3291 1.77289L9.64679 2.01364C8.42953 2.65738 7.43256 3.65042 6.78401 4.86513C6.052 6.16654 5.66045 7.63173 5.64567 9.12481C5.69322 10.5433 5.52848 11.9609 5.15691 13.3306C5.0373 13.6751 4.87265 14.0023 4.66723 14.3035C4.44396 14.5934 4.19962 14.8665 3.93619 15.1205C3.71771 15.3159 3.51382 15.5271 3.32613 15.7522C3.20362 15.9267 3.10884 16.1192 3.04517 16.3227C2.96882 16.5621 2.93125 16.8121 2.93389 17.0634C2.92899 17.3607 2.98523 17.6558 3.09912 17.9305C3.213 18.2052 3.38212 18.4535 3.59596 18.6601C4.0197 19.0819 4.59191 19.3207 5.18974 19.3253L18.9408 19.438C19.1979 19.437 19.4532 19.3951 19.697 19.3137L19.8042 19.2759C20.194 19.1011 20.5201 18.8099 20.7377 18.4423C20.9493 18.0732 21.0625 17.6558 21.0663 17.2303C21.0662 16.959 21.0228 16.6894 20.9379 16.4317C20.8271 16.1304 20.6553 15.8552 20.4334 15.6233C20.3413 15.5281 20.2434 15.453 20.1638 15.392C20.0795 15.3274 20.0159 15.2787 20.0017 15.2385L19.8888 15.1359C19.773 15.0274 19.671 14.9051 19.585 14.7718C19.2923 14.2913 19.0841 13.7643 18.9693 13.2135C18.7355 12.089 18.6321 10.9413 18.6611 9.79307C18.6636 9.73199 18.6644 9.67008 18.6652 9.60777C18.6665 9.49985 18.6678 9.39076 18.6784 9.28281L18.7466 9.07241C18.7641 7.13319 18.0994 5.24952 16.8688 3.75073C16.3135 3.05502 15.6129 2.48907 14.8161 2.09249C14.0192 1.69591 13.1452 1.47828 12.2554 1.45483ZM10.9431 20.4014L9.92317 20.3996C9.93963 20.5094 9.96669 20.6173 10.004 20.7219C10.2048 21.2788 10.5794 21.7564 11.0724 22.0841C11.5655 22.4118 12.1509 22.5723 12.7421 22.5418C13.3334 22.5113 13.8991 22.2915 14.3559 21.9148C14.8126 21.5381 15.1361 21.0245 15.2785 20.4499L14.2454 20.4418C14.1137 20.7747 13.884 21.0598 13.5866 21.2593C13.2893 21.4588 12.9384 21.5633 12.5804 21.5589C12.2223 21.5545 11.8741 21.4415 11.5817 21.2348C11.2893 21.0281 11.0667 20.7375 10.9431 20.4014Z"/>
</mask>
<path fill-rule="evenodd" clip-rule="evenodd" d="M10.1077 2.94703C10.2907 2.86612 10.4797 2.79944 10.673 2.74756C11.1733 2.58244 11.6983 2.50471 12.225 2.51777C12.9689 2.5421 13.6988 2.72685 14.3647 3.05937C15.0306 3.3919 15.6168 3.86434 16.0833 4.44439C17.1677 5.76056 17.7524 7.4175 17.7341 9.12279L17.7651 9.21051C17.7547 9.35225 17.7525 9.49789 17.7503 9.63961C17.7497 9.67789 17.7491 9.71589 17.7484 9.75344C17.7039 10.9726 17.7998 12.1928 18.0342 13.39C18.1711 14.0717 18.4306 14.7228 18.8001 15.3119C18.9279 15.5108 19.0804 15.6926 19.2541 15.8531C19.2869 15.8923 19.3249 15.9268 19.367 15.9557C19.4011 15.9823 19.4333 16.0113 19.4633 16.0423C19.5611 16.1153 19.6522 16.1969 19.7356 16.286C19.8657 16.4143 19.9656 16.57 20.028 16.7418C20.0932 16.94 20.1159 17.1498 20.0948 17.3574C20.0736 17.565 20.009 17.7659 19.9052 17.9469C19.7989 18.1338 19.637 18.2829 19.442 18.3734L19.3737 18.3975C19.2391 18.4412 19.0979 18.4614 18.9564 18.4571L5.20529 18.3443C5.0357 18.3446 4.86775 18.3111 4.71118 18.246C4.55461 18.1808 4.41253 18.0852 4.29317 17.9647C4.17643 17.8501 4.08394 17.7132 4.02121 17.5621C3.95848 17.411 3.92679 17.2488 3.92802 17.0852C3.92951 16.9336 3.94993 16.7828 3.98883 16.6363C4.02166 16.5362 4.06961 16.4416 4.13103 16.356C4.22517 16.2256 4.33386 16.1063 4.45498 16.0005C4.52082 15.9516 4.58222 15.8969 4.63845 15.8372C4.92757 15.5447 5.19418 15.2308 5.43601 14.8981C5.72041 14.5195 5.94155 14.0972 6.09083 13.6478C6.49825 12.1834 6.68331 10.6661 6.63981 9.14667C6.65526 7.81269 7.008 6.50431 7.66517 5.34334C8.22632 4.32202 9.07583 3.48858 10.1077 2.94703ZM12.2554 1.45483C11.5998 1.44875 10.948 1.55636 10.3291 1.77289L9.64679 2.01364C8.42953 2.65738 7.43256 3.65042 6.78401 4.86513C6.052 6.16654 5.66045 7.63173 5.64567 9.12481C5.69322 10.5433 5.52848 11.9609 5.15691 13.3306C5.0373 13.6751 4.87265 14.0023 4.66723 14.3035C4.44396 14.5934 4.19962 14.8665 3.93619 15.1205C3.71771 15.3159 3.51382 15.5271 3.32613 15.7522C3.20362 15.9267 3.10884 16.1192 3.04517 16.3227C2.96882 16.5621 2.93125 16.8121 2.93389 17.0634C2.92899 17.3607 2.98523 17.6558 3.09912 17.9305C3.213 18.2052 3.38212 18.4535 3.59596 18.6601C4.0197 19.0819 4.59191 19.3207 5.18974 19.3253L18.9408 19.438C19.1979 19.437 19.4532 19.3951 19.697 19.3137L19.8042 19.2759C20.194 19.1011 20.5201 18.8099 20.7377 18.4423C20.9493 18.0732 21.0625 17.6558 21.0663 17.2303C21.0662 16.959 21.0228 16.6894 20.9379 16.4317C20.8271 16.1304 20.6553 15.8552 20.4334 15.6233C20.3413 15.5281 20.2434 15.453 20.1638 15.392C20.0795 15.3274 20.0159 15.2787 20.0017 15.2385L19.8888 15.1359C19.773 15.0274 19.671 14.9051 19.585 14.7718C19.2923 14.2913 19.0841 13.7643 18.9693 13.2135C18.7355 12.089 18.6321 10.9413 18.6611 9.79307C18.6636 9.73199 18.6644 9.67008 18.6652 9.60777C18.6665 9.49985 18.6678 9.39076 18.6784 9.28281L18.7466 9.07241C18.7641 7.13319 18.0994 5.24952 16.8688 3.75073C16.3135 3.05502 15.6129 2.48907 14.8161 2.09249C14.0192 1.69591 13.1452 1.47828 12.2554 1.45483ZM10.9431 20.4014L9.92317 20.3996C9.93963 20.5094 9.96669 20.6173 10.004 20.7219C10.2048 21.2788 10.5794 21.7564 11.0724 22.0841C11.5655 22.4118 12.1509 22.5723 12.7421 22.5418C13.3334 22.5113 13.8991 22.2915 14.3559 21.9148C14.8126 21.5381 15.1361 21.0245 15.2785 20.4499L14.2454 20.4418C14.1137 20.7747 13.884 21.0598 13.5866 21.2593C13.2893 21.4588 12.9384 21.5633 12.5804 21.5589C12.2223 21.5545 11.8741 21.4415 11.5817 21.2348C11.2893 21.0281 11.0667 20.7375 10.9431 20.4014Z" fill="#006F7B"/>
<path d="M10.673 2.74756L10.7508 3.0373L10.7589 3.0351L10.767 3.03244L10.673 2.74756ZM10.1077 2.94703L9.98639 2.67265L9.97718 2.67672L9.96826 2.6814L10.1077 2.94703ZM12.225 2.51777L12.2348 2.21792L12.2324 2.21786L12.225 2.51777ZM14.3647 3.05937L14.2307 3.32777V3.32777L14.3647 3.05937ZM16.0833 4.44439L15.8495 4.6324L15.8518 4.63516L16.0833 4.44439ZM17.7341 9.12279L17.4341 9.11957L17.4336 9.1726L17.4512 9.22262L17.7341 9.12279ZM17.7651 9.21051L18.0643 9.23245L18.0689 9.16986L18.048 9.11069L17.7651 9.21051ZM17.7503 9.63961L17.4503 9.63504V9.63504L17.7503 9.63961ZM17.7484 9.75344L18.0482 9.76439L18.0483 9.75931L17.7484 9.75344ZM18.0342 13.39L17.7398 13.4477L17.7401 13.4491L18.0342 13.39ZM18.8001 15.3119L18.5459 15.4713L18.5477 15.474L18.8001 15.3119ZM19.2541 15.8531L19.4843 15.6607L19.4719 15.6459L19.4577 15.6327L19.2541 15.8531ZM19.367 15.9557L19.5517 15.7193L19.5443 15.7135L19.5365 15.7082L19.367 15.9557ZM19.4633 16.0423L19.2479 16.2511L19.2646 16.2683L19.2838 16.2827L19.4633 16.0423ZM19.7356 16.286L19.5164 16.4912L19.525 16.4996L19.7356 16.286ZM20.028 16.7418L20.3131 16.6481L20.31 16.6394L20.028 16.7418ZM20.0948 17.3574L20.3932 17.3878L20.3932 17.3878L20.0948 17.3574ZM19.9052 17.9469L19.645 17.7977L19.6445 17.7986L19.9052 17.9469ZM19.442 18.3734L19.5418 18.6563L19.5553 18.6516L19.5683 18.6455L19.442 18.3734ZM19.3737 18.3975L19.4664 18.6829L19.4736 18.6804L19.3737 18.3975ZM18.9564 18.4571L18.9655 18.1572L18.9588 18.1571L18.9564 18.4571ZM5.20529 18.3443L5.20775 18.0443L5.2049 18.0443L5.20529 18.3443ZM4.71118 18.246L4.82645 17.969L4.82645 17.969L4.71118 18.246ZM4.29317 17.9647L4.5063 17.7536L4.50334 17.7507L4.29317 17.9647ZM4.02121 17.5621L3.74414 17.6771H3.74414L4.02121 17.5621ZM3.92802 17.0852L3.62804 17.0823L3.62803 17.083L3.92802 17.0852ZM3.98883 16.6363L3.70375 16.5429L3.70107 16.551L3.69887 16.5594L3.98883 16.6363ZM4.13103 16.356L3.8878 16.1804L3.88723 16.1812L4.13103 16.356ZM4.45498 16.0005L4.27597 15.7598L4.2665 15.7668L4.25762 15.7746L4.45498 16.0005ZM4.63845 15.8372L4.42504 15.6262L4.41999 15.6316L4.63845 15.8372ZM5.43601 14.8981L5.1961 14.7179L5.19335 14.7217L5.43601 14.8981ZM6.09083 13.6478L6.37553 13.7423L6.37786 13.7353L6.37985 13.7282L6.09083 13.6478ZM6.63981 9.14667L6.33958 9.14319L6.33993 9.15525L6.63981 9.14667ZM7.66517 5.34334L7.92627 5.49113L7.9281 5.4878L7.66517 5.34334ZM10.3291 1.77289L10.23 1.48972L10.2292 1.48999L10.3291 1.77289ZM12.2554 1.45483L12.2633 1.15489L12.2582 1.15485L12.2554 1.45483ZM9.64679 2.01364L9.54697 1.73073L9.5261 1.7381L9.50655 1.74844L9.64679 2.01364ZM6.78401 4.86513L7.04555 5.01224L7.04865 5.00642L6.78401 4.86513ZM5.64567 9.12481L5.3454 9.12184L5.34584 9.13486L5.64567 9.12481ZM5.15691 13.3306L5.44031 13.4291L5.44372 13.4192L5.44645 13.4092L5.15691 13.3306ZM4.66723 14.3035L4.90491 14.4866L4.91021 14.4797L4.9151 14.4725L4.66723 14.3035ZM3.93619 15.1205L4.13634 15.3442L4.1444 15.3364L3.93619 15.1205ZM3.32613 15.7522L3.09569 15.5601L3.08773 15.5697L3.0806 15.5798L3.32613 15.7522ZM3.04517 16.3227L3.33099 16.4138L3.33148 16.4122L3.04517 16.3227ZM2.93389 17.0634L3.23396 17.0683L3.23387 17.0602L2.93389 17.0634ZM3.09912 17.9305L2.82199 18.0454H2.82199L3.09912 17.9305ZM3.59596 18.6601L3.80762 18.4475L3.80441 18.4444L3.59596 18.6601ZM5.18974 19.3253L5.1922 19.0253L5.19205 19.0253L5.18974 19.3253ZM18.9408 19.438L18.9383 19.7381L18.942 19.738L18.9408 19.438ZM19.697 19.3137L19.792 19.5983L19.7968 19.5966L19.697 19.3137ZM19.8042 19.2759L19.9041 19.5588L19.9157 19.5546L19.9269 19.5496L19.8042 19.2759ZM20.7377 18.4423L20.9959 18.5951L20.9979 18.5915L20.7377 18.4423ZM21.0663 17.2303L21.3663 17.233L21.3663 17.2303L21.0663 17.2303ZM20.9379 16.4317L21.223 16.3377L21.2194 16.3281L20.9379 16.4317ZM20.4334 15.6233L20.6502 15.4159L20.649 15.4147L20.4334 15.6233ZM20.1638 15.392L20.3463 15.1539L20.3463 15.1539L20.1638 15.392ZM20.0017 15.2385L20.2846 15.1387L20.2595 15.0674L20.2035 15.0165L20.0017 15.2385ZM19.8888 15.1359L19.6836 15.3548L19.687 15.3579L19.8888 15.1359ZM19.585 14.7718L19.3287 14.9279L19.3329 14.9345L19.585 14.7718ZM18.9693 13.2135L18.6756 13.2746L18.6756 13.2747L18.9693 13.2135ZM18.6611 9.79307L18.3613 9.78069L18.3612 9.78548L18.6611 9.79307ZM18.6652 9.60777L18.3652 9.6041V9.60411L18.6652 9.60777ZM18.6784 9.28281L18.393 9.19026L18.3829 9.22123L18.3798 9.25364L18.6784 9.28281ZM18.7466 9.07241L19.032 9.16496L19.0462 9.12116L19.0466 9.07512L18.7466 9.07241ZM16.8688 3.75073L16.6343 3.93788L16.6369 3.9411L16.8688 3.75073ZM14.8161 2.09249L14.9497 1.82391V1.82391L14.8161 2.09249ZM9.92317 20.3996L9.9237 20.0996L9.57476 20.099L9.62649 20.4441L9.92317 20.3996ZM10.9431 20.4014L11.2247 20.2979L11.1526 20.1018L10.9436 20.1014L10.9431 20.4014ZM10.004 20.7219L9.72143 20.8227L9.72177 20.8236L10.004 20.7219ZM12.7421 22.5418L12.7576 22.8414H12.7576L12.7421 22.5418ZM14.3559 21.9148L14.5467 22.1462H14.5467L14.3559 21.9148ZM15.2785 20.4499L15.5697 20.5221L15.6613 20.1529L15.2809 20.1499L15.2785 20.4499ZM14.2454 20.4418L14.2478 20.1418L14.0421 20.1402L13.9665 20.3314L14.2454 20.4418ZM13.5866 21.2593L13.4195 21.0102L13.4195 21.0102L13.5866 21.2593ZM12.5804 21.5589L12.584 21.2589H12.584L12.5804 21.5589ZM11.5817 21.2348L11.4085 21.4798H11.4085L11.5817 21.2348ZM10.5952 2.45781C10.3871 2.51368 10.1835 2.58551 9.98639 2.67265L10.229 3.22142C10.3979 3.14674 10.5724 3.08519 10.7508 3.0373L10.5952 2.45781ZM12.2324 2.21786C11.6713 2.20395 11.112 2.28676 10.579 2.46267L10.767 3.03244C11.2346 2.87812 11.7253 2.80547 12.2175 2.81767L12.2324 2.21786ZM14.4987 2.79098C13.7942 2.43915 13.0219 2.24368 12.2348 2.21793L12.2152 2.81761C12.9159 2.84053 13.6034 3.01455 14.2307 3.32777L14.4987 2.79098ZM16.3171 4.25639C15.8236 3.64267 15.2033 3.1428 14.4987 2.79098L14.2307 3.32777C14.8579 3.64099 15.4101 4.08601 15.8495 4.63239L16.3171 4.25639ZM18.0341 9.12601C18.0532 7.35001 17.4442 5.62436 16.3148 4.25362L15.8518 4.63516C16.8912 5.89675 17.4517 7.48499 17.4341 9.11957L18.0341 9.12601ZM18.048 9.11069L18.017 9.02296L17.4512 9.22262L17.4822 9.31034L18.048 9.11069ZM18.0503 9.64418C18.0524 9.5009 18.0546 9.36403 18.0643 9.23245L17.4659 9.18857C17.4547 9.34046 17.4525 9.49487 17.4503 9.63504L18.0503 9.64418ZM18.0483 9.75931C18.0491 9.72099 18.0497 9.68235 18.0503 9.64417L17.4503 9.63504C17.4497 9.67344 17.4492 9.71078 17.4485 9.74758L18.0483 9.75931ZM18.3286 13.3324C18.0986 12.1577 18.0045 10.9605 18.0482 9.76438L17.4486 9.7425C17.4033 10.9846 17.501 12.2279 17.7398 13.4477L18.3286 13.3324ZM19.0542 15.1524C18.7041 14.5942 18.4581 13.977 18.3284 13.331L17.7401 13.4491C17.8842 14.1664 18.1572 14.8515 18.5459 15.4713L19.0542 15.1524ZM19.4577 15.6327C19.3027 15.4895 19.1665 15.3272 19.0525 15.1497L18.5477 15.474C18.6892 15.6943 18.8582 15.8957 19.0505 16.0734L19.4577 15.6327ZM19.5365 15.7082C19.517 15.6949 19.4995 15.6789 19.4843 15.6607L19.0239 16.0454C19.0742 16.1057 19.1327 16.1588 19.1975 16.2032L19.5365 15.7082ZM19.6788 15.8335C19.6391 15.7926 19.5967 15.7544 19.5517 15.7193L19.1823 16.1921C19.2055 16.2102 19.2274 16.2299 19.2479 16.2511L19.6788 15.8335ZM19.9547 16.081C19.8592 15.979 19.7548 15.8856 19.6428 15.8019L19.2838 16.2827C19.3674 16.3451 19.4453 16.4148 19.5166 16.491L19.9547 16.081ZM20.31 16.6394C20.2324 16.4257 20.1082 16.232 19.9463 16.0724L19.525 16.4996C19.6233 16.5966 19.6989 16.7143 19.746 16.8442L20.31 16.6394ZM20.3932 17.3878C20.4186 17.1383 20.3913 16.8863 20.313 16.6481L19.743 16.8355C19.795 16.9938 19.8132 17.1612 19.7963 17.327L20.3932 17.3878ZM20.1655 18.0961C20.2902 17.8786 20.3678 17.6373 20.3932 17.3878L19.7963 17.327C19.7794 17.4928 19.7279 17.6531 19.645 17.7977L20.1655 18.0961ZM19.5683 18.6455C19.8199 18.5287 20.0288 18.3364 20.166 18.0952L19.6445 17.7986C19.569 17.9312 19.4541 18.0371 19.3157 18.1013L19.5683 18.6455ZM19.4736 18.6804L19.5418 18.6563L19.3421 18.0905L19.2739 18.1146L19.4736 18.6804ZM18.9472 18.757C19.1233 18.7623 19.2989 18.7372 19.4664 18.6828L19.2811 18.1122C19.1792 18.1452 19.0725 18.1605 18.9655 18.1572L18.9472 18.757ZM5.20283 18.6443L18.9539 18.7571L18.9588 18.1571L5.20775 18.0443L5.20283 18.6443ZM4.59591 18.5229C4.78914 18.6033 4.9964 18.6446 5.20569 18.6443L5.2049 18.0443C5.075 18.0445 4.94637 18.0189 4.82645 17.969L4.59591 18.5229ZM4.08005 18.1759C4.22735 18.3245 4.40269 18.4425 4.59591 18.5229L4.82645 17.969C4.70653 17.9191 4.5977 17.8459 4.50628 17.7536L4.08005 18.1759ZM3.74414 17.6771C3.8223 17.8654 3.93754 18.036 4.08299 18.1788L4.50334 17.7507C4.41531 17.6642 4.34558 17.561 4.29828 17.4471L3.74414 17.6771ZM3.62803 17.083C3.62649 17.2868 3.66598 17.4889 3.74414 17.6771L4.29828 17.4471C4.25098 17.3331 4.22708 17.2109 4.22801 17.0875L3.62803 17.083ZM3.69887 16.5594C3.65356 16.73 3.62977 16.9057 3.62804 17.0823L4.22801 17.0882C4.22925 16.9616 4.24631 16.8357 4.27879 16.7133L3.69887 16.5594ZM3.88723 16.1812C3.80799 16.2917 3.74611 16.4137 3.70375 16.5429L4.2739 16.7298C4.2972 16.6587 4.33124 16.5916 4.37483 16.5308L3.88723 16.1812ZM4.25762 15.7746C4.11935 15.8954 3.99528 16.0315 3.8878 16.1804L4.37426 16.5316C4.45507 16.4197 4.54837 16.3173 4.65234 16.2265L4.25762 15.7746ZM4.41999 15.6316C4.37585 15.6785 4.32765 15.7214 4.27597 15.7598L4.63399 16.2413C4.71399 16.1818 4.78859 16.1154 4.85691 16.0428L4.41999 15.6316ZM5.19335 14.7217C4.96041 15.0422 4.7036 15.3445 4.4251 15.6263L4.85181 16.0481C5.15155 15.7448 5.42796 15.4194 5.67866 15.0745L5.19335 14.7217ZM5.80612 13.5532C5.66706 13.9719 5.46106 14.3652 5.19613 14.718L5.67589 15.0783C5.97975 14.6737 6.21603 14.2225 6.37553 13.7423L5.80612 13.5532ZM6.33993 9.15525C6.38257 10.6446 6.20117 12.1319 5.8018 13.5673L6.37985 13.7282C6.79533 12.2348 6.98404 10.6875 6.93968 9.13808L6.33993 9.15525ZM7.40409 5.19556C6.72199 6.40058 6.35587 7.7586 6.33983 9.14319L6.93979 9.15014C6.95466 7.86678 7.29401 6.60804 7.92624 5.49112L7.40409 5.19556ZM9.96826 2.6814C8.88424 3.25033 7.99177 4.12591 7.40224 5.19888L7.9281 5.4878C8.46087 4.51813 9.26742 3.72683 10.2471 3.21267L9.96826 2.6814ZM10.4281 2.05606C11.0143 1.85098 11.6316 1.74906 12.2527 1.75482L12.2582 1.15485C11.5679 1.14844 10.8816 1.26175 10.23 1.48972L10.4281 2.05606ZM9.74662 2.29654L10.4289 2.0558L10.2292 1.48999L9.54697 1.73073L9.74662 2.29654ZM7.04865 5.00642C7.66902 3.84449 8.62267 2.89461 9.78704 2.27884L9.50655 1.74844C8.23639 2.42016 7.1961 3.45634 6.51937 4.72383L7.04865 5.00642ZM5.94566 9.12778C5.95994 7.68521 6.33824 6.26959 7.04549 5.0122L6.52253 4.71806C5.76576 6.0635 5.36097 7.57825 5.34569 9.12184L5.94566 9.12778ZM5.44645 13.4092C5.82584 12.0106 5.99405 10.5631 5.9455 9.11476L5.34584 9.13486C5.39238 10.5234 5.23111 11.9112 4.86737 13.2521L5.44645 13.4092ZM4.9151 14.4725C5.13542 14.1494 5.31202 13.7985 5.44031 13.4291L4.87351 13.2322C4.76258 13.5517 4.60987 13.8551 4.41936 14.1345L4.9151 14.4725ZM4.1444 15.3364C4.41846 15.0722 4.67265 14.7882 4.90491 14.4866L4.42954 14.1205C4.21528 14.3987 3.98079 14.6608 3.72797 14.9045L4.1444 15.3364ZM3.55657 15.9443C3.7349 15.7304 3.92863 15.5297 4.13621 15.3441L3.73617 14.8969C3.5068 15.1021 3.29274 15.3237 3.09569 15.5601L3.55657 15.9443ZM3.33148 16.4122C3.38591 16.2383 3.46693 16.0738 3.57167 15.9246L3.0806 15.5798C2.9403 15.7797 2.83177 16 2.75885 16.2331L3.33148 16.4122ZM3.23387 17.0602C3.23157 16.841 3.26436 16.6227 3.33098 16.4138L2.75935 16.2315C2.67328 16.5014 2.63093 16.7833 2.63391 17.0665L3.23387 17.0602ZM3.37624 17.8156C3.27809 17.5789 3.22962 17.3245 3.23385 17.0683L2.63393 17.0584C2.62835 17.3968 2.69236 17.7328 2.82199 18.0454L3.37624 17.8156ZM3.80441 18.4444C3.62012 18.2663 3.47439 18.0523 3.37624 17.8156L2.82199 18.0454C2.95162 18.358 3.14411 18.6407 3.38751 18.8759L3.80441 18.4444ZM5.19205 19.0253C4.67273 19.0213 4.17568 18.8138 3.80759 18.4475L3.38433 18.8727C3.86372 19.3499 4.51108 19.6201 5.18743 19.6253L5.19205 19.0253ZM18.9433 19.138L5.1922 19.0253L5.18728 19.6253L18.9383 19.738L18.9433 19.138ZM19.6021 19.0291C19.3884 19.1004 19.1648 19.1372 18.9396 19.138L18.942 19.738C19.2309 19.7369 19.5179 19.6897 19.792 19.5983L19.6021 19.0291ZM19.7044 18.9929L19.5972 19.0308L19.7968 19.5966L19.9041 19.5588L19.7044 18.9929ZM20.4795 18.2895C20.2935 18.6038 20.0147 18.8527 19.6815 19.0021L19.9269 19.5496C20.3733 19.3495 20.7467 19.0161 20.9958 18.5951L20.4795 18.2895ZM20.7663 17.2277C20.7629 17.6017 20.6635 17.9686 20.4774 18.2931L20.9979 18.5915C21.2352 18.1778 21.362 17.7099 21.3662 17.233L20.7663 17.2277ZM20.653 16.5256C20.7279 16.753 20.7662 16.991 20.7663 17.2304L21.3663 17.2303C21.3662 16.927 21.3177 16.6257 21.2228 16.3378L20.653 16.5256ZM20.2167 15.8307C20.4101 16.0328 20.5597 16.2727 20.6563 16.5353L21.2194 16.3281C21.0944 15.9882 20.9006 15.6776 20.6502 15.4159L20.2167 15.8307ZM19.9813 15.6302C20.062 15.692 20.1432 15.7547 20.2178 15.8319L20.649 15.4147C20.5394 15.3014 20.4247 15.214 20.3463 15.1539L19.9813 15.6302ZM19.7188 15.3384C19.7538 15.4374 19.8276 15.5039 19.8563 15.5295C19.8949 15.5642 19.9424 15.6003 19.9813 15.6302L20.3463 15.1539C20.3248 15.1374 20.307 15.1238 20.2912 15.1113C20.2753 15.0987 20.2643 15.0895 20.2567 15.0827C20.2485 15.0754 20.2486 15.0746 20.2525 15.0793C20.2547 15.082 20.2593 15.0879 20.2648 15.0968C20.2703 15.1057 20.278 15.1198 20.2846 15.1387L19.7188 15.3384ZM19.687 15.3579L19.8 15.4606L20.2035 15.0165L20.0906 14.9139L19.687 15.3579ZM19.3329 14.9345C19.4322 15.0884 19.55 15.2296 19.6836 15.3548L20.094 14.917C19.9961 14.8253 19.9098 14.7219 19.837 14.6092L19.3329 14.9345ZM18.6756 13.2747C18.7974 13.859 19.0183 14.4181 19.3287 14.9279L19.8412 14.6158C19.5664 14.1645 19.3708 13.6695 19.263 13.1523L18.6756 13.2747ZM18.3612 9.78548C18.3316 10.9567 18.4371 12.1275 18.6756 13.2746L19.2631 13.1524C19.0339 12.0505 18.9326 10.9258 18.961 9.80065L18.3612 9.78548ZM18.3652 9.60411C18.3644 9.66719 18.3637 9.72471 18.3614 9.78069L18.9609 9.80545C18.9636 9.73927 18.9644 9.67296 18.9651 9.61142L18.3652 9.60411ZM18.3798 9.25364C18.3678 9.37644 18.3665 9.49835 18.3652 9.6041L18.9651 9.61143C18.9665 9.50135 18.9678 9.40508 18.9769 9.31199L18.3798 9.25364ZM18.4612 8.97986L18.393 9.19026L18.9637 9.37537L19.032 9.16496L18.4612 8.97986ZM16.6369 3.9411C17.8229 5.38552 18.4635 7.20084 18.4466 9.0697L19.0466 9.07512C19.0647 7.06554 18.3759 5.11353 17.1006 3.56035L16.6369 3.9411ZM14.6824 2.36107C15.4401 2.73818 16.1063 3.27633 16.6343 3.93787L17.1033 3.56359C16.5207 2.83372 15.7857 2.23997 14.9497 1.82391L14.6824 2.36107ZM12.2475 1.75473C13.0936 1.77703 13.9246 1.98397 14.6824 2.36107L14.9497 1.82391C14.1137 1.40786 13.1968 1.17954 12.2633 1.15494L12.2475 1.75473ZM9.92265 20.6996L10.9426 20.7014L10.9436 20.1014L9.9237 20.0996L9.92265 20.6996ZM10.2865 20.621C10.2558 20.5348 10.2334 20.4457 10.2199 20.3552L9.62649 20.4441C9.64582 20.5731 9.67762 20.6999 9.72144 20.8227L10.2865 20.621ZM11.2385 21.8343C10.7991 21.5422 10.4652 21.1165 10.2862 20.6201L9.72177 20.8236C9.94441 21.4411 10.3597 21.9706 10.9064 22.3339L11.2385 21.8343ZM12.7267 22.2422C12.1997 22.2694 11.678 22.1263 11.2385 21.8343L10.9064 22.3339C11.453 22.6973 12.102 22.8752 12.7576 22.8414L12.7267 22.2422ZM14.165 21.6834C13.7579 22.0191 13.2536 22.215 12.7267 22.2422L12.7576 22.8414C13.4131 22.8076 14.0404 22.5639 14.5467 22.1462L14.165 21.6834ZM14.9874 20.3777C14.8604 20.8899 14.5721 21.3476 14.165 21.6834L14.5467 22.1462C15.0531 21.7286 15.4118 21.1592 15.5697 20.5221L14.9874 20.3777ZM14.2431 20.7418L15.2762 20.7499L15.2809 20.1499L14.2478 20.1418L14.2431 20.7418ZM13.7538 21.5084C14.1016 21.2751 14.3703 20.9416 14.5244 20.5522L13.9665 20.3314C13.8571 20.6079 13.6664 20.8446 13.4195 21.0102L13.7538 21.5084ZM12.5767 21.8589C12.9955 21.864 13.406 21.7418 13.7538 21.5084L13.4195 21.0102C13.1726 21.1758 12.8813 21.2625 12.584 21.2589L12.5767 21.8589ZM11.4085 21.4798C11.7505 21.7215 12.1579 21.8537 12.5767 21.8589L12.584 21.2589C12.2868 21.2553 11.9976 21.1614 11.7549 20.9898L11.4085 21.4798ZM10.6615 20.505C10.806 20.8981 11.0665 21.238 11.4085 21.4798L11.7549 20.9898C11.5122 20.8182 11.3273 20.5769 11.2247 20.2979L10.6615 20.505Z" fill="#006F7B" mask="url(#path-1-outside-1_3902_24785)"/>
</svg>
