<svg width="36" height="33" viewBox="0 0 36 33" fill="none" xmlns="http://www.w3.org/2000/svg">
<mask id="path-1-outside-1_746_4157" maskUnits="userSpaceOnUse" x="-0.198242" y="-0.081543" width="36" height="33" fill="black">
<rect fill="white" x="-0.198242" y="-0.081543" width="36" height="33"/>
<path d="M32.3315 2.99601H31.1849V2.47662C31.1849 2.06337 31.0037 1.66705 30.6812 1.37483C30.3587 1.08262 29.9212 0.918457 29.4651 0.918457C29.009 0.918457 28.5716 1.08262 28.249 1.37483C27.9265 1.66705 27.7453 2.06337 27.7453 2.47662V2.99601H25.4523V2.47662C25.4523 2.06337 25.2711 1.66705 24.9485 1.37483C24.626 1.08262 24.1886 0.918457 23.7325 0.918457C23.2763 0.918457 22.8389 1.08262 22.5164 1.37483C22.1938 1.66705 22.0127 2.06337 22.0127 2.47662V2.99601H19.7196V2.47662C19.7196 2.06337 19.5384 1.66705 19.2159 1.37483C18.8933 1.08262 18.4559 0.918457 17.9998 0.918457C17.5437 0.918457 17.1062 1.08262 16.7837 1.37483C16.4612 1.66705 16.28 2.06337 16.28 2.47662V2.99601H13.9869V2.47662C13.9869 2.06337 13.8057 1.66705 13.4832 1.37483C13.1607 1.08262 12.7232 0.918457 12.2671 0.918457C11.811 0.918457 11.3735 1.08262 11.051 1.37483C10.7285 1.66705 10.5473 2.06337 10.5473 2.47662V2.99601H8.25423V2.47662C8.25423 2.06337 8.07304 1.66705 7.75052 1.37483C7.42799 1.08262 6.99055 0.918457 6.53443 0.918457C6.07831 0.918457 5.64087 1.08262 5.31835 1.37483C4.99582 1.66705 4.81463 2.06337 4.81463 2.47662V2.99601H3.66809C2.90817 2.99684 2.17964 3.27071 1.64229 3.75755C1.10495 4.24439 0.802668 4.90446 0.801758 5.59296L0.801758 29.4848C0.802668 30.1733 1.10495 30.8334 1.64229 31.3202C2.17964 31.8071 2.90817 32.081 3.66809 32.0818H32.3315C33.0914 32.081 33.8199 31.8071 34.3573 31.3202C34.8946 30.8334 35.1969 30.1733 35.1978 29.4848V5.59296C35.1969 4.90446 34.8946 4.24439 34.3573 3.75755C33.8199 3.27071 33.0914 2.99684 32.3315 2.99601ZM28.8919 2.47662C28.8919 2.33887 28.9523 2.20676 29.0598 2.10936C29.1673 2.01196 29.3131 1.95723 29.4651 1.95723C29.6172 1.95723 29.763 2.01196 29.8705 2.10936C29.978 2.20676 30.0384 2.33887 30.0384 2.47662V4.55418C30.0384 4.69193 29.978 4.82404 29.8705 4.92144C29.763 5.01885 29.6172 5.07357 29.4651 5.07357C29.3131 5.07357 29.1673 5.01885 29.0598 4.92144C28.9523 4.82404 28.8919 4.69193 28.8919 4.55418V2.47662ZM23.1592 2.47662C23.1592 2.33887 23.2196 2.20676 23.3271 2.10936C23.4346 2.01196 23.5804 1.95723 23.7325 1.95723C23.8845 1.95723 24.0303 2.01196 24.1378 2.10936C24.2453 2.20676 24.3057 2.33887 24.3057 2.47662V4.55418C24.3057 4.69193 24.2453 4.82404 24.1378 4.92144C24.0303 5.01885 23.8845 5.07357 23.7325 5.07357C23.5804 5.07357 23.4346 5.01885 23.3271 4.92144C23.2196 4.82404 23.1592 4.69193 23.1592 4.55418V2.47662ZM17.4265 2.47662C17.4265 2.33887 17.4869 2.20676 17.5944 2.10936C17.7019 2.01196 17.8477 1.95723 17.9998 1.95723C18.1518 1.95723 18.2976 2.01196 18.4051 2.10936C18.5126 2.20676 18.573 2.33887 18.573 2.47662V4.55418C18.573 4.69193 18.5126 4.82404 18.4051 4.92144C18.2976 5.01885 18.1518 5.07357 17.9998 5.07357C17.8477 5.07357 17.7019 5.01885 17.5944 4.92144C17.4869 4.82404 17.4265 4.69193 17.4265 4.55418V2.47662ZM11.6938 2.47662C11.6938 2.33887 11.7542 2.20676 11.8617 2.10936C11.9693 2.01196 12.1151 1.95723 12.2671 1.95723C12.4191 1.95723 12.565 2.01196 12.6725 2.10936C12.78 2.20676 12.8404 2.33887 12.8404 2.47662V4.55418C12.8404 4.69193 12.78 4.82404 12.6725 4.92144C12.565 5.01885 12.4191 5.07357 12.2671 5.07357C12.1151 5.07357 11.9693 5.01885 11.8617 4.92144C11.7542 4.82404 11.6938 4.69193 11.6938 4.55418V2.47662ZM5.96116 2.47662C5.96116 2.33887 6.02156 2.20676 6.12907 2.10936C6.23658 2.01196 6.38239 1.95723 6.53443 1.95723C6.68647 1.95723 6.83228 2.01196 6.93979 2.10936C7.0473 2.20676 7.1077 2.33887 7.1077 2.47662V4.55418C7.1077 4.69193 7.0473 4.82404 6.93979 4.92144C6.83228 5.01885 6.68647 5.07357 6.53443 5.07357C6.38239 5.07357 6.23658 5.01885 6.12907 4.92144C6.02156 4.82404 5.96116 4.69193 5.96116 4.55418V2.47662ZM3.66809 4.03479H4.81463V4.55418C4.81463 4.96743 4.99582 5.36376 5.31835 5.65597C5.64087 5.94818 6.07831 6.11235 6.53443 6.11235C6.99055 6.11235 7.42799 5.94818 7.75052 5.65597C8.07304 5.36376 8.25423 4.96743 8.25423 4.55418V4.03479H10.5473V4.55418C10.5473 4.96743 10.7285 5.36376 11.051 5.65597C11.3735 5.94818 11.811 6.11235 12.2671 6.11235C12.7232 6.11235 13.1607 5.94818 13.4832 5.65597C13.8057 5.36376 13.9869 4.96743 13.9869 4.55418V4.03479H16.28V4.55418C16.28 4.96743 16.4612 5.36376 16.7837 5.65597C17.1062 5.94818 17.5437 6.11235 17.9998 6.11235C18.4559 6.11235 18.8933 5.94818 19.2159 5.65597C19.5384 5.36376 19.7196 4.96743 19.7196 4.55418V4.03479H22.0127V4.55418C22.0127 4.96743 22.1938 5.36376 22.5164 5.65597C22.8389 5.94818 23.2763 6.11235 23.7325 6.11235C24.1886 6.11235 24.626 5.94818 24.9485 5.65597C25.2711 5.36376 25.4523 4.96743 25.4523 4.55418V4.03479H27.7453V4.55418C27.7453 4.96743 27.9265 5.36376 28.249 5.65597C28.5716 5.94818 29.009 6.11235 29.4651 6.11235C29.9212 6.11235 30.3587 5.94818 30.6812 5.65597C31.0037 5.36376 31.1849 4.96743 31.1849 4.55418V4.03479H32.3315C32.7876 4.03479 33.225 4.19895 33.5475 4.49117C33.8701 4.78338 34.0513 5.17971 34.0513 5.59296V7.15112H1.94829V5.59296C1.94829 5.17971 2.12949 4.78338 2.45201 4.49117C2.77454 4.19895 3.21197 4.03479 3.66809 4.03479ZM32.3315 31.043H3.66809C3.21197 31.043 2.77454 30.8788 2.45201 30.5866C2.12949 30.2944 1.94829 29.8981 1.94829 29.4848V8.1899H34.0513V29.4848C34.0513 29.8981 33.8701 30.2944 33.5475 30.5866C33.225 30.8788 32.7876 31.043 32.3315 31.043Z"/>
</mask>
<path d="M32.3315 2.99601H31.1849V2.47662C31.1849 2.06337 31.0037 1.66705 30.6812 1.37483C30.3587 1.08262 29.9212 0.918457 29.4651 0.918457C29.009 0.918457 28.5716 1.08262 28.249 1.37483C27.9265 1.66705 27.7453 2.06337 27.7453 2.47662V2.99601H25.4523V2.47662C25.4523 2.06337 25.2711 1.66705 24.9485 1.37483C24.626 1.08262 24.1886 0.918457 23.7325 0.918457C23.2763 0.918457 22.8389 1.08262 22.5164 1.37483C22.1938 1.66705 22.0127 2.06337 22.0127 2.47662V2.99601H19.7196V2.47662C19.7196 2.06337 19.5384 1.66705 19.2159 1.37483C18.8933 1.08262 18.4559 0.918457 17.9998 0.918457C17.5437 0.918457 17.1062 1.08262 16.7837 1.37483C16.4612 1.66705 16.28 2.06337 16.28 2.47662V2.99601H13.9869V2.47662C13.9869 2.06337 13.8057 1.66705 13.4832 1.37483C13.1607 1.08262 12.7232 0.918457 12.2671 0.918457C11.811 0.918457 11.3735 1.08262 11.051 1.37483C10.7285 1.66705 10.5473 2.06337 10.5473 2.47662V2.99601H8.25423V2.47662C8.25423 2.06337 8.07304 1.66705 7.75052 1.37483C7.42799 1.08262 6.99055 0.918457 6.53443 0.918457C6.07831 0.918457 5.64087 1.08262 5.31835 1.37483C4.99582 1.66705 4.81463 2.06337 4.81463 2.47662V2.99601H3.66809C2.90817 2.99684 2.17964 3.27071 1.64229 3.75755C1.10495 4.24439 0.802668 4.90446 0.801758 5.59296L0.801758 29.4848C0.802668 30.1733 1.10495 30.8334 1.64229 31.3202C2.17964 31.8071 2.90817 32.081 3.66809 32.0818H32.3315C33.0914 32.081 33.8199 31.8071 34.3573 31.3202C34.8946 30.8334 35.1969 30.1733 35.1978 29.4848V5.59296C35.1969 4.90446 34.8946 4.24439 34.3573 3.75755C33.8199 3.27071 33.0914 2.99684 32.3315 2.99601ZM28.8919 2.47662C28.8919 2.33887 28.9523 2.20676 29.0598 2.10936C29.1673 2.01196 29.3131 1.95723 29.4651 1.95723C29.6172 1.95723 29.763 2.01196 29.8705 2.10936C29.978 2.20676 30.0384 2.33887 30.0384 2.47662V4.55418C30.0384 4.69193 29.978 4.82404 29.8705 4.92144C29.763 5.01885 29.6172 5.07357 29.4651 5.07357C29.3131 5.07357 29.1673 5.01885 29.0598 4.92144C28.9523 4.82404 28.8919 4.69193 28.8919 4.55418V2.47662ZM23.1592 2.47662C23.1592 2.33887 23.2196 2.20676 23.3271 2.10936C23.4346 2.01196 23.5804 1.95723 23.7325 1.95723C23.8845 1.95723 24.0303 2.01196 24.1378 2.10936C24.2453 2.20676 24.3057 2.33887 24.3057 2.47662V4.55418C24.3057 4.69193 24.2453 4.82404 24.1378 4.92144C24.0303 5.01885 23.8845 5.07357 23.7325 5.07357C23.5804 5.07357 23.4346 5.01885 23.3271 4.92144C23.2196 4.82404 23.1592 4.69193 23.1592 4.55418V2.47662ZM17.4265 2.47662C17.4265 2.33887 17.4869 2.20676 17.5944 2.10936C17.7019 2.01196 17.8477 1.95723 17.9998 1.95723C18.1518 1.95723 18.2976 2.01196 18.4051 2.10936C18.5126 2.20676 18.573 2.33887 18.573 2.47662V4.55418C18.573 4.69193 18.5126 4.82404 18.4051 4.92144C18.2976 5.01885 18.1518 5.07357 17.9998 5.07357C17.8477 5.07357 17.7019 5.01885 17.5944 4.92144C17.4869 4.82404 17.4265 4.69193 17.4265 4.55418V2.47662ZM11.6938 2.47662C11.6938 2.33887 11.7542 2.20676 11.8617 2.10936C11.9693 2.01196 12.1151 1.95723 12.2671 1.95723C12.4191 1.95723 12.565 2.01196 12.6725 2.10936C12.78 2.20676 12.8404 2.33887 12.8404 2.47662V4.55418C12.8404 4.69193 12.78 4.82404 12.6725 4.92144C12.565 5.01885 12.4191 5.07357 12.2671 5.07357C12.1151 5.07357 11.9693 5.01885 11.8617 4.92144C11.7542 4.82404 11.6938 4.69193 11.6938 4.55418V2.47662ZM5.96116 2.47662C5.96116 2.33887 6.02156 2.20676 6.12907 2.10936C6.23658 2.01196 6.38239 1.95723 6.53443 1.95723C6.68647 1.95723 6.83228 2.01196 6.93979 2.10936C7.0473 2.20676 7.1077 2.33887 7.1077 2.47662V4.55418C7.1077 4.69193 7.0473 4.82404 6.93979 4.92144C6.83228 5.01885 6.68647 5.07357 6.53443 5.07357C6.38239 5.07357 6.23658 5.01885 6.12907 4.92144C6.02156 4.82404 5.96116 4.69193 5.96116 4.55418V2.47662ZM3.66809 4.03479H4.81463V4.55418C4.81463 4.96743 4.99582 5.36376 5.31835 5.65597C5.64087 5.94818 6.07831 6.11235 6.53443 6.11235C6.99055 6.11235 7.42799 5.94818 7.75052 5.65597C8.07304 5.36376 8.25423 4.96743 8.25423 4.55418V4.03479H10.5473V4.55418C10.5473 4.96743 10.7285 5.36376 11.051 5.65597C11.3735 5.94818 11.811 6.11235 12.2671 6.11235C12.7232 6.11235 13.1607 5.94818 13.4832 5.65597C13.8057 5.36376 13.9869 4.96743 13.9869 4.55418V4.03479H16.28V4.55418C16.28 4.96743 16.4612 5.36376 16.7837 5.65597C17.1062 5.94818 17.5437 6.11235 17.9998 6.11235C18.4559 6.11235 18.8933 5.94818 19.2159 5.65597C19.5384 5.36376 19.7196 4.96743 19.7196 4.55418V4.03479H22.0127V4.55418C22.0127 4.96743 22.1938 5.36376 22.5164 5.65597C22.8389 5.94818 23.2763 6.11235 23.7325 6.11235C24.1886 6.11235 24.626 5.94818 24.9485 5.65597C25.2711 5.36376 25.4523 4.96743 25.4523 4.55418V4.03479H27.7453V4.55418C27.7453 4.96743 27.9265 5.36376 28.249 5.65597C28.5716 5.94818 29.009 6.11235 29.4651 6.11235C29.9212 6.11235 30.3587 5.94818 30.6812 5.65597C31.0037 5.36376 31.1849 4.96743 31.1849 4.55418V4.03479H32.3315C32.7876 4.03479 33.225 4.19895 33.5475 4.49117C33.8701 4.78338 34.0513 5.17971 34.0513 5.59296V7.15112H1.94829V5.59296C1.94829 5.17971 2.12949 4.78338 2.45201 4.49117C2.77454 4.19895 3.21197 4.03479 3.66809 4.03479ZM32.3315 31.043H3.66809C3.21197 31.043 2.77454 30.8788 2.45201 30.5866C2.12949 30.2944 1.94829 29.8981 1.94829 29.4848V8.1899H34.0513V29.4848C34.0513 29.8981 33.8701 30.2944 33.5475 30.5866C33.225 30.8788 32.7876 31.043 32.3315 31.043Z" fill="#D96C6C"/>
<path d="M32.3315 2.99601H31.1849V2.47662C31.1849 2.06337 31.0037 1.66705 30.6812 1.37483C30.3587 1.08262 29.9212 0.918457 29.4651 0.918457C29.009 0.918457 28.5716 1.08262 28.249 1.37483C27.9265 1.66705 27.7453 2.06337 27.7453 2.47662V2.99601H25.4523V2.47662C25.4523 2.06337 25.2711 1.66705 24.9485 1.37483C24.626 1.08262 24.1886 0.918457 23.7325 0.918457C23.2763 0.918457 22.8389 1.08262 22.5164 1.37483C22.1938 1.66705 22.0127 2.06337 22.0127 2.47662V2.99601H19.7196V2.47662C19.7196 2.06337 19.5384 1.66705 19.2159 1.37483C18.8933 1.08262 18.4559 0.918457 17.9998 0.918457C17.5437 0.918457 17.1062 1.08262 16.7837 1.37483C16.4612 1.66705 16.28 2.06337 16.28 2.47662V2.99601H13.9869V2.47662C13.9869 2.06337 13.8057 1.66705 13.4832 1.37483C13.1607 1.08262 12.7232 0.918457 12.2671 0.918457C11.811 0.918457 11.3735 1.08262 11.051 1.37483C10.7285 1.66705 10.5473 2.06337 10.5473 2.47662V2.99601H8.25423V2.47662C8.25423 2.06337 8.07304 1.66705 7.75052 1.37483C7.42799 1.08262 6.99055 0.918457 6.53443 0.918457C6.07831 0.918457 5.64087 1.08262 5.31835 1.37483C4.99582 1.66705 4.81463 2.06337 4.81463 2.47662V2.99601H3.66809C2.90817 2.99684 2.17964 3.27071 1.64229 3.75755C1.10495 4.24439 0.802668 4.90446 0.801758 5.59296L0.801758 29.4848C0.802668 30.1733 1.10495 30.8334 1.64229 31.3202C2.17964 31.8071 2.90817 32.081 3.66809 32.0818H32.3315C33.0914 32.081 33.8199 31.8071 34.3573 31.3202C34.8946 30.8334 35.1969 30.1733 35.1978 29.4848V5.59296C35.1969 4.90446 34.8946 4.24439 34.3573 3.75755C33.8199 3.27071 33.0914 2.99684 32.3315 2.99601ZM28.8919 2.47662C28.8919 2.33887 28.9523 2.20676 29.0598 2.10936C29.1673 2.01196 29.3131 1.95723 29.4651 1.95723C29.6172 1.95723 29.763 2.01196 29.8705 2.10936C29.978 2.20676 30.0384 2.33887 30.0384 2.47662V4.55418C30.0384 4.69193 29.978 4.82404 29.8705 4.92144C29.763 5.01885 29.6172 5.07357 29.4651 5.07357C29.3131 5.07357 29.1673 5.01885 29.0598 4.92144C28.9523 4.82404 28.8919 4.69193 28.8919 4.55418V2.47662ZM23.1592 2.47662C23.1592 2.33887 23.2196 2.20676 23.3271 2.10936C23.4346 2.01196 23.5804 1.95723 23.7325 1.95723C23.8845 1.95723 24.0303 2.01196 24.1378 2.10936C24.2453 2.20676 24.3057 2.33887 24.3057 2.47662V4.55418C24.3057 4.69193 24.2453 4.82404 24.1378 4.92144C24.0303 5.01885 23.8845 5.07357 23.7325 5.07357C23.5804 5.07357 23.4346 5.01885 23.3271 4.92144C23.2196 4.82404 23.1592 4.69193 23.1592 4.55418V2.47662ZM17.4265 2.47662C17.4265 2.33887 17.4869 2.20676 17.5944 2.10936C17.7019 2.01196 17.8477 1.95723 17.9998 1.95723C18.1518 1.95723 18.2976 2.01196 18.4051 2.10936C18.5126 2.20676 18.573 2.33887 18.573 2.47662V4.55418C18.573 4.69193 18.5126 4.82404 18.4051 4.92144C18.2976 5.01885 18.1518 5.07357 17.9998 5.07357C17.8477 5.07357 17.7019 5.01885 17.5944 4.92144C17.4869 4.82404 17.4265 4.69193 17.4265 4.55418V2.47662ZM11.6938 2.47662C11.6938 2.33887 11.7542 2.20676 11.8617 2.10936C11.9693 2.01196 12.1151 1.95723 12.2671 1.95723C12.4191 1.95723 12.565 2.01196 12.6725 2.10936C12.78 2.20676 12.8404 2.33887 12.8404 2.47662V4.55418C12.8404 4.69193 12.78 4.82404 12.6725 4.92144C12.565 5.01885 12.4191 5.07357 12.2671 5.07357C12.1151 5.07357 11.9693 5.01885 11.8617 4.92144C11.7542 4.82404 11.6938 4.69193 11.6938 4.55418V2.47662ZM5.96116 2.47662C5.96116 2.33887 6.02156 2.20676 6.12907 2.10936C6.23658 2.01196 6.38239 1.95723 6.53443 1.95723C6.68647 1.95723 6.83228 2.01196 6.93979 2.10936C7.0473 2.20676 7.1077 2.33887 7.1077 2.47662V4.55418C7.1077 4.69193 7.0473 4.82404 6.93979 4.92144C6.83228 5.01885 6.68647 5.07357 6.53443 5.07357C6.38239 5.07357 6.23658 5.01885 6.12907 4.92144C6.02156 4.82404 5.96116 4.69193 5.96116 4.55418V2.47662ZM3.66809 4.03479H4.81463V4.55418C4.81463 4.96743 4.99582 5.36376 5.31835 5.65597C5.64087 5.94818 6.07831 6.11235 6.53443 6.11235C6.99055 6.11235 7.42799 5.94818 7.75052 5.65597C8.07304 5.36376 8.25423 4.96743 8.25423 4.55418V4.03479H10.5473V4.55418C10.5473 4.96743 10.7285 5.36376 11.051 5.65597C11.3735 5.94818 11.811 6.11235 12.2671 6.11235C12.7232 6.11235 13.1607 5.94818 13.4832 5.65597C13.8057 5.36376 13.9869 4.96743 13.9869 4.55418V4.03479H16.28V4.55418C16.28 4.96743 16.4612 5.36376 16.7837 5.65597C17.1062 5.94818 17.5437 6.11235 17.9998 6.11235C18.4559 6.11235 18.8933 5.94818 19.2159 5.65597C19.5384 5.36376 19.7196 4.96743 19.7196 4.55418V4.03479H22.0127V4.55418C22.0127 4.96743 22.1938 5.36376 22.5164 5.65597C22.8389 5.94818 23.2763 6.11235 23.7325 6.11235C24.1886 6.11235 24.626 5.94818 24.9485 5.65597C25.2711 5.36376 25.4523 4.96743 25.4523 4.55418V4.03479H27.7453V4.55418C27.7453 4.96743 27.9265 5.36376 28.249 5.65597C28.5716 5.94818 29.009 6.11235 29.4651 6.11235C29.9212 6.11235 30.3587 5.94818 30.6812 5.65597C31.0037 5.36376 31.1849 4.96743 31.1849 4.55418V4.03479H32.3315C32.7876 4.03479 33.225 4.19895 33.5475 4.49117C33.8701 4.78338 34.0513 5.17971 34.0513 5.59296V7.15112H1.94829V5.59296C1.94829 5.17971 2.12949 4.78338 2.45201 4.49117C2.77454 4.19895 3.21197 4.03479 3.66809 4.03479ZM32.3315 31.043H3.66809C3.21197 31.043 2.77454 30.8788 2.45201 30.5866C2.12949 30.2944 1.94829 29.8981 1.94829 29.4848V8.1899H34.0513V29.4848C34.0513 29.8981 33.8701 30.2944 33.5475 30.5866C33.225 30.8788 32.7876 31.043 32.3315 31.043Z" stroke="#D96C6C" stroke-width="0.4" mask="url(#path-1-outside-1_746_4157)"/>
<path d="M10.8508 9.89438H7.41118C7.08359 9.89438 6.76767 10.0122 6.53332 10.2245C6.29863 10.4372 6.16465 10.7278 6.16465 11.0332V14.1495C6.16465 14.4549 6.29863 14.7455 6.53332 14.9581C6.76767 15.1705 7.08359 15.2883 7.41118 15.2883H10.8508C11.1784 15.2883 11.4943 15.1705 11.7287 14.9581C11.9633 14.7455 12.0973 14.4549 12.0973 14.1495V11.0332C12.0973 10.7278 11.9633 10.4372 11.7287 10.2245C11.4943 10.0122 11.1784 9.89438 10.8508 9.89438ZM7.51118 14.0495V11.1332H10.7508V14.0495H7.51118Z" fill="#D96C6C" stroke="#D96C6C" stroke-width="0.2"/>
<path d="M19.7531 9.89438H16.3135C15.9859 9.89438 15.67 10.0122 15.4357 10.2245C15.201 10.4372 15.067 10.7278 15.067 11.0332V14.1495C15.067 14.4549 15.201 14.7455 15.4357 14.9581C15.67 15.1705 15.9859 15.2883 16.3135 15.2883H19.7531C20.0807 15.2883 20.3966 15.1705 20.631 14.9581C20.8657 14.7455 20.9997 14.4549 20.9997 14.1495V11.0332C20.9997 10.7278 20.8657 10.4372 20.631 10.2245C20.3966 10.0122 20.0807 9.89438 19.7531 9.89438ZM16.4135 14.0495V11.1332H19.6531V14.0495H16.4135Z" fill="#D96C6C" stroke="#D96C6C" stroke-width="0.2"/>
<path d="M28.6555 9.89438H25.2159C24.8883 9.89438 24.5724 10.0122 24.338 10.2245C24.1033 10.4372 23.9693 10.7278 23.9693 11.0332V14.1495C23.9693 14.4549 24.1033 14.7455 24.338 14.9581C24.5724 15.1705 24.8883 15.2883 25.2159 15.2883H28.6555C28.9831 15.2883 29.299 15.1705 29.5333 14.9581C29.768 14.7455 29.902 14.4549 29.902 14.1495V11.0332C29.902 10.7278 29.768 10.4372 29.5333 10.2245C29.299 10.0122 28.9831 9.89438 28.6555 9.89438ZM25.3159 14.0495V11.1332H28.5555V14.0495H25.3159Z" fill="#D96C6C" stroke="#D96C6C" stroke-width="0.2"/>
<path d="M10.8508 16.6732H7.41118C7.08359 16.6732 6.76767 16.791 6.53332 17.0033C6.29863 17.216 6.16465 17.5066 6.16465 17.812V20.9283C6.16465 21.2337 6.29863 21.5243 6.53332 21.7369C6.76767 21.9493 7.08359 22.0671 7.41118 22.0671H10.8508C11.1784 22.0671 11.4943 21.9493 11.7287 21.7369C11.9633 21.5243 12.0973 21.2337 12.0973 20.9283V17.812C12.0973 17.5066 11.9633 17.216 11.7287 17.0033C11.4943 16.791 11.1784 16.6732 10.8508 16.6732ZM7.51118 20.8283V17.912H10.7508V20.8283H7.51118Z" fill="#D96C6C" stroke="#D96C6C" stroke-width="0.2"/>
<path d="M19.7531 16.6732H16.3135C15.9859 16.6732 15.67 16.791 15.4357 17.0033C15.201 17.216 15.067 17.5066 15.067 17.812V20.9283C15.067 21.2337 15.201 21.5243 15.4357 21.7369C15.67 21.9493 15.9859 22.0671 16.3135 22.0671H19.7531C20.0807 22.0671 20.3966 21.9493 20.631 21.7369C20.8657 21.5243 20.9997 21.2337 20.9997 20.9283V17.812C20.9997 17.5066 20.8657 17.216 20.631 17.0033C20.3966 16.791 20.0807 16.6732 19.7531 16.6732ZM16.4135 20.8283V17.912H19.6531V20.8283H16.4135Z" fill="#D96C6C" stroke="#D96C6C" stroke-width="0.2"/>
<path d="M28.6555 16.6732H25.2159C24.8883 16.6732 24.5724 16.791 24.338 17.0033C24.1033 17.216 23.9693 17.5066 23.9693 17.812V20.9283C23.9693 21.2337 24.1033 21.5243 24.338 21.7369C24.5724 21.9493 24.8883 22.0671 25.2159 22.0671H28.6555C28.9831 22.0671 29.299 21.9493 29.5333 21.7369C29.768 21.5243 29.902 21.2337 29.902 20.9283V17.812C29.902 17.5066 29.768 17.216 29.5333 17.0033C29.299 16.791 28.9831 16.6732 28.6555 16.6732ZM25.3159 20.8283V17.912H28.5555V20.8283H25.3159Z" fill="#D96C6C" stroke="#D96C6C" stroke-width="0.2"/>
<path d="M10.8508 23.4518H7.41118C7.08359 23.4518 6.76767 23.5696 6.53332 23.7819C6.29863 23.9945 6.16465 24.2851 6.16465 24.5905V27.7069C6.16465 28.0123 6.29863 28.3029 6.53332 28.5155C6.76767 28.7278 7.08359 28.8456 7.41118 28.8456H10.8508C11.1784 28.8456 11.4943 28.7278 11.7287 28.5155C11.9633 28.3029 12.0973 28.0123 12.0973 27.7069V24.5905C12.0973 24.2851 11.9633 23.9945 11.7287 23.7819C11.4943 23.5696 11.1784 23.4518 10.8508 23.4518ZM7.51118 27.6069V24.6905H10.7508V27.6069H7.51118Z" fill="#D96C6C" stroke="#D96C6C" stroke-width="0.2"/>
<path d="M19.7531 23.4518H16.3135C15.9859 23.4518 15.67 23.5696 15.4357 23.7819C15.201 23.9945 15.067 24.2851 15.067 24.5905V27.7069C15.067 28.0123 15.201 28.3029 15.4357 28.5155C15.67 28.7278 15.9859 28.8456 16.3135 28.8456H19.7531C20.0807 28.8456 20.3966 28.7278 20.631 28.5155C20.8657 28.3029 20.9997 28.0123 20.9997 27.7069V24.5905C20.9997 24.2851 20.8657 23.9945 20.631 23.7819C20.3966 23.5696 20.0807 23.4518 19.7531 23.4518ZM16.4135 27.6069V24.6905H19.6531V27.6069H16.4135Z" fill="#D96C6C" stroke="#D96C6C" stroke-width="0.2"/>
<path d="M28.6555 23.4518H25.2159C24.8883 23.4518 24.5724 23.5696 24.338 23.7819C24.1033 23.9945 23.9693 24.2851 23.9693 24.5905V27.7069C23.9693 28.0123 24.1033 28.3029 24.338 28.5155C24.5724 28.7278 24.8883 28.8456 25.2159 28.8456H28.6555C28.9831 28.8456 29.299 28.7278 29.5333 28.5155C29.768 28.3029 29.902 28.0123 29.902 27.7069V24.5905C29.902 24.2851 29.768 23.9945 29.5333 23.7819C29.299 23.5696 28.9831 23.4518 28.6555 23.4518ZM25.3159 27.6069V24.6905H28.5555V27.6069H25.3159Z" fill="#D96C6C" stroke="#D96C6C" stroke-width="0.2"/>
</svg>
