<svg width="18" height="18" viewBox="0 0 18 18" fill="none" xmlns="http://www.w3.org/2000/svg">
<path d="M11.1956 12.0203V14.5954C11.1956 15.2805 10.9235 15.9376 10.439 16.4221C9.95453 16.9065 9.29745 17.1787 8.6123 17.1787H3.44564C2.7605 17.1787 2.10341 16.9065 1.61895 16.4221C1.13448 15.9376 0.862305 15.2805 0.862305 14.5954V4.26204C0.862305 3.5769 1.13448 2.91982 1.61895 2.43535C2.10341 1.95088 2.7605 1.67871 3.44564 1.67871H8.6123C9.29745 1.67871 9.95453 1.95088 10.439 2.43535C10.9235 2.91982 11.1956 3.5769 11.1956 4.26204V6.91048" stroke="#006F7B" stroke-width="1.5" stroke-linecap="round"/>
<path d="M6.89023 10.2037C6.68469 10.2037 6.48757 10.122 6.34223 9.97667C6.19689 9.83133 6.11523 9.63421 6.11523 9.42867C6.11523 9.22312 6.19689 9.026 6.34223 8.88066C6.48757 8.73532 6.68469 8.65367 6.89023 8.65367V10.2037ZM15.8389 8.65367C16.0444 8.65367 16.2416 8.73532 16.3869 8.88066C16.5322 9.026 16.6139 9.22312 16.6139 9.42867C16.6139 9.63421 16.5322 9.83133 16.3869 9.97667C16.2416 10.122 16.0444 10.2037 15.8389 10.2037V8.65367ZM13.2029 7.39713C13.1304 7.32562 13.0727 7.24053 13.0332 7.14673C12.9936 7.05293 12.9729 6.95226 12.9722 6.85045C12.9715 6.74864 12.9909 6.6477 13.0292 6.55338C13.0676 6.45907 13.1241 6.37323 13.1956 6.30077C13.2671 6.2283 13.3522 6.17064 13.446 6.13105C13.5398 6.09147 13.6405 6.07076 13.7423 6.07009C13.8441 6.06941 13.9451 6.0888 14.0394 6.12714C14.1337 6.16548 14.2195 6.22202 14.292 6.29353L13.2029 7.39713ZM16.3628 9.42867L16.9074 8.87687C16.9805 8.94897 17.0385 9.03488 17.0782 9.1296C17.1178 9.22433 17.1382 9.32599 17.1382 9.42867C17.1382 9.53135 17.1178 9.633 17.0782 9.72773C17.0385 9.82246 16.9805 9.90837 16.9074 9.98047L16.3628 9.42867ZM14.292 12.5638C14.2195 12.6353 14.1337 12.6919 14.0394 12.7302C13.9451 12.7685 13.8441 12.7879 13.7423 12.7872C13.6405 12.7866 13.5398 12.7659 13.446 12.7263C13.3522 12.6867 13.2671 12.629 13.1956 12.5566C13.1241 12.4841 13.0676 12.3983 13.0292 12.3039C12.9909 12.2096 12.9715 12.1087 12.9722 12.0069C12.9729 11.9051 12.9936 11.8044 13.0332 11.7106C13.0727 11.6168 13.1304 11.5317 13.2029 11.4602L14.292 12.5638ZM6.89023 8.65367H15.8389V10.2037H6.89023V8.65367ZM14.292 6.29353L16.9074 8.87687L15.8182 9.98047L13.2029 7.39713L14.292 6.29353ZM16.9074 9.98047L14.292 12.5638L13.2029 11.4602L15.8182 8.87687L16.9074 9.98047Z" fill="#006F7B"/>
</svg>
