<svg width="33" height="39" viewBox="0 0 33 39" fill="none" xmlns="http://www.w3.org/2000/svg">
<path d="M32.8875 17.2011C32.8875 14.5681 32.2588 12.0924 31.1584 9.89172L30.844 10.2061C30.4511 10.5991 29.9402 10.8742 29.39 10.9921C30.2939 12.8783 30.8047 15.0004 30.8047 17.2011C30.8047 25.0999 24.3599 31.5447 16.4611 31.5447C8.56228 31.5447 2.15676 25.0999 2.15676 17.2011C2.15676 9.30226 8.60157 2.85744 16.5004 2.85744C19.5656 2.85744 22.3951 3.83988 24.7136 5.45109V7.53386L23.574 8.6735C21.6484 7.06229 19.1726 6.11915 16.5004 6.11915C10.37 6.11915 5.37917 11.11 5.37917 17.2404C5.37917 23.3708 10.37 28.3223 16.5004 28.3223C22.6308 28.3223 27.6216 23.3315 27.6216 17.2011C27.6216 15.2362 27.1108 13.4285 26.2462 11.8173L24.7136 13.3499C25.2638 14.5288 25.5782 15.8257 25.5782 17.2011C25.5782 22.1919 21.5305 26.2395 16.5397 26.2395C11.5489 26.2395 7.50124 22.1919 7.50124 17.2011C7.50124 12.2103 11.5489 8.16263 16.5397 8.16263C18.6618 8.16263 20.6267 8.90928 22.1593 10.1275L19.8407 12.4461C18.8976 11.778 17.7579 11.385 16.5397 11.385C13.3173 11.385 10.7236 13.9787 10.7236 17.2011C10.6844 20.4235 13.278 23.0171 16.5004 23.0171C19.7228 23.0171 22.3165 20.4235 22.3165 17.2011C22.3165 16.7688 22.2772 16.2972 22.1593 15.9043L20.1944 17.8298C19.88 19.5982 18.3474 20.9737 16.4611 20.9737C14.3783 20.9737 12.6885 19.2839 12.6885 17.2011C12.6885 15.1183 14.3783 13.4285 16.4611 13.4285C17.1292 13.4285 17.7579 13.625 18.3081 13.9001L15.7537 16.4544C15.3608 16.8474 15.3608 17.5155 15.7537 17.9084C15.9502 18.1049 16.2253 18.2228 16.4611 18.2228C16.6969 18.2228 16.972 18.1049 17.1685 17.9084L26.1283 8.94858H28.8399C29.0364 8.94858 29.2328 8.86998 29.39 8.71279L32.4945 5.60828C32.7303 5.37249 32.7696 5.05811 32.6517 4.78303C32.5338 4.50794 32.2588 4.31146 31.9444 4.31146H29.3507V1.71781C29.3507 1.40343 29.1542 1.12835 28.8792 1.01045C28.6041 0.89256 28.2504 0.971155 28.0539 1.16764L25.6175 3.6041C23.0238 1.8357 19.88 0.813965 16.5004 0.813965C7.46194 0.813965 0.113281 8.16263 0.113281 17.2011C0.113281 23.2922 3.49288 28.6367 8.44438 31.4661L5.89004 36.6927C5.65425 37.2036 5.85074 37.8324 6.36161 38.0681C6.5188 38.1467 6.67599 38.186 6.79388 38.186C7.18686 38.186 7.54054 37.9895 7.69773 37.5966L10.2128 32.37C12.1384 33.1559 14.2211 33.6275 16.4611 33.6275C18.6618 33.6275 20.7838 33.1952 22.6701 32.4093L25.2638 37.5573C25.4603 37.911 25.8139 38.1467 26.1676 38.1467C26.3248 38.1467 26.482 38.1074 26.5999 38.0288C27.1108 37.7931 27.3073 37.1643 27.0715 36.6534L24.5564 31.4268C29.5472 28.6367 32.8875 23.2922 32.8875 17.2011Z" fill="#D99C00"/>
</svg>
