<svg width="23" height="22" viewBox="0 0 23 22" fill="none" xmlns="http://www.w3.org/2000/svg">
<mask id="path-1-outside-1_4896_25048" maskUnits="userSpaceOnUse" x="2.33301" y="2.29883" width="19" height="17" fill="black">
<rect fill="white" x="2.33301" y="2.29883" width="19" height="17"/>
<path d="M18.9163 4.32564H18.3497V4.06894C18.3497 3.86469 18.2601 3.66881 18.1007 3.52439C17.9413 3.37996 17.7251 3.29883 17.4997 3.29883C17.2742 3.29883 17.058 3.37996 16.8986 3.52439C16.7392 3.66881 16.6497 3.86469 16.6497 4.06894V4.32564H15.5163V4.06894C15.5163 3.86469 15.4268 3.66881 15.2674 3.52439C15.108 3.37996 14.8918 3.29883 14.6663 3.29883C14.4409 3.29883 14.2247 3.37996 14.0653 3.52439C13.9059 3.66881 13.8163 3.86469 13.8163 4.06894V4.32564H12.683V4.06894C12.683 3.86469 12.5935 3.66881 12.434 3.52439C12.2746 3.37996 12.0584 3.29883 11.833 3.29883C11.6076 3.29883 11.3914 3.37996 11.232 3.52439C11.0726 3.66881 10.983 3.86469 10.983 4.06894V4.32564H9.84967V4.06894C9.84967 3.86469 9.76012 3.66881 9.60072 3.52439C9.44131 3.37996 9.22511 3.29883 8.99967 3.29883C8.77424 3.29883 8.55804 3.37996 8.39863 3.52439C8.23923 3.66881 8.14967 3.86469 8.14967 4.06894V4.32564H7.01634V4.06894C7.01634 3.86469 6.92679 3.66881 6.76738 3.52439C6.60798 3.37996 6.39178 3.29883 6.16634 3.29883C5.94091 3.29883 5.72471 3.37996 5.5653 3.52439C5.40589 3.66881 5.31634 3.86469 5.31634 4.06894V4.32564H4.74967C4.37409 4.32605 4.01402 4.46141 3.74844 4.70203C3.48286 4.94265 3.33346 5.26888 3.33301 5.60917V17.4176C3.33346 17.7578 3.48286 18.0841 3.74844 18.3247C4.01402 18.5653 4.37409 18.7007 4.74967 18.7011H18.9163C19.2919 18.7007 19.652 18.5653 19.9176 18.3247C20.1832 18.0841 20.3326 17.7578 20.333 17.4176V5.60917C20.3326 5.26888 20.1832 4.94265 19.9176 4.70203C19.652 4.46141 19.2919 4.32605 18.9163 4.32564ZM17.2163 4.06894C17.2163 4.00086 17.2462 3.93556 17.2993 3.88742C17.3525 3.83928 17.4245 3.81224 17.4997 3.81224C17.5748 3.81224 17.6469 3.83928 17.7 3.88742C17.7532 3.93556 17.783 4.00086 17.783 4.06894V5.09576C17.783 5.16384 17.7532 5.22913 17.7 5.27727C17.6469 5.32542 17.5748 5.35246 17.4997 5.35246C17.4245 5.35246 17.3525 5.32542 17.2993 5.27727C17.2462 5.22913 17.2163 5.16384 17.2163 5.09576V4.06894ZM14.383 4.06894C14.383 4.00086 14.4129 3.93556 14.466 3.88742C14.5191 3.83928 14.5912 3.81224 14.6663 3.81224C14.7415 3.81224 14.8136 3.83928 14.8667 3.88742C14.9198 3.93556 14.9497 4.00086 14.9497 4.06894V5.09576C14.9497 5.16384 14.9198 5.22913 14.8667 5.27727C14.8136 5.32542 14.7415 5.35246 14.6663 5.35246C14.5912 5.35246 14.5191 5.32542 14.466 5.27727C14.4129 5.22913 14.383 5.16384 14.383 5.09576V4.06894ZM11.5497 4.06894C11.5497 4.00086 11.5795 3.93556 11.6327 3.88742C11.6858 3.83928 11.7579 3.81224 11.833 3.81224C11.9082 3.81224 11.9802 3.83928 12.0334 3.88742C12.0865 3.93556 12.1163 4.00086 12.1163 4.06894V5.09576C12.1163 5.16384 12.0865 5.22913 12.0334 5.27727C11.9802 5.32542 11.9082 5.35246 11.833 5.35246C11.7579 5.35246 11.6858 5.32542 11.6327 5.27727C11.5795 5.22913 11.5497 5.16384 11.5497 5.09576V4.06894ZM8.71634 4.06894C8.71634 4.00086 8.74619 3.93556 8.79933 3.88742C8.85246 3.83928 8.92453 3.81224 8.99967 3.81224C9.07482 3.81224 9.14689 3.83928 9.20002 3.88742C9.25316 3.93556 9.28301 4.00086 9.28301 4.06894V5.09576C9.28301 5.16384 9.25316 5.22913 9.20002 5.27727C9.14689 5.32542 9.07482 5.35246 8.99967 5.35246C8.92453 5.35246 8.85246 5.32542 8.79933 5.27727C8.74619 5.22913 8.71634 5.16384 8.71634 5.09576V4.06894ZM5.88301 4.06894C5.88301 4.00086 5.91286 3.93556 5.96599 3.88742C6.01913 3.83928 6.0912 3.81224 6.16634 3.81224C6.24149 3.81224 6.31355 3.83928 6.36669 3.88742C6.41982 3.93556 6.44967 4.00086 6.44967 4.06894V5.09576C6.44967 5.16384 6.41982 5.22913 6.36669 5.27727C6.31355 5.32542 6.24149 5.35246 6.16634 5.35246C6.0912 5.35246 6.01913 5.32542 5.96599 5.27727C5.91286 5.22913 5.88301 5.16384 5.88301 5.09576V4.06894ZM4.74967 4.83905H5.31634V5.09576C5.31634 5.3 5.40589 5.49589 5.5653 5.64031C5.72471 5.78473 5.94091 5.86587 6.16634 5.86587C6.39178 5.86587 6.60798 5.78473 6.76738 5.64031C6.92679 5.49589 7.01634 5.3 7.01634 5.09576V4.83905H8.14967V5.09576C8.14967 5.3 8.23923 5.49589 8.39863 5.64031C8.55804 5.78473 8.77424 5.86587 8.99967 5.86587C9.22511 5.86587 9.44131 5.78473 9.60072 5.64031C9.76012 5.49589 9.84967 5.3 9.84967 5.09576V4.83905H10.983V5.09576C10.983 5.3 11.0726 5.49589 11.232 5.64031C11.3914 5.78473 11.6076 5.86587 11.833 5.86587C12.0584 5.86587 12.2746 5.78473 12.434 5.64031C12.5935 5.49589 12.683 5.3 12.683 5.09576V4.83905H13.8163V5.09576C13.8163 5.3 13.9059 5.49589 14.0653 5.64031C14.2247 5.78473 14.4409 5.86587 14.6663 5.86587C14.8918 5.86587 15.108 5.78473 15.2674 5.64031C15.4268 5.49589 15.5163 5.3 15.5163 5.09576V4.83905H16.6497V5.09576C16.6497 5.3 16.7392 5.49589 16.8986 5.64031C17.058 5.78473 17.2742 5.86587 17.4997 5.86587C17.7251 5.86587 17.9413 5.78473 18.1007 5.64031C18.2601 5.49589 18.3497 5.3 18.3497 5.09576V4.83905H18.9163C19.1418 4.83905 19.358 4.92019 19.5174 5.06461C19.6768 5.20904 19.7663 5.40492 19.7663 5.60917V6.37928H3.89967V5.60917C3.89967 5.40492 3.98923 5.20904 4.14863 5.06461C4.30804 4.92019 4.52424 4.83905 4.74967 4.83905ZM18.9163 18.1877H4.74967C4.52424 18.1877 4.30804 18.1065 4.14863 17.9621C3.98923 17.8177 3.89967 17.6218 3.89967 17.4176V6.89269H19.7663V17.4176C19.7663 17.6218 19.6768 17.8177 19.5174 17.9621C19.358 18.1065 19.1418 18.1877 18.9163 18.1877Z"/>
</mask>
<path d="M18.9163 4.32564H18.3497V4.06894C18.3497 3.86469 18.2601 3.66881 18.1007 3.52439C17.9413 3.37996 17.7251 3.29883 17.4997 3.29883C17.2742 3.29883 17.058 3.37996 16.8986 3.52439C16.7392 3.66881 16.6497 3.86469 16.6497 4.06894V4.32564H15.5163V4.06894C15.5163 3.86469 15.4268 3.66881 15.2674 3.52439C15.108 3.37996 14.8918 3.29883 14.6663 3.29883C14.4409 3.29883 14.2247 3.37996 14.0653 3.52439C13.9059 3.66881 13.8163 3.86469 13.8163 4.06894V4.32564H12.683V4.06894C12.683 3.86469 12.5935 3.66881 12.434 3.52439C12.2746 3.37996 12.0584 3.29883 11.833 3.29883C11.6076 3.29883 11.3914 3.37996 11.232 3.52439C11.0726 3.66881 10.983 3.86469 10.983 4.06894V4.32564H9.84967V4.06894C9.84967 3.86469 9.76012 3.66881 9.60072 3.52439C9.44131 3.37996 9.22511 3.29883 8.99967 3.29883C8.77424 3.29883 8.55804 3.37996 8.39863 3.52439C8.23923 3.66881 8.14967 3.86469 8.14967 4.06894V4.32564H7.01634V4.06894C7.01634 3.86469 6.92679 3.66881 6.76738 3.52439C6.60798 3.37996 6.39178 3.29883 6.16634 3.29883C5.94091 3.29883 5.72471 3.37996 5.5653 3.52439C5.40589 3.66881 5.31634 3.86469 5.31634 4.06894V4.32564H4.74967C4.37409 4.32605 4.01402 4.46141 3.74844 4.70203C3.48286 4.94265 3.33346 5.26888 3.33301 5.60917V17.4176C3.33346 17.7578 3.48286 18.0841 3.74844 18.3247C4.01402 18.5653 4.37409 18.7007 4.74967 18.7011H18.9163C19.2919 18.7007 19.652 18.5653 19.9176 18.3247C20.1832 18.0841 20.3326 17.7578 20.333 17.4176V5.60917C20.3326 5.26888 20.1832 4.94265 19.9176 4.70203C19.652 4.46141 19.2919 4.32605 18.9163 4.32564ZM17.2163 4.06894C17.2163 4.00086 17.2462 3.93556 17.2993 3.88742C17.3525 3.83928 17.4245 3.81224 17.4997 3.81224C17.5748 3.81224 17.6469 3.83928 17.7 3.88742C17.7532 3.93556 17.783 4.00086 17.783 4.06894V5.09576C17.783 5.16384 17.7532 5.22913 17.7 5.27727C17.6469 5.32542 17.5748 5.35246 17.4997 5.35246C17.4245 5.35246 17.3525 5.32542 17.2993 5.27727C17.2462 5.22913 17.2163 5.16384 17.2163 5.09576V4.06894ZM14.383 4.06894C14.383 4.00086 14.4129 3.93556 14.466 3.88742C14.5191 3.83928 14.5912 3.81224 14.6663 3.81224C14.7415 3.81224 14.8136 3.83928 14.8667 3.88742C14.9198 3.93556 14.9497 4.00086 14.9497 4.06894V5.09576C14.9497 5.16384 14.9198 5.22913 14.8667 5.27727C14.8136 5.32542 14.7415 5.35246 14.6663 5.35246C14.5912 5.35246 14.5191 5.32542 14.466 5.27727C14.4129 5.22913 14.383 5.16384 14.383 5.09576V4.06894ZM11.5497 4.06894C11.5497 4.00086 11.5795 3.93556 11.6327 3.88742C11.6858 3.83928 11.7579 3.81224 11.833 3.81224C11.9082 3.81224 11.9802 3.83928 12.0334 3.88742C12.0865 3.93556 12.1163 4.00086 12.1163 4.06894V5.09576C12.1163 5.16384 12.0865 5.22913 12.0334 5.27727C11.9802 5.32542 11.9082 5.35246 11.833 5.35246C11.7579 5.35246 11.6858 5.32542 11.6327 5.27727C11.5795 5.22913 11.5497 5.16384 11.5497 5.09576V4.06894ZM8.71634 4.06894C8.71634 4.00086 8.74619 3.93556 8.79933 3.88742C8.85246 3.83928 8.92453 3.81224 8.99967 3.81224C9.07482 3.81224 9.14689 3.83928 9.20002 3.88742C9.25316 3.93556 9.28301 4.00086 9.28301 4.06894V5.09576C9.28301 5.16384 9.25316 5.22913 9.20002 5.27727C9.14689 5.32542 9.07482 5.35246 8.99967 5.35246C8.92453 5.35246 8.85246 5.32542 8.79933 5.27727C8.74619 5.22913 8.71634 5.16384 8.71634 5.09576V4.06894ZM5.88301 4.06894C5.88301 4.00086 5.91286 3.93556 5.96599 3.88742C6.01913 3.83928 6.0912 3.81224 6.16634 3.81224C6.24149 3.81224 6.31355 3.83928 6.36669 3.88742C6.41982 3.93556 6.44967 4.00086 6.44967 4.06894V5.09576C6.44967 5.16384 6.41982 5.22913 6.36669 5.27727C6.31355 5.32542 6.24149 5.35246 6.16634 5.35246C6.0912 5.35246 6.01913 5.32542 5.96599 5.27727C5.91286 5.22913 5.88301 5.16384 5.88301 5.09576V4.06894ZM4.74967 4.83905H5.31634V5.09576C5.31634 5.3 5.40589 5.49589 5.5653 5.64031C5.72471 5.78473 5.94091 5.86587 6.16634 5.86587C6.39178 5.86587 6.60798 5.78473 6.76738 5.64031C6.92679 5.49589 7.01634 5.3 7.01634 5.09576V4.83905H8.14967V5.09576C8.14967 5.3 8.23923 5.49589 8.39863 5.64031C8.55804 5.78473 8.77424 5.86587 8.99967 5.86587C9.22511 5.86587 9.44131 5.78473 9.60072 5.64031C9.76012 5.49589 9.84967 5.3 9.84967 5.09576V4.83905H10.983V5.09576C10.983 5.3 11.0726 5.49589 11.232 5.64031C11.3914 5.78473 11.6076 5.86587 11.833 5.86587C12.0584 5.86587 12.2746 5.78473 12.434 5.64031C12.5935 5.49589 12.683 5.3 12.683 5.09576V4.83905H13.8163V5.09576C13.8163 5.3 13.9059 5.49589 14.0653 5.64031C14.2247 5.78473 14.4409 5.86587 14.6663 5.86587C14.8918 5.86587 15.108 5.78473 15.2674 5.64031C15.4268 5.49589 15.5163 5.3 15.5163 5.09576V4.83905H16.6497V5.09576C16.6497 5.3 16.7392 5.49589 16.8986 5.64031C17.058 5.78473 17.2742 5.86587 17.4997 5.86587C17.7251 5.86587 17.9413 5.78473 18.1007 5.64031C18.2601 5.49589 18.3497 5.3 18.3497 5.09576V4.83905H18.9163C19.1418 4.83905 19.358 4.92019 19.5174 5.06461C19.6768 5.20904 19.7663 5.40492 19.7663 5.60917V6.37928H3.89967V5.60917C3.89967 5.40492 3.98923 5.20904 4.14863 5.06461C4.30804 4.92019 4.52424 4.83905 4.74967 4.83905ZM18.9163 18.1877H4.74967C4.52424 18.1877 4.30804 18.1065 4.14863 17.9621C3.98923 17.8177 3.89967 17.6218 3.89967 17.4176V6.89269H19.7663V17.4176C19.7663 17.6218 19.6768 17.8177 19.5174 17.9621C19.358 18.1065 19.1418 18.1877 18.9163 18.1877Z" fill="#006F7B"/>
<path d="M18.9163 4.32564H18.3497V4.06894C18.3497 3.86469 18.2601 3.66881 18.1007 3.52439C17.9413 3.37996 17.7251 3.29883 17.4997 3.29883C17.2742 3.29883 17.058 3.37996 16.8986 3.52439C16.7392 3.66881 16.6497 3.86469 16.6497 4.06894V4.32564H15.5163V4.06894C15.5163 3.86469 15.4268 3.66881 15.2674 3.52439C15.108 3.37996 14.8918 3.29883 14.6663 3.29883C14.4409 3.29883 14.2247 3.37996 14.0653 3.52439C13.9059 3.66881 13.8163 3.86469 13.8163 4.06894V4.32564H12.683V4.06894C12.683 3.86469 12.5935 3.66881 12.434 3.52439C12.2746 3.37996 12.0584 3.29883 11.833 3.29883C11.6076 3.29883 11.3914 3.37996 11.232 3.52439C11.0726 3.66881 10.983 3.86469 10.983 4.06894V4.32564H9.84967V4.06894C9.84967 3.86469 9.76012 3.66881 9.60072 3.52439C9.44131 3.37996 9.22511 3.29883 8.99967 3.29883C8.77424 3.29883 8.55804 3.37996 8.39863 3.52439C8.23923 3.66881 8.14967 3.86469 8.14967 4.06894V4.32564H7.01634V4.06894C7.01634 3.86469 6.92679 3.66881 6.76738 3.52439C6.60798 3.37996 6.39178 3.29883 6.16634 3.29883C5.94091 3.29883 5.72471 3.37996 5.5653 3.52439C5.40589 3.66881 5.31634 3.86469 5.31634 4.06894V4.32564H4.74967C4.37409 4.32605 4.01402 4.46141 3.74844 4.70203C3.48286 4.94265 3.33346 5.26888 3.33301 5.60917V17.4176C3.33346 17.7578 3.48286 18.0841 3.74844 18.3247C4.01402 18.5653 4.37409 18.7007 4.74967 18.7011H18.9163C19.2919 18.7007 19.652 18.5653 19.9176 18.3247C20.1832 18.0841 20.3326 17.7578 20.333 17.4176V5.60917C20.3326 5.26888 20.1832 4.94265 19.9176 4.70203C19.652 4.46141 19.2919 4.32605 18.9163 4.32564ZM17.2163 4.06894C17.2163 4.00086 17.2462 3.93556 17.2993 3.88742C17.3525 3.83928 17.4245 3.81224 17.4997 3.81224C17.5748 3.81224 17.6469 3.83928 17.7 3.88742C17.7532 3.93556 17.783 4.00086 17.783 4.06894V5.09576C17.783 5.16384 17.7532 5.22913 17.7 5.27727C17.6469 5.32542 17.5748 5.35246 17.4997 5.35246C17.4245 5.35246 17.3525 5.32542 17.2993 5.27727C17.2462 5.22913 17.2163 5.16384 17.2163 5.09576V4.06894ZM14.383 4.06894C14.383 4.00086 14.4129 3.93556 14.466 3.88742C14.5191 3.83928 14.5912 3.81224 14.6663 3.81224C14.7415 3.81224 14.8136 3.83928 14.8667 3.88742C14.9198 3.93556 14.9497 4.00086 14.9497 4.06894V5.09576C14.9497 5.16384 14.9198 5.22913 14.8667 5.27727C14.8136 5.32542 14.7415 5.35246 14.6663 5.35246C14.5912 5.35246 14.5191 5.32542 14.466 5.27727C14.4129 5.22913 14.383 5.16384 14.383 5.09576V4.06894ZM11.5497 4.06894C11.5497 4.00086 11.5795 3.93556 11.6327 3.88742C11.6858 3.83928 11.7579 3.81224 11.833 3.81224C11.9082 3.81224 11.9802 3.83928 12.0334 3.88742C12.0865 3.93556 12.1163 4.00086 12.1163 4.06894V5.09576C12.1163 5.16384 12.0865 5.22913 12.0334 5.27727C11.9802 5.32542 11.9082 5.35246 11.833 5.35246C11.7579 5.35246 11.6858 5.32542 11.6327 5.27727C11.5795 5.22913 11.5497 5.16384 11.5497 5.09576V4.06894ZM8.71634 4.06894C8.71634 4.00086 8.74619 3.93556 8.79933 3.88742C8.85246 3.83928 8.92453 3.81224 8.99967 3.81224C9.07482 3.81224 9.14689 3.83928 9.20002 3.88742C9.25316 3.93556 9.28301 4.00086 9.28301 4.06894V5.09576C9.28301 5.16384 9.25316 5.22913 9.20002 5.27727C9.14689 5.32542 9.07482 5.35246 8.99967 5.35246C8.92453 5.35246 8.85246 5.32542 8.79933 5.27727C8.74619 5.22913 8.71634 5.16384 8.71634 5.09576V4.06894ZM5.88301 4.06894C5.88301 4.00086 5.91286 3.93556 5.96599 3.88742C6.01913 3.83928 6.0912 3.81224 6.16634 3.81224C6.24149 3.81224 6.31355 3.83928 6.36669 3.88742C6.41982 3.93556 6.44967 4.00086 6.44967 4.06894V5.09576C6.44967 5.16384 6.41982 5.22913 6.36669 5.27727C6.31355 5.32542 6.24149 5.35246 6.16634 5.35246C6.0912 5.35246 6.01913 5.32542 5.96599 5.27727C5.91286 5.22913 5.88301 5.16384 5.88301 5.09576V4.06894ZM4.74967 4.83905H5.31634V5.09576C5.31634 5.3 5.40589 5.49589 5.5653 5.64031C5.72471 5.78473 5.94091 5.86587 6.16634 5.86587C6.39178 5.86587 6.60798 5.78473 6.76738 5.64031C6.92679 5.49589 7.01634 5.3 7.01634 5.09576V4.83905H8.14967V5.09576C8.14967 5.3 8.23923 5.49589 8.39863 5.64031C8.55804 5.78473 8.77424 5.86587 8.99967 5.86587C9.22511 5.86587 9.44131 5.78473 9.60072 5.64031C9.76012 5.49589 9.84967 5.3 9.84967 5.09576V4.83905H10.983V5.09576C10.983 5.3 11.0726 5.49589 11.232 5.64031C11.3914 5.78473 11.6076 5.86587 11.833 5.86587C12.0584 5.86587 12.2746 5.78473 12.434 5.64031C12.5935 5.49589 12.683 5.3 12.683 5.09576V4.83905H13.8163V5.09576C13.8163 5.3 13.9059 5.49589 14.0653 5.64031C14.2247 5.78473 14.4409 5.86587 14.6663 5.86587C14.8918 5.86587 15.108 5.78473 15.2674 5.64031C15.4268 5.49589 15.5163 5.3 15.5163 5.09576V4.83905H16.6497V5.09576C16.6497 5.3 16.7392 5.49589 16.8986 5.64031C17.058 5.78473 17.2742 5.86587 17.4997 5.86587C17.7251 5.86587 17.9413 5.78473 18.1007 5.64031C18.2601 5.49589 18.3497 5.3 18.3497 5.09576V4.83905H18.9163C19.1418 4.83905 19.358 4.92019 19.5174 5.06461C19.6768 5.20904 19.7663 5.40492 19.7663 5.60917V6.37928H3.89967V5.60917C3.89967 5.40492 3.98923 5.20904 4.14863 5.06461C4.30804 4.92019 4.52424 4.83905 4.74967 4.83905ZM18.9163 18.1877H4.74967C4.52424 18.1877 4.30804 18.1065 4.14863 17.9621C3.98923 17.8177 3.89967 17.6218 3.89967 17.4176V6.89269H19.7663V17.4176C19.7663 17.6218 19.6768 17.8177 19.5174 17.9621C19.358 18.1065 19.1418 18.1877 18.9163 18.1877Z" stroke="#006F7B" stroke-width="0.2" mask="url(#path-1-outside-1_4896_25048)"/>
<path d="M8.29987 7.73418H6.59987C6.43783 7.73418 6.28154 7.79246 6.1656 7.8975C6.0495 8.00269 5.9832 8.14648 5.9832 8.29759V9.83781C5.9832 9.98892 6.0495 10.1327 6.1656 10.2379C6.28154 10.3429 6.43783 10.4012 6.59987 10.4012H8.29987C8.46191 10.4012 8.61819 10.3429 8.73413 10.2379C8.85024 10.1327 8.91654 9.98892 8.91654 9.83781V8.29759C8.91654 8.14648 8.85024 8.00269 8.73413 7.8975C8.61819 7.79246 8.46191 7.73418 8.29987 7.73418ZM6.64987 9.78781V8.34759H8.24987V9.78781H6.64987Z" fill="#006F7B" stroke="#006F7B" stroke-width="0.1"/>
<path d="M12.6993 7.73418H10.9993C10.8372 7.73418 10.681 7.79246 10.565 7.8975C10.4489 8.00269 10.3826 8.14648 10.3826 8.29759V9.83781C10.3826 9.98892 10.4489 10.1327 10.565 10.2379C10.681 10.3429 10.8372 10.4012 10.9993 10.4012H12.6993C12.8613 10.4012 13.0176 10.3429 13.1335 10.2379C13.2497 10.1327 13.316 9.98892 13.316 9.83781V8.29759C13.316 8.14648 13.2497 8.00269 13.1335 7.8975C13.0176 7.79246 12.8613 7.73418 12.6993 7.73418ZM11.0493 9.78781V8.34759H12.6493V9.78781H11.0493Z" fill="#006F7B" stroke="#006F7B" stroke-width="0.1"/>
<path d="M17.0997 7.73418H15.3997C15.2376 7.73418 15.0813 7.79246 14.9654 7.8975C14.8493 8.00269 14.783 8.14648 14.783 8.29759V9.83781C14.783 9.98892 14.8493 10.1327 14.9654 10.2379C15.0813 10.3429 15.2376 10.4012 15.3997 10.4012H17.0997C17.2617 10.4012 17.418 10.3429 17.5339 10.2379C17.65 10.1327 17.7163 9.98892 17.7163 9.83781V8.29759C17.7163 8.14648 17.65 8.00269 17.5339 7.8975C17.418 7.79246 17.2617 7.73418 17.0997 7.73418ZM15.4497 9.78781V8.34759H17.0497V9.78781H15.4497Z" fill="#006F7B" stroke="#006F7B" stroke-width="0.1"/>
<path d="M8.29987 11.0848H6.59987C6.43783 11.0848 6.28154 11.143 6.1656 11.2481C6.0495 11.3533 5.9832 11.4971 5.9832 11.6482V13.1884C5.9832 13.3395 6.0495 13.4833 6.1656 13.5885C6.28154 13.6935 6.43783 13.7518 6.59987 13.7518H8.29987C8.46191 13.7518 8.61819 13.6935 8.73413 13.5885C8.85024 13.4833 8.91654 13.3395 8.91654 13.1884V11.6482C8.91654 11.4971 8.85024 11.3533 8.73413 11.2481C8.61819 11.143 8.46191 11.0848 8.29987 11.0848ZM6.64987 13.1384V11.6982H8.24987V13.1384H6.64987Z" fill="#006F7B" stroke="#006F7B" stroke-width="0.1"/>
<path d="M8.29987 14.4354H6.59987C6.43783 14.4354 6.28154 14.4936 6.1656 14.5987C6.0495 14.7039 5.9832 14.8477 5.9832 14.9988V16.539C5.9832 16.6901 6.0495 16.8339 6.1656 16.9391C6.28154 17.0441 6.43783 17.1024 6.59987 17.1024H8.29987C8.46191 17.1024 8.61819 17.0441 8.73413 16.9391C8.85024 16.8339 8.91654 16.6901 8.91654 16.539V14.9988C8.91654 14.8477 8.85024 14.7039 8.73413 14.5987C8.61819 14.4936 8.46191 14.4354 8.29987 14.4354ZM6.64987 16.489V15.0488H8.24987V16.489H6.64987Z" fill="#006F7B" stroke="#006F7B" stroke-width="0.1"/>
<path d="M12.6993 14.4354H10.9993C10.8372 14.4354 10.681 14.4936 10.565 14.5987C10.4489 14.7039 10.3826 14.8477 10.3826 14.9988V16.539C10.3826 16.6901 10.4489 16.8339 10.565 16.9391C10.681 17.0441 10.8372 17.1024 10.9993 17.1024H12.6993C12.8613 17.1024 13.0176 17.0441 13.1335 16.9391C13.2497 16.8339 13.316 16.6901 13.316 16.539V14.9988C13.316 14.8477 13.2497 14.7039 13.1335 14.5987C13.0176 14.4936 12.8613 14.4354 12.6993 14.4354ZM11.0493 16.489V15.0488H12.6493V16.489H11.0493Z" fill="#006F7B" stroke="#006F7B" stroke-width="0.1"/>
<path d="M17.0997 14.4354H15.3997C15.2376 14.4354 15.0813 14.4936 14.9654 14.5987C14.8493 14.7039 14.783 14.8477 14.783 14.9988V16.539C14.783 16.6901 14.8493 16.8339 14.9654 16.9391C15.0813 17.0441 15.2376 17.1024 15.3997 17.1024H17.0997C17.2617 17.1024 17.418 17.0441 17.5339 16.9391C17.65 16.8339 17.7163 16.6901 17.7163 16.539V14.9988C17.7163 14.8477 17.65 14.7039 17.5339 14.5987C17.418 14.4936 17.2617 14.4354 17.0997 14.4354ZM15.4497 16.489V15.0488H17.0497V16.489H15.4497Z" fill="#006F7B" stroke="#006F7B" stroke-width="0.1"/>
<path d="M17.7458 11.7739L18.603 10.9167L18.3455 10.6592L17.7458 11.2589V11.1522H14.832V13.7017H17.7458L17.7458 11.7739ZM15.1962 13.3375V11.5164H17.3816V11.6232L16.2889 12.7158L15.6892 12.1162L15.4318 12.3736L16.2889 13.2308L17.3816 12.1381V13.3375L15.1962 13.3375Z" fill="#006F7B"/>
<path d="M13.3464 11.7739L14.2036 10.9167L13.9461 10.6592L13.3464 11.2589V11.1522H10.4326V13.7017H13.3464L13.3464 11.7739ZM10.7968 13.3375V11.5164H12.9821V11.6232L11.8895 12.7158L11.2898 12.1162L11.0324 12.3736L11.8895 13.2308L12.9822 12.1381V13.3375L10.7968 13.3375Z" fill="#006F7B"/>
</svg>
