<svg width="12" height="16" viewBox="0 0 12 16" fill="none" xmlns="http://www.w3.org/2000/svg">
<path d="M1.04619 14.7881L1.59278 14.91C4.30095 15.5136 7.36348 15.5134 10.0874 14.9101L10.5118 14.8161L10.4777 14.3827L10.1251 9.89983L10.1242 9.888L10.1227 9.87623C9.9233 8.30156 8.58718 7.10524 6.97382 7.10524H4.70713C3.11069 7.10524 1.75728 8.30138 1.55818 9.89373L1.55677 9.90504L1.55587 9.91641L1.22547 14.1008L1.09451 14.1663L1.42704 9.8864C1.59037 8.4935 2.6075 7.40354 3.90352 7.08318L4.97504 6.8183L4.06928 6.18749C3.25601 5.62108 2.72213 4.6793 2.72213 3.62594C2.72213 1.90566 4.12544 0.516113 5.83196 0.516113C7.55224 0.516113 8.94179 1.91942 8.94179 3.62594C8.94179 4.67941 8.40792 5.62108 7.59464 6.18749L6.70143 6.80956L7.75529 7.08188C9.06041 7.41913 10.0742 8.49834 10.2369 9.86987L10.6223 14.8467L10.6232 14.8584L10.6246 14.8701C10.6247 14.8702 10.6258 14.8752 10.6185 14.8854C10.6107 14.8962 10.5973 14.9063 10.5799 14.9107L10.5797 14.9107C9.076 15.2867 7.47139 15.4835 5.83196 15.4835C4.19261 15.4835 2.58803 15.2866 1.0843 14.9107C1.07212 14.9077 1.06323 14.9016 1.05562 14.8907C1.04731 14.8788 1.04127 14.8616 1.04206 14.8413L1.04619 14.7881ZM8.81686 3.64273C8.81686 1.98989 7.48498 0.657857 5.83199 0.657857C4.179 0.657857 2.84711 1.98989 2.84711 3.64273C2.84711 5.29557 4.179 6.62761 5.83199 6.62761C7.48483 6.62761 8.81686 5.29572 8.81686 3.64273Z" stroke="#006F7B"/>
<path d="M5.95375 13.3978C5.95375 13.4275 5.92959 13.4518 5.89968 13.4518C5.86991 13.4518 5.8457 13.4276 5.8457 13.3978C5.8457 13.3679 5.86994 13.3438 5.89968 13.3438C5.92956 13.3438 5.95375 13.3679 5.95375 13.3978Z" stroke="#006F7B"/>
<path d="M6.55385 10.006C6.65457 10.2074 6.63782 10.4425 6.52024 10.6272C6.39363 10.7854 6.282 10.869 6.15711 10.9626C6.14949 10.9683 6.14182 10.974 6.1341 10.9798C5.79833 11.2149 5.52966 11.4667 5.47929 12.1551C5.46255 12.3062 5.58001 12.4237 5.73109 12.4237H6.13408C6.26842 12.4237 6.36913 12.323 6.38588 12.1887M6.55385 10.006L7.37659 9.6031C7.62838 10.1236 7.59477 10.7111 7.259 11.1645M6.55385 10.006C6.48663 9.87164 6.30194 9.63658 5.86543 9.63658C5.27785 9.63658 5.10991 9.98922 5.05955 10.2746L6.55385 10.006ZM6.38588 12.1887C6.40246 11.8895 6.48495 11.8371 6.66585 11.722L6.6713 11.7186M6.38588 12.1887L6.13408 12.1573L5.98248 12.1384C5.98913 12.0699 5.99832 12.01 6.00931 11.9574C6.04755 11.9356 6.09097 11.9237 6.13408 11.9237H6.0168C6.04503 11.8047 6.0827 11.7259 6.11945 11.6691C6.18081 11.5742 6.26643 11.4978 6.41714 11.392L6.6713 11.7186M6.38588 12.1887L6.13408 12.1747L5.97996 12.1662C5.97925 12.1745 5.97859 12.183 5.97796 12.1916L5.97728 12.2009L5.97625 12.2102C5.97693 12.204 5.97738 12.1978 5.97758 12.1915C5.97786 12.1831 5.9777 12.1745 5.9771 12.166L5.88665 12.161C5.88958 12.1081 5.89442 12.054 5.90275 11.9996C5.85088 11.9459 5.78606 11.9237 5.73109 11.9237H5.91675C5.94126 11.8115 5.98367 11.6995 6.05783 11.595C6.15665 11.4558 6.29195 11.3665 6.37028 11.3172C6.37431 11.3147 6.37819 11.3122 6.3819 11.3099C6.38273 11.3094 6.38355 11.3089 6.38437 11.3084C6.39787 11.2979 6.41134 11.2876 6.42481 11.2773C6.56293 11.1713 6.69946 11.0665 6.84283 10.8852C6.84834 10.8782 6.85386 10.8711 6.8594 10.8639C6.86288 10.8592 6.86631 10.8544 6.86969 10.8496C7.07094 10.5649 7.10119 10.1908 6.93174 9.83182L6.93074 10.9134L7.259 11.1645M6.6713 11.7186C6.68905 11.7047 6.70773 11.6905 6.72723 11.6756C6.87368 11.5636 7.06633 11.4164 7.259 11.1645M6.6713 11.7186L6.44882 11.3688C6.45264 11.3659 6.45649 11.363 6.46037 11.3601C6.58731 11.2653 6.74344 11.1486 6.9107 10.9395L6.92724 10.9188L7.259 11.1645M5.88972 12.1268C5.89333 12.0979 5.90476 12.0635 5.92822 12.0303C5.95119 12.0627 5.96652 12.0995 5.97346 12.1373L5.88972 12.1268Z" stroke="#006F7B"/>
</svg>
