<svg width="23" height="22" viewBox="0 0 23 22" fill="none" xmlns="http://www.w3.org/2000/svg">
<mask id="path-1-outside-1_4896_25177" maskUnits="userSpaceOnUse" x="1.66602" y="2.29883" width="19" height="17" fill="black">
<rect fill="white" x="1.66602" y="2.29883" width="19" height="17"/>
<path d="M18.2493 4.32564H17.6827V4.06894C17.6827 3.86469 17.5931 3.66881 17.4337 3.52439C17.2743 3.37996 17.0581 3.29883 16.8327 3.29883C16.6072 3.29883 16.391 3.37996 16.2316 3.52439C16.0722 3.66881 15.9827 3.86469 15.9827 4.06894V4.32564H14.8493V4.06894C14.8493 3.86469 14.7598 3.66881 14.6004 3.52439C14.441 3.37996 14.2248 3.29883 13.9993 3.29883C13.7739 3.29883 13.5577 3.37996 13.3983 3.52439C13.2389 3.66881 13.1493 3.86469 13.1493 4.06894V4.32564H12.016V4.06894C12.016 3.86469 11.9265 3.66881 11.7671 3.52439C11.6076 3.37996 11.3914 3.29883 11.166 3.29883C10.9406 3.29883 10.7244 3.37996 10.565 3.52439C10.4056 3.66881 10.316 3.86469 10.316 4.06894V4.32564H9.18268V4.06894C9.18268 3.86469 9.09313 3.66881 8.93372 3.52439C8.77432 3.37996 8.55812 3.29883 8.33268 3.29883C8.10725 3.29883 7.89105 3.37996 7.73164 3.52439C7.57224 3.66881 7.48268 3.86469 7.48268 4.06894V4.32564H6.34935V4.06894C6.34935 3.86469 6.2598 3.66881 6.10039 3.52439C5.94098 3.37996 5.72478 3.29883 5.49935 3.29883C5.27391 3.29883 5.05771 3.37996 4.89831 3.52439C4.7389 3.66881 4.64935 3.86469 4.64935 4.06894V4.32564H4.08268C3.7071 4.32605 3.34702 4.46141 3.08144 4.70203C2.81587 4.94265 2.66647 5.26888 2.66602 5.60917V17.4176C2.66647 17.7578 2.81587 18.0841 3.08144 18.3247C3.34702 18.5653 3.7071 18.7007 4.08268 18.7011H18.2493C18.6249 18.7007 18.985 18.5653 19.2506 18.3247C19.5162 18.0841 19.6656 17.7578 19.666 17.4176V5.60917C19.6656 5.26888 19.5162 4.94265 19.2506 4.70203C18.985 4.46141 18.6249 4.32605 18.2493 4.32564ZM16.5493 4.06894C16.5493 4.00086 16.5792 3.93556 16.6323 3.88742C16.6855 3.83928 16.7575 3.81224 16.8327 3.81224C16.9078 3.81224 16.9799 3.83928 17.033 3.88742C17.0862 3.93556 17.116 4.00086 17.116 4.06894V5.09576C17.116 5.16384 17.0862 5.22913 17.033 5.27727C16.9799 5.32542 16.9078 5.35246 16.8327 5.35246C16.7575 5.35246 16.6855 5.32542 16.6323 5.27727C16.5792 5.22913 16.5493 5.16384 16.5493 5.09576V4.06894ZM13.716 4.06894C13.716 4.00086 13.7459 3.93556 13.799 3.88742C13.8521 3.83928 13.9242 3.81224 13.9993 3.81224C14.0745 3.81224 14.1466 3.83928 14.1997 3.88742C14.2528 3.93556 14.2827 4.00086 14.2827 4.06894V5.09576C14.2827 5.16384 14.2528 5.22913 14.1997 5.27727C14.1466 5.32542 14.0745 5.35246 13.9993 5.35246C13.9242 5.35246 13.8521 5.32542 13.799 5.27727C13.7459 5.22913 13.716 5.16384 13.716 5.09576V4.06894ZM10.8827 4.06894C10.8827 4.00086 10.9125 3.93556 10.9657 3.88742C11.0188 3.83928 11.0909 3.81224 11.166 3.81224C11.2412 3.81224 11.3132 3.83928 11.3664 3.88742C11.4195 3.93556 11.4493 4.00086 11.4493 4.06894V5.09576C11.4493 5.16384 11.4195 5.22913 11.3664 5.27727C11.3132 5.32542 11.2412 5.35246 11.166 5.35246C11.0909 5.35246 11.0188 5.32542 10.9657 5.27727C10.9125 5.22913 10.8827 5.16384 10.8827 5.09576V4.06894ZM8.04935 4.06894C8.04935 4.00086 8.0792 3.93556 8.13234 3.88742C8.18547 3.83928 8.25754 3.81224 8.33268 3.81224C8.40783 3.81224 8.47989 3.83928 8.53303 3.88742C8.58616 3.93556 8.61602 4.00086 8.61602 4.06894V5.09576C8.61602 5.16384 8.58616 5.22913 8.53303 5.27727C8.47989 5.32542 8.40783 5.35246 8.33268 5.35246C8.25754 5.35246 8.18547 5.32542 8.13234 5.27727C8.0792 5.22913 8.04935 5.16384 8.04935 5.09576V4.06894ZM5.21602 4.06894C5.21602 4.00086 5.24587 3.93556 5.299 3.88742C5.35214 3.83928 5.4242 3.81224 5.49935 3.81224C5.57449 3.81224 5.64656 3.83928 5.6997 3.88742C5.75283 3.93556 5.78268 4.00086 5.78268 4.06894V5.09576C5.78268 5.16384 5.75283 5.22913 5.6997 5.27727C5.64656 5.32542 5.57449 5.35246 5.49935 5.35246C5.4242 5.35246 5.35214 5.32542 5.299 5.27727C5.24587 5.22913 5.21602 5.16384 5.21602 5.09576V4.06894ZM4.08268 4.83905H4.64935V5.09576C4.64935 5.3 4.7389 5.49589 4.89831 5.64031C5.05771 5.78473 5.27391 5.86587 5.49935 5.86587C5.72478 5.86587 5.94098 5.78473 6.10039 5.64031C6.2598 5.49589 6.34935 5.3 6.34935 5.09576V4.83905H7.48268V5.09576C7.48268 5.3 7.57224 5.49589 7.73164 5.64031C7.89105 5.78473 8.10725 5.86587 8.33268 5.86587C8.55812 5.86587 8.77432 5.78473 8.93372 5.64031C9.09313 5.49589 9.18268 5.3 9.18268 5.09576V4.83905H10.316V5.09576C10.316 5.3 10.4056 5.49589 10.565 5.64031C10.7244 5.78473 10.9406 5.86587 11.166 5.86587C11.3914 5.86587 11.6076 5.78473 11.7671 5.64031C11.9265 5.49589 12.016 5.3 12.016 5.09576V4.83905H13.1493V5.09576C13.1493 5.3 13.2389 5.49589 13.3983 5.64031C13.5577 5.78473 13.7739 5.86587 13.9993 5.86587C14.2248 5.86587 14.441 5.78473 14.6004 5.64031C14.7598 5.49589 14.8493 5.3 14.8493 5.09576V4.83905H15.9827V5.09576C15.9827 5.3 16.0722 5.49589 16.2316 5.64031C16.391 5.78473 16.6072 5.86587 16.8327 5.86587C17.0581 5.86587 17.2743 5.78473 17.4337 5.64031C17.5931 5.49589 17.6827 5.3 17.6827 5.09576V4.83905H18.2493C18.4748 4.83905 18.691 4.92019 18.8504 5.06461C19.0098 5.20904 19.0993 5.40492 19.0993 5.60917V6.37928H3.23268V5.60917C3.23268 5.40492 3.32224 5.20904 3.48164 5.06461C3.64105 4.92019 3.85725 4.83905 4.08268 4.83905ZM18.2493 18.1877H4.08268C3.85725 18.1877 3.64105 18.1065 3.48164 17.9621C3.32224 17.8177 3.23268 17.6218 3.23268 17.4176V6.89269H19.0993V17.4176C19.0993 17.6218 19.0098 17.8177 18.8504 17.9621C18.691 18.1065 18.4748 18.1877 18.2493 18.1877Z"/>
</mask>
<path d="M18.2493 4.32564H17.6827V4.06894C17.6827 3.86469 17.5931 3.66881 17.4337 3.52439C17.2743 3.37996 17.0581 3.29883 16.8327 3.29883C16.6072 3.29883 16.391 3.37996 16.2316 3.52439C16.0722 3.66881 15.9827 3.86469 15.9827 4.06894V4.32564H14.8493V4.06894C14.8493 3.86469 14.7598 3.66881 14.6004 3.52439C14.441 3.37996 14.2248 3.29883 13.9993 3.29883C13.7739 3.29883 13.5577 3.37996 13.3983 3.52439C13.2389 3.66881 13.1493 3.86469 13.1493 4.06894V4.32564H12.016V4.06894C12.016 3.86469 11.9265 3.66881 11.7671 3.52439C11.6076 3.37996 11.3914 3.29883 11.166 3.29883C10.9406 3.29883 10.7244 3.37996 10.565 3.52439C10.4056 3.66881 10.316 3.86469 10.316 4.06894V4.32564H9.18268V4.06894C9.18268 3.86469 9.09313 3.66881 8.93372 3.52439C8.77432 3.37996 8.55812 3.29883 8.33268 3.29883C8.10725 3.29883 7.89105 3.37996 7.73164 3.52439C7.57224 3.66881 7.48268 3.86469 7.48268 4.06894V4.32564H6.34935V4.06894C6.34935 3.86469 6.2598 3.66881 6.10039 3.52439C5.94098 3.37996 5.72478 3.29883 5.49935 3.29883C5.27391 3.29883 5.05771 3.37996 4.89831 3.52439C4.7389 3.66881 4.64935 3.86469 4.64935 4.06894V4.32564H4.08268C3.7071 4.32605 3.34702 4.46141 3.08144 4.70203C2.81587 4.94265 2.66647 5.26888 2.66602 5.60917V17.4176C2.66647 17.7578 2.81587 18.0841 3.08144 18.3247C3.34702 18.5653 3.7071 18.7007 4.08268 18.7011H18.2493C18.6249 18.7007 18.985 18.5653 19.2506 18.3247C19.5162 18.0841 19.6656 17.7578 19.666 17.4176V5.60917C19.6656 5.26888 19.5162 4.94265 19.2506 4.70203C18.985 4.46141 18.6249 4.32605 18.2493 4.32564ZM16.5493 4.06894C16.5493 4.00086 16.5792 3.93556 16.6323 3.88742C16.6855 3.83928 16.7575 3.81224 16.8327 3.81224C16.9078 3.81224 16.9799 3.83928 17.033 3.88742C17.0862 3.93556 17.116 4.00086 17.116 4.06894V5.09576C17.116 5.16384 17.0862 5.22913 17.033 5.27727C16.9799 5.32542 16.9078 5.35246 16.8327 5.35246C16.7575 5.35246 16.6855 5.32542 16.6323 5.27727C16.5792 5.22913 16.5493 5.16384 16.5493 5.09576V4.06894ZM13.716 4.06894C13.716 4.00086 13.7459 3.93556 13.799 3.88742C13.8521 3.83928 13.9242 3.81224 13.9993 3.81224C14.0745 3.81224 14.1466 3.83928 14.1997 3.88742C14.2528 3.93556 14.2827 4.00086 14.2827 4.06894V5.09576C14.2827 5.16384 14.2528 5.22913 14.1997 5.27727C14.1466 5.32542 14.0745 5.35246 13.9993 5.35246C13.9242 5.35246 13.8521 5.32542 13.799 5.27727C13.7459 5.22913 13.716 5.16384 13.716 5.09576V4.06894ZM10.8827 4.06894C10.8827 4.00086 10.9125 3.93556 10.9657 3.88742C11.0188 3.83928 11.0909 3.81224 11.166 3.81224C11.2412 3.81224 11.3132 3.83928 11.3664 3.88742C11.4195 3.93556 11.4493 4.00086 11.4493 4.06894V5.09576C11.4493 5.16384 11.4195 5.22913 11.3664 5.27727C11.3132 5.32542 11.2412 5.35246 11.166 5.35246C11.0909 5.35246 11.0188 5.32542 10.9657 5.27727C10.9125 5.22913 10.8827 5.16384 10.8827 5.09576V4.06894ZM8.04935 4.06894C8.04935 4.00086 8.0792 3.93556 8.13234 3.88742C8.18547 3.83928 8.25754 3.81224 8.33268 3.81224C8.40783 3.81224 8.47989 3.83928 8.53303 3.88742C8.58616 3.93556 8.61602 4.00086 8.61602 4.06894V5.09576C8.61602 5.16384 8.58616 5.22913 8.53303 5.27727C8.47989 5.32542 8.40783 5.35246 8.33268 5.35246C8.25754 5.35246 8.18547 5.32542 8.13234 5.27727C8.0792 5.22913 8.04935 5.16384 8.04935 5.09576V4.06894ZM5.21602 4.06894C5.21602 4.00086 5.24587 3.93556 5.299 3.88742C5.35214 3.83928 5.4242 3.81224 5.49935 3.81224C5.57449 3.81224 5.64656 3.83928 5.6997 3.88742C5.75283 3.93556 5.78268 4.00086 5.78268 4.06894V5.09576C5.78268 5.16384 5.75283 5.22913 5.6997 5.27727C5.64656 5.32542 5.57449 5.35246 5.49935 5.35246C5.4242 5.35246 5.35214 5.32542 5.299 5.27727C5.24587 5.22913 5.21602 5.16384 5.21602 5.09576V4.06894ZM4.08268 4.83905H4.64935V5.09576C4.64935 5.3 4.7389 5.49589 4.89831 5.64031C5.05771 5.78473 5.27391 5.86587 5.49935 5.86587C5.72478 5.86587 5.94098 5.78473 6.10039 5.64031C6.2598 5.49589 6.34935 5.3 6.34935 5.09576V4.83905H7.48268V5.09576C7.48268 5.3 7.57224 5.49589 7.73164 5.64031C7.89105 5.78473 8.10725 5.86587 8.33268 5.86587C8.55812 5.86587 8.77432 5.78473 8.93372 5.64031C9.09313 5.49589 9.18268 5.3 9.18268 5.09576V4.83905H10.316V5.09576C10.316 5.3 10.4056 5.49589 10.565 5.64031C10.7244 5.78473 10.9406 5.86587 11.166 5.86587C11.3914 5.86587 11.6076 5.78473 11.7671 5.64031C11.9265 5.49589 12.016 5.3 12.016 5.09576V4.83905H13.1493V5.09576C13.1493 5.3 13.2389 5.49589 13.3983 5.64031C13.5577 5.78473 13.7739 5.86587 13.9993 5.86587C14.2248 5.86587 14.441 5.78473 14.6004 5.64031C14.7598 5.49589 14.8493 5.3 14.8493 5.09576V4.83905H15.9827V5.09576C15.9827 5.3 16.0722 5.49589 16.2316 5.64031C16.391 5.78473 16.6072 5.86587 16.8327 5.86587C17.0581 5.86587 17.2743 5.78473 17.4337 5.64031C17.5931 5.49589 17.6827 5.3 17.6827 5.09576V4.83905H18.2493C18.4748 4.83905 18.691 4.92019 18.8504 5.06461C19.0098 5.20904 19.0993 5.40492 19.0993 5.60917V6.37928H3.23268V5.60917C3.23268 5.40492 3.32224 5.20904 3.48164 5.06461C3.64105 4.92019 3.85725 4.83905 4.08268 4.83905ZM18.2493 18.1877H4.08268C3.85725 18.1877 3.64105 18.1065 3.48164 17.9621C3.32224 17.8177 3.23268 17.6218 3.23268 17.4176V6.89269H19.0993V17.4176C19.0993 17.6218 19.0098 17.8177 18.8504 17.9621C18.691 18.1065 18.4748 18.1877 18.2493 18.1877Z" fill="#006F7B"/>
<path d="M18.2493 4.32564H17.6827V4.06894C17.6827 3.86469 17.5931 3.66881 17.4337 3.52439C17.2743 3.37996 17.0581 3.29883 16.8327 3.29883C16.6072 3.29883 16.391 3.37996 16.2316 3.52439C16.0722 3.66881 15.9827 3.86469 15.9827 4.06894V4.32564H14.8493V4.06894C14.8493 3.86469 14.7598 3.66881 14.6004 3.52439C14.441 3.37996 14.2248 3.29883 13.9993 3.29883C13.7739 3.29883 13.5577 3.37996 13.3983 3.52439C13.2389 3.66881 13.1493 3.86469 13.1493 4.06894V4.32564H12.016V4.06894C12.016 3.86469 11.9265 3.66881 11.7671 3.52439C11.6076 3.37996 11.3914 3.29883 11.166 3.29883C10.9406 3.29883 10.7244 3.37996 10.565 3.52439C10.4056 3.66881 10.316 3.86469 10.316 4.06894V4.32564H9.18268V4.06894C9.18268 3.86469 9.09313 3.66881 8.93372 3.52439C8.77432 3.37996 8.55812 3.29883 8.33268 3.29883C8.10725 3.29883 7.89105 3.37996 7.73164 3.52439C7.57224 3.66881 7.48268 3.86469 7.48268 4.06894V4.32564H6.34935V4.06894C6.34935 3.86469 6.2598 3.66881 6.10039 3.52439C5.94098 3.37996 5.72478 3.29883 5.49935 3.29883C5.27391 3.29883 5.05771 3.37996 4.89831 3.52439C4.7389 3.66881 4.64935 3.86469 4.64935 4.06894V4.32564H4.08268C3.7071 4.32605 3.34702 4.46141 3.08144 4.70203C2.81587 4.94265 2.66647 5.26888 2.66602 5.60917V17.4176C2.66647 17.7578 2.81587 18.0841 3.08144 18.3247C3.34702 18.5653 3.7071 18.7007 4.08268 18.7011H18.2493C18.6249 18.7007 18.985 18.5653 19.2506 18.3247C19.5162 18.0841 19.6656 17.7578 19.666 17.4176V5.60917C19.6656 5.26888 19.5162 4.94265 19.2506 4.70203C18.985 4.46141 18.6249 4.32605 18.2493 4.32564ZM16.5493 4.06894C16.5493 4.00086 16.5792 3.93556 16.6323 3.88742C16.6855 3.83928 16.7575 3.81224 16.8327 3.81224C16.9078 3.81224 16.9799 3.83928 17.033 3.88742C17.0862 3.93556 17.116 4.00086 17.116 4.06894V5.09576C17.116 5.16384 17.0862 5.22913 17.033 5.27727C16.9799 5.32542 16.9078 5.35246 16.8327 5.35246C16.7575 5.35246 16.6855 5.32542 16.6323 5.27727C16.5792 5.22913 16.5493 5.16384 16.5493 5.09576V4.06894ZM13.716 4.06894C13.716 4.00086 13.7459 3.93556 13.799 3.88742C13.8521 3.83928 13.9242 3.81224 13.9993 3.81224C14.0745 3.81224 14.1466 3.83928 14.1997 3.88742C14.2528 3.93556 14.2827 4.00086 14.2827 4.06894V5.09576C14.2827 5.16384 14.2528 5.22913 14.1997 5.27727C14.1466 5.32542 14.0745 5.35246 13.9993 5.35246C13.9242 5.35246 13.8521 5.32542 13.799 5.27727C13.7459 5.22913 13.716 5.16384 13.716 5.09576V4.06894ZM10.8827 4.06894C10.8827 4.00086 10.9125 3.93556 10.9657 3.88742C11.0188 3.83928 11.0909 3.81224 11.166 3.81224C11.2412 3.81224 11.3132 3.83928 11.3664 3.88742C11.4195 3.93556 11.4493 4.00086 11.4493 4.06894V5.09576C11.4493 5.16384 11.4195 5.22913 11.3664 5.27727C11.3132 5.32542 11.2412 5.35246 11.166 5.35246C11.0909 5.35246 11.0188 5.32542 10.9657 5.27727C10.9125 5.22913 10.8827 5.16384 10.8827 5.09576V4.06894ZM8.04935 4.06894C8.04935 4.00086 8.0792 3.93556 8.13234 3.88742C8.18547 3.83928 8.25754 3.81224 8.33268 3.81224C8.40783 3.81224 8.47989 3.83928 8.53303 3.88742C8.58616 3.93556 8.61602 4.00086 8.61602 4.06894V5.09576C8.61602 5.16384 8.58616 5.22913 8.53303 5.27727C8.47989 5.32542 8.40783 5.35246 8.33268 5.35246C8.25754 5.35246 8.18547 5.32542 8.13234 5.27727C8.0792 5.22913 8.04935 5.16384 8.04935 5.09576V4.06894ZM5.21602 4.06894C5.21602 4.00086 5.24587 3.93556 5.299 3.88742C5.35214 3.83928 5.4242 3.81224 5.49935 3.81224C5.57449 3.81224 5.64656 3.83928 5.6997 3.88742C5.75283 3.93556 5.78268 4.00086 5.78268 4.06894V5.09576C5.78268 5.16384 5.75283 5.22913 5.6997 5.27727C5.64656 5.32542 5.57449 5.35246 5.49935 5.35246C5.4242 5.35246 5.35214 5.32542 5.299 5.27727C5.24587 5.22913 5.21602 5.16384 5.21602 5.09576V4.06894ZM4.08268 4.83905H4.64935V5.09576C4.64935 5.3 4.7389 5.49589 4.89831 5.64031C5.05771 5.78473 5.27391 5.86587 5.49935 5.86587C5.72478 5.86587 5.94098 5.78473 6.10039 5.64031C6.2598 5.49589 6.34935 5.3 6.34935 5.09576V4.83905H7.48268V5.09576C7.48268 5.3 7.57224 5.49589 7.73164 5.64031C7.89105 5.78473 8.10725 5.86587 8.33268 5.86587C8.55812 5.86587 8.77432 5.78473 8.93372 5.64031C9.09313 5.49589 9.18268 5.3 9.18268 5.09576V4.83905H10.316V5.09576C10.316 5.3 10.4056 5.49589 10.565 5.64031C10.7244 5.78473 10.9406 5.86587 11.166 5.86587C11.3914 5.86587 11.6076 5.78473 11.7671 5.64031C11.9265 5.49589 12.016 5.3 12.016 5.09576V4.83905H13.1493V5.09576C13.1493 5.3 13.2389 5.49589 13.3983 5.64031C13.5577 5.78473 13.7739 5.86587 13.9993 5.86587C14.2248 5.86587 14.441 5.78473 14.6004 5.64031C14.7598 5.49589 14.8493 5.3 14.8493 5.09576V4.83905H15.9827V5.09576C15.9827 5.3 16.0722 5.49589 16.2316 5.64031C16.391 5.78473 16.6072 5.86587 16.8327 5.86587C17.0581 5.86587 17.2743 5.78473 17.4337 5.64031C17.5931 5.49589 17.6827 5.3 17.6827 5.09576V4.83905H18.2493C18.4748 4.83905 18.691 4.92019 18.8504 5.06461C19.0098 5.20904 19.0993 5.40492 19.0993 5.60917V6.37928H3.23268V5.60917C3.23268 5.40492 3.32224 5.20904 3.48164 5.06461C3.64105 4.92019 3.85725 4.83905 4.08268 4.83905ZM18.2493 18.1877H4.08268C3.85725 18.1877 3.64105 18.1065 3.48164 17.9621C3.32224 17.8177 3.23268 17.6218 3.23268 17.4176V6.89269H19.0993V17.4176C19.0993 17.6218 19.0098 17.8177 18.8504 17.9621C18.691 18.1065 18.4748 18.1877 18.2493 18.1877Z" stroke="#006F7B" stroke-width="0.4" mask="url(#path-1-outside-1_4896_25177)"/>
<path d="M7.63288 7.68418H5.93288C5.75908 7.68418 5.59065 7.74664 5.46504 7.86045C5.3391 7.97455 5.26621 8.13154 5.26621 8.29759V9.83781C5.26621 10.0039 5.3391 10.1609 5.46504 10.275C5.59065 10.3888 5.75908 10.4512 5.93288 10.4512H7.63288C7.80668 10.4512 7.9751 10.3888 8.10071 10.275C8.22665 10.1609 8.29954 10.0039 8.29954 9.83781V8.29759C8.29954 8.13154 8.22665 7.97455 8.10071 7.86045C7.9751 7.74664 7.80668 7.68418 7.63288 7.68418ZM6.03288 9.73781V8.39759H7.53288V9.73781H6.03288Z" fill="#006F7B" stroke="#006F7B" stroke-width="0.2"/>
<rect x="5.92188" y="14.9087" width="1.72086" height="1.72086" fill="#006F7B"/>
<rect x="14.8701" y="11.5576" width="1.72086" height="1.72086" fill="#006F7B"/>
<rect x="10.4697" y="11.5576" width="1.72086" height="1.72086" fill="#006F7B"/>
<rect x="5.92188" y="11.5576" width="1.72086" height="1.72086" fill="#006F7B"/>
<rect x="14.7051" y="8.20703" width="1.72086" height="1.72086" fill="#006F7B"/>
<rect x="10.3057" y="8.20703" width="1.72086" height="1.72086" fill="#006F7B"/>
<path d="M12.0323 7.68418H10.3323C10.1585 7.68418 9.99007 7.74664 9.86446 7.86045C9.73852 7.97455 9.66562 8.13154 9.66562 8.29759V9.83781C9.66562 10.0039 9.73852 10.1609 9.86446 10.275C9.99006 10.3888 10.1585 10.4512 10.3323 10.4512H12.0323C12.2061 10.4512 12.3745 10.3888 12.5001 10.275C12.6261 10.1609 12.699 10.0039 12.699 9.83781V8.29759C12.699 8.13154 12.6261 7.97455 12.5001 7.86045C12.3745 7.74664 12.2061 7.68418 12.0323 7.68418ZM10.4323 9.73781V8.39759H11.9323V9.73781H10.4323Z" fill="#006F7B" stroke="#006F7B" stroke-width="0.2"/>
<path d="M16.4327 7.68418H14.7327C14.5589 7.68418 14.3905 7.74664 14.2648 7.86045C14.1389 7.97455 14.066 8.13154 14.066 8.29759V9.83781C14.066 10.0039 14.1389 10.1609 14.2648 10.275C14.3905 10.3888 14.5589 10.4512 14.7327 10.4512H16.4327C16.6065 10.4512 16.7749 10.3888 16.9005 10.275C17.0265 10.1609 17.0993 10.0039 17.0993 9.83781V8.29759C17.0993 8.13154 17.0265 7.97455 16.9005 7.86045C16.7749 7.74664 16.6065 7.68418 16.4327 7.68418ZM14.8327 9.73781V8.39759H16.3327V9.73781H14.8327Z" fill="#006F7B" stroke="#006F7B" stroke-width="0.2"/>
<path d="M7.63288 11.0348H5.93288C5.75908 11.0348 5.59065 11.0972 5.46504 11.211C5.3391 11.3251 5.26621 11.4821 5.26621 11.6482V13.1884C5.26621 13.3544 5.3391 13.5114 5.46504 13.6255C5.59065 13.7393 5.75908 13.8018 5.93288 13.8018H7.63288C7.80668 13.8018 7.9751 13.7393 8.10071 13.6255C8.22665 13.5114 8.29954 13.3544 8.29954 13.1884V11.6482C8.29954 11.4821 8.22665 11.3251 8.10071 11.211C7.9751 11.0972 7.80668 11.0348 7.63288 11.0348ZM6.03288 13.0884V11.7482H7.53288V13.0884H6.03288Z" fill="#006F7B" stroke="#006F7B" stroke-width="0.2"/>
<path d="M12.0323 11.0348H10.3323C10.1585 11.0348 9.99007 11.0972 9.86446 11.211C9.73852 11.3251 9.66562 11.4821 9.66562 11.6482V13.1884C9.66562 13.3544 9.73852 13.5114 9.86446 13.6255C9.99007 13.7393 10.1585 13.8018 10.3323 13.8018H12.0323C12.2061 13.8018 12.3745 13.7393 12.5001 13.6255C12.6261 13.5114 12.699 13.3544 12.699 13.1884V11.6482C12.699 11.4821 12.6261 11.3251 12.5001 11.211C12.3745 11.0972 12.2061 11.0348 12.0323 11.0348ZM10.4323 13.0884V11.7482H11.9323V13.0884H10.4323Z" fill="#006F7B" stroke="#006F7B" stroke-width="0.2"/>
<path d="M16.4327 11.0348H14.7327C14.5589 11.0348 14.3905 11.0972 14.2648 11.211C14.1389 11.3251 14.066 11.4821 14.066 11.6482V13.1884C14.066 13.3544 14.1389 13.5114 14.2648 13.6255C14.3905 13.7393 14.5589 13.8018 14.7327 13.8018H16.4327C16.6065 13.8018 16.7749 13.7393 16.9005 13.6255C17.0265 13.5114 17.0993 13.3544 17.0993 13.1884V11.6482C17.0993 11.4821 17.0265 11.3251 16.9005 11.211C16.7749 11.0972 16.6065 11.0348 16.4327 11.0348ZM14.8327 13.0884V11.7482H16.3327V13.0884H14.8327Z" fill="#006F7B" stroke="#006F7B" stroke-width="0.2"/>
<path d="M7.63288 14.3854H5.93288C5.75908 14.3854 5.59065 14.4478 5.46504 14.5616C5.3391 14.6757 5.26621 14.8327 5.26621 14.9988V16.539C5.26621 16.705 5.3391 16.862 5.46504 16.9761C5.59065 17.0899 5.75908 17.1524 5.93288 17.1524H7.63288C7.80668 17.1524 7.9751 17.0899 8.10071 16.9761C8.22665 16.862 8.29954 16.705 8.29954 16.539V14.9988C8.29954 14.8327 8.22665 14.6757 8.10071 14.5616C7.9751 14.4478 7.80668 14.3854 7.63288 14.3854ZM6.03288 16.439V15.0988H7.53288V16.439H6.03288Z" fill="#006F7B" stroke="#006F7B" stroke-width="0.2"/>
<path d="M12.0323 14.3854H10.3323C10.1585 14.3854 9.99007 14.4478 9.86446 14.5616C9.73852 14.6757 9.66562 14.8327 9.66562 14.9988V16.539C9.66562 16.705 9.73852 16.862 9.86446 16.9761C9.99007 17.0899 10.1585 17.1524 10.3323 17.1524H12.0323C12.2061 17.1524 12.3745 17.0899 12.5001 16.9761C12.6261 16.862 12.699 16.705 12.699 16.539V14.9988C12.699 14.8327 12.6261 14.6757 12.5001 14.5616C12.3745 14.4478 12.2061 14.3854 12.0323 14.3854ZM10.4323 16.439V15.0988H11.9323V16.439H10.4323Z" fill="#006F7B" stroke="#006F7B" stroke-width="0.2"/>
<path d="M16.4327 14.3854H14.7327C14.5589 14.3854 14.3905 14.4478 14.2648 14.5616C14.1389 14.6757 14.066 14.8327 14.066 14.9988V16.539C14.066 16.705 14.1389 16.862 14.2648 16.9761C14.3905 17.0899 14.5589 17.1524 14.7327 17.1524H16.4327C16.6065 17.1524 16.7749 17.0899 16.9005 16.9761C17.0265 16.862 17.0993 16.705 17.0993 16.539V14.9988C17.0993 14.8327 17.0265 14.6757 16.9005 14.5616C16.7749 14.4478 16.6065 14.3854 16.4327 14.3854ZM14.8327 16.439V15.0988H16.3327V16.439H14.8327Z" fill="#006F7B" stroke="#006F7B" stroke-width="0.2"/>
</svg>
