<svg width="21" height="22" viewBox="0 0 21 22" fill="none" xmlns="http://www.w3.org/2000/svg">
<path d="M10.7595 2.73773C13.101 0.394138 16.8999 0.394138 19.2431 2.73729C21.5262 5.02035 21.5847 8.68556 19.4187 11.0395L19.2306 11.2368L10.4305 20.035L10.394 20.0653C8.93271 21.3821 6.67871 21.3373 5.27134 19.9299C3.95232 18.6109 3.8302 16.5482 4.90499 15.0915C4.92833 15.0462 4.95658 15.0024 4.98979 14.9613L5.04335 14.9016L5.13026 14.8139L5.27134 14.666L5.27426 14.6689L12.71 7.21461C12.9759 6.94799 13.3925 6.92323 13.6864 7.1407L13.7707 7.2132C14.0373 7.47912 14.062 7.89575 13.8446 8.18965L13.7721 8.27386L6.17745 15.8869C5.45981 16.7625 5.50969 18.0568 6.32709 18.8742C7.15615 19.7033 8.4758 19.7427 9.35159 18.9926L18.1843 10.1622C19.9398 8.40455 19.9398 5.55531 18.1824 3.79795C16.48 2.0955 13.7528 2.0423 11.9864 3.63834L11.8185 3.79795L11.8059 3.81226L2.26958 13.3486C1.97669 13.6414 1.50182 13.6414 1.20892 13.3486C0.942663 13.0823 0.918453 12.6656 1.13631 12.372L1.20892 12.2879L10.7578 2.73729L10.7595 2.73773Z" fill="#006F7B"/>
</svg>
