<svg width="23" height="22" viewBox="0 0 23 22" fill="none" xmlns="http://www.w3.org/2000/svg">
<path d="M18.8014 14.4656C18.8014 13.7819 18.6381 13.1389 18.3523 12.5674L18.2707 12.6491C18.1686 12.7511 18.036 12.8226 17.8931 12.8532C18.1278 13.343 18.2605 13.8941 18.2605 14.4656C18.2605 16.5169 16.5868 18.1906 14.5355 18.1906C12.4842 18.1906 10.8207 16.5169 10.8207 14.4656C10.8207 12.4143 12.4944 10.7406 14.5457 10.7406C15.3417 10.7406 16.0765 10.9958 16.6786 11.4142V11.9551L16.3827 12.251C15.8826 11.8326 15.2397 11.5877 14.5457 11.5877C12.9537 11.5877 11.6576 12.8838 11.6576 14.4758C11.6576 16.0679 12.9537 17.3538 14.5457 17.3538C16.1378 17.3538 17.4338 16.0577 17.4338 14.4656C17.4338 13.9554 17.3012 13.4859 17.0767 13.0675L16.6786 13.4655C16.8215 13.7717 16.9032 14.1084 16.9032 14.4656C16.9032 15.7617 15.852 16.8129 14.5559 16.8129C13.2598 16.8129 12.2087 15.7617 12.2087 14.4656C12.2087 13.1695 13.2598 12.1184 14.5559 12.1184C15.107 12.1184 15.6173 12.3123 16.0153 12.6286L15.4132 13.2308C15.1682 13.0573 14.8723 12.9552 14.5559 12.9552C13.7191 12.9552 13.0455 13.6288 13.0455 14.4656C13.0353 15.3025 13.7089 15.976 14.5457 15.976C15.3826 15.976 16.0561 15.3025 16.0561 14.4656C16.0561 14.3534 16.0459 14.2309 16.0153 14.1288L15.505 14.6289C15.4234 15.0882 15.0254 15.4454 14.5355 15.4454C13.9946 15.4454 13.5558 15.0065 13.5558 14.4656C13.5558 13.9247 13.9946 13.4859 14.5355 13.4859C14.709 13.4859 14.8723 13.5369 15.0152 13.6084L14.3518 14.2717C14.2497 14.3738 14.2497 14.5473 14.3518 14.6493C14.4028 14.7004 14.4743 14.731 14.5355 14.731C14.5967 14.731 14.6682 14.7004 14.7192 14.6493L17.046 12.3225H17.7502C17.8012 12.3225 17.8523 12.3021 17.8931 12.2613L18.6993 11.455C18.7606 11.3938 18.7708 11.3121 18.7401 11.2407C18.7095 11.1693 18.6381 11.1182 18.5564 11.1182H17.8829V10.4447C17.8829 10.363 17.8319 10.2916 17.7604 10.261C17.689 10.2304 17.5971 10.2508 17.5461 10.3018L16.9134 10.9345C16.2398 10.4753 15.4234 10.21 14.5457 10.21C12.1985 10.21 10.29 12.1184 10.29 14.4656C10.29 16.0475 11.1677 17.4354 12.4536 18.1702L12.5029 18.2062C12.5029 18.2062 12.5703 18.2377 12.6121 18.2606C12.644 18.2781 12.6924 18.3077 12.6924 18.3077C12.6924 18.3077 12.7631 18.3449 12.81 18.3652C12.8495 18.3823 12.9128 18.4049 12.9128 18.4049C13.4129 18.609 13.9538 18.7315 14.5355 18.7315C15.107 18.7315 15.6581 18.6192 16.148 18.4151L16.3003 18.3363C16.3003 18.3363 16.3518 18.3088 16.3853 18.2921C16.4189 18.2752 16.4386 18.2675 16.4721 18.2503C16.5008 18.2356 16.5165 18.2266 16.5448 18.2112C16.5812 18.1914 16.6378 18.16 16.6378 18.16C17.9339 17.4354 18.8014 16.0475 18.8014 14.4656Z" fill="#006F7B"/>
<path d="M10.769 17.3103H5.47981C5.1396 17.3103 4.86523 17.0359 4.86523 16.6957L4.86536 4.935C4.86536 4.5965 5.13972 4.32227 5.47994 4.32227H7.41453V4.97425C7.41453 5.00805 7.41813 5.04732 7.42695 5.09354C7.43404 5.12747 7.44298 5.15953 7.45541 5.18972L5.70249 5.1896V16.4445H10.1792C10.3413 16.7562 10.5392 17.0467 10.7689 17.3102L10.769 17.3103Z" fill="#006F7B"/>
<path d="M15.8997 5.21284V9.99937C15.5968 9.88356 15.2797 9.80167 14.9519 9.75358V5.18972H13.1973C13.2133 5.15418 13.2257 5.11678 13.2329 5.07938C13.24 5.04732 13.2436 5.00805 13.2436 4.97425V4.32227H15.1765C15.4028 4.32227 15.6005 4.4433 15.7394 4.64645C15.8516 4.81208 15.8997 5.01338 15.8997 5.21296L15.8997 5.21284Z" fill="#006F7B"/>
<path d="M9.2026 6.79925H13.9319C14.0303 6.79925 14.1101 6.7196 14.1101 6.62106C14.1101 6.52265 14.0304 6.44287 13.9319 6.44287H9.2026C9.10419 6.44287 9.02441 6.52252 9.02441 6.62106C9.02441 6.71948 9.10406 6.79925 9.2026 6.79925Z" fill="#006F7B"/>
<path d="M13.9318 7.43164H11.0249C10.9265 7.43164 10.8467 7.51129 10.8467 7.60983C10.8467 7.70825 10.9263 7.78802 11.0249 7.78802H13.9318C14.0302 7.78802 14.11 7.70837 14.11 7.60983C14.1099 7.51141 14.0302 7.43164 13.9318 7.43164Z" fill="#006F7B"/>
<path d="M9.2026 7.78802H10.3017C10.4001 7.78802 10.4799 7.70837 10.4799 7.60983C10.4799 7.51141 10.4002 7.43164 10.3017 7.43164H9.2026C9.10419 7.43164 9.02441 7.51129 9.02441 7.60983C9.02441 7.70825 9.10406 7.78802 9.2026 7.78802Z" fill="#006F7B"/>
<path d="M13.9319 8.4209H9.2026C9.10419 8.4209 9.02441 8.50055 9.02441 8.59909C9.02441 8.6975 9.10406 8.77728 9.2026 8.77728H13.9319C14.0303 8.77728 14.1101 8.69763 14.1101 8.59909C14.1099 8.50067 14.0303 8.4209 13.9319 8.4209Z" fill="#006F7B"/>
<path d="M13.9318 9.41016H12.2729C12.1745 9.41016 12.0947 9.48981 12.0947 9.58835C12.0947 9.68676 12.1744 9.76654 12.2729 9.76654H13.9318C14.0302 9.76654 14.11 9.68689 14.11 9.58835C14.1098 9.48981 14.0302 9.41016 13.9318 9.41016Z" fill="#006F7B"/>
<path d="M11.3785 9.41016H9.2026C9.10419 9.41016 9.02441 9.48981 9.02441 9.58835C9.02441 9.68676 9.10406 9.76654 9.2026 9.76654H11.3785C11.4769 9.76654 11.5567 9.68689 11.5567 9.58835C11.5567 9.48981 11.4769 9.41016 11.3785 9.41016Z" fill="#006F7B"/>
<path d="M12.6552 3.26807H8.00263C7.87489 3.26807 7.77051 3.37257 7.77051 3.50018V4.97454C7.77051 4.98846 7.77287 5.00473 7.77511 5.01865C7.79573 5.11483 7.87986 5.18789 7.98249 5.18976H12.6755C12.7781 5.18789 12.8623 5.11483 12.8829 5.01865C12.8853 5.00473 12.8875 4.98846 12.8875 4.97454L12.8874 3.50018C12.8874 3.37257 12.783 3.26807 12.6552 3.26807ZM10.4855 4.68402H8.46693C8.36852 4.68402 8.28874 4.60437 8.28874 4.50583V4.02221C8.28874 3.9238 8.36839 3.84402 8.46693 3.84402C8.56535 3.84402 8.64512 3.92367 8.64512 4.02221V4.32764H10.4855C10.5839 4.32764 10.6637 4.40729 10.6637 4.50583C10.6636 4.60437 10.5839 4.68402 10.4855 4.68402ZM12.3692 4.50595C12.3692 4.60437 12.2895 4.68414 12.191 4.68414H11.3826C11.2842 4.68414 11.2044 4.60449 11.2044 4.50595C11.2044 4.40754 11.284 4.32776 11.3826 4.32776H12.0128V4.02233C12.0128 3.92391 12.0925 3.84414 12.191 3.84414C12.2894 3.84414 12.3692 3.92379 12.3692 4.02233L12.3692 4.50595Z" fill="#006F7B"/>
<path d="M7.98618 5.1902C7.98481 5.1902 7.9837 5.18945 7.98221 5.18945H7.9668C7.97388 5.19132 7.97922 5.19132 7.98643 5.19132H12.6715C12.6786 5.19132 12.6839 5.19132 12.6911 5.18945H12.6752C12.6738 5.18945 12.6727 5.1902 12.6712 5.1902H7.98618Z" fill="#006F7B"/>
<path d="M9.35644 15.6466C9.35644 15.7464 9.27629 15.8248 9.17825 15.8248L6.53463 15.8246C6.43659 15.8246 6.35645 15.7462 6.35645 15.6465C6.35645 15.5485 6.43659 15.4683 6.53463 15.4683H9.17825C9.27617 15.4684 9.35644 15.5487 9.35644 15.6466V15.6466Z" fill="#006F7B"/>
<path d="M6.38672 14.6489C6.38672 14.551 6.46513 14.4707 6.56491 14.4707H8.70977C8.80955 14.4707 8.88796 14.5508 8.88796 14.6489C8.88796 14.7469 8.80955 14.8271 8.70977 14.8271H6.56491C6.46513 14.8271 6.38672 14.7469 6.38672 14.6489Z" fill="#006F7B"/>
<path d="M8.32272 9.47002L8.8877 8.90505L8.718 8.73535L8.32273 9.13062V9.06027H6.40234V10.7406H8.32273L8.32272 9.47002ZM6.64238 10.5006V9.30033H8.08267V9.37068L7.36252 10.0908L6.96731 9.69561L6.79761 9.86531L7.36254 10.4302L8.08268 9.71008V10.5006L6.64238 10.5006Z" fill="#006F7B"/>
<path d="M8.27682 6.82354L8.8418 6.25856L8.6721 6.08887L8.27683 6.48414V6.41378H6.35645V8.09412H8.27683L8.27682 6.82354ZM6.59648 7.85409V6.65385H8.03677V6.7242L7.31663 7.44434L6.92141 7.04913L6.75172 7.21882L7.31664 7.78374L8.03678 7.0636V7.8541L6.59648 7.85409Z" fill="#006F7B"/>
<path d="M8.32272 11.9651L8.8877 11.4002L8.718 11.2305L8.32273 11.6257V11.5554H6.40234V13.2357H8.32273L8.32272 11.9651ZM6.64238 12.9957V11.7954H8.08267V11.8658L7.36252 12.5859L6.96731 12.1907L6.79761 12.3604L7.36254 12.9253L8.08268 12.2052V12.9957L6.64238 12.9957Z" fill="#006F7B"/>
</svg>
