<svg width="41" height="41" viewBox="0 0 41 41" fill="none" xmlns="http://www.w3.org/2000/svg">
<path d="M5.18587 21.7725C4.70872 21.7725 4.39062 22.0906 4.39062 22.5677V36.8822C4.39062 37.3593 4.70872 37.6774 5.18587 37.6774H11.1502C11.6274 37.6774 11.9455 37.3593 11.9455 36.8822V35.5303L22.4428 36.246C22.6813 36.246 22.8404 36.246 23.079 36.246C25.3057 36.246 27.4528 35.4507 29.1228 34.0193L35.5644 28.6911C36.2006 28.214 36.5187 27.4982 36.5982 26.703C36.6777 25.9078 36.3596 25.192 35.8825 24.5558C35.0077 23.6015 33.4967 23.363 32.3834 23.9992L27.8504 26.6235C27.6914 25.3511 26.6576 24.3968 25.3057 24.3968H22.2042L21.1704 23.6015C19.5003 22.2496 17.1146 21.9315 15.1265 22.8858L11.9455 24.3968V22.5677C11.9455 22.0906 11.6274 21.7725 11.1502 21.7725H5.18587ZM10.355 36.0869H5.98112V23.363H10.355V36.0869ZM15.7627 24.3173C17.1941 23.6015 18.8641 23.8401 20.1365 24.7944L21.3294 25.7487C21.4885 25.8282 21.6475 25.9078 21.8066 25.9078H25.2261C25.7828 25.9078 26.1804 26.3054 26.1804 26.8621C26.1804 27.4187 25.7828 27.8163 25.2261 27.8163H19.3413C18.8641 27.8163 18.546 28.1344 18.546 28.6116C18.546 29.0887 18.8641 29.4068 19.3413 29.4068H25.2261C25.7828 29.4068 26.26 29.2478 26.7371 28.9297L33.0991 25.2716C33.6558 24.9535 34.292 25.1125 34.6896 25.5101C34.9282 25.7487 35.0077 26.0668 35.0077 26.4644C35.0077 26.7825 34.8486 27.1006 34.5305 27.3392L28.089 32.6674C26.4985 33.9398 24.5104 34.6555 22.5223 34.4964L11.9455 33.7807V25.9873L15.7627 24.3173Z" fill="#4DA07D"/>
<path d="M11.6274 9.60497C11.6274 9.68449 11.7069 9.76402 11.7069 9.84355V9.92307L22.4428 21.8518C22.4428 21.8518 22.4428 21.8518 22.5223 21.8518C22.6018 21.9313 22.6018 21.9313 22.6813 22.0108H22.7609C22.8404 22.0108 22.9199 22.0904 23.079 22.0904C23.238 22.0904 23.238 22.0904 23.3971 22.0108H23.4766C23.5561 22.0108 23.6356 21.9313 23.6356 21.8518C23.6356 21.8518 23.6356 21.8518 23.7151 21.8518L34.451 10.0026C34.61 9.84354 34.6896 9.6845 34.6896 9.44592C34.6896 9.28687 34.6896 9.20735 34.6101 9.0483L33.0196 3.87918C32.94 3.56108 32.6219 3.32251 32.2243 3.32251H26.2599H19.898H13.9336C13.6155 3.32251 13.2974 3.56108 13.1383 3.87918L11.5479 9.20735V9.28687C11.5479 9.3664 11.5479 9.44592 11.5479 9.52545C11.6274 9.52545 11.6274 9.52544 11.6274 9.60497ZM28.0095 10.2412H32.1448L25.2261 17.796L28.0095 10.2412ZM23.1585 18.9889L19.9775 10.2412H26.2599L23.1585 18.9889ZM18.3075 10.2412L21.0113 17.796L14.1722 10.2412H18.3075ZM32.8605 8.65067H28.089L27.2938 4.91301H31.6676L32.8605 8.65067ZM25.7033 4.91301L26.4985 8.65067H19.898L20.6932 4.91301H25.7033ZM14.5698 4.91301H18.9437L18.1484 8.65067H13.3769L14.5698 4.91301Z" fill="#4DA07D"/>
</svg>
