<svg width="17" height="17" viewBox="0 0 17 17" fill="none" xmlns="http://www.w3.org/2000/svg">
<path d="M13.8204 12.8176C14.4953 11.8075 14.8958 10.6393 14.9824 9.42758C14.986 9.36254 14.9761 9.29747 14.9534 9.23643C14.9306 9.17539 14.8956 9.11971 14.8503 9.07286C14.8051 9.02602 14.7506 8.98902 14.6904 8.96419C14.6302 8.93936 14.5655 8.92724 14.5004 8.92858H8.50038C8.36777 8.92858 8.24059 8.8759 8.14683 8.78213C8.05306 8.68836 8.00038 8.56119 8.00038 8.42858V2.42858C8.00173 2.36337 7.98958 2.29859 7.96469 2.2383C7.9398 2.17802 7.90271 2.12353 7.85576 2.07827C7.8088 2.033 7.75299 1.99794 7.69183 1.97527C7.63068 1.95261 7.56549 1.94284 7.50038 1.94658C6.31524 2.03138 5.17119 2.41646 4.17598 3.06554C3.18078 3.71463 2.36717 4.60635 1.81178 5.65673C1.2564 6.70711 0.977521 7.88157 1.00142 9.0695C1.02531 10.2574 1.35119 11.4197 1.94837 12.4469C2.54554 13.4741 3.39435 14.3324 4.41486 14.9409C5.43536 15.5495 6.59397 15.8882 7.78156 15.9253C8.96915 15.9624 10.1466 15.6966 11.2031 15.1529C12.2596 14.6092 13.1603 13.8055 13.8204 12.8176V12.8176Z" stroke="#006F7B" stroke-width="1.5"/>
<path d="M15 6.92863C15.552 6.92863 16.009 6.47863 15.917 5.93363C15.7101 4.70332 15.1249 3.56809 14.2427 2.68592C13.3605 1.80375 12.2253 1.2185 10.995 1.01163C10.451 0.920628 10 1.37663 10 1.92863V5.92863C10 6.19384 10.1054 6.4482 10.2929 6.63573C10.4804 6.82327 10.7348 6.92863 11 6.92863H15Z" stroke="#006F7B" stroke-width="1.5"/>
</svg>
