<svg width="16" height="18" viewBox="0 0 16 18" fill="none" xmlns="http://www.w3.org/2000/svg">
<path d="M1.26207 12.329L1.74807 13.171C1.84552 13.3408 1.97548 13.4897 2.13051 13.6093C2.28554 13.7288 2.46261 13.8166 2.6516 13.8677C2.84059 13.9188 3.03779 13.9321 3.23193 13.9069C3.42608 13.8818 3.61336 13.8186 3.78307 13.721C3.95144 13.6219 4.13771 13.5569 4.33122 13.5298C4.52473 13.5027 4.72167 13.5141 4.91078 13.5632C5.0999 13.6124 5.27746 13.6983 5.43332 13.8162C5.58917 13.934 5.72026 14.0814 5.81907 14.25C5.94707 14.466 6.01607 14.713 6.01907 14.964C6.01332 15.1637 6.04768 15.3624 6.12014 15.5486C6.19259 15.7347 6.30165 15.9044 6.44086 16.0476C6.58008 16.1908 6.74662 16.3047 6.93062 16.3824C7.11462 16.4601 7.31234 16.5001 7.51207 16.5H8.49107C8.68672 16.4999 8.88042 16.4611 9.06105 16.3859C9.24169 16.3108 9.40569 16.2007 9.54367 16.0619C9.68164 15.9232 9.79086 15.7586 9.86507 15.5776C9.93927 15.3966 9.97699 15.2026 9.97607 15.007C9.98185 14.6149 10.1417 14.2407 10.4211 13.9655C10.7004 13.6902 11.0769 13.536 11.4691 13.536C11.7211 13.538 11.9671 13.607 12.1831 13.736C12.5261 13.9326 12.9331 13.9851 13.3148 13.882C13.6965 13.7789 14.0217 13.5286 14.2191 13.186L14.7401 12.329C14.9373 11.9869 14.991 11.5807 14.8895 11.1991C14.7879 10.8175 14.5393 10.4917 14.1981 10.293C13.9711 10.162 13.7826 9.97349 13.6516 9.74652C13.5205 9.51955 13.4515 9.26208 13.4515 9C13.4515 8.73792 13.5205 8.48045 13.6516 8.25348C13.7826 8.02651 13.9711 7.83803 14.1981 7.707C14.9081 7.297 15.1501 6.389 14.7411 5.679L14.2481 4.829C14.1528 4.65693 14.0244 4.5054 13.8704 4.38309C13.7163 4.26079 13.5396 4.17013 13.3504 4.11633C13.1612 4.06253 12.9633 4.04664 12.7679 4.06958C12.5726 4.09252 12.3837 4.15383 12.2121 4.25C12.0434 4.3484 11.8569 4.41242 11.6634 4.43838C11.4698 4.46433 11.2731 4.4517 11.0844 4.40122C10.8958 4.35074 10.719 4.2634 10.5643 4.14425C10.4096 4.0251 10.28 3.87649 10.1831 3.707C10.0547 3.49076 9.98571 3.24446 9.98307 2.993C9.98307 2.168 9.31507 1.5 8.49107 1.5H7.51107C6.69107 1.5 6.02307 2.164 6.01907 2.986C6.02013 3.18236 5.98224 3.37698 5.90758 3.5586C5.83293 3.74022 5.723 3.90523 5.58415 4.04408C5.4453 4.18292 5.28029 4.29286 5.09867 4.36751C4.91705 4.44217 4.72243 4.48006 4.52607 4.479C4.27522 4.47225 4.02993 4.40355 3.81207 4.279C3.47001 4.08174 3.06373 4.02803 2.68216 4.1296C2.30058 4.23118 1.97479 4.47978 1.77607 4.821L1.26207 5.679C1.16367 5.84816 1.09964 6.03509 1.07368 6.22907C1.04772 6.42304 1.06033 6.62023 1.11078 6.80931C1.16123 6.9984 1.24854 7.17566 1.36769 7.33091C1.48683 7.48616 1.63547 7.61635 1.80507 7.714C1.9748 7.81165 2.12356 7.94188 2.24279 8.09721C2.36203 8.25254 2.44939 8.42991 2.49985 8.61911C2.55031 8.80832 2.56287 9.00563 2.53683 9.1997C2.51078 9.39378 2.44663 9.5808 2.34807 9.75C2.21807 9.976 2.03107 10.163 1.80507 10.293C1.46584 10.4915 1.21857 10.8158 1.11692 11.1954C1.01526 11.5751 1.06742 11.9795 1.26207 12.321V12.329V12.329Z" stroke="#006F7B" stroke-width="1.5" stroke-linecap="round" stroke-linejoin="round"/>
<path d="M8.04441 7.14697C7.80107 7.14697 7.56011 7.1949 7.33529 7.28802C7.11048 7.38115 6.9062 7.51764 6.73414 7.6897C6.56207 7.86177 6.42558 8.06604 6.33246 8.29086C6.23934 8.51568 6.19141 8.75663 6.19141 8.99997C6.19141 9.24331 6.23934 9.48427 6.33246 9.70908C6.42558 9.9339 6.56207 10.1382 6.73414 10.3102C6.9062 10.4823 7.11048 10.6188 7.33529 10.7119C7.56011 10.805 7.80107 10.853 8.04441 10.853C8.53585 10.853 9.00717 10.6577 9.35468 10.3102C9.70218 9.96274 9.89741 9.49142 9.89741 8.99997C9.89741 8.50853 9.70218 8.03721 9.35468 7.6897C9.00717 7.3422 8.53585 7.14697 8.04441 7.14697Z" stroke="#006F7B" stroke-width="1.5" stroke-linecap="round" stroke-linejoin="round"/>
</svg>
