<svg width="16" height="19" viewBox="0 0 16 19" fill="none" xmlns="http://www.w3.org/2000/svg">
<path d="M8 1.70068C6.73154 1.70068 5.51503 2.20458 4.61809 3.10152C3.72115 3.99846 3.21725 5.21497 3.21725 6.48343V8.39653C3.21725 9.1216 2.79446 9.83614 2.25592 10.3211C1.82387 10.7091 1.5197 11.2191 1.38362 11.7837C1.24753 12.3482 1.28593 12.9407 1.49373 13.483C1.70154 14.0253 2.06897 14.4917 2.54749 14.8207C3.02601 15.1498 3.59309 15.3259 4.1738 15.3258H11.8262C12.4069 15.3259 12.974 15.1498 13.4525 14.8207C13.931 14.4917 14.2985 14.0253 14.5063 13.483C14.7141 12.9407 14.7525 12.3482 14.6164 11.7837C14.4803 11.2191 14.1761 10.7091 13.7441 10.3211C13.2055 9.83614 12.7827 9.1216 12.7827 8.39653V6.48343C12.7827 5.21497 12.2789 3.99846 11.3819 3.10152C10.485 2.20458 9.26846 1.70068 8 1.70068V1.70068Z" stroke="#006F7B" stroke-width="1.5"/>
<path d="M10.2865 17.8799L10.2454 17.8894C8.77775 18.2495 7.24442 18.2462 5.77832 17.8799" stroke="#006F7B" stroke-width="1.5" stroke-linecap="round"/>
<path fill-rule="evenodd" clip-rule="evenodd" d="M8.71602 7.5282C8.71602 7.33793 8.64043 7.15546 8.50589 7.02092C8.37135 6.88638 8.18887 6.81079 7.9986 6.81079C7.80833 6.81079 7.62586 6.88638 7.49132 7.02092C7.35678 7.15546 7.28119 7.33793 7.28119 7.5282V8.86833H5.94202C5.75175 8.86833 5.56927 8.94391 5.43473 9.07845C5.30019 9.213 5.22461 9.39547 5.22461 9.58574C5.22461 9.77601 5.30019 9.95849 5.43473 10.093C5.56927 10.2276 5.75175 10.3032 5.94202 10.3032H7.28119V11.6433C7.28119 11.8335 7.35678 12.016 7.49132 12.1506C7.62586 12.2851 7.80833 12.3607 7.9986 12.3607C8.18887 12.3607 8.37135 12.2851 8.50589 12.1506C8.64043 12.016 8.71602 11.8335 8.71602 11.6433V10.3041H10.0552C10.2455 10.3041 10.4279 10.2285 10.5625 10.094C10.697 9.95944 10.7726 9.77697 10.7726 9.5867C10.7726 9.39643 10.697 9.21395 10.5625 9.07941C10.4279 8.94487 10.2455 8.86929 10.0552 8.86929H8.71602V7.5282Z" fill="#006F7B"/>
</svg>
